<svg width="58" height="44" viewBox="0 0 58 44" fill="none" xmlns="http://www.w3.org/2000/svg">
<path fill-rule="evenodd" clip-rule="evenodd" d="M54.2647 43.4118C54.2647 43.4118 57.8824 43.4118 57.8824 39.7941C57.8824 36.1765 54.2647 25.3235 39.7941 25.3235C25.3235 25.3235 21.7059 36.1765 21.7059 39.7941C21.7059 43.4118 25.3235 43.4118 25.3235 43.4118H54.2647ZM25.3416 39.9967V39.9895V39.9967ZM25.4031 39.7941H54.1851C54.2021 39.7921 54.2189 39.7897 54.2358 39.7869L54.2647 39.7796C54.2575 38.8246 53.6606 36.0535 51.5153 33.5573C49.5184 31.2167 46.0092 28.9412 39.7941 28.9412C33.5826 28.9412 30.0735 31.2203 28.0729 33.5573C25.9277 36.0535 25.3271 38.8282 25.3235 39.7796C25.35 39.7848 25.3765 39.7896 25.4031 39.7941ZM54.2466 39.9967V39.9895V39.9967ZM39.7941 18.0882C41.713 18.0882 43.5534 17.3259 44.9102 15.9691C46.2671 14.6122 47.0294 12.7719 47.0294 10.8529C47.0294 8.93402 46.2671 7.0937 44.9102 5.73682C43.5534 4.37993 41.713 3.61765 39.7941 3.61765C37.8752 3.61765 36.0349 4.37993 34.678 5.73682C33.3211 7.0937 32.5588 8.93402 32.5588 10.8529C32.5588 12.7719 33.3211 14.6122 34.678 15.9691C36.0349 17.3259 37.8752 18.0882 39.7941 18.0882ZM50.6471 10.8529C50.6471 12.2782 50.3663 13.6894 49.8209 15.0062C49.2755 16.3229 48.4761 17.5193 47.4683 18.5271C46.4605 19.5349 45.2641 20.3343 43.9474 20.8798C42.6306 21.4252 41.2193 21.7059 39.7941 21.7059C38.3689 21.7059 36.9576 21.4252 35.6409 20.8798C34.3241 20.3343 33.1277 19.5349 32.1199 18.5271C31.1121 17.5193 30.3127 16.3229 29.7673 15.0062C29.2219 13.6894 28.9412 12.2782 28.9412 10.8529C28.9412 7.97456 30.0846 5.21407 32.1199 3.17875C34.1553 1.14343 36.9157 0 39.7941 0C42.6725 0 45.433 1.14343 47.4683 3.17875C49.5036 5.21407 50.6471 7.97456 50.6471 10.8529ZM25.092 26.3365C23.6449 25.8808 22.1532 25.5812 20.6423 25.4429C19.7933 25.3622 18.941 25.3223 18.0882 25.3235C3.61765 25.3235 0 36.1765 0 39.7941C0 42.2071 1.20468 43.4118 3.61765 43.4118H18.8696C18.3334 42.2824 18.0659 41.0442 18.0882 39.7941C18.0882 36.1403 19.4521 32.4069 22.0315 29.2885C22.9106 28.2249 23.9344 27.23 25.092 26.3365ZM17.7988 28.9412C11.7646 29.0135 8.33868 31.2565 6.36706 33.5573C4.20732 36.0679 3.61765 38.8499 3.61765 39.7941H14.4706C14.4706 36.0137 15.6391 32.2477 17.7988 28.9412ZM5.42647 12.6618C5.42647 9.78339 6.5699 7.0229 8.60522 4.98758C10.6405 2.95226 13.401 1.80882 16.2794 1.80882C19.1578 1.80882 21.9183 2.95226 23.9536 4.98758C25.9889 7.0229 27.1324 9.78339 27.1324 12.6618C27.1324 15.5401 25.9889 18.3006 23.9536 20.336C21.9183 22.3713 19.1578 23.5147 16.2794 23.5147C13.401 23.5147 10.6405 22.3713 8.60522 20.336C6.5699 18.3006 5.42647 15.5401 5.42647 12.6618ZM16.2794 5.42647C14.3605 5.42647 12.5202 6.18876 11.1633 7.54564C9.80641 8.90252 9.04412 10.7428 9.04412 12.6618C9.04412 14.5807 9.80641 16.421 11.1633 17.7779C12.5202 19.1348 14.3605 19.8971 16.2794 19.8971C18.1983 19.8971 20.0387 19.1348 21.3955 17.7779C22.7524 16.421 23.5147 14.5807 23.5147 12.6618C23.5147 10.7428 22.7524 8.90252 21.3955 7.54564C20.0387 6.18876 18.1983 5.42647 16.2794 5.42647Z" fill="#B8860B"/>
</svg>
