<svg width="56" height="51" viewBox="0 0 56 51" fill="none" xmlns="http://www.w3.org/2000/svg">
<path d="M48.3636 0C50.3889 0 52.3313 0.80598 53.7634 2.24063C55.1955 3.67529 56 5.62109 56 7.65V12.75H50.9091V43.35C50.9091 45.3789 50.1045 47.3247 48.6725 48.7594C47.2404 50.194 45.298 51 43.2727 51H7.63636C5.61107 51 3.66874 50.194 2.23664 48.7594C0.804543 47.3247 0 45.3789 0 43.35V38.25H40.7273V43.35C40.7274 43.9746 40.9563 44.5774 41.3705 45.0441C41.7848 45.5109 42.3557 45.8091 42.9749 45.8821L43.2727 45.9C43.8962 45.8999 44.4979 45.6706 44.9639 45.2556C45.4298 44.8405 45.7274 44.2686 45.8004 43.6483L45.8182 43.35V5.1H12.7273C12.1038 5.10008 11.5021 5.32939 11.0361 5.74442C10.5702 6.15946 10.2726 6.73136 10.1996 7.35165L10.1818 7.65V33.15H5.09091V7.65C5.09091 5.62109 5.89545 3.67529 7.32755 2.24063C8.75964 0.80598 10.702 0 12.7273 0H48.3636Z" fill="#B8860B"/>
</svg>
