<svg width="50" height="47" viewBox="0 0 50 47" fill="none" xmlns="http://www.w3.org/2000/svg">
<path d="M40 12.0863V2.09943C39.9988 1.54338 39.7791 1.0104 39.389 0.617004C38.9988 0.223603 38.4699 0.00177339 37.9178 0H12.0844C11.5324 0.00118027 11.0032 0.222442 10.6126 0.615423C10.222 1.0084 10.0018 1.54114 10 2.0972V12.0841L0 19.2776V47H50V19.2776L40 12.0863ZM45.5911 20.2333L40 23.9152V16.2113L45.5911 20.2333ZM13.3333 3.3573H36.6667V26.1109L30.7111 30.0322L25.86 27.4985L20.5711 30.0702L13.3333 25.6431V3.3573ZM25.8067 31.2543L46.6667 42.1476V43.6449H3.33333V42.1812L25.8067 31.2543ZM3.33333 23.4564L16.9933 31.8093L3.33333 38.4523V23.4564ZM34.1089 31.8071L46.6667 23.5369V38.365L34.1089 31.8071ZM10 16.2113V23.6063L4.44444 20.2087L10 16.2113Z" fill="#B8860B"/>
</svg>
