<svg width="44" height="40" viewBox="0 0 44 40" fill="none" xmlns="http://www.w3.org/2000/svg">
<path d="M41.4545 5.09091H33.4545V0H30.5455V5.09091H13.0909V0H10.1818V5.09091H2.18182C1.60348 5.09193 1.04912 5.32213 0.640172 5.73108C0.231224 6.14003 0.00102543 6.69439 0 7.27273V37.8182C0.00102543 38.3965 0.231224 38.9509 0.640172 39.3598C1.04912 39.7688 1.60348 39.999 2.18182 40H41.4545C42.0329 39.999 42.5872 39.7688 42.9962 39.3598C43.4051 38.9509 43.6353 38.3965 43.6364 37.8182V7.27273C43.6353 6.69439 43.4051 6.14003 42.9962 5.73108C42.5872 5.32213 42.0329 5.09193 41.4545 5.09091ZM40.7273 37.0909H2.90909V8H10.1818V11.6364H13.0909V8H30.5455V11.6364H33.4545V8H40.7273V37.0909Z" fill="#BEB3AA"/>
<path d="M8.72754 16.7275H11.6366V19.6366H8.72754V16.7275Z" fill="#BEB3AA"/>
<path d="M16.7275 16.7275H19.6366V19.6366H16.7275V16.7275Z" fill="#BEB3AA"/>
<path d="M24 16.7275H26.9091V19.6366H24V16.7275Z" fill="#BEB3AA"/>
<path d="M32 16.7275H34.9091V19.6366H32V16.7275Z" fill="#BEB3AA"/>
<path d="M8.72754 23.2725H11.6366V26.1816H8.72754V23.2725Z" fill="#BEB3AA"/>
<path d="M16.7275 23.2725H19.6366V26.1816H16.7275V23.2725Z" fill="#BEB3AA"/>
<path d="M24 23.2725H26.9091V26.1816H24V23.2725Z" fill="#BEB3AA"/>
<path d="M32 23.2725H34.9091V26.1816H32V23.2725Z" fill="#BEB3AA"/>
<path d="M8.72754 29.8184H11.6366V32.7275H8.72754V29.8184Z" fill="#BEB3AA"/>
<path d="M16.7275 29.8184H19.6366V32.7275H16.7275V29.8184Z" fill="#BEB3AA"/>
<path d="M24 29.8184H26.9091V32.7275H24V29.8184Z" fill="#BEB3AA"/>
<path d="M32 29.8184H34.9091V32.7275H32V29.8184Z" fill="#BEB3AA"/>
</svg>
