<svg width="52" height="54" viewBox="0 0 52 54" fill="none" xmlns="http://www.w3.org/2000/svg">
<g clip-path="url(#clip0)">
<path d="M48.4045 5.84955H3.59544C2.03919 5.84955 0.804932 7.09529 0.804932 8.666V13.324C0.804932 14.8947 2.03919 16.1404 3.59544 16.1404H48.4045C49.9608 16.1404 51.195 14.8947 51.195 13.324V8.666C51.195 7.14945 49.9071 5.84955 48.4045 5.84955Z" fill="#FFBA40"/>
<path d="M51.195 16.1404H0.804932V19.661H51.195V16.1404Z" fill="#FFE17C"/>
<path d="M26.2951 29.4644C18.031 21.2859 4.34674 34.2849 25.2219 45.9839C25.9195 46.3631 26.7245 46.3631 27.4221 45.9839C48.1899 34.2849 34.5593 21.2859 26.2951 29.4644Z" fill="#FD6064"/>
<path d="M21.5728 27.0812C14.0062 25.4022 7.13725 36.1264 24.6852 45.984C24.8999 46.0923 25.1682 46.2006 25.3829 46.2548C12.9866 37.4263 15.9381 28.4353 21.5728 27.0812Z" fill="#F0484A"/>
<path d="M24.8462 46.6339C25.2755 46.9047 25.8122 47.013 26.2952 47.013C26.7781 47.013 27.3148 46.9047 27.7441 46.6339C31.7688 44.3591 34.8277 41.9218 36.7595 39.322C38.4768 37.0471 39.2817 34.664 39.1207 32.4975C38.9061 29.8435 37.2425 27.5687 34.7203 26.6479C31.9298 25.5647 28.7637 26.2688 26.2415 28.4353C23.9876 26.4855 21.1434 25.7272 18.5676 26.3771C18.1383 26.4855 17.9236 26.9188 18.031 27.2979C18.1383 27.7312 18.5676 27.9478 18.9432 27.8395C21.2508 27.2437 23.7193 28.002 25.7049 30.006C26.0268 30.2768 26.4561 30.2768 26.7781 30.006C28.9783 27.8395 31.7152 27.1354 34.1837 28.0562C36.1693 28.8144 37.4572 30.4935 37.5645 32.6058C37.7255 34.5557 36.9742 39.7011 26.9928 45.2798C26.5635 45.5507 25.9732 45.5507 25.5439 45.2798C16.904 40.4052 15.1868 35.9097 14.9721 33.6891C14.7575 31.8475 15.4014 30.2227 16.6894 29.0853C17.0114 28.8144 17.0114 28.327 16.743 28.002C16.4747 27.677 15.9917 27.677 15.6698 27.9478C14.0062 29.4102 13.2012 31.5767 13.4696 33.9057C13.9525 38.2387 17.9773 42.7884 24.8462 46.6339Z" fill="black"/>
<path d="M47.3849 5.36209H4.61505C2.52217 5.36209 0.804932 7.09529 0.804932 9.20763V49.2879C0.804932 51.4002 2.52217 53.1334 4.61505 53.1334H47.3849C49.4778 53.1334 51.195 51.4002 51.195 49.2879V9.20763C51.195 7.09529 49.4778 5.36209 47.3849 5.36209Z" stroke="black" stroke-width="3" stroke-miterlimit="10"/>
<path d="M0.804932 16.1404H50.4437" stroke="black" stroke-width="3" stroke-miterlimit="10"/>
<path d="M0.804932 19.661H50.4437" stroke="black" stroke-width="3" stroke-miterlimit="10"/>
<path d="M6.97626 37.8054C8.30995 37.8054 9.39112 36.7142 9.39112 35.3681C9.39112 34.022 8.30995 32.9308 6.97626 32.9308C5.64257 32.9308 4.5614 34.022 4.5614 35.3681C4.5614 36.7142 5.64257 37.8054 6.97626 37.8054Z" fill="#FD6064" stroke="black" stroke-width="3" stroke-miterlimit="10"/>
<path d="M44.9164 37.8054C46.2501 37.8054 47.3313 36.7142 47.3313 35.3681C47.3313 34.022 46.2501 32.9308 44.9164 32.9308C43.5828 32.9308 42.5016 34.022 42.5016 35.3681C42.5016 36.7142 43.5828 37.8054 44.9164 37.8054Z" fill="#FD6064" stroke="black" stroke-width="3" stroke-miterlimit="10"/>
<path d="M10.8937 9.91174H8.53254C7.88858 9.91174 7.29828 9.37011 7.29828 8.666V2.05818C7.29828 1.40823 7.83491 0.812439 8.53254 0.812439H10.8937C11.5377 0.812439 12.128 1.35406 12.128 2.05818V8.666C12.128 9.37011 11.5914 9.91174 10.8937 9.91174Z" fill="#FFBA40" stroke="black" stroke-width="3" stroke-miterlimit="10"/>
<path d="M21.4118 9.91174H19.0506C18.4066 9.91174 17.8163 9.37011 17.8163 8.666V2.05818C17.8163 1.40823 18.353 0.812439 19.0506 0.812439H21.4118C22.0558 0.812439 22.6461 1.35406 22.6461 2.05818V8.666C22.5924 9.37011 22.0558 9.91174 21.4118 9.91174Z" fill="#FFBA40" stroke="black" stroke-width="3" stroke-miterlimit="10"/>
<path d="M31.8762 9.91174H29.515C28.871 9.91174 28.2807 9.37011 28.2807 8.666V2.05818C28.2807 1.40823 28.8173 0.812439 29.515 0.812439H31.8762C32.5201 0.812439 33.1104 1.35406 33.1104 2.05818V8.666C33.1104 9.37011 32.5738 9.91174 31.8762 9.91174Z" fill="#FFBA40" stroke="black" stroke-width="3" stroke-miterlimit="10"/>
<path d="M42.3942 9.91174H40.033C39.3891 9.91174 38.7988 9.37011 38.7988 8.666V2.05818C38.7988 1.40823 39.3354 0.812439 40.033 0.812439H42.3942C43.0382 0.812439 43.6285 1.35406 43.6285 2.05818V8.666C43.5748 9.37011 43.0382 9.91174 42.3942 9.91174Z" fill="#FFBA40" stroke="black" stroke-width="3" stroke-miterlimit="10"/>
</g>
<defs>
<clipPath id="clip0">
<rect width="52" height="54" fill="white"/>
</clipPath>
</defs>
</svg>
