<svg width="97" height="57" viewBox="0 0 97 57" fill="none" xmlns="http://www.w3.org/2000/svg">
<g clip-path="url(#clip0)">
<path d="M88.3 1.5H8.6C4.7 1.5 1.5 4.7 1.5 8.6V48.4C1.5 52.3 4.7 55.5 8.6 55.5H88.3C92.2 55.5 95.4 52.3 95.4 48.4V8.6C95.4 4.7 92.2 1.5 88.3 1.5Z" fill="#FFE17C" stroke="black" stroke-width="3" stroke-miterlimit="10"/>
<path d="M48.4 43.4C56.629 43.4 63.3 36.729 63.3 28.5C63.3 20.271 56.629 13.6 48.4 13.6C40.171 13.6 33.5 20.271 33.5 28.5C33.5 36.729 40.171 43.4 48.4 43.4Z" fill="#FFBA40" stroke="black" stroke-width="3" stroke-miterlimit="10"/>
<path d="M23.6001 31.7C23.6001 32.6 23.4001 33.5 23.1001 34.2C22.8001 34.9 22.3001 35.6 21.7001 36.1C21.1001 36.6 20.4001 37.1 19.5001 37.4C18.6001 37.7 17.7001 37.9 16.7001 38L16.4001 41.5C16.4001 41.6 16.4001 41.7 16.3001 41.7C16.2001 41.7 16.2001 41.8 16.1001 41.9C16.0001 42 15.8001 42 15.7001 42C15.5001 42 15.3001 42 15.0001 42C14.7001 42 14.4001 42 14.2001 42C14.0001 42 13.8001 41.9 13.7001 41.9C13.6001 41.8 13.5001 41.8 13.5001 41.7C13.5001 41.6 13.5001 41.5 13.5001 41.4L13.8001 38.1C13.3001 38 12.9001 38 12.5001 37.8C12.1001 37.6 11.7001 37.6 11.4001 37.5C11.1001 37.4 10.8001 37.2 10.5001 37.1C10.3001 37 10.1001 36.8 10.0001 36.7C9.9001 36.6 9.8001 36.4 9.7001 36.2C9.6001 36 9.6001 35.6 9.6001 35.1C9.6001 34.7 9.6001 34.4 9.6001 34.2C9.6001 34 9.7001 33.8 9.7001 33.7C9.8001 33.6 9.8001 33.5 9.9001 33.4C10.0001 33.4 10.1001 33.3 10.2001 33.3C10.3001 33.3 10.5001 33.4 10.8001 33.5C11.1001 33.7 11.4001 33.8 11.8001 34C12.2001 34.2 12.7001 34.4 13.3001 34.5C13.9001 34.7 14.6001 34.7 15.4001 34.7C16.7001 34.7 17.6001 34.5 18.2001 34C18.8001 33.5 19.1001 32.9 19.1001 32.1C19.1001 31.6 19.0001 31.2 18.7001 30.8C18.4001 30.4 18.1001 30.2 17.6001 29.9C17.2001 29.6 16.7001 29.4 16.1001 29.2C15.5001 29 15.0001 28.8 14.4001 28.6C13.8001 28.4 13.2001 28.1 12.7001 27.8C12.2001 27.5 11.6001 27.1 11.2001 26.7C10.8001 26.3 10.4001 25.7 10.1001 25.1C10.0001 24.6 9.9001 23.9 9.9001 23C9.9001 22.2 10.0001 21.5 10.3001 20.8C10.6001 20.1 11.0001 19.6 11.5001 19.1C12.0001 18.6 12.6001 18.2 13.4001 17.9C14.1001 17.6 15.0001 17.4 15.9001 17.3L16.2001 14.1C16.2001 14 16.2001 13.9 16.3001 13.9C16.3001 13.8 16.4001 13.8 16.5001 13.7C16.6001 13.7 16.7001 13.6 16.9001 13.6C17.1001 13.6 17.3001 13.6 17.6001 13.6C17.9001 13.6 18.2001 13.6 18.4001 13.6C18.6001 13.6 18.8001 13.7 18.9001 13.7C19.0001 13.8 19.1001 13.8 19.1001 13.9C19.1001 14 19.1001 14.1 19.1001 14.2L18.8001 17.3C19.1001 17.3 19.4001 17.4 19.8001 17.5C20.1001 17.6 20.4001 17.7 20.7001 17.8C21.0001 17.9 21.3001 18 21.5001 18.1C21.7001 18.2 21.9001 18.3 22.0001 18.4C22.1001 18.5 22.2001 18.6 22.2001 18.7C22.2001 18.8 22.3001 18.9 22.3001 19C22.3001 19.1 22.3001 19.3 22.4001 19.5C22.4001 19.7 22.4001 19.9 22.4001 20.2C22.4001 20.5 22.4001 20.8 22.4001 21C22.4001 21.2 22.4001 21.4 22.3001 21.5C22.3001 21.6 22.2001 21.7 22.2001 21.7C22.1001 21.7 22.1001 21.8 22.0001 21.8C21.9001 21.8 21.7001 21.7 21.4001 21.6C21.1001 21.5 20.8001 21.3 20.4001 21.1C20.0001 20.9 19.6001 20.8 19.0001 20.6C18.5001 20.5 17.9001 20.4 17.3001 20.4C16.7001 20.4 16.3001 20.5 15.9001 20.6C15.5001 20.7 15.2001 20.9 14.9001 21.1C14.7001 21.3 14.5001 21.5 14.4001 21.8C14.3001 22.1 14.2001 22.4 14.2001 22.7C14.2001 23.2 14.3001 23.6 14.6001 24C14.9001 24.3 15.2001 24.6 15.7001 24.9C16.1001 25.1 16.7001 25.4 17.2001 25.6C17.8001 25.8 18.3001 26 18.9001 26.2C19.5001 26.4 20.1001 26.7 20.6001 27C21.2001 27.3 21.7001 27.7 22.1001 28.1C22.5001 28.5 22.9001 29.1 23.2001 29.7C23.5001 30.1 23.6001 30.9 23.6001 31.7Z" fill="black"/>
<path d="M86.3 31.7C86.3 32.6 86.1 33.5 85.8 34.2C85.5 34.9 85 35.6 84.4 36.1C83.8 36.6 83.1 37.1 82.2 37.4C81.3 37.7 80.4 37.9 79.4 38L79 41.5C79 41.6 79 41.7 78.9 41.7C78.8 41.7 78.8 41.8 78.7 41.9C78.6 42 78.5 42 78.3 42C78.1 42 77.9 42 77.6 42C77.3 42 77 42 76.8 42C76.6 42 76.4 41.9 76.3 41.9C76.2 41.8 76.1 41.8 76.1 41.7C76.1 41.6 76.1 41.5 76.1 41.4L76.4 38.1C75.9 38 75.5 38 75.1 37.8C74.7 37.6 74.3 37.6 74 37.5C73.7 37.4 73.4 37.2 73.1 37.1C72.9 37 72.7 36.8 72.6 36.7C72.5 36.6 72.4 36.4 72.3 36.2C72.2 36 72.2 35.6 72.2 35.1C72.2 34.7 72.2 34.4 72.2 34.2C72.2 34 72.3 33.8 72.3 33.7C72.4 33.6 72.4 33.5 72.5 33.4C72.6 33.4 72.7 33.3 72.8 33.3C72.9 33.3 73.1 33.4 73.4 33.5C73.7 33.7 74 33.8 74.4 34C74.8 34.2 75.3 34.4 75.9 34.5C76.5 34.7 77.2 34.7 78 34.7C79.3 34.7 80.2 34.5 80.8 34C81.4 33.5 81.7 32.9 81.7 32.1C81.7 31.6 81.6 31.2 81.3 30.8C81 30.4 80.7 30.2 80.2 29.9C79.8 29.6 79.3 29.4 78.7 29.2C78.1 29 77.6 28.8 77 28.6C76.4 28.4 75.8 28.1 75.3 27.8C74.8 27.5 74.2 27.1 73.8 26.7C73.4 26.3 73 25.7 72.7 25.1C72.4 24.5 72.3 23.7 72.3 22.8C72.3 22 72.4 21.3 72.7 20.6C73 19.9 73.4 19.4 73.9 18.9C74.4 18.4 75 18 75.8 17.7C76.5 17.4 77.4 17.2 78.3 17.1L78.6 13.9C78.6 13.8 78.6 13.7 78.7 13.7C78.7 13.6 78.8 13.6 78.9 13.5C79 13.5 79.1 13.4 79.3 13.4C79.5 13.4 79.7 13.4 80 13.4C80.3 13.4 80.6 13.4 80.8 13.4C81 13.4 81.2 13.5 81.3 13.5C81.4 13.6 81.5 13.6 81.5 13.7C81.5 13.8 81.5 13.9 81.5 14L81.2 17.1C81.5 17.1 81.8 17.2 82.2 17.3C82.5 17.4 82.8 17.5 83.1 17.6C83.4 17.7 83.7 17.8 83.9 17.9C84.1 18 84.3 18.1 84.4 18.2C84.5 18.3 84.6 18.4 84.6 18.5C84.6 18.6 84.7 18.7 84.7 18.8C84.7 18.9 84.7 19.1 84.8 19.3C84.8 19.5 84.8 19.7 84.8 20C84.8 20.3 84.8 20.6 84.8 20.8C84.8 21 84.8 21.2 84.7 21.3C84.7 21.4 84.6 21.5 84.6 21.5C84.5 21.5 84.5 21.6 84.4 21.6C84.3 21.6 84.1 21.5 83.8 21.4C83.5 21.3 83.2 21.1 82.8 20.9C82.4 20.7 82 20.6 81.4 20.4C80.9 20.3 80.3 20.2 79.7 20.2C79.1 20.2 78.7 20.3 78.3 20.4C77.9 20.5 77.6 20.7 77.3 20.9C77.1 21.1 76.9 21.3 76.8 21.6C76.7 21.9 76.6 22.2 76.6 22.5C76.6 23 76.7 23.4 77 23.8C77.3 24.1 77.6 24.4 78.1 24.7C78.5 24.9 79.1 25.2 79.6 25.4C80.2 25.6 80.7 25.8 81.3 26C81.9 26.2 82.5 26.5 83 26.8C83.6 27.1 84.1 27.5 84.5 27.9C84.9 28.3 85.3 28.9 85.6 29.5C86.1 30.1 86.3 30.9 86.3 31.7Z" fill="black"/>
</g>
<defs>
<clipPath id="clip0">
<rect width="96.9" height="57" fill="white"/>
</clipPath>
</defs>
</svg>
