<svg width="40" height="40" viewBox="0 0 40 40" fill="none" xmlns="http://www.w3.org/2000/svg">
<path d="M20 0C8.95536 0 0 8.95536 0 20C0 31.0446 8.95536 40 20 40C31.0446 40 40 31.0446 40 20C40 8.95536 31.0446 0 20 0ZM20 36.6071C10.8304 36.6071 3.39286 29.1696 3.39286 20C3.39286 10.8304 10.8304 3.39286 20 3.39286C29.1696 3.39286 36.6071 10.8304 36.6071 20C36.6071 29.1696 29.1696 36.6071 20 36.6071Z" fill="#BEB3AA"/>
<path d="M27.799 25.652L21.4329 21.0493V10.0002C21.4329 9.80378 21.2722 9.64307 21.0758 9.64307H18.9284C18.732 9.64307 18.5713 9.80378 18.5713 10.0002V22.2949C18.5713 22.4109 18.6249 22.5181 18.7186 22.585L26.1025 27.969C26.2633 28.085 26.4865 28.0493 26.6025 27.8931L27.8793 26.152C27.9954 25.9868 27.9597 25.7636 27.799 25.652Z" fill="#BEB3AA"/>
</svg>
