<svg width="97" height="93" viewBox="0 0 97 93" fill="none" xmlns="http://www.w3.org/2000/svg">
<g clip-path="url(#clip0)">
<path d="M51.6004 2.6998C49.8004 0.999805 47.0004 0.999805 45.2004 2.6998L1.40039 43.8998L48.4004 74.4998L95.4004 43.8998L51.6004 2.6998Z" fill="#FFBA40"/>
<path d="M5.70039 39.8999L1.40039 43.8999L33.2004 64.5999L37.4004 60.5999L5.70039 39.8999Z" fill="#F79E02"/>
<path d="M63.5998 64.5999L95.2998 43.8999L91.0998 39.8999L59.2998 60.5999L63.5998 64.5999Z" fill="#E6A73A"/>
<path d="M74.6 13.2002H22.1C19.9 13.2002 18 15.0002 18 17.3002V76.5002H78.6V17.2002C78.7 15.0002 76.9 13.2002 74.6 13.2002Z" fill="#EAEAF1"/>
<path d="M48.3996 53.3998C44.4996 49.4998 37.9996 55.6998 47.8996 61.1998C48.1996 61.3998 48.5996 61.3998 48.8996 61.1998C58.7996 55.5998 52.2996 49.4998 48.3996 53.3998Z" fill="#FD6064"/>
<path d="M48.3996 67.7L18.0996 48V76.4H78.6996V48L48.3996 67.7Z" fill="#CCCDD9"/>
<path d="M83.3004 65.0999L68.5004 61.3999L48.4004 74.4999L28.3004 61.3999L10.2004 64.0999L1.40039 86.3999C1.40039 88.8999 3.40039 90.8999 5.90039 90.8999H90.8004C93.3004 90.8999 95.3004 88.8999 95.3004 86.3999L83.3004 65.0999Z" fill="#FFE17C"/>
<path d="M1.40039 86.3999L28.3004 61.3999L1.40039 43.8999V86.3999Z" fill="#FFBA40"/>
<path d="M95.3 86.3999L68.5 61.3999L95.3 43.8999V86.3999Z" fill="#FFBA40"/>
<path d="M5.9 92.3H90.8C94.1 92.3 96.7 89.6 96.7 86.4V43.9C96.7 43.5 96.5 43.1 96.3 42.9L80.1 27.6V17.2C80.1 14.2 77.6 11.7 74.6 11.7H63.3L52.6 1.7C51.4 0.6 49.9 0 48.4 0C46.8 0 45.3 0.6 44.2 1.7L33.5 11.7H22.1C19.1 11.7 16.6 14.2 16.6 17.2V27.6L0.4 42.9C0.1 43.2 0 43.5 0 43.9V86.4C0 89.6 2.7 92.3 5.9 92.3ZM2.8 46.5L26 61.6L2.8 83.1V46.5ZM90.8 89.4H5.9C4.4 89.4 3.1 88.3 2.9 86.9L28.4 63.2L47.6 75.7C48.1 76 48.7 76 49.1 75.7L68.3 63.2L93.8 86.9C93.6 88.4 92.4 89.4 90.8 89.4ZM93.9 46.5V83.1L70.8 61.6L93.9 46.5ZM93.1 43.7L80.1 52.2V31.5L93.1 43.7ZM46.1 3.7C46.7 3.1 47.5 2.8 48.4 2.8C49.2 2.8 50 3.1 50.7 3.7L59.2 11.7H37.6L46.1 3.7ZM22.1 14.6H74.6C76.1 14.6 77.2 15.8 77.2 17.2V28.2V54L48.4 72.8L19.5 54V17.2C19.5 15.8 20.7 14.6 22.1 14.6ZM16.7 31.5V52.2L3.7 43.7L16.7 31.5Z" fill="black"/>
<path d="M28.2998 24.1001H68.4998" stroke="black" stroke-width="3" stroke-miterlimit="10" stroke-linecap="round"/>
<path d="M28.2998 31.5H68.4998" stroke="black" stroke-width="3" stroke-miterlimit="10" stroke-linecap="round"/>
<path d="M28.2998 38.8999H68.4998" stroke="black" stroke-width="3" stroke-miterlimit="10" stroke-linecap="round"/>
<path d="M28.2998 46.2002H68.4998" stroke="black" stroke-width="3" stroke-miterlimit="10" stroke-linecap="round"/>
</g>
<defs>
<clipPath id="clip0">
<rect width="96.8" height="92.3" fill="white"/>
</clipPath>
</defs>
</svg>
