<svg width="657" height="214" viewBox="0 0 657 214" fill="none" xmlns="http://www.w3.org/2000/svg">
<g clip-path="url(#clip0)">
<path d="M175.2 152.7L164.9 174.2L140.4 177.8L113.5 171.3L101.8 165.3L124 152.7L148 155.1L175.2 152.7Z" fill="#ECBD00"/>
<path d="M157.2 107L175.2 126L181.5 149.1L169.4 152.7L159.6 137.8L148.3 125.8L157.2 107Z" fill="#ECBD00"/>
<path d="M102.6 100.8L128.7 98.5L138.8 102L133.1 110.5L128.8 115.5L114.6 110.5L101.8 103.8L102.6 100.8Z" fill="#ECBD00"/>
<path d="M36.2 97.8L29.4 113.2L47.1 139L60.4 155.1L90.5 142.2L77.8 132.3L50.9 113.2L36.2 97.8Z" fill="#ECBD00"/>
<path d="M39.4 92.1L48.6 74.8H70.5L90.6 77.9C90.6 77.9 83.6 83.3 83.1 83.5C82.7 83.7 54.1 94.1 54.1 94.1L44 97.8L39.4 92.1Z" fill="#ECBD00"/>
<path d="M16.6 155.1L22.9 142.2L39.4 129.7L31.9 117.9L28 110.5L14.3 117.9L5.70001 137.8L9.30001 152.7L16.6 156.7V155.1Z" fill="#C5C5C5"/>
<path d="M146.3 97.8L155.7 115.5L138.8 139L113.5 155.1L84.6 171.4L56 177.8H33.5L16.6 171.3L9.20001 152.7L33.5 158.7L60.4 155.1L82.5 146.2L99.5 137.9C99.5 137.9 119.9 124.3 121.4 123.5C122.9 122.8 134.7 108.7 134.7 108.7L146.3 97.8Z" fill="#C5C5C5"/>
<path d="M48.6 96L90.5 80.6L110.7 77.8H130.2L142.7 86.9V98.5H128.6L98.2 102L79.8 110.6C79.8 110.6 61.1 119.3 60.3 117.8C59.5 116.2 48.6 106.9 48.6 106.9V96V96Z" fill="#C5C5C5"/>
<path d="M152.3 97.6L146.6 84.8C142.6 75.7 130.9 71 113.7 71.6C108.9 71.8 103.9 72.3 98.6 73.3C84.6 69.5 71.7 68 61.3 69C46 70.5 40.1 76.9 37.9 82L28.5 103C6.1 119.2 -4 136.2 1.5 148.6L11 170.1C14.8 178.7 25.4 183.4 41 183.4C41.9 183.4 42.9 183.4 43.9 183.3C59.2 182.8 77.6 178.2 95.8 170.3C112.8 176.8 129.6 180.4 143.3 180.4C143.4 180.4 143.5 180.4 143.5 180.4C159.1 180.4 169.7 175.7 173.5 167.1L183 145.5C188.8 132.6 176.8 114.2 152.3 97.6ZM98.7 82.5C99.1 82.5 99.5 82.4 99.8 82.3C120.2 78.6 134.9 81.3 138.1 88.4C138.8 90 138.9 92 138.5 94.1C127.6 91.8 112.6 93 96.3 97.3C95.9 97.4 95.6 97.4 95.3 97.6C86.9 99.9 78.3 102.9 69.6 106.7C66.3 108.2 63 109.7 59.8 111.4C55.7 107.6 52.5 103.9 50.1 100.4C54.5 98 59.1 95.7 63.9 93.6C76.4 88.1 88.3 84.5 98.7 82.5ZM114.8 103.9C114.3 103.7 113.9 103.5 113.4 103.3C121.4 102.1 128.7 102 134.6 102.9C133 105.4 130.9 107.9 128.4 110.5C124.1 108.1 119.5 105.9 114.8 103.9ZM121.3 117.2C114 123.4 105.1 129.2 95.1 134.5C84.8 129.6 75.4 123.9 67.6 117.9C69.5 117 71.5 116.1 73.4 115.2C81.3 111.7 89.3 108.9 96.9 106.8C101.6 108.4 106.4 110.3 111.1 112.3C114.6 113.9 118 115.5 121.3 117.2ZM46.3 85.6C48.3 81 55.9 77.8 67.9 77.8C70.9 77.8 74.2 78 77.7 78.4C72 80.3 66 82.6 60.2 85.2C55.4 87.3 50.7 89.6 46.1 92.1C45.5 89.6 45.5 87.4 46.3 85.6ZM36.7 107.7V107.6C36.7 107.5 36.8 107.3 36.9 107.2L39.7 100.9C39.7 101 39.8 101 39.8 101.1C39.9 101.2 39.9 101.3 40 101.4C43.2 107.5 48.6 114 56.1 120.5C56.2 120.5 56.2 120.6 56.3 120.6C64.2 127.4 73.9 133.9 84.7 139.6C84.6 139.7 84.4 139.7 84.3 139.8C78.6 142.3 73.1 144.4 67.7 146.2C57.6 139.8 49.3 132.8 43.7 126.1L43.6 126C37.6 118.6 35.1 112.1 36.7 107.7ZM56 149.4C42.6 152.7 31.1 153.4 22.9 152.1C26.4 146.7 32.1 140.9 39.4 135.1C43.9 140 49.5 144.8 56 149.4ZM13.9 149.1C12 148 10.7 146.5 10 144.9C7 138.1 13.9 126.8 27.6 115.5C28.5 119.1 30.3 123.3 33.6 128C24.6 135 17.9 142.2 13.9 149.1ZM94.5 160.9C94 161 93.5 161.3 93 161.6C75.5 169.2 58 173.7 43.5 174.2C30.7 174.6 21.7 171.8 19.4 166.5L16.6 160.2C21.6 161.6 27.5 162.2 34.3 161.9C50 161.3 69.1 156.5 87.8 148.2C106.6 139.9 123 129.2 134 117.9C138.8 113.1 142.3 108.3 144.7 103.7C144.7 103.7 144.8 103.7 144.8 103.8L147.5 110C149.8 115.3 145.9 123.9 136.9 133C132.5 137.5 127.2 141.8 121.2 146C121 146.1 120.8 146.3 120.6 146.4C113 151.7 104.1 156.7 94.5 160.9ZM161.5 149.2C154.7 150.3 145.5 150.1 134.4 147.9C137.8 145.2 140.9 142.4 143.6 139.6C145.2 138 146.7 136.4 148 134.8C153.9 139.6 158.5 144.5 161.5 149.2ZM165 163.6C161 172.6 137.8 174.6 107.7 164.9C113.7 161.8 119.3 158.5 124.5 155.1C142.2 159.6 157.2 160.3 167.8 157.4L165 163.6ZM174.5 142C173.8 143.6 172.5 145 170.5 146.1C166.8 139.9 161 133.4 153.3 127C156.1 122.1 157.5 117.4 157.5 113.1C162 116.9 165.9 120.8 168.8 124.5C174.4 131.6 176.4 137.8 174.5 142Z" fill="black"/>
<path d="M274.5 121.7C274.8 120.7 275.1 119.9 275.6 119.4C276.1 118.9 276.5 118.8 276.9 118.9C277.3 119 277.6 119.4 277.7 120C277.9 120.6 277.8 121.5 277.6 122.6C276.7 125.7 275.8 129.6 274.9 134.2C274 138.8 272.9 143.7 271.8 148.9C270.7 154 269.4 159.1 268.1 164.3C266.7 169.4 265.1 174 263.3 178.1C261.5 182.2 259.5 185.5 257.2 188C255 190.5 252.4 191.7 249.6 191.7C245.2 191.7 241.2 190.3 237.6 187.4C234 184.5 230.7 180.7 227.7 175.9C224.7 171.1 222.1 165.6 219.7 159.3C217.3 153 215.2 146.4 213.3 139.5C209.9 146.1 206.6 152.7 203.2 159.3C199.8 165.8 196.4 172.2 193 178.4C189.6 184.6 186.2 190.5 182.9 196.2C179.5 201.9 176.3 207.2 173.2 212.1C172.3 213.2 171.5 213.5 170.7 213C169.9 212.5 169.9 211.4 170.7 209.8C174.1 204.4 178 197.9 182.2 190.4C185.8 183.9 190.2 176 195.2 166.6C200.3 157.2 206 146.3 212.2 133.8C210.8 128.6 209.5 123.1 208.3 117.5C207.1 111.9 206 106.4 204.9 101C203.9 95.6 202.9 90.5 201.9 85.7C201 80.9 200 76.7 199.1 73C198.2 69.4 197.3 66.5 196.5 64.4C195.6 62.3 194.8 61.2 193.9 61.2C192.4 61.2 191.1 62 189.8 63.5C188.5 65 187.3 67 186.1 69.4C184.9 71.8 183.8 74.4 182.8 77.2C181.8 80 180.9 82.8 180.1 85.3C179.3 87.9 178.7 90.2 178.2 92.2C177.7 94.2 177.3 95.6 177 96.3C176.7 97.3 176.4 98.1 176 98.5C175.6 98.9 175.2 99.1 174.8 99C174.4 98.9 174.1 98.6 174 98C173.8 97.4 173.9 96.6 174.1 95.7C174.2 95.2 174.5 93.8 174.9 91.5C175.4 89.2 176 86.6 176.9 83.5C177.8 80.4 178.8 77.2 180.1 73.7C181.4 70.2 182.9 67 184.6 64.1C186.3 61.2 188.1 58.8 190.2 56.9C192.3 55 194.5 54 197 54C199.8 54 202.4 54.7 204.8 56.1C207.2 57.5 209.3 59.3 211.3 61.5C213.2 63.7 215 66.3 216.5 69.2C218 72.1 219.4 75 220.6 78.1C223.4 85.2 225.5 93.2 227.1 102.1C228.6 98.7 230.5 94.6 232.7 89.9C234.9 85.2 237.2 80.3 239.5 75.2C241.8 70.1 244.1 65.1 246.4 60.1C248.7 55.1 250.7 50.7 252.4 46.9C252.7 46.1 253 45.6 253.5 45.4C254 45.1 254.4 45.1 254.9 45.3C255.3 45.5 255.7 45.8 255.9 46.3C256.1 46.8 256.1 47.4 255.8 48C255.6 48.3 255.1 49.4 254.3 51.3C253.5 53.2 252.4 55.5 251.1 58.5C249.8 61.4 248.3 64.8 246.6 68.6C244.9 72.4 243 76.5 241 80.7C239 85 237 89.4 234.9 93.9C232.8 98.4 230.8 102.8 228.8 107.1C230.9 122.1 233.2 135.4 235.5 147.2C236.5 152.2 237.6 157.1 238.7 161.9C239.8 166.7 241 171 242.2 174.8C243.4 178.5 244.7 181.6 246.1 183.8C247.4 186.1 248.7 187.2 250 187.2C252.2 187.2 254.3 186 256.1 183.5C257.9 181 259.6 177.8 261.1 173.8C262.6 169.8 264 165.4 265.2 160.5C266.4 155.6 267.6 150.7 268.6 145.8C269.6 140.9 270.6 136.4 271.5 132.1C272.7 127.9 273.6 124.4 274.5 121.7Z" fill="black"/>
<path d="M317.5 121.5C317.7 120.9 318 120.5 318.3 120.3C318.7 120.1 319.1 120 319.5 120C319.9 120 320.2 120.2 320.4 120.5C320.6 120.8 320.7 121.1 320.6 121.7C320.1 123.2 319.3 125.6 318.2 128.7C317.1 131.8 315.8 135.2 314.2 138.9C312.6 142.6 310.8 146.4 308.8 150.3C306.8 154.2 304.5 157.8 302.1 161C299.6 164.2 297 166.8 294.3 168.8C291.5 170.8 288.7 171.8 285.7 171.8C283 171.8 280.6 170.9 278.4 169.1C276.2 167.3 274.3 165 272.7 162.3C271.1 159.5 269.9 156.5 269 153.1C268.1 149.7 267.7 146.5 267.7 143.4C267.7 140.3 267.9 136.9 268.2 133.1C268.5 129.4 269 125.7 269.4 122.1C269.9 118.5 270.3 115.3 270.6 112.4C270.9 109.5 271.1 107.2 271.1 105.7C271.1 104.1 272 102.9 273.7 102.3C275.5 101.7 277.4 101.7 279.5 102.4C281.6 103 283.5 104.4 285.3 106.5C287.1 108.6 287.9 111.4 287.9 115C287.9 117.1 287.7 119.6 287.3 122.7C286.9 125.8 286.5 129.1 286.2 132.5C285.9 135.9 285.6 139.4 285.4 142.8C285.2 146.2 285.3 149.4 285.7 152.2C286.1 155 286.8 157.3 287.9 159C289 160.7 290.6 161.6 292.7 161.6C294.3 161.6 296 160.8 297.7 159.2C299.4 157.6 301.1 155.5 302.7 153C304.3 150.5 305.9 147.6 307.5 144.5C309 141.4 310.5 138.4 311.8 135.4C313.1 132.4 314.2 129.7 315.2 127.3C316.2 124.8 317 122.9 317.5 121.5ZM276.9 89.6C280.3 91 283.5 91.5 283.6 91.5C284.2 91.6 284.9 91.4 285.4 91C285.5 90.9 287.9 88.8 290.1 85.9C300.9 71.4 284.9 63.6 279.1 72C269.6 67.9 260.1 83 276.9 89.6Z" fill="black"/>
<path d="M402.4 120.2C402.5 119.4 402.7 118.9 403 118.5C403.3 118.2 403.7 118 404 118C404.3 118 404.6 118.2 404.8 118.6C405 119 405.1 119.5 405 120.2C404.8 121.8 404.5 124.4 404 127.8C403.5 131.2 402.8 135.1 402.1 139.6C401.3 144.1 400.4 148.9 399.4 154.1C398.4 159.3 397.2 164.5 395.8 169.7C394.5 174.9 393 179.9 391.5 184.7C390 189.5 388.3 193.8 386.5 197.5C384.7 201.2 382.8 204.1 380.8 206.3C378.8 208.5 376.6 209.6 374.4 209.6C371.8 209.6 369.4 208.7 367.3 207C365.1 205.3 363.3 202.9 361.8 199.8C360.3 196.7 359.1 192.9 358.2 188.5C357.3 184.1 356.9 179.1 356.9 173.7C356.9 165.4 357.6 157.3 358.9 149.6C360.2 141.9 361.7 134.6 363.3 127.8C364.9 121 366.4 114.8 367.7 109.1C369 103.4 369.7 98.4 369.7 94C369.7 93.3 369.7 92.4 369.6 91.3C369.6 90.2 369.4 89.1 369.1 88.1C368.8 87.1 368.3 86.2 367.7 85.5C367.1 84.8 366.2 84.4 365.1 84.4C361.5 84.4 358.5 85.6 356.2 88.1C353.9 90.6 352 93.7 350.6 97.6C349.2 101.5 348.1 105.7 347.5 110.4C346.9 115 346.4 119.6 346.1 124C345.8 128.4 345.6 132.5 345.5 136.1C345.4 139.7 345.2 142.4 344.9 144.1V144.2C344.9 145.4 344.3 146.4 343.2 147.2C342.1 148 340.7 148.6 339.1 149C337.5 149.4 335.9 149.7 334.2 149.8C332.5 149.9 331.2 150 330.1 150C329.4 150 328.4 149.4 327 148.1C325.6 146.9 324.1 144.9 322.4 142.2C320.7 139.5 319 136 317.2 131.7C315.4 127.4 313.8 122.2 312.4 116.1C311 110 309.8 102.9 308.8 94.9C307.9 86.9 307.4 77.7 307.4 67.5C307.4 62.9 307.8 58.2 308.7 53.4C309.6 48.6 310.9 43.9 312.6 39.4C314.3 34.9 316.4 30.6 318.9 26.6C321.4 22.6 324.3 19 327.5 16C330.8 13 334.4 10.6 338.3 8.8C342.3 7 346.6 6.2 351.2 6.2C354.5 6.2 357.2 6.8 359.3 8C361.4 9.2 363.1 10.7 364.3 12.6C365.5 14.5 366.4 16.6 366.9 18.9C367.4 21.3 367.6 23.6 367.6 25.9C367.6 28.7 366.9 31.8 365.5 35.1C364.1 38.4 362.3 41.8 360.1 45.2C357.9 48.6 355.4 52 352.7 55.5C349.9 58.9 347.1 62.2 344.3 65.2C341.5 68.3 338.7 71.1 336.1 73.7C333.5 76.3 331.2 78.4 329.3 80.2C329.9 84.8 330.7 89.4 331.7 94.1C332.7 98.8 333.8 103.5 334.9 108C336.1 112.5 337.2 116.8 338.4 121C339.6 125.2 340.6 128.8 341.6 132C341.6 129.5 341.7 126.5 341.9 123C342.1 119.5 342.5 115.8 343.1 112C343.7 108.2 344.4 104.4 345.4 100.7C346.4 97 347.7 93.6 349.3 90.6C350.9 87.6 352.8 85.2 355.2 83.4C357.5 81.6 360.3 80.7 363.6 80.7C368.2 80.7 371.6 82.1 373.8 84.9C376 87.7 377.3 91.4 377.7 96.1C378.2 100.7 378 106.1 377.2 112.1C376.4 118.1 375.5 124.4 374.4 130.8C373.3 137.3 372.3 143.7 371.3 150.1C370.3 156.5 369.8 162.4 369.8 167.9C369.8 172.9 369.9 177.6 370.1 181.9C370.3 186.2 370.6 190 371.2 193.3C371.8 196.5 372.5 199.1 373.5 200.9C374.5 202.7 375.8 203.7 377.6 203.7C378.9 203.7 380.2 202.7 381.6 200.6C383 198.5 384.4 195.8 385.7 192.4C387.1 189 388.4 185.1 389.6 180.6C390.8 176.1 392.1 171.5 393.2 166.7C394.4 161.9 395.5 157 396.5 152.2C397.5 147.3 398.4 142.8 399.2 138.6C400 134.4 400.6 130.7 401.1 127.5C401.9 124.1 402.3 121.7 402.4 120.2ZM328.6 66.4C328.6 67.6 328.6 68.8 328.7 70C328.7 71.2 328.8 72.5 328.9 73.7C331.5 71.3 334.7 68.1 338.5 64.3C342.3 60.4 346.1 56.3 349.7 51.8C353.3 47.3 356.4 42.8 358.9 38.2C361.4 33.6 362.7 29.5 362.7 25.7C362.7 22.4 362 20 360.6 18.5C359.2 17 357.6 16.2 355.9 16.2C351.6 16.2 347.7 17.5 344.3 20C340.9 22.5 338 26.1 335.7 30.6C333.4 35.1 331.6 40.4 330.4 46.5C329.2 52.6 328.6 59.2 328.6 66.4Z" fill="black"/>
<path d="M392.5 113.1C392.5 112.8 392.5 112.6 392.4 112.3C392.4 112 392.4 111.8 392.7 111.6C392.9 111.4 393.3 111.3 393.9 111.1C394.5 111 395.4 110.9 396.6 110.9C397.8 110.9 399.1 111.2 400.6 111.9C402.1 112.6 403.4 113.5 404.7 114.5C406 115.6 407.1 116.8 408 118C408.9 119.3 409.4 120.6 409.4 121.9C409.4 123.2 409.2 125 408.9 127.3C408.6 129.6 408.2 132.2 407.8 134.9C407.4 137.7 407 140.5 406.6 143.3C406.3 146.1 406 148.7 406 151.1C405.9 153.5 406 155.4 406.3 156.8C406.6 158.3 407.2 159 408.1 159C409.3 159 410.6 157.8 411.9 155.5C413.2 153.2 414.5 150.3 415.8 146.8C417.1 143.3 418.3 139.5 419.5 135.4C420.7 131.3 421.7 127.5 422.6 123.8C423.5 120.2 424.2 117.1 424.7 114.6C425.2 112.1 425.5 110.6 425.5 110.3C425.5 109.4 425.4 108.6 425.2 107.9C425 107.2 424.9 106.6 424.9 106.1C424.9 105.6 425.1 105.3 425.4 105C425.7 104.7 426.5 104.6 427.6 104.6C428.7 104.6 429.9 104.8 431.3 105.3C432.6 105.8 433.9 106.4 435 107.3C436.2 108.2 437.1 109.2 437.9 110.3C438.7 111.5 439.1 112.7 439.1 114.1C439.1 114.8 439 116.2 438.8 118.3C438.6 120.4 438.3 123 438 126C437.7 129.1 437.3 132.4 437 136.1C436.7 139.8 436.3 143.5 436 147.3C435.7 151 435.5 154.7 435.4 158.2C435.3 161.7 435.4 164.8 435.5 167.6C435.7 170.3 436 172.5 436.6 174.1C437.2 175.7 438 176.6 439 176.6C440.7 176.6 442.4 175.5 444.1 173.3C445.8 171.1 447.3 168.3 448.8 164.8C450.3 161.4 451.6 157.6 452.9 153.4C454.2 149.2 455.3 145.2 456.3 141.3C457.3 137.3 458.1 133.7 458.9 130.5C459.6 127.3 460.2 124.9 460.5 123.3C460.8 122 461.5 121.5 462.5 121.6C463.5 121.8 463.9 122.5 463.7 123.7C463.4 125.4 462.8 128 462 131.5C461.2 135 460.3 138.9 459.1 143.1C457.9 147.4 456.6 151.7 455.1 156.1C453.6 160.5 451.9 164.6 450 168.2C448.1 171.9 446 174.9 443.8 177.2C441.6 179.6 439.2 180.7 436.6 180.7C434.4 180.7 432.4 180.1 430.9 178.8C429.3 177.5 428 175.8 426.9 173.7C425.8 171.6 425 169.2 424.3 166.5C423.6 163.8 423.2 161 422.9 158.2C422.2 151.6 422.2 144 422.8 135.5C421.6 141 420.1 145.9 418.4 150.1C417.6 151.9 416.8 153.7 415.8 155.5C414.9 157.3 413.8 158.8 412.6 160.2C411.4 161.6 410.1 162.7 408.6 163.5C407.1 164.3 405.6 164.7 404 164.7C401.5 164.7 399.4 163.9 397.7 162.4C396 160.9 394.7 158.9 393.7 156.6C392.7 154.3 392 151.8 391.6 149C391.2 146.3 391 143.8 391 141.4C391 139 391.1 136.4 391.3 133.3C391.5 130.2 391.6 127.3 391.8 124.3C392 121.4 392.1 118.8 392.3 116.6C392.4 115 392.5 113.6 392.5 113.1Z" fill="black"/>
<path d="M529.6 122.6C529.8 121.7 530.1 121.1 530.6 120.8C531.1 120.5 531.5 120.3 531.9 120.3C532.3 120.3 532.6 120.6 532.9 121C533.2 121.4 533.2 122 532.9 122.7C532.4 124.3 531.6 126.9 530.4 130.4C529.3 133.9 527.9 137.7 526.3 142C524.7 146.2 522.8 150.6 520.6 155C518.4 159.5 516.1 163.5 513.6 167.2C511.1 170.9 508.4 173.9 505.6 176.2C502.8 178.6 499.8 179.8 496.8 179.8C493.9 179.8 491.3 179 489 177.5C486.7 176 484.8 173.7 483.1 170.9C481.5 168 480.2 164.5 479.2 160.4C478.3 156.3 477.7 151.8 477.7 146.8C476 149.6 474.1 151.9 472 153.8C469.9 155.7 467.5 156.6 464.8 156.6C463.3 156.6 461.8 156 460.2 154.9C458.6 153.8 457.1 152.3 455.8 150.4C454.5 148.5 453.3 146.3 452.4 143.8C451.5 141.3 451 138.7 451 135.9C451 132.8 451.8 129.2 453.3 125.1C454.8 121 457.1 117.1 460.1 113.4C463.1 109.7 466.7 106.6 471.1 104C475.4 101.4 480.5 100.1 486.1 100.1C488.2 100.1 490 100.5 491.7 101.2C493.4 101.9 494.8 102.9 496 104C497.2 105.2 498 106.5 498.6 107.9C499.2 109.4 499.5 110.8 499.5 112.2C499.5 113.6 499.3 114.2 498.9 114.1C498.5 114 497.8 113.6 496.8 112.9C495.9 112.2 494.6 111.5 492.9 110.7C491.3 109.9 489.3 109.5 487 109.5C484.2 109.5 481.5 110.8 478.9 113.3C476.2 115.8 473.8 118.9 471.7 122.4C469.6 126 467.9 129.7 466.6 133.7C465.3 137.6 464.7 141 464.7 143.9C464.7 145.7 464.8 147.4 465.2 149.1C465.5 150.8 466.3 151.6 467.5 151.6C468.4 151.6 469.4 150.8 470.6 149.1C471.8 147.5 473 145.5 474.2 143.2C475.4 140.9 476.5 138.5 477.5 136C478.5 133.5 479.3 131.5 480 129.9C480.2 129.4 480.3 128.9 480.5 128.4C480.7 127.9 480.8 127.5 481 127C481.9 125 482.8 123.5 483.9 122.3C485 121.1 486.2 120.6 487.5 120.6C489 120.6 490.2 121.1 491.3 122C492.4 122.9 493.3 124.1 494 125.4C494.7 126.7 495.3 128.1 495.7 129.5C496.1 130.9 496.3 132 496.3 132.9C496.3 133.5 496.1 134.9 495.7 137.1C495.3 139.3 494.9 141.9 494.5 144.9C494.1 147.9 493.8 151.1 493.6 154.4C493.4 157.7 493.4 160.8 493.7 163.6C494 166.4 494.6 168.7 495.6 170.5C496.6 172.3 498.2 173.2 500.3 173.2C502.4 173.2 504.5 172.1 506.6 170C508.7 167.9 510.8 165.2 512.7 162C514.7 158.8 516.6 155.2 518.4 151.2C520.2 147.2 521.9 143.4 523.4 139.6C524.9 135.8 526.1 132.4 527.2 129.3C528.3 126.5 529.1 124.2 529.6 122.6Z" fill="black"/>
<path d="M583 121C583.2 120.1 583.5 119.5 583.8 119.2C584.2 118.9 584.6 118.7 585 118.9C585.4 119 585.8 119.3 586.1 119.7C586.4 120.1 586.5 120.5 586.4 121.1C585.5 125.3 584.3 130.3 583 135.9C581.7 141.6 580.1 147.5 578.4 153.5C576.7 159.6 574.8 165.6 572.8 171.4C570.8 177.3 568.7 182.6 566.5 187.2C564.3 191.8 562 195.6 559.7 198.5C557.4 201.4 555.1 202.8 552.7 202.8C548.2 202.8 544.3 201.5 540.8 198.8C537.4 196.1 534.4 192.5 531.9 187.9C529.4 183.3 527.3 178 525.6 171.9C523.9 165.8 522.6 159.4 521.6 152.7C520.6 145.9 519.9 139 519.5 131.9C519.1 124.8 518.9 117.9 518.9 111.2C518.9 103.1 519.5 94.7 520.8 86.1C522 77.5 523.8 69 526 60.8C528.2 52.6 530.9 44.8 534.1 37.4C537.2 30 540.7 23.6 544.6 18C548.4 12.4 552.5 8.1 556.9 4.8C561.3 1.6 565.9 0 570.6 0C574.5 0 577.4 1.8 579.4 5.3C581.4 8.8 582.4 13.5 582.4 19.4C582.4 23.6 581.6 28 580.1 32.6C578.6 37.2 576.6 41.7 574.2 46.3C571.7 50.9 569 55.4 565.9 59.9C562.8 64.3 559.7 68.5 556.6 72.4C553.5 76.3 550.4 79.9 547.5 83.2C544.6 86.5 542.1 89.2 540 91.3V95C540 100.8 540.2 107.2 540.7 114.2C541.2 121.3 541.8 128.4 542.6 135.6C543.4 142.8 544.3 149.8 545.3 156.6C546.3 163.4 547.4 169.4 548.6 174.7C549.8 180 550.9 184.2 552.1 187.4C553.3 190.6 554.5 192.2 555.6 192.2C557.1 192.2 558.8 191 560.5 188.5C562.2 186 563.9 182.8 565.7 178.8C567.4 174.8 569.1 170.3 570.8 165.2C572.5 160.1 574 154.9 575.5 149.6C577 144.3 578.3 139.2 579.6 134.2C581 129.3 582.1 124.8 583 121ZM571.1 15.7C568.4 15.7 565.8 16.6 563.4 18.5C560.9 20.4 558.6 23 556.4 26.3C554.2 29.6 552.3 33.5 550.5 38C548.7 42.5 547.1 47.3 545.7 52.4C544.3 57.5 543.2 62.8 542.3 68.3C541.4 73.8 540.8 79.3 540.4 84.7C542.4 82.5 544.7 80 547.3 77C549.9 74 552.6 70.7 555.4 67.2C558.2 63.7 560.9 60 563.5 56C566.2 52.1 568.6 48.2 570.7 44.3C572.8 40.4 574.5 36.6 575.8 32.9C577.1 29.2 577.7 25.7 577.7 22.4C577.7 21.8 577.5 21.1 577.2 20.3C576.9 19.5 576.4 18.8 575.8 18.1C575.2 17.4 574.6 16.8 573.7 16.4C573 16 572.1 15.7 571.1 15.7Z" fill="black"/>
<path d="M653.3 122.6C653.5 121.7 653.8 121.1 654.3 120.8C654.8 120.5 655.2 120.3 655.6 120.3C656 120.3 656.3 120.6 656.6 121C656.9 121.4 656.9 122 656.6 122.7C656.1 124.3 655.3 126.9 654.1 130.4C653 133.9 651.6 137.7 650 142C648.4 146.2 646.5 150.6 644.3 155C642.1 159.5 639.8 163.5 637.3 167.2C634.8 170.9 632.1 173.9 629.3 176.2C626.5 178.6 623.5 179.8 620.5 179.8C617.6 179.8 615 179 612.7 177.5C610.4 176 608.5 173.7 606.8 170.9C605.2 168 603.9 164.5 602.9 160.4C602 156.3 601.4 151.8 601.4 146.8C599.7 149.6 597.8 151.9 595.7 153.8C593.6 155.7 591.2 156.6 588.5 156.6C587 156.6 585.5 156 583.9 154.9C582.3 153.8 580.8 152.3 579.5 150.4C578.2 148.5 577 146.3 576.1 143.8C575.2 141.3 574.7 138.7 574.7 135.9C574.7 132.8 575.5 129.2 577 125.1C578.5 121 580.8 117.1 583.8 113.4C586.8 109.7 590.4 106.6 594.8 104C599.1 101.4 604.2 100.1 609.8 100.1C611.9 100.1 613.7 100.5 615.4 101.2C617.1 101.9 618.5 102.9 619.7 104C620.9 105.2 621.7 106.5 622.3 107.9C622.9 109.4 623.2 110.8 623.2 112.2C623.2 113.6 623 114.2 622.6 114.1C622.2 114 621.5 113.6 620.5 112.9C619.6 112.2 618.3 111.5 616.6 110.7C615 109.9 613 109.5 610.7 109.5C607.9 109.5 605.2 110.8 602.6 113.3C599.9 115.8 597.5 118.9 595.4 122.4C593.3 126 591.6 129.7 590.3 133.7C589 137.6 588.4 141 588.4 143.9C588.4 145.7 588.5 147.4 588.9 149.1C589.2 150.8 590 151.6 591.2 151.6C592.1 151.6 593.1 150.8 594.3 149.1C595.5 147.5 596.7 145.5 597.9 143.2C599.1 140.9 600.2 138.5 601.2 136C602.2 133.5 603 131.5 603.7 129.9C603.9 129.4 604 128.9 604.2 128.4C604.4 127.9 604.5 127.5 604.7 127C605.6 125 606.5 123.5 607.6 122.3C608.7 121.1 609.9 120.6 611.2 120.6C612.7 120.6 613.9 121.1 615 122C616.1 122.9 617 124.1 617.7 125.4C618.4 126.7 619 128.1 619.4 129.5C619.8 130.9 620 132 620 132.9C620 133.5 619.8 134.9 619.4 137.1C619 139.3 618.6 141.9 618.2 144.9C617.8 147.9 617.5 151.1 617.3 154.4C617.1 157.7 617.1 160.8 617.4 163.6C617.7 166.4 618.3 168.7 619.3 170.5C620.3 172.3 621.9 173.2 624 173.2C626.1 173.2 628.2 172.1 630.3 170C632.4 167.9 634.5 165.2 636.4 162C638.4 158.8 640.3 155.2 642.1 151.2C643.9 147.2 645.6 143.4 647.1 139.6C648.6 135.8 649.8 132.4 650.9 129.3C651.9 126.5 652.7 124.2 653.3 122.6Z" fill="black"/>
<path d="M610.6 206.7C610.6 206.8 610.5 206.9 610.2 206.9C610 206.9 609.6 206.9 609.2 206.8C608.8 206.7 608.4 206.7 608.2 206.7C608 206.7 607.6 206.7 607.2 206.8C606.8 206.9 606.4 206.9 606.2 206.9C605.9 206.9 605.4 206 604.9 204.2C604.4 202.4 603.9 201.5 603.3 201.4C602.9 201.4 601.7 201.4 599.8 201.4H597C595 201.4 593.9 201.4 593.6 201.4C593.2 201.4 592.7 202.4 592.2 204.2C591.7 206 591.3 206.9 591.1 206.9H587.1C586.9 206.9 586.7 206.8 586.7 206.6C586.7 206.5 586.8 206.2 587 205.8L591.4 193.8C591.8 192.8 592.9 190 594.8 185.4C595.1 184.6 595.6 183.5 596.2 181.9C596.3 181.4 596.5 181.2 596.7 181.2C596.9 181.2 597.3 181.2 597.7 181.3C598.1 181.4 598.5 181.4 598.7 181.4C598.9 181.4 599.2 181.4 599.7 181.3C600.1 181.2 600.5 181.2 600.7 181.2C600.8 181.2 601 181.4 601.1 181.9C601.4 182.6 602.8 186.2 605.3 192.7C608.8 202 610.6 206.7 610.6 206.7ZM602.2 196.8C602.2 196.5 601.7 194.9 600.6 192.1C599.6 189.4 598.8 187.7 598.4 186.8C595.9 193.1 594.7 196.4 594.7 196.7C594.7 197.1 595.2 197.3 596.1 197.4C596.1 197.4 596.7 197.4 597.9 197.4H599.7C601.4 197.6 602.2 197.3 602.2 196.8Z" fill="black" stroke="black" stroke-miterlimit="10"/>
<path d="M630.5 198.3C630.5 200.7 629.7 202.8 628.2 204.6C626.6 206.5 624.6 207.4 622.2 207.4C620.7 207.4 619.4 206.9 618.3 206C617.8 205.5 617.3 205.1 616.8 204.6C616.7 204.6 616.7 204.7 616.7 204.9C616.7 205 616.7 205.6 616.7 206.9V212C616.7 212.4 616.6 212.6 616.3 212.6C614.5 212.6 613.4 212.6 613 212.5C612.7 212.5 612.6 212.3 612.6 212C612.6 210.5 612.6 208.2 612.6 205.1C612.6 202 612.6 199.7 612.6 198.2C612.6 195.4 612.4 192.8 612.1 190.3C612.1 190.2 612.1 190.1 612.1 190C612.1 189.9 612.2 189.8 612.3 189.7C612.8 189.7 613.4 189.6 614.3 189.5C615.5 189.3 616.1 189.2 616.3 189.2C616.5 189.2 616.6 189.6 616.7 190.3C616.7 190.8 616.8 191.3 616.8 191.7C616.8 191.8 616.8 191.9 616.9 192C617 192 617.1 191.9 617.2 191.7C618.9 190 620.6 189.1 622.3 189.1C624.7 189.1 626.7 190 628.3 191.9C629.7 193.8 630.5 195.9 630.5 198.3ZM626.3 198.3C626.3 196.9 625.9 195.6 625 194.5C624.1 193.3 622.9 192.8 621.5 192.8C620.1 192.8 619 193.4 618.1 194.6C617.3 195.7 616.9 196.9 616.9 198.4C616.9 199.9 617.3 201.1 618.2 202.2C619.1 203.4 620.3 203.9 621.7 203.9C623.1 203.9 624.2 203.3 625.1 202.1C625.9 200.9 626.3 199.6 626.3 198.3Z" fill="black" stroke="black" stroke-miterlimit="10"/>
<path d="M651.2 198.3C651.2 200.7 650.4 202.8 648.9 204.6C647.3 206.5 645.3 207.4 642.9 207.4C641.4 207.4 640.1 206.9 639 206C638.5 205.5 638 205.1 637.5 204.6C637.4 204.6 637.4 204.7 637.4 204.9C637.4 205 637.4 205.6 637.4 206.9V212C637.4 212.4 637.3 212.6 637 212.6C635.2 212.6 634.1 212.6 633.7 212.5C633.4 212.5 633.3 212.3 633.3 212C633.3 210.5 633.3 208.2 633.3 205.1C633.3 202 633.3 199.7 633.3 198.2C633.3 195.4 633.1 192.8 632.8 190.3C632.8 190.2 632.8 190.1 632.8 190C632.8 189.9 632.9 189.8 633 189.7C633.5 189.7 634.1 189.6 635 189.5C636.2 189.3 636.8 189.2 637 189.2C637.2 189.2 637.3 189.6 637.4 190.3C637.4 190.8 637.5 191.3 637.5 191.7C637.5 191.8 637.5 191.9 637.6 192C637.7 192 637.8 191.9 637.9 191.7C639.6 190 641.3 189.1 643 189.1C645.4 189.1 647.4 190 649 191.9C650.4 193.8 651.2 195.9 651.2 198.3ZM647 198.3C647 196.9 646.6 195.6 645.7 194.5C644.8 193.3 643.6 192.8 642.2 192.8C640.8 192.8 639.7 193.4 638.8 194.6C638 195.7 637.6 196.9 637.6 198.4C637.6 199.9 638 201.1 638.9 202.2C639.8 203.4 641 203.9 642.4 203.9C643.8 203.9 644.9 203.3 645.8 202.1C646.6 200.9 647 199.6 647 198.3Z" fill="black" stroke="black" stroke-miterlimit="10"/>
</g>
<defs>
<clipPath id="clip0">
<rect width="656.7" height="213.3" fill="white"/>
</clipPath>
</defs>
</svg>
