<svg width="730" height="251" viewBox="0 0 730 251" fill="none" xmlns="http://www.w3.org/2000/svg">
<g clip-path="url(#clip0)">
<path d="M730 0H0V250.9H730V0Z" fill="black"/>
<path d="M187.3 115.8L181.6 103C177.6 93.9 165.9 89.2 148.7 89.8C143.9 90 138.9 90.5 133.6 91.5C119.6 87.7 106.7 86.2 96.3 87.2C81 88.7 75.1 95.1 72.9 100.2L63.6 121.4C41.2 137.6 31 154.6 36.5 167L46 188.5C49.8 197.1 60.4 201.8 76 201.8C76.9 201.8 77.9 201.8 78.9 201.7C94.2 201.2 112.6 196.6 130.8 188.7C147.8 195.2 164.6 198.8 178.3 198.8C178.4 198.8 178.5 198.8 178.5 198.8C194.1 198.8 204.7 194.1 208.5 185.5L218 163.9C223.9 150.8 211.9 132.4 187.3 115.8ZM133.8 100.7C134.2 100.7 134.6 100.6 134.9 100.5C155.3 96.8 170 99.5 173.2 106.6C173.9 108.2 174 110.2 173.6 112.3C162.7 110 147.7 111.2 131.4 115.5C131 115.6 130.7 115.6 130.4 115.8C122 118.1 113.4 121.1 104.7 124.9C101.4 126.4 98.1 127.9 94.9 129.6C90.8 125.8 87.6 122.1 85.2 118.6C89.6 116.2 94.2 113.9 99 111.8C111.5 106.4 123.3 102.7 133.8 100.7ZM149.9 122.1C149.4 121.9 149 121.7 148.5 121.5C156.5 120.3 163.8 120.2 169.7 121.1C168.1 123.6 166 126.1 163.5 128.7C159.1 126.4 154.6 124.1 149.9 122.1ZM156.4 135.4C149.1 141.6 140.2 147.4 130.2 152.7C119.9 147.8 110.5 142.1 102.7 136.1C104.6 135.2 106.6 134.3 108.5 133.4C116.4 129.9 124.4 127.1 132 125C136.7 126.6 141.5 128.5 146.2 130.5C149.6 132.1 153.1 133.7 156.4 135.4ZM81.4 103.8C83.4 99.2 91 96 103 96C106 96 109.3 96.2 112.8 96.6C107 98.5 101.1 100.8 95.2 103.3C90.4 105.4 85.7 107.7 81.1 110.2C80.5 107.8 80.6 105.6 81.4 103.8ZM71.7 125.9V125.8C71.7 125.7 71.8 125.5 71.9 125.4L74.7 119.1C74.7 119.2 74.8 119.2 74.8 119.3C74.9 119.4 74.9 119.5 75 119.6C78.2 125.7 83.6 132.2 91.1 138.7C91.2 138.7 91.2 138.8 91.3 138.8C99.2 145.6 108.9 152.1 119.7 157.8C119.6 157.9 119.4 157.9 119.3 158C113.6 160.5 108.1 162.6 102.7 164.4C92.6 158 84.3 151 78.7 144.3L78.6 144.2C72.6 136.9 70.2 130.3 71.7 125.9ZM91.1 167.6C77.7 170.9 66.2 171.6 58 170.3C61.5 164.9 67.2 159.1 74.5 153.3C79 158.2 84.6 163 91.1 167.6ZM48.9 167.3C47 166.2 45.7 164.7 45 163.1C42 156.3 48.9 145 62.6 133.7C63.5 137.3 65.3 141.5 68.6 146.2C59.6 153.3 52.9 160.4 48.9 167.3ZM129.6 179.2C129.1 179.3 128.6 179.6 128.1 179.9C110.6 187.5 93.1 192 78.6 192.5C65.8 192.9 56.8 190.1 54.5 184.8L51.7 178.5C56.7 179.9 62.6 180.5 69.4 180.2C85.1 179.6 104.2 174.8 122.9 166.5C141.7 158.2 158.1 147.5 169.1 136.2C173.9 131.4 177.4 126.6 179.8 122C179.8 122 179.9 122 179.9 122.1L182.6 128.3C184.9 133.6 181 142.2 172 151.3C167.6 155.8 162.3 160.1 156.3 164.3C156.1 164.4 155.9 164.6 155.7 164.7C148 170 139.1 174.9 129.6 179.2ZM196.6 167.4C189.8 168.5 180.6 168.3 169.5 166.1C172.9 163.4 176 160.6 178.7 157.8C180.3 156.2 181.8 154.6 183.1 153C188.9 157.8 193.5 162.8 196.6 167.4ZM200.1 181.8C196.1 190.8 172.9 192.8 142.8 183.1C148.8 180 154.4 176.7 159.6 173.3C177.3 177.8 192.3 178.5 202.9 175.6L200.1 181.8ZM209.6 160.3C208.9 161.9 207.6 163.3 205.6 164.4C201.9 158.2 196.1 151.7 188.4 145.3C191.2 140.4 192.6 135.7 192.6 131.4C197.1 135.2 201 139.1 203.9 142.8C209.4 149.9 211.4 156.1 209.6 160.3Z" fill="white"/>
<path d="M309.6 140C309.9 139 310.2 138.2 310.7 137.7C311.2 137.2 311.6 137.1 312 137.2C312.4 137.3 312.7 137.7 312.8 138.3C313 138.9 312.9 139.8 312.7 140.9C311.8 144 310.9 147.9 310 152.5C309.1 157.1 308 162 306.9 167.2C305.8 172.3 304.5 177.4 303.2 182.6C301.8 187.7 300.2 192.3 298.4 196.4C296.6 200.5 294.6 203.8 292.3 206.3C290.1 208.8 287.5 210 284.7 210C280.3 210 276.3 208.6 272.7 205.7C269.1 202.8 265.8 199 262.8 194.2C259.8 189.4 257.2 183.9 254.8 177.6C252.4 171.3 250.3 164.7 248.4 157.8C245 164.4 241.7 171 238.3 177.6C234.9 184.1 231.5 190.5 228.1 196.7C224.7 202.9 221.3 208.8 218 214.5C214.6 220.2 211.4 225.5 208.3 230.4C207.4 231.5 206.6 231.8 205.8 231.3C205 230.8 205 229.7 205.8 228.1C209.2 222.7 213.1 216.2 217.3 208.7C220.9 202.2 225.3 194.3 230.3 184.9C235.4 175.5 241.1 164.6 247.3 152.1C245.9 146.9 244.6 141.4 243.4 135.8C242.2 130.2 241.1 124.7 240 119.3C239 113.9 238 108.8 237 104C236.1 99.2 235.1 95 234.2 91.3C233.3 87.7 232.4 84.8 231.6 82.7C230.7 80.6 229.9 79.5 229 79.5C227.5 79.5 226.2 80.3 224.9 81.8C223.6 83.3 222.4 85.3 221.2 87.7C220 90.1 218.9 92.7 217.9 95.5C216.9 98.3 216 101.1 215.2 103.6C214.4 106.2 213.8 108.5 213.3 110.5C212.8 112.5 212.4 113.9 212.1 114.6C211.8 115.6 211.5 116.4 211.1 116.8C210.7 117.2 210.3 117.4 209.9 117.3C209.5 117.2 209.2 116.9 209.1 116.3C208.9 115.7 209 114.9 209.2 114C209.3 113.5 209.6 112.1 210 109.8C210.5 107.5 211.1 104.9 212 101.8C212.9 98.7 213.9 95.5 215.2 92C216.5 88.5 218 85.3 219.7 82.4C221.4 79.5 223.2 77.1 225.3 75.2C227.4 73.3 229.6 72.3 232.1 72.3C234.9 72.3 237.5 73 239.9 74.4C242.3 75.8 244.4 77.6 246.4 79.8C248.3 82 250.1 84.6 251.6 87.5C253.1 90.4 254.5 93.3 255.7 96.4C258.5 103.5 260.6 111.5 262.2 120.4C263.7 117 265.6 112.9 267.8 108.2C270 103.5 272.3 98.6 274.6 93.5C276.9 88.4 279.2 83.4 281.5 78.4C283.8 73.4 285.8 69 287.5 65.2C287.8 64.4 288.1 63.9 288.6 63.7C289.1 63.4 289.5 63.4 290 63.6C290.4 63.8 290.8 64.1 291 64.6C291.2 65.1 291.2 65.7 290.9 66.3C290.7 66.6 290.2 67.7 289.4 69.6C288.6 71.5 287.5 73.8 286.2 76.8C284.9 79.7 283.4 83.1 281.7 86.9C280 90.7 278.1 94.8 276.1 99C274.1 103.3 272.1 107.7 270 112.2C267.9 116.7 265.9 121.1 263.9 125.4C266 140.4 268.3 153.7 270.6 165.5C271.6 170.5 272.7 175.4 273.8 180.2C274.9 185 276.1 189.3 277.3 193.1C278.5 196.8 279.8 199.9 281.2 202.1C282.5 204.4 283.8 205.5 285.1 205.5C287.3 205.5 289.4 204.3 291.2 201.8C293 199.3 294.7 196.1 296.2 192.1C297.7 188.1 299.1 183.7 300.3 178.8C301.5 173.9 302.7 169 303.7 164.1C304.7 159.2 305.7 154.7 306.6 150.4C307.8 146.1 308.7 142.6 309.6 140Z" fill="white"/>
<path d="M352.5 139.7C352.7 139.1 353 138.7 353.3 138.5C353.7 138.3 354.1 138.2 354.5 138.2C354.9 138.2 355.2 138.4 355.4 138.7C355.6 139 355.7 139.3 355.6 139.9C355.1 141.4 354.3 143.8 353.2 146.9C352.1 150 350.8 153.4 349.2 157.1C347.6 160.8 345.8 164.6 343.8 168.5C341.8 172.4 339.5 176 337.1 179.2C334.6 182.4 332 185 329.3 187C326.5 189 323.7 190 320.7 190C318 190 315.6 189.1 313.4 187.3C311.2 185.5 309.3 183.2 307.7 180.5C306.1 177.7 304.9 174.7 304 171.3C303.1 167.9 302.7 164.7 302.7 161.6C302.7 158.5 302.9 155.1 303.2 151.3C303.5 147.6 304 143.9 304.4 140.3C304.9 136.7 305.3 133.5 305.6 130.6C305.9 127.7 306.1 125.4 306.1 123.9C306.1 122.3 307 121.1 308.7 120.5C310.5 119.9 312.4 119.9 314.5 120.6C316.6 121.2 318.5 122.6 320.3 124.7C322.1 126.8 322.9 129.6 322.9 133.2C322.9 135.3 322.7 137.8 322.3 140.9C321.9 144 321.5 147.3 321.2 150.7C320.9 154.1 320.6 157.6 320.4 161C320.2 164.4 320.3 167.6 320.7 170.4C321.1 173.2 321.8 175.5 322.9 177.2C324 178.9 325.6 179.8 327.7 179.8C329.3 179.8 331 179 332.7 177.4C334.4 175.8 336.1 173.7 337.7 171.2C339.3 168.7 340.9 165.8 342.5 162.7C344 159.6 345.5 156.6 346.8 153.6C348.1 150.6 349.2 147.9 350.2 145.5C351.3 143 352 141.1 352.5 139.7ZM311.9 107.9C315.3 109.3 318.5 109.8 318.6 109.8C319.2 109.9 319.9 109.7 320.4 109.3C320.5 109.2 322.9 107.1 325.1 104.2C335.9 89.7 319.9 81.9 314.1 90.3C304.7 86.1 295.1 101.2 311.9 107.9Z" fill="white"/>
<path d="M437.5 138.4C437.6 137.6 437.8 137.1 438.1 136.7C438.4 136.4 438.8 136.2 439.1 136.2C439.4 136.2 439.7 136.4 439.9 136.8C440.1 137.2 440.2 137.7 440.1 138.4C439.9 140 439.6 142.6 439.1 146C438.6 149.4 437.9 153.3 437.2 157.8C436.4 162.3 435.5 167.1 434.5 172.3C433.5 177.5 432.3 182.7 430.9 187.9C429.6 193.1 428.1 198.1 426.6 202.9C425.1 207.7 423.4 212 421.6 215.7C419.8 219.4 417.9 222.3 415.9 224.5C413.9 226.7 411.7 227.8 409.5 227.8C406.9 227.8 404.5 226.9 402.4 225.2C400.2 223.5 398.4 221.1 396.9 218C395.4 214.9 394.2 211.1 393.3 206.7C392.4 202.3 392 197.3 392 191.9C392 183.6 392.7 175.5 394 167.8C395.3 160.1 396.8 152.8 398.4 146C400 139.2 401.5 133 402.8 127.3C404.1 121.6 404.8 116.6 404.8 112.2C404.8 111.5 404.8 110.6 404.7 109.5C404.7 108.4 404.5 107.3 404.2 106.3C403.9 105.3 403.4 104.4 402.8 103.7C402.2 103 401.3 102.6 400.2 102.6C396.6 102.6 393.6 103.8 391.3 106.3C389 108.8 387.1 111.9 385.7 115.8C384.3 119.7 383.2 123.9 382.6 128.6C382 133.2 381.5 137.8 381.2 142.2C380.9 146.6 380.7 150.7 380.6 154.3C380.5 157.9 380.3 160.6 380 162.3V162.4C380 163.6 379.4 164.6 378.3 165.4C377.2 166.2 375.8 166.8 374.2 167.2C372.6 167.6 371 167.9 369.3 168C367.6 168.1 366.3 168.2 365.2 168.2C364.5 168.2 363.5 167.6 362.1 166.3C360.7 165.1 359.2 163.1 357.5 160.4C355.8 157.7 354.1 154.2 352.3 149.9C350.5 145.6 348.9 140.4 347.5 134.3C346.1 128.2 344.9 121.1 343.9 113.1C343 105.1 342.5 95.9 342.5 85.7C342.5 81.1 342.9 76.4 343.8 71.6C344.7 66.8 346 62.1 347.7 57.6C349.4 53.1 351.5 48.8 354 44.8C356.5 40.8 359.4 37.2 362.6 34.2C365.9 31.2 369.5 28.8 373.4 27C377.4 25.2 381.7 24.4 386.3 24.4C389.6 24.4 392.3 25 394.4 26.2C396.5 27.4 398.2 28.9 399.4 30.8C400.6 32.7 401.5 34.8 402 37.1C402.5 39.5 402.7 41.8 402.7 44.1C402.7 46.9 402 50 400.6 53.3C399.2 56.6 397.4 60 395.2 63.4C393 66.8 390.5 70.2 387.8 73.7C385 77.1 382.2 80.4 379.4 83.4C376.6 86.5 373.8 89.3 371.2 91.9C368.6 94.5 366.3 96.6 364.4 98.4C365 103 365.8 107.6 366.8 112.3C367.8 117 368.9 121.7 370 126.2C371.2 130.7 372.3 135 373.5 139.2C374.7 143.4 375.7 147 376.7 150.2C376.7 147.7 376.8 144.7 377 141.2C377.2 137.7 377.6 134 378.2 130.2C378.8 126.4 379.5 122.6 380.5 118.9C381.5 115.2 382.8 111.8 384.4 108.8C386 105.8 387.9 103.4 390.3 101.6C392.6 99.8 395.4 98.9 398.7 98.9C403.3 98.9 406.7 100.3 408.9 103.1C411.1 105.9 412.4 109.6 412.8 114.3C413.3 118.9 413.1 124.3 412.3 130.3C411.5 136.3 410.6 142.6 409.5 149C408.4 155.5 407.4 161.9 406.4 168.3C405.4 174.7 404.9 180.6 404.9 186.1C404.9 191.1 405 195.8 405.2 200.1C405.4 204.4 405.7 208.2 406.3 211.5C406.9 214.7 407.6 217.3 408.6 219.1C409.6 220.9 410.9 221.9 412.7 221.9C414 221.9 415.3 220.9 416.7 218.8C418.1 216.7 419.5 214 420.8 210.6C422.2 207.2 423.5 203.3 424.7 198.8C425.9 194.3 427.2 189.7 428.3 184.9C429.5 180.1 430.6 175.2 431.6 170.4C432.6 165.5 433.5 161 434.3 156.8C435.1 152.6 435.7 148.9 436.2 145.7C437 142.3 437.3 140 437.5 138.4ZM363.6 84.6C363.6 85.8 363.6 87 363.7 88.2C363.7 89.4 363.8 90.7 363.9 91.9C366.5 89.5 369.7 86.3 373.5 82.5C377.3 78.6 381.1 74.5 384.7 70C388.3 65.5 391.4 61 393.9 56.4C396.4 51.8 397.7 47.7 397.7 43.9C397.7 40.6 397 38.2 395.6 36.7C394.2 35.2 392.6 34.4 390.9 34.4C386.6 34.4 382.7 35.7 379.3 38.2C375.9 40.7 373 44.3 370.7 48.8C368.4 53.3 366.6 58.6 365.4 64.7C364.2 70.8 363.6 77.4 363.6 84.6Z" fill="white"/>
<path d="M427.5 131.3C427.5 131 427.5 130.8 427.4 130.5C427.4 130.2 427.4 130 427.7 129.8C427.9 129.6 428.3 129.5 428.9 129.3C429.5 129.2 430.4 129.1 431.6 129.1C432.8 129.1 434.1 129.4 435.6 130.1C437.1 130.8 438.4 131.7 439.7 132.7C441 133.8 442.1 135 443 136.2C443.9 137.5 444.4 138.8 444.4 140.1C444.4 141.4 444.2 143.2 443.9 145.5C443.6 147.8 443.2 150.4 442.8 153.1C442.4 155.9 442 158.7 441.6 161.5C441.3 164.3 441 166.9 441 169.3C440.9 171.7 441 173.6 441.3 175C441.6 176.5 442.2 177.2 443.1 177.2C444.3 177.2 445.6 176 446.9 173.7C448.2 171.4 449.5 168.5 450.8 165C452.1 161.5 453.3 157.7 454.5 153.6C455.7 149.5 456.7 145.7 457.6 142C458.5 138.4 459.2 135.3 459.7 132.8C460.2 130.3 460.5 128.8 460.5 128.5C460.5 127.6 460.4 126.8 460.2 126.1C460 125.4 459.9 124.8 459.9 124.3C459.9 123.8 460.1 123.5 460.4 123.2C460.7 122.9 461.5 122.8 462.6 122.8C463.7 122.8 464.9 123 466.3 123.5C467.6 124 468.9 124.6 470 125.5C471.2 126.4 472.1 127.4 472.9 128.5C473.7 129.7 474.1 130.9 474.1 132.3C474.1 133 474 134.4 473.8 136.5C473.6 138.6 473.3 141.2 473 144.2C472.7 147.3 472.3 150.6 472 154.3C471.7 158 471.3 161.7 471 165.5C470.7 169.2 470.5 172.9 470.4 176.4C470.3 179.9 470.4 183 470.5 185.8C470.7 188.5 471 190.7 471.6 192.3C472.2 193.9 473 194.8 474 194.8C475.7 194.8 477.4 193.7 479.1 191.5C480.8 189.3 482.3 186.5 483.8 183C485.3 179.6 486.6 175.8 487.9 171.6C489.2 167.4 490.3 163.4 491.3 159.5C492.3 155.5 493.1 151.9 493.9 148.7C494.6 145.5 495.2 143.1 495.5 141.5C495.8 140.2 496.5 139.7 497.5 139.8C498.5 140 498.9 140.7 498.7 141.9C498.4 143.6 497.8 146.2 497 149.7C496.2 153.2 495.3 157.1 494.1 161.3C492.9 165.6 491.6 169.9 490.1 174.3C488.6 178.7 486.9 182.8 485 186.4C483.1 190.1 481 193.1 478.8 195.4C476.6 197.8 474.2 198.9 471.6 198.9C469.4 198.9 467.4 198.3 465.9 197C464.3 195.7 463 194 461.9 191.9C460.8 189.8 460 187.4 459.3 184.7C458.6 182 458.2 179.2 457.9 176.4C457.2 169.8 457.2 162.2 457.8 153.7C456.6 159.2 455.1 164.1 453.4 168.3C452.6 170.1 451.8 171.9 450.8 173.7C449.9 175.5 448.8 177 447.6 178.4C446.4 179.8 445.1 180.9 443.6 181.7C442.1 182.5 440.6 182.9 439 182.9C436.5 182.9 434.4 182.1 432.7 180.6C431 179.1 429.7 177.1 428.7 174.8C427.7 172.5 427 170 426.6 167.2C426.2 164.5 426 162 426 159.6C426 157.2 426.1 154.6 426.3 151.5C426.5 148.4 426.6 145.5 426.8 142.5C427 139.6 427.1 137 427.3 134.8C427.5 133.2 427.5 131.8 427.5 131.3Z" fill="white"/>
<path d="M564.6 140.9C564.8 140 565.1 139.4 565.6 139.1C566.1 138.8 566.5 138.6 566.9 138.6C567.3 138.6 567.6 138.9 567.9 139.3C568.2 139.7 568.2 140.3 567.9 141C567.4 142.6 566.6 145.2 565.4 148.7C564.3 152.2 562.9 156 561.3 160.3C559.7 164.5 557.8 168.9 555.6 173.3C553.4 177.8 551.1 181.8 548.6 185.5C546.1 189.2 543.4 192.2 540.6 194.5C537.8 196.9 534.8 198.1 531.8 198.1C528.9 198.1 526.3 197.3 524 195.8C521.7 194.3 519.8 192 518.1 189.2C516.5 186.3 515.2 182.8 514.2 178.7C513.3 174.6 512.7 170.1 512.7 165.1C511 167.9 509.1 170.2 507 172.1C504.9 174 502.5 174.9 499.8 174.9C498.3 174.9 496.8 174.3 495.2 173.2C493.6 172.1 492.1 170.6 490.8 168.7C489.5 166.8 488.3 164.6 487.4 162.1C486.5 159.6 486 157 486 154.2C486 151.1 486.8 147.5 488.3 143.4C489.8 139.3 492.1 135.4 495.1 131.7C498.1 128 501.7 124.9 506.1 122.3C510.4 119.7 515.5 118.4 521.1 118.4C523.2 118.4 525 118.8 526.7 119.5C528.4 120.2 529.8 121.2 531 122.3C532.2 123.5 533 124.8 533.6 126.2C534.2 127.7 534.5 129.1 534.5 130.5C534.5 131.9 534.3 132.5 533.9 132.4C533.5 132.3 532.8 131.9 531.8 131.2C530.9 130.5 529.6 129.8 527.9 129C526.3 128.2 524.3 127.8 522 127.8C519.2 127.8 516.5 129.1 513.9 131.6C511.2 134.1 508.8 137.2 506.7 140.7C504.6 144.3 502.9 148 501.6 152C500.3 155.9 499.7 159.3 499.7 162.2C499.7 164 499.8 165.7 500.2 167.4C500.5 169.1 501.3 169.9 502.5 169.9C503.4 169.9 504.4 169.1 505.6 167.4C506.8 165.8 508 163.8 509.2 161.5C510.4 159.2 511.5 156.8 512.5 154.3C513.5 151.8 514.3 149.8 515 148.2C515.2 147.7 515.3 147.2 515.5 146.7C515.7 146.2 515.8 145.8 516 145.3C516.9 143.3 517.8 141.8 518.9 140.6C520 139.4 521.2 138.9 522.5 138.9C524 138.9 525.2 139.4 526.3 140.3C527.4 141.2 528.3 142.4 529 143.7C529.7 145 530.3 146.4 530.7 147.8C531.1 149.2 531.3 150.3 531.3 151.2C531.3 151.8 531.1 153.2 530.7 155.4C530.3 157.6 529.9 160.2 529.5 163.2C529.1 166.2 528.8 169.4 528.6 172.7C528.4 176 528.4 179.1 528.7 181.9C529 184.7 529.6 187 530.6 188.8C531.6 190.6 533.2 191.5 535.3 191.5C537.4 191.5 539.5 190.4 541.6 188.3C543.7 186.2 545.8 183.5 547.7 180.3C549.7 177.1 551.6 173.5 553.4 169.5C555.2 165.5 556.9 161.7 558.4 157.9C559.9 154.1 561.1 150.7 562.2 147.6C563.3 144.7 564.1 142.4 564.6 140.9Z" fill="white"/>
<path d="M618.1 139.2C618.3 138.3 618.6 137.7 618.9 137.4C619.3 137.1 619.7 136.9 620.1 137.1C620.5 137.2 620.9 137.5 621.2 137.9C621.5 138.3 621.6 138.7 621.5 139.3C620.6 143.5 619.4 148.5 618.1 154.1C616.8 159.8 615.2 165.7 613.5 171.7C611.8 177.8 609.9 183.8 607.9 189.6C605.9 195.5 603.8 200.8 601.6 205.4C599.4 210 597.1 213.8 594.8 216.7C592.5 219.6 590.2 221 587.8 221C583.3 221 579.4 219.7 575.9 217C572.5 214.3 569.5 210.7 567 206.1C564.5 201.5 562.4 196.2 560.7 190.1C559 184 557.7 177.6 556.7 170.9C555.7 164.1 555 157.2 554.6 150.1C554.2 143 554 136.1 554 129.4C554 121.3 554.6 112.9 555.9 104.3C557.1 95.7 558.9 87.2 561.1 79C563.3 70.8 566 63 569.2 55.6C572.3 48.2 575.8 41.8 579.7 36.2C583.5 30.6 587.6 26.3 592 23C596.4 19.8 601 18.2 605.7 18.2C609.6 18.2 612.5 20 614.5 23.5C616.5 27 617.5 31.7 617.5 37.6C617.5 41.8 616.7 46.2 615.2 50.8C613.7 55.4 611.7 59.9 609.3 64.5C606.8 69.1 604.1 73.6 601 78.1C597.9 82.5 594.8 86.7 591.7 90.6C588.6 94.5 585.5 98.1 582.6 101.4C579.7 104.7 577.2 107.4 575.1 109.5V113.2C575.1 119 575.3 125.4 575.8 132.4C576.3 139.5 576.9 146.6 577.7 153.8C578.5 161 579.4 168 580.4 174.8C581.4 181.6 582.5 187.6 583.7 192.9C584.9 198.2 586 202.4 587.2 205.6C588.4 208.8 589.6 210.4 590.7 210.4C592.2 210.4 593.9 209.2 595.6 206.7C597.3 204.2 599 201 600.8 197C602.5 193 604.2 188.5 605.9 183.4C607.6 178.3 609.1 173.1 610.6 167.8C612.1 162.5 613.4 157.4 614.7 152.4C616 147.5 617.1 143.1 618.1 139.2ZM606.2 34C603.5 34 600.9 34.9 598.5 36.8C596 38.7 593.7 41.3 591.5 44.6C589.3 47.9 587.4 51.8 585.6 56.3C583.8 60.8 582.2 65.6 580.8 70.7C579.4 75.8 578.3 81.1 577.4 86.6C576.5 92.1 575.9 97.6 575.5 103C577.5 100.8 579.8 98.3 582.4 95.3C585 92.3 587.7 89 590.5 85.5C593.3 82 596 78.3 598.6 74.3C601.3 70.4 603.7 66.5 605.8 62.6C607.9 58.7 609.6 54.9 610.9 51.2C612.2 47.5 612.8 44 612.8 40.7C612.8 40.1 612.6 39.4 612.3 38.6C612 37.8 611.5 37.1 610.9 36.4C610.3 35.7 609.7 35.1 608.8 34.7C608 34.2 607.2 34 606.2 34Z" fill="white"/>
<path d="M688.3 140.9C688.5 140 688.8 139.4 689.3 139.1C689.8 138.8 690.2 138.6 690.6 138.6C691 138.6 691.3 138.9 691.6 139.3C691.9 139.7 691.9 140.3 691.6 141C691.1 142.6 690.3 145.2 689.1 148.7C688 152.2 686.6 156 685 160.3C683.4 164.5 681.5 168.9 679.3 173.3C677.1 177.8 674.8 181.8 672.3 185.5C669.8 189.2 667.1 192.2 664.3 194.5C661.5 196.9 658.5 198.1 655.5 198.1C652.6 198.1 650 197.3 647.7 195.8C645.4 194.3 643.5 192 641.8 189.2C640.2 186.3 638.9 182.8 637.9 178.7C637 174.6 636.4 170.1 636.4 165.1C634.7 167.9 632.8 170.2 630.7 172.1C628.6 174 626.2 174.9 623.5 174.9C622 174.9 620.5 174.3 618.9 173.2C617.3 172.1 615.8 170.6 614.5 168.7C613.2 166.8 612 164.6 611.1 162.1C610.2 159.6 609.7 157 609.7 154.2C609.7 151.1 610.5 147.5 612 143.4C613.5 139.3 615.8 135.4 618.8 131.7C621.8 128 625.4 124.9 629.8 122.3C634.1 119.7 639.2 118.4 644.8 118.4C646.9 118.4 648.7 118.8 650.4 119.5C652.1 120.2 653.5 121.2 654.7 122.3C655.9 123.5 656.7 124.8 657.3 126.2C657.9 127.7 658.2 129.1 658.2 130.5C658.2 131.9 658 132.5 657.6 132.4C657.2 132.3 656.5 131.9 655.5 131.2C654.6 130.5 653.3 129.8 651.6 129C650 128.2 648 127.8 645.7 127.8C642.9 127.8 640.2 129.1 637.6 131.6C634.9 134.1 632.5 137.2 630.4 140.7C628.3 144.3 626.6 148 625.3 152C624 155.9 623.4 159.3 623.4 162.2C623.4 164 623.5 165.7 623.9 167.4C624.2 169.1 625 169.9 626.2 169.9C627.1 169.9 628.1 169.1 629.3 167.4C630.5 165.8 631.7 163.8 632.9 161.5C634.1 159.2 635.2 156.8 636.2 154.3C637.2 151.8 638 149.8 638.7 148.2C638.9 147.7 639 147.2 639.2 146.7C639.4 146.2 639.5 145.8 639.7 145.3C640.6 143.3 641.5 141.8 642.6 140.6C643.7 139.4 644.9 138.9 646.2 138.9C647.7 138.9 648.9 139.4 650 140.3C651.1 141.2 652 142.4 652.7 143.7C653.4 145 654 146.4 654.4 147.8C654.8 149.2 655 150.3 655 151.2C655 151.8 654.8 153.2 654.4 155.4C654 157.6 653.6 160.2 653.2 163.2C652.8 166.2 652.5 169.4 652.3 172.7C652.1 176 652.1 179.1 652.4 181.9C652.7 184.7 653.3 187 654.3 188.8C655.3 190.6 656.9 191.5 659 191.5C661.1 191.5 663.2 190.4 665.3 188.3C667.4 186.2 669.5 183.5 671.4 180.3C673.4 177.1 675.3 173.5 677.1 169.5C678.9 165.5 680.6 161.7 682.1 157.9C683.6 154.1 684.8 150.7 685.9 147.6C687 144.7 687.8 142.4 688.3 140.9Z" fill="white"/>
<path d="M645.6 224.6C645.6 224.7 645.5 224.8 645.2 224.8C645 224.8 644.6 224.8 644.2 224.7C643.8 224.6 643.4 224.6 643.2 224.6C643 224.6 642.6 224.6 642.2 224.7C641.8 224.8 641.4 224.8 641.2 224.8C640.9 224.8 640.4 223.9 639.9 222.1C639.4 220.3 638.9 219.4 638.3 219.3C637.9 219.3 636.7 219.3 634.8 219.3H632C630 219.3 628.9 219.3 628.6 219.3C628.2 219.3 627.7 220.3 627.2 222.1C626.7 223.9 626.3 224.8 626.1 224.8H622.1C621.9 224.8 621.7 224.7 621.7 224.5C621.7 224.4 621.8 224.1 622 223.7L626.4 211.7C626.8 210.7 627.9 207.9 629.8 203.3C630.1 202.5 630.6 201.4 631.2 199.8C631.3 199.3 631.5 199.1 631.7 199.1C631.9 199.1 632.3 199.1 632.7 199.2C633.1 199.3 633.5 199.3 633.7 199.3C633.9 199.3 634.2 199.3 634.7 199.2C635.1 199.1 635.5 199.1 635.7 199.1C635.8 199.1 636 199.3 636.1 199.8C636.4 200.5 637.8 204.1 640.3 210.6C643.8 219.9 645.6 224.5 645.6 224.6ZM637.3 214.7C637.3 214.4 636.8 212.8 635.7 210C634.7 207.3 633.9 205.6 633.5 204.7C631 211 629.8 214.3 629.8 214.6C629.8 215 630.3 215.2 631.2 215.3C631.2 215.3 631.8 215.3 633 215.3H634.8C636.4 215.4 637.3 215.2 637.3 214.7Z" fill="white" stroke="white" stroke-miterlimit="10"/>
<path d="M665.6 216.2C665.6 218.6 664.8 220.7 663.3 222.5C661.7 224.4 659.7 225.3 657.3 225.3C655.8 225.3 654.5 224.8 653.4 223.9C652.9 223.4 652.4 223 651.9 222.5C651.8 222.5 651.8 222.6 651.8 222.8C651.8 222.9 651.8 223.5 651.8 224.8V229.9C651.8 230.3 651.7 230.5 651.4 230.5C649.6 230.5 648.5 230.5 648.1 230.4C647.8 230.4 647.7 230.2 647.7 229.9C647.7 228.4 647.7 226.1 647.7 223C647.7 219.9 647.7 217.6 647.7 216.1C647.7 213.3 647.5 210.7 647.2 208.2C647.2 208.1 647.2 208 647.2 207.9C647.2 207.8 647.3 207.7 647.4 207.6C647.9 207.6 648.5 207.5 649.4 207.4C650.6 207.2 651.2 207.1 651.4 207.1C651.6 207.1 651.7 207.5 651.8 208.2C651.8 208.7 651.9 209.2 651.9 209.6C651.9 209.7 651.9 209.8 652 209.9C652.1 209.9 652.2 209.8 652.3 209.6C654 207.9 655.7 207 657.4 207C659.8 207 661.8 207.9 663.4 209.8C664.8 211.7 665.6 213.8 665.6 216.2ZM661.4 216.1C661.4 214.7 661 213.4 660.1 212.3C659.2 211.1 658 210.6 656.6 210.6C655.2 210.6 654.1 211.2 653.2 212.4C652.4 213.5 652 214.7 652 216.2C652 217.7 652.4 218.9 653.3 220C654.2 221.2 655.4 221.7 656.8 221.7C658.2 221.7 659.3 221.1 660.2 219.9C660.9 218.7 661.4 217.5 661.4 216.1Z" fill="white" stroke="white" stroke-miterlimit="10"/>
<path d="M686.3 216.2C686.3 218.6 685.5 220.7 684 222.5C682.4 224.4 680.4 225.3 678 225.3C676.5 225.3 675.2 224.8 674.1 223.9C673.6 223.4 673.1 223 672.6 222.5C672.5 222.5 672.5 222.6 672.5 222.8C672.5 222.9 672.5 223.5 672.5 224.8V229.9C672.5 230.3 672.4 230.5 672.1 230.5C670.3 230.5 669.2 230.5 668.8 230.4C668.5 230.4 668.4 230.2 668.4 229.9C668.4 228.4 668.4 226.1 668.4 223C668.4 219.9 668.4 217.6 668.4 216.1C668.4 213.3 668.2 210.7 667.9 208.2C667.9 208.1 667.9 208 667.9 207.9C667.9 207.8 668 207.7 668.1 207.6C668.6 207.6 669.2 207.5 670.1 207.4C671.3 207.2 671.9 207.1 672.1 207.1C672.3 207.1 672.4 207.5 672.5 208.2C672.5 208.7 672.6 209.2 672.6 209.6C672.6 209.7 672.6 209.8 672.7 209.9C672.8 209.9 672.9 209.8 673 209.6C674.7 207.9 676.4 207 678.1 207C680.5 207 682.5 207.9 684.1 209.8C685.5 211.7 686.3 213.8 686.3 216.2ZM682.1 216.1C682.1 214.7 681.7 213.4 680.8 212.3C679.9 211.1 678.7 210.6 677.3 210.6C675.9 210.6 674.8 211.2 673.9 212.4C673.1 213.5 672.7 214.7 672.7 216.2C672.7 217.7 673.1 218.9 674 220C674.9 221.2 676.1 221.7 677.5 221.7C678.9 221.7 680 221.1 680.9 219.9C681.6 218.7 682.1 217.5 682.1 216.1Z" fill="white" stroke="white" stroke-miterlimit="10"/>
</g>
<defs>
<clipPath id="clip0">
<rect width="730" height="250.9" fill="white"/>
</clipPath>
</defs>
</svg>
