<svg width="330" height="368" viewBox="0 0 330 368" fill="none" xmlns="http://www.w3.org/2000/svg">
<rect width="330" height="328" rx="50" fill="#F6F6F6"/>
<path d="M44.2188 295.332C44.2188 294.038 44.2188 292.745 44.2188 291.451C46.4527 290.628 46.6878 292.98 47.6284 293.92C51.6259 298.036 56.4464 300.74 61.9724 300.976C73.4945 301.564 85.0167 301.681 96.5389 300.976C96.774 300.976 97.1268 301.093 97.3619 301.093C108.531 301.093 119.583 301.211 130.753 301.211C163.673 301.211 196.594 301.093 229.514 301.093H229.985H230.455C237.039 301.211 243.741 300.858 250.207 301.446C263.258 302.622 274.897 300.035 284.421 290.628C284.421 296.037 284.421 301.446 284.421 306.855C284.421 314.145 283.245 321.553 288.301 327.903C289.359 329.196 289.359 331.195 289.124 332.959C258.437 332.959 227.633 332.959 196.946 332.959C196.123 324.963 196.123 324.963 187.776 324.963C171.198 324.963 154.502 324.963 137.925 324.963C129.695 324.963 129.695 324.963 129.224 332.959C99.3606 332.959 69.3795 332.959 39.5159 333.077C38.928 331.313 39.3983 329.314 40.3389 328.021C47.2757 318.496 43.6309 307.796 44.2188 297.566C44.2188 296.743 44.2188 296.037 44.2188 295.332Z" fill="#F5705C"/>
<path d="M266.079 231.952C270.547 230.894 270.9 227.366 270.9 223.721C271.018 218.548 273.251 216.196 278.66 217.019C283.48 217.724 288.301 218.077 293.239 218.43C297.119 218.665 298.647 220.546 298.765 224.427C299.235 234.892 299.235 235.127 289.006 236.891C284.068 237.714 279.013 238.537 273.957 239.125C270.195 239.596 269.019 240.654 271.37 244.417C275.603 251.354 279.483 258.645 283.363 265.817C268.431 264.994 253.617 261.819 238.567 261.937C236.686 261.937 234.217 261.819 232.571 260.056C230.925 253.823 225.634 254.176 220.931 253.588C220.931 249.943 219.285 248.179 215.641 248.532C213.524 248.65 211.761 248.297 211.408 245.71C211.173 244.064 210.82 242.418 208.821 242.418C206.823 242.418 206 244.064 205.412 245.828C203.531 245.828 202.237 244.534 200.826 243.593C198.122 241.83 195.065 241.359 192.008 241.242C190.715 241.124 188.951 241.477 188.599 242.77C188.364 243.593 189.304 244.887 190.01 245.71C192.361 248.414 195.536 249.826 198.945 250.649C197.652 251.942 195.888 252.883 195.888 254.999C192.714 256.293 189.422 257.586 186.718 259.82C183.661 259.82 180.486 259.82 177.429 259.938C175.901 259.468 174.49 259.115 172.962 258.645C172.726 257.469 172.491 256.293 172.256 255.235C176.136 253.823 179.663 251.942 182.132 248.532C182.838 247.591 183.661 246.651 183.073 245.357C182.485 244.064 181.074 244.534 180.016 244.417C176.606 244.064 174.02 247.003 170.61 246.886C169.317 243.006 166.848 243.711 164.261 245.357C162.615 246.416 160.969 247.356 159.088 245.475C154.62 240.771 153.797 243.829 153.68 248.179C151.093 247.474 148.506 246.533 145.92 246.063C144.274 245.828 142.157 245.24 141.099 247.003C140.041 249.002 142.04 250.178 143.215 251.237C145.567 253.236 147.918 255.235 151.21 255.587C150.858 256.293 150.505 256.998 150.152 257.586C147.801 261.349 144.038 259.585 140.864 260.173C137.337 258.174 133.222 257.939 129.459 256.763C130.047 256.293 130.635 255.822 131.105 255.352C134.515 254.294 135.573 251.119 136.984 248.532C137.69 247.356 138.865 245.475 137.69 244.299C136.161 242.653 134.515 244.417 132.987 245.004C130.282 246.18 127.931 247.944 126.52 250.649C123.463 252.412 122.523 251.237 123.346 248.179C123.933 245.828 124.051 243.711 121.464 242.888C119.113 242.182 118.055 244.064 117.114 245.828C116.291 247.474 115.233 249.002 113.117 248.297C105.71 246.063 107.708 250.061 109.354 253.823C103.946 254.411 98.6552 255.352 96.1862 261.114C79.0205 262.525 61.8548 263.23 44.9243 265.935C48.8042 258.997 52.449 251.825 56.6816 245.004C59.3858 240.654 58.2101 239.478 53.7423 239.008C47.5109 238.302 41.3971 237.126 35.1657 236.303C28.5816 235.48 29.5222 230.541 29.4046 226.073C29.287 221.958 30.1101 218.783 35.1657 218.43C40.4565 218.077 45.6297 217.254 50.9205 216.784C55.741 216.431 57.6222 219.135 57.5046 223.604C57.2695 228.542 59.2682 231.952 64.559 232.54C66.9105 233.128 69.2619 233.834 71.6134 234.422C76.7866 236.068 81.8423 233.599 87.0155 233.599C91.7184 233.246 96.3038 232.893 101.007 232.658C114.057 231.952 127.108 231.247 140.041 230.541C143.451 230.541 146.978 230.424 150.387 230.424C155.443 230.424 160.499 230.424 165.554 230.424C175.901 230.659 186.13 230.894 196.476 231.247C201.885 231.364 207.293 231.482 212.701 231.717C225.164 232.54 237.627 233.481 250.09 234.304C256.086 236.538 261.024 233.716 266.079 231.952Z" fill="#F5705C"/>
<path d="M197.064 332.842C227.751 332.842 258.555 332.842 289.241 332.842C289.359 336.134 289.477 339.426 289.477 342.719C289.477 351.185 289.477 351.185 281.246 351.773C267.961 351.773 254.793 351.773 241.507 351.773C224.929 351.655 208.351 351.538 191.656 351.538C155.913 351.538 120.171 351.655 84.4289 351.773C71.1431 351.773 57.9749 351.773 44.6892 351.773C43.1607 351.538 41.6322 351.42 40.1038 351.185C39.8686 350.127 39.6335 349.186 39.3984 348.128C39.1632 343.072 38.8105 338.015 39.6335 332.959C69.4971 332.959 99.4783 332.959 129.342 332.842C130.753 335.664 126.638 341.19 133.927 341.073C153.444 340.837 172.962 340.955 192.479 340.955C194.36 340.955 196.476 341.308 196.946 338.486C197.064 338.368 197.182 338.251 197.182 338.133C197.182 337.898 196.946 337.663 196.946 337.427C196.946 336.016 196.946 334.488 197.064 332.842Z" fill="#D9513C"/>
<path d="M36.3414 58.6298C57.5046 62.8629 78.5502 68.1543 100.419 68.2719C105.122 68.2719 109.707 68.0367 114.41 67.9191C119.818 70.3884 122.758 74.9743 125.227 80.0305C127.813 104.841 129.224 129.652 130.518 154.58C129.812 159.519 127.108 158.108 125.109 155.874C120.877 151.288 116.291 151.17 110.883 153.287C105.827 155.286 102.535 158.696 100.301 163.399C99.3606 161.165 101.595 157.285 96.4213 157.285C93.9523 157.285 95.128 154.11 95.128 152.346C94.8929 131.886 94.6577 111.309 94.5401 90.8485C94.5401 88.0264 94.6577 85.6747 90.6602 85.3219C70.3201 83.3229 52.5665 73.2105 33.9899 65.9201C34.6954 63.4508 33.1669 60.276 36.3414 58.6298Z" fill="#343963"/>
<path d="M200.003 135.296C200.121 140.705 204.471 142.704 207.998 145.173C210.35 146.82 213.524 147.408 214.112 150.818C213.172 151.993 211.173 152.817 210.702 151.993C207.998 147.29 203.178 150.7 199.768 148.819C198.945 148.348 197.769 148.113 197.534 149.524C196.946 152.817 190.95 152.464 192.479 157.05C186.482 160.812 190.362 165.281 191.656 169.514C190.95 175.276 192.949 179.979 196.711 184.212C197.769 185.388 198.828 186.446 198.71 188.093C183.425 188.093 168.023 187.975 152.739 187.975C153.562 177.627 155.678 167.397 159.205 157.52C160.734 155.286 161.91 152.934 162.615 150.347C166.73 146.82 169.082 141.999 169.905 136.942C171.08 130.005 169.905 123.185 164.849 117.658C164.731 115.659 164.614 113.543 164.379 111.544C166.26 103.665 171.315 100.961 178.017 104.959C182.485 107.663 185.895 108.604 190.715 105.429C194.007 103.313 198.475 103.43 202.237 106.252C205.882 109.074 205.882 112.367 204.471 116.13C202.355 122.479 198.945 128.359 200.003 135.296Z" fill="#C1E7D8"/>
<path d="M152.856 188.093C168.141 188.093 183.543 188.21 198.828 188.21C198.828 190.209 198.828 192.208 198.828 194.207C196.829 195.971 197.182 198.44 198.24 199.969C199.533 201.968 201.179 199.616 202.708 199.146C204.941 198.44 206.823 199.028 208.821 200.086C210.115 200.792 211.878 201.262 211.643 199.146C211.526 197.852 214.347 194.089 209.409 195.148C209.409 193.149 209.409 191.267 209.409 189.268C216.934 189.621 224.459 188.328 231.866 190.444C236.098 190.915 240.449 191.032 244.564 191.855C247.856 192.443 249.384 195.265 250.56 198.323C254.44 208.082 258.437 217.724 262.552 227.366C263.258 229.13 264.904 230.424 266.079 231.952C260.906 233.716 255.968 236.538 250.207 234.422C245.269 219.488 237.156 207.142 222.813 199.734C217.051 196.794 216.464 196.912 215.523 203.379C214.347 212.786 213.759 222.31 212.819 231.717C207.41 231.6 202.002 231.482 196.594 231.247C196.476 222.428 196.359 213.726 196.241 204.907C196.241 202.085 197.182 198.323 194.125 196.912C191.538 195.736 188.599 197.97 186.012 199.263C185.659 199.381 185.424 199.734 185.072 199.969C174.372 207.494 169.905 218.9 165.672 230.424C160.616 230.424 155.561 230.424 150.505 230.424C150.505 228.777 150.387 227.131 150.387 225.485C150.387 213.021 151.681 200.557 152.856 188.093Z" fill="#E1E6EE"/>
<path d="M204.706 116.365C206 112.602 206.117 109.192 202.472 106.488C198.71 103.665 194.125 103.548 190.95 105.664C186.13 108.722 182.72 107.781 178.252 105.194C171.551 101.196 166.377 103.901 164.614 111.779C161.792 111.779 160.851 108.251 158.03 108.251C152.856 104.841 147.801 101.549 142.628 98.1389C135.926 93.0826 132.164 85.0867 125.344 80.1481C122.875 75.0919 119.936 70.506 114.528 68.0367C114.292 64.3915 110.648 63.8036 108.884 61.4518C107.473 59.4529 105.004 57.5715 106.533 54.867C108.296 51.5746 110.177 55.5725 111.706 55.2198C115.586 54.3967 116.056 56.9836 117.585 59.2177C119.466 62.0398 121.347 65.685 125.815 64.9794C125.697 68.2719 127.931 69.5653 130.518 70.506C134.162 74.6215 138.513 77.6788 142.863 80.9712C149.094 86.3802 155.208 92.1419 164.144 92.7299C165.907 92.7299 167.553 92.965 169.317 92.7299C176.489 92.1419 180.839 88.4968 181.309 83.0878C184.013 79.5602 180.721 77.7964 179.075 75.5622C178.958 74.6215 178.84 73.7984 178.84 72.8577C179.663 73.3281 180.486 73.916 181.309 74.3864C183.19 75.4446 184.719 74.8567 185.895 73.4457C186.365 72.9753 186.835 71.917 186.6 71.4467C185.659 69.6829 183.896 70.506 182.485 70.506C180.956 70.506 179.428 70.8588 177.9 70.9764C176.018 65.8025 178.37 59.9232 183.073 57.9242C184.484 57.3363 185.189 57.9242 186.13 58.7474C194.007 64.7443 194.713 68.1543 190.245 76.9733C189.774 77.914 189.892 79.2074 189.657 80.3833C189.187 82.6174 189.892 84.6164 191.303 86.3802C196.476 92.965 203.648 95.6695 211.526 96.6102C222.813 97.7861 231.043 90.8485 239.978 85.9099C245.974 82.735 251.971 79.5602 257.967 76.2678C260.671 74.7391 263.258 72.9753 264.198 69.6829C267.843 70.1533 271.488 66.8608 275.25 69.5653C275.133 69.9181 275.25 70.2708 275.25 70.506C275.25 72.8577 272.899 74.0336 272.546 76.2678C271.958 76.3853 271.488 76.5029 270.9 76.5029C268.901 77.2084 266.903 77.914 265.727 80.0305C257.849 84.0285 251.5 90.143 245.387 96.2575C232.571 104.489 217.639 108.369 204.706 116.365Z" fill="#ECB29E"/>
<path d="M71.8486 234.539C69.4971 233.951 67.1457 233.246 64.7942 232.658C65.2645 224.074 70.6728 217.372 73.377 209.611C74.6703 205.966 76.7867 202.556 77.7272 198.911C78.903 194.207 81.372 191.855 86.0749 191.738C89.7197 191.62 93.2469 189.856 97.0092 190.797C96.539 195.03 96.0687 199.146 102.535 196.324C102.418 201.145 105.71 202.673 109.472 203.261C118.76 204.672 124.051 202.556 127.226 196.441C130.753 197.029 133.457 198.558 134.515 202.203C131.223 206.906 133.457 212.08 132.987 217.136C132.399 223.369 134.28 228.072 140.276 230.659C127.226 231.364 114.175 232.07 101.242 232.775C96.539 233.011 91.9536 233.363 87.2507 233.716C87.3682 232.658 88.0737 232.07 88.7791 231.364C97.5971 223.839 98.4201 213.962 96.7741 203.379C96.1862 199.146 94.7754 200.322 92.4239 202.203C89.1318 204.907 87.2507 208.67 85.2519 212.08C80.9017 219.723 74.0825 225.72 71.8486 234.539Z" fill="#E1E6EE"/>
<path d="M159.205 157.638C155.796 167.515 153.68 177.627 152.739 188.093H152.621C141.334 188.21 130.165 188.21 118.878 188.328C118.76 185.623 119.701 183.507 121.347 181.39C125.462 176.216 124.521 171.042 118.643 168.22C115.233 166.574 111.236 165.986 107.473 165.163C105.239 164.693 105.71 166.809 105.474 167.868C104.416 172.689 105.827 177.275 108.531 181.155C110.295 183.742 110.883 186.446 110.53 189.386C106.415 189.739 102.065 189.151 98.0674 190.679C97.3619 181.508 97.8322 172.454 100.419 163.635C102.77 158.931 105.945 155.521 111 153.522C116.409 151.406 120.994 151.406 125.227 156.109C127.226 158.226 129.93 159.754 130.635 154.816C133.104 154.933 135.456 155.051 137.925 155.286C144.509 159.284 152.033 157.05 159.205 157.638Z" fill="#1F2548"/>
<path d="M232.806 260.056C234.452 261.819 236.921 261.937 238.803 261.937C253.852 261.819 268.666 264.994 283.598 265.817C285.244 268.522 286.89 271.344 288.654 274.048C287.36 275.577 285.479 275.342 283.715 275.342C265.844 275.342 247.856 275.224 229.985 275.224C203.883 275.224 177.9 275.107 151.916 275.107C154.973 272.52 158.618 270.521 160.499 266.64C164.144 268.404 167.436 269.462 166.965 263.348C169.787 264.877 172.609 266.993 175.666 267.816C178.252 268.522 182.603 269.462 183.778 267.228C185.072 264.524 181.192 262.878 179.075 261.114C178.605 260.761 178.252 260.408 177.782 259.938C180.839 259.938 184.013 259.938 187.07 259.82C186.718 260.996 186.482 261.702 188.128 262.407C193.302 264.406 198.005 262.995 202.708 260.996C202.708 261.584 202.59 262.172 202.59 262.76C202.237 265.112 202.59 267.228 204.941 268.169C207.763 269.345 207.998 266.64 208.821 265.112C209.762 263.348 210.82 263.113 212.584 264.053C217.404 266.405 217.992 263.936 217.169 259.938C222.342 260.408 227.515 262.525 232.806 260.056Z" fill="#ECB29E"/>
<path d="M45.0419 265.935C62.09 263.23 79.2557 262.525 96.3038 261.114C101.124 262.76 105.945 262.642 110.765 261.114C110.648 263.466 111.118 265.582 113.587 266.288C115.586 266.758 116.174 264.877 116.879 263.583C118.408 260.879 119.583 261.114 121.464 263.583C123.933 266.876 126.873 268.522 129.459 263.466C131.576 264.406 133.692 265.347 135.808 266.17C138.748 267.463 142.863 268.287 144.626 266.405C146.743 263.936 141.805 262.642 141.099 260.173C144.274 259.585 148.154 261.349 150.387 257.586C150.505 259.585 150.27 261.819 152.974 262.407C151.21 266.405 150.152 270.638 149.329 274.989C133.692 275.107 118.172 275.224 102.535 275.107C99.4782 275.107 97.2444 275.577 96.5389 278.869C96.4213 275.224 93.8347 275.342 91.1306 275.342C73.9649 275.459 56.7992 275.459 39.6335 275.459C40.5741 271.697 42.9255 268.874 45.0419 265.935Z" fill="#ECB29E"/>
<path d="M178.723 72.9753C178.84 73.916 178.958 74.7391 178.958 75.6798C176.959 75.2095 176.841 72.3874 174.372 72.1522C172.491 75.2095 170.61 78.3843 168.846 81.6767C168.376 82.4999 168.376 83.5581 168.023 84.3812C166.73 87.2033 165.319 89.9078 164.026 92.7299C155.09 92.0244 148.976 86.3802 142.745 80.9712C143.451 76.7381 144.038 72.505 144.744 68.2719C153.092 67.9191 161.439 68.5071 169.787 67.4488C172.609 67.096 173.784 66.7433 173.432 63.4508C172.844 57.5715 176.253 53.9263 181.427 52.0449C185.189 50.6339 187.541 48.6349 186.012 44.1666C185.542 42.638 186.012 41.1094 186.953 39.8159C190.362 35.4652 197.887 35.9356 203.648 40.8742C208.351 44.8722 208.586 49.9284 204.353 54.2791C202.355 54.2791 198.71 56.866 198.828 54.7494C199.063 47.9294 194.36 52.1625 192.831 52.1625C189.657 52.0449 193.066 54.7494 192.243 55.8077C186.953 62.6277 196.829 57.3363 196.946 61.3343C196.946 62.7453 197.299 58.0419 199.886 58.1594C201.767 58.7474 201.532 61.3343 203.06 62.5101C204.471 68.7422 200.709 72.8578 197.064 77.0909L196.711 77.326C196.006 77.7964 195.418 78.2667 194.712 78.6195C192.831 79.2074 191.068 79.7954 189.187 80.5009C189.422 79.325 189.304 78.1492 189.774 77.0909C194.125 68.1543 193.419 64.8619 185.659 58.865C184.719 58.1594 184.013 57.4539 182.602 58.0419C177.9 60.0408 175.548 65.9202 177.429 71.094L177.547 71.4467C177.664 72.1522 177.9 72.8578 178.723 72.9753Z" fill="#343963"/>
<path d="M229.984 275.224C247.856 275.224 265.844 275.342 283.715 275.342C285.479 275.342 287.243 275.577 288.654 274.048C290.182 277.811 287.36 280.633 286.42 283.808C285.832 286.042 285.244 288.276 284.538 290.51C275.015 300.035 263.375 302.504 250.325 301.328C243.741 300.74 237.156 301.093 230.572 300.976C230.455 300.27 230.22 299.447 230.102 298.741C230.102 292.039 230.102 285.337 230.102 278.634C230.22 278.517 230.337 278.399 230.337 278.281C230.337 278.046 230.22 277.811 230.102 277.458C229.984 276.753 229.984 276.047 229.984 275.224ZM255.263 281.104C250.56 280.986 247.268 284.043 247.15 288.511C247.033 292.157 251.383 296.625 255.145 296.272C259.143 295.919 262.082 294.038 262.2 289.335C262.435 284.278 259.848 281.221 255.263 281.104Z" fill="#CFD0D2"/>
<path d="M204.706 116.365C217.639 108.369 232.571 104.489 245.387 96.2574C250.913 102.019 253.382 109.427 256.556 116.482C257.732 119.187 256.439 119.892 254.322 120.48C236.334 125.772 218.58 132.121 200.003 135.296C198.945 128.359 202.355 122.479 204.706 116.365Z" fill="#E1E6EE"/>
<path d="M39.8686 275.459C57.0343 275.459 74.2 275.459 91.3657 275.342C94.0698 275.342 96.5389 275.224 96.774 278.869C96.774 285.101 96.774 291.216 96.774 297.448C96.6564 298.624 96.5389 299.8 96.4213 300.976C84.8991 301.681 73.377 301.564 61.8548 301.093C56.3288 300.858 51.3908 298.154 47.5108 294.038C46.5703 293.097 46.3351 290.863 44.1012 291.569C42.6903 286.16 41.2795 280.751 39.8686 275.459ZM68.3213 280.986C63.7359 281.456 61.2669 283.926 61.1493 288.629C61.0318 293.568 63.9711 296.155 68.3213 296.155C72.6715 296.155 75.6108 293.685 75.4933 288.629C75.2581 283.808 72.9067 281.456 68.3213 280.986Z" fill="#CFD0D2"/>
<path d="M189.539 80.3833C191.421 79.7953 193.184 79.2074 195.065 78.5019C196.123 78.6195 197.064 78.6195 197.064 77.2084L197.417 76.9733C204.236 76.2677 210.115 72.9753 216.111 70.1532C217.639 69.4477 220.226 69.6829 220.108 66.7432C221.284 66.9784 222.46 67.096 223.753 67.3312C227.398 70.6236 231.043 73.916 234.57 77.326C237.039 79.6777 239.273 82.3822 240.213 85.7922C231.278 90.7309 222.93 97.7861 211.761 96.4926C203.766 95.6695 196.594 92.965 191.538 86.2626C189.775 84.4988 189.069 82.6174 189.539 80.3833Z" fill="#E1E6EE"/>
<path d="M44.8067 351.773C58.0925 351.773 71.2607 351.773 84.5464 351.773C84.5464 367.765 84.1937 368 68.0862 368C63.8536 368 59.5033 368 55.2707 368C47.2757 368 44.8067 365.531 44.8067 357.652C44.6891 355.653 44.6891 353.772 44.8067 351.773Z" fill="#1F2548"/>
<path d="M241.507 351.773C254.792 351.773 267.961 351.773 281.246 351.773C281.246 367.882 281.129 368 264.904 368C260.671 368 256.321 368 252.088 368C244.093 368 241.624 365.531 241.507 357.652C241.507 355.653 241.507 353.772 241.507 351.773Z" fill="#1F2548"/>
<path d="M231.866 190.562C224.459 188.445 216.934 189.856 209.409 189.386C209.409 189.033 209.409 188.563 209.409 188.21C211.761 182.096 215.876 176.687 216.464 169.984C218.815 166.927 222.225 164.105 218.462 159.637C217.992 159.049 218.933 157.873 219.991 157.52C225.517 159.166 225.517 164.575 227.045 168.573C229.632 175.628 231.395 183.036 231.866 190.562Z" fill="#C1E7D8"/>
<path d="M219.991 157.638C218.933 157.99 217.992 159.166 218.462 159.754C222.225 164.105 218.815 166.927 216.464 170.102C215.288 166.457 213.172 161.753 209.409 163.164C205.412 164.693 201.767 160.46 197.417 164.222C195.418 165.869 192.479 166.574 191.773 169.749C190.48 165.516 186.6 161.048 192.596 157.285C191.068 152.699 197.064 152.934 197.652 149.759C197.887 148.348 199.063 148.583 199.886 149.054C203.295 150.935 208.116 147.525 210.82 152.229C211.29 153.169 213.289 152.229 214.23 151.053C215.288 152.229 216.228 153.287 217.287 154.463C217.287 156.227 218.697 156.462 219.991 156.697C219.991 156.815 219.991 157.285 219.991 157.638Z" fill="#1F2548"/>
<path d="M123.581 55.5725C121.7 54.0439 120.759 51.8098 119.701 49.6932C113.587 37.8169 114.41 35.5828 126.403 29.5859C127.813 28.8804 129.224 28.1749 130.518 27.2342C135.926 23.7066 138.042 24.1769 140.982 30.0562C143.216 34.2894 142.98 39.1104 143.451 43.8139C142.392 43.8139 141.805 43.1083 141.217 42.1677C138.16 36.9938 133.457 40.7566 129.577 40.0511C126.755 39.5807 126.285 42.5204 124.757 43.9315C120.759 47.8118 125.344 51.9273 123.581 55.5725Z" fill="#343963"/>
<path d="M123.581 55.5725C125.227 51.9273 120.759 47.8118 124.756 43.9315C126.285 42.4028 126.638 39.5807 129.577 40.0511C133.457 40.7566 138.16 36.9938 141.217 42.1677C141.805 43.1083 142.275 43.6963 143.451 43.8139C143.921 49.8108 142.745 55.4549 138.277 59.9232C136.631 61.687 136.514 63.686 136.631 65.9201C133.574 68.2719 130.87 67.5663 128.166 65.2146C128.754 60.8639 125.462 58.6298 123.581 55.5725ZM136.631 50.6339C135.103 51.2218 132.281 49.5756 132.046 52.6329C131.928 54.7494 133.81 55.3373 135.691 55.4549C138.042 55.5725 140.276 54.3967 140.276 52.1625C140.394 49.8108 138.042 50.9866 136.631 50.6339Z" fill="#ECB29E"/>
<path d="M275.25 69.5653C271.488 66.8608 267.961 70.2708 264.198 69.6829C263.258 69.3302 261.847 68.3895 262.317 67.9191C267.02 63.8036 262.67 60.6287 261.377 57.1011C260.554 54.7494 259.495 52.2801 261.494 49.9284C263.728 50.6339 265.727 50.1635 267.49 48.8701C268.784 47.9294 269.959 47.8118 271.135 48.7525C273.722 50.8691 276.073 50.7515 278.895 48.1646C279.248 48.1646 279.483 48.1646 279.836 48.2822C281.011 50.8691 284.068 50.7515 285.714 52.6329C285.009 57.1011 282.54 60.3936 279.365 63.4508C277.719 65.3322 275.368 66.6257 275.25 69.5653Z" fill="#BEDDE7"/>
<path d="M219.873 66.7432C220.108 69.5653 217.522 69.3302 215.876 70.1533C209.88 72.9753 204.001 76.2678 197.182 76.9733C200.826 72.8577 204.589 68.7422 203.178 62.3925C205.647 61.9222 208.116 61.4519 210.585 60.9815C211.173 60.9815 211.761 61.0991 212.349 61.0991C214.583 63.4508 218.11 63.9212 219.873 66.7432Z" fill="#BEB3AA"/>
<path d="M279.013 48.2821C276.308 50.869 273.839 50.9866 271.253 48.8701C270.077 47.9294 268.901 48.047 267.608 48.9877C265.844 50.1635 263.728 50.7515 261.612 50.0459C256.909 50.0459 261.259 46.2832 259.495 44.9897C260.789 43.4611 263.258 42.0501 264.198 42.5204C267.138 44.2842 269.372 46.5183 270.195 40.9918C272.546 42.9907 274.662 37.6994 276.779 40.5214C278.19 42.4028 281.364 44.2842 278.425 47.3414C278.307 47.3414 278.777 47.9294 279.013 48.2821Z" fill="#4A5085"/>
<path d="M36.3414 58.6298C33.1669 60.276 34.6954 63.4508 33.9899 65.9201C29.9924 64.9794 25.995 64.2739 22.115 62.9805C19.9987 62.2749 17.7648 60.5111 18.1175 57.8067C18.3527 55.1022 20.8217 54.9846 22.7029 55.5725C26.3477 56.7484 23.4083 49.458 27.4058 52.0449C29.287 53.2208 30.3452 55.6901 32.1088 57.2187C33.1669 57.9242 34.8129 58.1594 36.3414 58.6298Z" fill="#ECB29E"/>
<path d="M226.81 57.8066C228.691 56.866 230.69 56.0428 232.101 54.2791C233.629 52.3977 235.04 49.6932 236.569 54.2791C237.156 55.8077 238.567 54.867 239.626 54.5142C241.389 54.0439 242.8 54.6318 243.505 56.1604C244.446 58.1594 243.153 59.5704 241.742 60.6287C237.627 63.4508 232.924 64.5091 227.986 64.5091C227.633 62.2749 227.28 60.0408 226.81 57.8066Z" fill="#ECB29E"/>
<path d="M210.702 60.9815C208.233 61.4518 205.764 61.9222 203.295 62.3925C201.767 61.2166 202.002 58.7473 200.121 58.0418C197.534 57.8066 197.182 62.6277 197.182 61.2166C197.064 57.2187 187.305 62.5101 192.479 55.6901C193.302 54.6318 189.892 51.9273 193.067 52.0449C194.595 52.0449 199.298 47.8118 199.063 54.6318C198.945 56.6308 202.59 54.1614 204.589 54.1614C204.354 58.5122 210.702 56.9835 210.702 60.9815Z" fill="#E1E6EE"/>
<path d="M226.81 57.8066C227.163 60.0408 227.633 62.2749 227.986 64.5091C226.457 65.4498 224.929 66.3905 223.518 67.3311C222.342 67.096 221.166 66.9784 219.873 66.7432C218.11 63.9211 214.582 63.3332 212.349 61.0991C217.051 59.2177 221.99 58.7473 226.81 57.8066Z" fill="#343963"/>
<path d="M144.862 68.2719C144.156 72.505 143.568 76.7381 142.863 80.9712C138.513 77.6788 134.162 74.6215 130.518 70.506C133.104 68.6246 135.573 69.2125 137.925 70.7412C141.334 72.9753 141.099 70.2708 141.334 68.2719C142.51 68.2719 143.686 68.2719 144.862 68.2719Z" fill="#E1E6EE"/>
<path d="M97.9498 190.444C102.065 189.033 106.297 189.621 110.413 189.151C110.177 194.207 105.357 194.207 102.418 196.324C95.8334 199.146 96.4213 194.913 96.8916 190.797C97.2443 190.562 97.597 190.444 97.9498 190.444Z" fill="#BEB3AA"/>
<path d="M141.334 68.2718C141.099 70.3884 141.452 72.9753 137.925 70.7412C135.573 69.2125 132.987 68.6246 130.518 70.506C127.931 69.5653 125.697 68.1543 125.815 64.9794C126.638 64.9794 127.343 64.9794 128.166 65.097C130.87 67.4487 133.574 68.1543 136.631 65.8025C139.923 63.3332 141.334 64.3915 141.334 68.2718Z" fill="#343963"/>
<path d="M285.832 52.7504C284.186 50.869 281.129 50.869 279.953 48.3997C281.599 45.3425 284.656 45.1073 286.655 46.8711C288.301 48.0469 288.654 51.1042 285.832 52.7504Z" fill="#4A5085"/>
<path d="M265.727 80.0305C266.902 78.0316 268.784 77.326 270.9 76.5029C270.782 80.6185 270.195 84.2636 265.256 85.5571C264.904 83.6757 266.667 81.9119 265.727 80.0305Z" fill="#BEB3AA"/>
<path d="M272.546 76.2677C272.899 74.1512 275.25 72.8577 275.25 70.506C277.131 71.7994 279.013 73.5632 277.954 75.6798C277.014 77.5612 274.427 76.3853 272.546 76.2677Z" fill="#C1E7D8"/>
<path d="M219.991 156.462C218.697 156.227 217.404 155.991 217.287 154.228C218.815 154.228 219.991 154.58 219.991 156.462Z" fill="#C1E7D8"/>
<path d="M39.3983 348.128C39.6335 349.186 39.8686 350.127 40.1038 351.185C38.5753 350.48 39.0456 349.304 39.3983 348.128Z" fill="#F5705C"/>
<path d="M44.2188 295.332C44.2188 296.037 44.2188 296.743 44.2188 297.448C43.5134 296.743 43.5134 296.037 44.2188 295.332Z" fill="#CFD0D2"/>
<path d="M96.774 297.448C96.774 291.216 96.774 285.101 96.774 278.869C97.4795 275.459 99.7134 275.107 102.77 275.107C118.408 275.224 133.927 274.989 149.564 274.989C150.387 274.989 151.093 275.107 151.916 275.107C177.9 275.107 204.001 275.224 229.985 275.224C229.985 276.047 229.985 276.753 229.985 277.576C229.985 277.929 229.985 278.281 229.985 278.752C229.985 285.454 229.985 292.157 229.985 298.859C229.867 299.565 229.632 300.27 229.514 301.093C196.594 301.093 163.673 301.211 130.753 301.211C119.583 301.211 108.531 301.211 97.3619 301.093C97.4795 299.8 97.7146 298.506 96.774 297.448Z" fill="#D9513C"/>
<path d="M197.064 332.842C197.064 334.37 197.064 336.016 196.946 337.545C196.711 337.898 196.711 338.251 196.946 338.603C196.476 341.425 194.36 341.073 192.479 341.073C172.961 341.073 153.444 340.955 133.927 341.19C126.638 341.308 130.753 335.781 129.342 332.959C129.812 324.963 129.812 324.963 138.042 324.963C154.62 324.963 171.315 324.963 187.893 324.963C196.241 324.846 196.241 324.846 197.064 332.842Z" fill="#CFD0D2"/>
<path d="M96.7741 297.448C97.7147 298.506 97.4795 299.8 97.362 301.093C97.1268 301.093 96.7741 301.093 96.5389 300.976C96.5389 299.8 96.6565 298.624 96.7741 297.448Z" fill="#ECB29E"/>
<path d="M229.514 300.976C229.632 300.27 229.867 299.565 229.984 298.742C230.102 299.447 230.337 300.27 230.455 300.976H229.984H229.514Z" fill="#ECB29E"/>
<path d="M212.936 231.835C213.759 222.31 214.347 212.903 215.641 203.496C216.464 196.912 217.051 196.794 222.93 199.851C237.274 207.259 245.387 219.723 250.325 234.539C237.862 233.599 225.399 232.658 212.936 231.835Z" fill="#BEB3AA"/>
<path d="M165.79 230.659C170.022 219.018 174.49 207.612 185.189 200.204C185.542 199.969 185.777 199.734 186.13 199.498C188.716 198.205 191.656 195.971 194.242 197.147C197.299 198.558 196.359 202.203 196.359 205.143C196.476 213.962 196.594 222.663 196.711 231.482C186.365 231.129 176.136 230.894 165.79 230.659Z" fill="#BEB3AA"/>
<path d="M71.8485 234.539C74.0824 225.72 81.0192 219.723 85.2519 212.08C87.2506 208.553 89.1318 204.907 92.4238 202.203C94.7753 200.322 96.0686 199.146 96.774 203.379C98.4201 213.962 97.597 223.839 88.7791 231.364C87.956 232.07 87.3682 232.658 87.2506 233.716C82.0774 233.716 77.0217 236.185 71.8485 234.539Z" fill="#CFD0D2"/>
<path d="M129.577 263.348C126.99 268.404 124.051 266.758 121.582 263.466C119.701 260.996 118.525 260.761 116.997 263.466C116.174 264.759 115.586 266.64 113.705 266.17C111.236 265.465 110.765 263.348 110.883 260.996C112.646 258.174 115.351 255.234 109.707 253.706C108.061 249.943 106.062 245.945 113.469 248.179C115.586 248.885 116.644 247.239 117.467 245.71C118.408 243.946 119.583 242.065 121.817 242.77C124.404 243.593 124.404 245.592 123.698 248.062C122.875 251.119 123.816 252.295 126.873 250.531C129.577 250.884 131.576 252.06 131.341 255.234C130.753 255.705 130.165 256.175 129.695 256.646C123.698 258.762 129.93 261.114 129.577 263.348Z" fill="#FEFEFE"/>
<path d="M217.051 260.056C217.992 264.171 217.287 266.64 212.466 264.171C210.702 263.23 209.644 263.466 208.704 265.229C207.881 266.876 207.646 269.462 204.824 268.287C202.472 267.346 202.12 265.112 202.472 262.878C202.59 262.29 202.59 261.702 202.59 261.114C204.236 258.88 203.766 257.469 200.826 257.586C198.71 257.586 197.064 257.233 196.123 255.117C196.123 252.883 197.887 251.942 199.18 250.766C202.472 250.766 206.705 251.824 205.647 245.945C206.117 244.181 206.94 242.535 209.056 242.535C211.055 242.535 211.408 244.181 211.643 245.828C211.996 248.414 213.759 248.767 215.876 248.65C219.638 248.414 221.284 250.178 221.167 253.823C220.696 256.41 211.408 253.353 217.051 260.056Z" fill="#FEFEFE"/>
<path d="M153.092 262.407C150.27 261.819 150.623 259.585 150.505 257.586C150.858 256.881 151.21 256.175 151.563 255.587C155.443 254.176 156.736 251.824 154.032 248.297C154.15 243.946 154.855 240.889 159.441 245.592C161.322 247.591 162.85 246.533 164.614 245.475C167.318 243.829 169.669 243.241 170.963 247.003C170.022 250.061 164.261 254.059 172.609 255.352C172.844 256.528 173.079 257.704 173.314 258.762C172.609 262.172 167.2 259.232 167.083 263.348C167.436 269.462 164.261 268.404 160.616 266.64C159.205 259.115 159.205 259.115 153.092 262.407Z" fill="#FEFEFE"/>
<path d="M140.159 230.776C134.162 228.19 132.281 223.604 132.869 217.254C133.339 212.315 131.105 207.024 134.397 202.321C137.454 204.32 138.513 207.73 140.629 210.434C144.391 215.137 145.097 221.84 150.387 225.603C150.387 227.249 150.505 228.895 150.505 230.541C147.095 230.659 143.686 230.659 140.159 230.776Z" fill="#CFD0D2"/>
<path d="M129.577 263.348C129.812 261.114 123.698 258.762 129.695 256.646C133.457 257.821 137.572 258.174 141.099 260.056C141.922 262.525 146.743 263.818 144.626 266.288C142.98 268.287 138.865 267.346 135.808 266.052C133.81 265.229 131.693 264.289 129.577 263.348Z" fill="#BEB3AA"/>
<path d="M205.647 245.945C206.705 251.824 202.59 250.766 199.18 250.766C195.771 249.943 192.596 248.532 190.245 245.828C189.539 245.004 188.599 243.711 188.834 242.888C189.187 241.594 190.95 241.242 192.244 241.359C195.3 241.477 198.357 242.065 201.062 243.711C202.472 244.652 203.766 245.828 205.647 245.945Z" fill="#BEB3AA"/>
<path d="M172.491 255.234C164.261 253.941 169.905 249.943 170.845 246.886C174.255 246.886 176.841 244.064 180.251 244.417C181.309 244.534 182.72 244.064 183.308 245.357C183.896 246.533 183.073 247.591 182.367 248.532C179.898 251.942 176.371 253.823 172.491 255.234Z" fill="#BEB3AA"/>
<path d="M109.589 253.823C115.233 255.352 112.529 258.292 110.765 261.114C105.945 262.76 101.124 262.76 96.3037 261.114C99.0079 255.352 104.181 254.411 109.589 253.823Z" fill="#BEB3AA"/>
<path d="M166.965 263.348C167.083 259.232 172.491 262.055 173.197 258.762C174.725 259.232 176.136 259.585 177.664 260.056C178.135 260.408 178.487 260.879 178.958 261.231C181.074 262.995 185.071 264.641 183.661 267.346C182.485 269.58 178.135 268.639 175.548 267.934C172.491 266.993 169.787 264.877 166.965 263.348Z" fill="#BEB3AA"/>
<path d="M217.051 260.055C211.408 253.353 220.696 256.41 221.166 253.706C225.869 254.294 231.16 253.941 232.806 260.173C227.515 262.525 222.342 260.408 217.051 260.055Z" fill="#BEB3AA"/>
<path d="M154.032 248.179C156.736 251.824 155.443 254.059 151.563 255.47C148.271 255.117 145.92 253.236 143.568 251.119C142.392 250.061 140.394 248.885 141.452 246.886C142.392 245.122 144.626 245.71 146.272 245.945C148.859 246.533 151.446 247.474 154.032 248.179Z" fill="#BEB3AA"/>
<path d="M196.241 255.117C197.182 257.116 198.828 257.586 200.944 257.586C203.766 257.586 204.354 258.88 202.707 261.114C198.005 262.995 193.302 264.524 188.128 262.525C186.482 261.937 186.718 261.114 187.07 259.938C189.774 257.704 192.949 256.528 196.241 255.117Z" fill="#BEB3AA"/>
<path d="M131.458 255.234C131.576 252.06 129.695 250.884 126.99 250.531C128.401 247.827 130.753 246.063 133.457 244.887C134.985 244.181 136.631 242.535 138.16 244.181C139.336 245.475 138.042 247.239 137.454 248.414C135.926 251.001 134.868 254.176 131.458 255.234Z" fill="#BEB3AA"/>
<path d="M196.946 338.603C196.711 338.251 196.711 337.898 196.946 337.545C197.064 337.78 197.182 338.015 197.182 338.251C197.182 338.368 197.064 338.486 196.946 338.603Z" fill="#F5705C"/>
<path d="M137.925 154.933C135.456 154.816 133.104 154.698 130.635 154.463C129.342 129.534 127.813 104.724 125.344 79.9129C132.164 84.9691 135.926 92.8474 142.628 97.9036C142.157 115.071 141.687 132.239 141.334 149.289C141.099 151.993 141.687 154.816 137.925 154.933Z" fill="#E1E6EE"/>
<path d="M137.925 154.933C141.805 154.816 141.217 151.876 141.217 149.407C141.687 132.239 142.157 115.071 142.51 98.0212C147.683 101.431 152.739 104.724 157.912 108.134C152.974 121.891 152.974 121.891 164.144 126.83C163.673 134.708 163.203 142.587 162.733 150.465C162.027 153.052 160.851 155.521 159.323 157.638C152.033 157.05 144.509 159.284 137.925 154.933Z" fill="#343963"/>
<path d="M191.656 169.631C192.361 166.457 195.3 165.751 197.299 164.105C201.649 160.46 205.294 164.575 209.292 163.047C213.054 161.636 215.17 166.339 216.346 169.984C215.641 176.687 211.643 182.096 209.292 188.21C205.764 188.21 202.237 188.21 198.71 188.21C198.71 186.564 197.652 185.388 196.711 184.33C192.949 180.097 190.95 175.393 191.656 169.631ZM208.116 178.568C207.881 175.864 205.647 176.451 204.236 176.569C202.237 176.804 198.945 175.04 198.357 177.98C197.887 180.332 200.474 181.86 202.943 182.096C205.529 182.331 207.175 180.92 208.116 178.568Z" fill="#ECB29E"/>
<path d="M162.615 150.465C163.085 142.587 163.556 134.708 164.026 126.83C165.319 123.89 164.379 120.833 164.849 117.776C169.905 123.302 171.08 130.122 169.905 137.06C169.082 142.116 166.73 146.937 162.615 150.465Z" fill="#FEFEFE"/>
<path d="M164.966 117.893C164.379 120.833 165.437 124.008 164.143 126.948C152.974 122.009 152.974 122.009 157.912 108.251C160.734 108.251 161.674 111.896 164.496 111.779C164.614 113.778 164.849 115.777 164.966 117.893Z" fill="#BEB3AA"/>
<path d="M150.387 225.72C145.097 221.957 144.391 215.255 140.629 210.552C138.513 207.847 137.454 204.437 134.397 202.438C133.339 198.793 130.635 197.147 127.108 196.676C124.051 194.677 118.525 195.265 118.76 189.504C118.76 189.151 118.878 188.798 118.995 188.445C130.282 188.328 141.452 188.328 152.739 188.21C151.681 200.557 150.387 213.021 150.387 225.72Z" fill="#BEB3AA"/>
<path d="M198.828 188.21C202.355 188.21 205.882 188.21 209.409 188.21C209.409 188.563 209.409 189.033 209.409 189.386C209.409 191.385 209.409 193.266 209.409 195.265C205.647 197.264 202.12 197.264 198.828 194.207C198.828 192.208 198.828 190.209 198.828 188.21Z" fill="#CFD0D2"/>
<path d="M198.828 194.207C202.12 197.147 205.647 197.264 209.409 195.265C214.23 194.207 211.526 197.97 211.643 199.263C211.761 201.38 210.115 200.909 208.821 200.204C206.94 199.146 204.941 198.558 202.708 199.263C201.179 199.734 199.533 202.085 198.24 200.086C197.182 198.44 196.829 195.971 198.828 194.207Z" fill="#BEB3AA"/>
<path d="M168.141 84.4988C168.376 83.5581 168.494 82.6174 168.964 81.7943C170.728 78.6194 172.609 75.4446 174.49 72.2698C176.959 72.5049 177.077 75.327 179.075 75.7974C180.721 78.0315 184.013 79.7953 181.309 83.3229C176.841 83.2053 172.609 85.5571 168.141 84.4988Z" fill="#BEB3AA"/>
<path d="M168.141 84.4988C172.726 85.6747 176.841 83.3229 181.309 83.3229C180.839 88.7319 176.489 92.3771 169.317 92.965C167.553 93.0826 165.907 92.965 164.144 92.965C165.437 90.0254 166.73 87.2033 168.141 84.4988Z" fill="#E1E6EE"/>
<path d="M177.782 71.3291L177.664 70.9763C179.193 70.7412 180.721 70.3884 182.25 70.506C183.661 70.506 185.424 69.8005 186.365 71.4467C186.6 71.917 186.13 72.9753 185.659 73.4457C184.366 74.8567 182.838 75.5622 181.074 74.3864C180.251 73.916 179.428 73.4457 178.605 72.8577H178.723C178.487 72.505 178.135 71.917 177.782 71.3291Z" fill="#FEFEFE"/>
<path d="M118.76 189.268C118.643 195.148 124.051 194.442 127.108 196.441C124.051 202.556 118.643 204.79 109.354 203.261C105.475 202.673 102.182 201.027 102.418 196.324C105.357 194.207 110.177 194.207 110.413 189.151C113.234 189.268 115.939 189.268 118.76 189.268Z" fill="#CFD0D2"/>
<path d="M118.76 189.268C116.056 189.268 113.234 189.268 110.53 189.268C110.883 186.211 110.413 183.624 108.531 181.037C105.827 177.157 104.534 172.571 105.475 167.75C105.71 166.692 105.357 164.575 107.473 165.046C111.236 165.869 115.233 166.457 118.643 168.103C124.521 171.042 125.462 176.099 121.347 181.273C119.701 183.389 118.76 185.506 118.878 188.21C118.878 188.563 118.76 188.916 118.76 189.268ZM115.939 176.569C114.292 177.275 111.236 175.276 110.883 178.568C110.648 180.567 112.294 182.213 114.645 181.978C116.879 181.86 118.995 180.685 119.348 178.333C119.583 175.864 117.232 177.039 115.939 176.569Z" fill="#ECB29E"/>
<path d="M153.092 262.407C159.205 259.232 159.205 259.232 160.381 266.64C158.618 270.521 154.855 272.402 151.798 275.107C150.975 275.107 150.27 274.989 149.447 274.989C150.27 270.638 151.328 266.405 153.092 262.407Z" fill="#BEB3AA"/>
<path d="M196.947 77.2084C196.947 78.6195 196.006 78.6195 194.948 78.5019C195.653 78.1491 196.359 77.6788 196.947 77.2084Z" fill="#BEB3AA"/>
<path d="M177.782 71.3291C178.135 71.917 178.37 72.505 178.723 72.9753C177.9 72.8577 177.664 72.1522 177.782 71.3291Z" fill="#ECB29E"/>
<path d="M255.263 281.103C259.848 281.221 262.435 284.278 262.317 289.217C262.2 293.92 259.26 295.802 255.263 296.155C251.5 296.507 247.15 292.157 247.268 288.394C247.385 284.043 250.677 280.986 255.263 281.103Z" fill="#FEFEFE"/>
<path d="M229.984 278.752C229.984 278.399 229.984 278.046 229.984 277.576C230.102 277.811 230.22 278.046 230.22 278.399C230.22 278.517 230.102 278.634 229.984 278.752Z" fill="#ECB29E"/>
<path d="M68.3214 280.986C72.9067 281.456 75.3758 283.808 75.4933 288.629C75.6109 293.568 72.6716 296.155 68.3214 296.155C63.9712 296.155 61.0318 293.685 61.1494 288.629C61.267 283.926 63.736 281.456 68.3214 280.986Z" fill="#FEFEFE"/>
<path d="M136.631 50.6338C138.042 50.9866 140.511 49.8107 140.394 52.0449C140.394 54.3966 138.16 55.4549 135.808 55.3373C133.927 55.3373 131.928 54.6318 132.164 52.5152C132.281 49.5756 135.103 51.2218 136.631 50.6338Z" fill="#FEFEFE"/>
<path d="M208.116 178.568C207.175 181.037 205.529 182.448 202.943 182.096C200.474 181.86 197.769 180.332 198.357 177.98C198.945 175.04 202.237 176.804 204.236 176.569C205.647 176.334 207.763 175.746 208.116 178.568Z" fill="#FEFEFE"/>
<path d="M115.938 176.569C117.349 176.922 119.701 175.864 119.348 178.45C118.995 180.802 116.997 181.861 114.645 182.096C112.294 182.331 110.648 180.567 110.883 178.686C111.236 175.276 114.292 177.275 115.938 176.569Z" fill="#FEFEFE"/>
</svg>
