<svg width="320" height="359" viewBox="0 0 320 359" fill="none" xmlns="http://www.w3.org/2000/svg">
<rect width="319.276" height="317.341" rx="50" fill="#F6F6F6"/>
<path d="M228.334 154.169C230.845 158.354 229.53 162.539 228.573 166.724C227.378 172.224 224.508 177.486 225.584 183.464C226.182 187.171 227.975 189.802 230.845 191.715C248.303 203.075 257.749 220.174 264.326 239.067C270.305 256.166 274.849 273.624 280.588 290.842C287.404 311.29 297.329 330.302 309.764 347.999C312.754 352.184 312.395 354.097 307.134 354.815C295.774 356.369 284.534 358.88 272.935 358.88C234.911 358.88 196.766 358.761 158.742 359C153.48 359 151.448 358.043 151.687 352.184C152.285 326.954 153.48 301.724 155.633 276.613C157.307 257.959 161.014 239.784 168.666 222.446C172.612 213.717 178.471 206.662 185.407 200.205C190.549 195.422 195.69 190.639 196.049 182.986C196.766 182.269 197.364 181.551 198.082 180.834C206.213 172.583 216.496 166.604 222.475 156.321C224.029 154.049 226.301 154.408 228.334 154.169Z" fill="#BEDDE7"/>
<path d="M8.43625 342.021C24.4593 339.988 40.4823 338.672 56.5053 339.39C60.5708 339.629 61.647 338.792 60.4512 334.607C57.3423 323.726 55.7878 312.486 54.2333 301.365C57.9402 299.93 61.7665 299.213 65.1146 296.821C72.5283 291.56 78.6266 285.103 83.29 277.331C85.4423 273.743 87.7142 270.395 92.2581 269.439C95.7257 269.08 99.1934 268.721 102.661 268.363C103.02 271.711 105.411 271.471 107.803 271.471C113.542 273.265 119.521 273.265 125.5 273.863C137.816 275.059 140.327 278.526 138.175 290.484C134.946 307.942 132.196 325.4 129.087 342.858C128.728 345.129 128.848 347.162 129.326 349.315C127.054 349.315 124.663 349.315 122.391 349.315C118.206 332.215 119.641 314.877 119.521 297.539C119.521 293.593 118.804 292.995 115.097 293.593C106.248 294.789 97.2802 295.865 88.3121 296.223C83.8879 296.343 82.6921 297.658 82.8117 301.963C83.29 319.421 80.0615 336.401 75.6372 353.261C74.9198 356.13 73.9632 357.804 70.4955 357.685C50.0482 357.446 30.0793 355.054 10.5886 348.358C7.00136 347.043 8.91455 344.173 8.43625 342.021Z" fill="#1F2548"/>
<path d="M92.1387 269.439C87.7145 270.395 85.4425 273.624 83.1706 277.331C78.5072 285.103 72.4089 291.56 64.9953 296.821C61.6472 299.213 57.8208 299.93 54.114 301.365C52.9182 301.485 51.7225 301.485 50.5267 301.604C46.2221 302.202 45.1459 300.408 45.5046 296.223C46.5808 285.342 47.4178 274.461 48.0157 263.579C48.8527 248.274 48.9723 232.968 50.168 217.782C51.1246 205.347 56.2663 195.183 68.8217 190.519C70.974 189.682 70.974 187.41 72.7676 186.693C76.2353 188.367 79.5834 189.443 82.4532 185.736C83.6489 185.378 85.0838 183.345 85.8013 186.334C86.16 188.128 86.7579 189.922 87.2362 191.715L87.3557 191.596C84.8447 192.313 82.5727 189.443 79.703 191.117C85.323 195.302 89.2689 200.683 91.6604 207.14C89.2689 207.379 87.5949 206.064 85.6817 204.988C81.7357 202.716 77.7898 200.444 73.6046 198.65C70.0174 196.976 66.0714 196.618 63.4408 200.444C60.6906 204.39 63.3212 207.499 65.9519 210.369C73.7242 219.217 84.3664 223.044 95.1281 226.631C94.1715 240.262 93.8128 254.014 88.9102 267.047C87.3557 270.634 90.8234 268.841 92.1387 269.439Z" fill="#343963"/>
<path d="M228.334 154.168C226.182 154.408 224.029 153.929 222.594 156.321C216.496 166.485 206.213 172.583 198.201 180.834C197.484 181.551 196.886 182.268 196.168 182.986C185.167 187.888 174.047 192.911 162.927 197.813C157.665 200.085 152.404 202.477 148.099 206.423C146.664 207.738 144.751 208.575 142.599 208.455C142.001 207.618 141.403 206.662 140.925 205.825C141.284 202.835 141.762 200.683 146.186 201.042C148.338 201.281 150.61 197.335 153.002 195.422C160.416 189.802 167.351 183.584 174.525 177.605C181.7 171.626 183.852 162.539 188.396 155.005C192.222 148.668 195.69 142.45 201.43 137.548C207.648 132.286 207.169 127.982 200.712 122.003C201.43 118.416 199.875 114.948 200.832 111.361C201.669 108.132 203.223 107.295 206.452 108.73C212.55 111.48 216.137 119.253 214.224 125.949C210.039 131.449 215.659 133.96 217.692 137.667C217.094 140.298 216.616 143.048 215.898 145.679C215.3 147.951 214.105 150.342 216.616 152.016C219.007 153.69 221.757 153.69 224.508 152.614C225.703 152.136 226.899 151.538 228.214 150.94H228.334C228.334 152.016 228.334 153.092 228.334 154.168ZM194.136 166.126C198.44 163.137 200.353 159.071 203.462 156.082C204.778 154.766 204.539 153.451 202.745 152.973C199.995 152.375 197.245 149.027 194.853 151.059C192.462 153.092 191.266 156.799 192.222 160.386C192.581 162.06 193.299 163.734 194.136 166.126ZM205.973 117.937C204.778 117.818 202.984 117.339 202.984 119.253C202.984 120.927 204.658 121.764 206.332 121.883C208.006 122.003 209.919 121.525 209.8 119.731C209.68 117.579 207.289 118.894 205.973 117.937Z" fill="#ECB29E"/>
<path d="M140.925 205.706C141.523 206.543 142.121 207.499 142.599 208.336C136.381 217.663 127.891 224.598 118.445 230.577C114.26 233.208 110.194 232.012 106.248 229.86C104.335 227.468 101.705 229.023 99.4326 228.544C98.3565 227.109 96.4433 227.109 95.0084 226.272C84.2467 222.685 73.6045 218.859 65.8322 210.01C63.2015 207.021 60.5709 204.032 63.3211 200.086C65.9517 196.379 69.8977 196.737 73.4849 198.292C77.6701 200.086 81.616 202.357 85.562 204.629C87.4752 205.706 89.2688 207.021 91.5407 206.782C92.4973 208.456 93.3343 210.249 95.6063 210.489H95.7258C96.0846 210.847 96.4433 211.086 96.802 211.445C98.7152 213.119 100.748 214.793 102.661 216.587C111.151 223.044 111.031 222.805 119.76 217.065C126.337 212.521 132.794 207.499 140.925 205.706Z" fill="#4A5085"/>
<path d="M217.812 137.548C215.779 133.96 210.039 131.33 214.344 125.829C216.616 125.471 217.931 123.797 219.127 122.123C223.073 121.286 224.03 118.296 223.671 114.948C223.432 112.437 222.834 109.926 222.355 107.415C223.193 107.056 224.03 106.697 224.867 106.339C232.041 119.612 241.727 129.775 257.152 132.645C261.815 133.482 260.5 135.276 259.065 137.667C254.162 146.157 238.259 153.092 228.454 150.94H228.334C225.823 145.559 224.627 139.461 217.812 137.548Z" fill="#E1E6EE"/>
<path d="M73.0068 174.975C67.1476 170.79 64.3974 164.691 63.7995 157.875C63.3212 152.375 67.2672 149.505 72.1697 148.668C78.7463 147.592 85.8012 149.266 91.78 144.722C93.3344 143.527 94.291 145.44 94.4106 146.875C94.7693 151.418 95.1281 156.082 90.8234 159.43C88.671 160.028 86.6383 160.028 84.3663 159.908C76.3548 159.31 72.7676 162.898 73.6046 170.311C73.6046 171.866 73.1263 173.42 73.0068 174.975Z" fill="#343963"/>
<path d="M224.747 106.339C223.91 106.698 223.073 107.056 222.236 107.415C221.279 107.415 220.203 107.415 219.246 107.415C217.572 105.143 215.54 103.469 212.55 104.426C210.398 105.143 211.713 107.296 211.713 108.372C211.594 111.242 214.942 110.405 216.616 111.6C218.768 114.829 216.735 119.014 219.007 122.242C217.812 123.916 216.496 125.59 214.224 125.949C216.138 119.253 212.55 111.481 206.452 108.73C203.223 107.296 201.789 108.133 200.832 111.361C199.875 114.948 201.43 118.536 200.712 122.003C193.538 111.839 197.364 102.273 209.441 100.599C211.952 100.241 214.344 100.002 214.822 97.0122C215.301 94.1424 216.496 92.1096 219.605 91.99C223.192 91.8704 225.345 94.2619 227.138 97.0122C228.573 99.4036 228.693 101.915 226.899 104.187C226.301 105.143 225.464 105.622 224.747 106.339Z" fill="#343963"/>
<path d="M73.0067 174.975C73.1263 173.42 73.6046 171.746 73.485 170.311C72.7675 162.898 76.2352 159.31 84.2467 159.908C86.399 160.028 88.5514 160.028 90.7037 159.43C90.345 164.691 93.0952 170.67 87.3556 174.735C87.5948 169.594 83.6488 171.507 81.2573 171.148C80.3007 171.029 79.105 171.627 79.5833 172.822C80.779 175.692 82.9314 176.41 85.8012 175.333C86.399 175.094 86.8773 174.855 87.4752 174.735C86.8773 178.801 81.6161 180.714 82.6922 185.617C79.8224 189.324 76.4743 188.247 73.0067 186.573C73.8437 182.627 75.0395 178.801 73.0067 174.975Z" fill="#ECB29E"/>
<path d="M99.5522 228.544C101.824 229.022 104.455 227.348 106.368 229.86C103.857 231.055 105.053 233.327 105.172 235.121C106.009 247.317 106.966 259.394 107.803 271.591C105.411 271.711 103.02 271.83 102.661 268.482C101.585 255.209 100.509 241.817 99.5522 228.544Z" fill="#343963"/>
<path d="M102.661 216.587C100.748 214.913 98.7153 213.239 96.8021 211.445C96.563 210.967 96.8021 210.01 95.7259 210.488L95.8455 210.608C95.6064 203.075 92.2583 196.857 87.4753 191.356L87.3557 191.476C93.2149 191.954 96.2042 195.9 98.3566 200.683C100.629 205.705 101.705 211.086 102.661 216.587Z" fill="#343963"/>
<path d="M122.271 349.195C124.543 349.195 126.935 349.195 129.207 349.195C131.718 352.304 135.544 353.619 138.773 356.25C126.935 360.196 121.673 357.924 122.271 349.195Z" fill="#343963"/>
<path d="M8.43628 342.021C8.91458 344.173 7.12096 347.162 10.5886 348.239C5.56649 349.434 4.37074 354.576 0.783502 357.924C0.305203 353.022 -0.770969 348.119 0.903077 343.336C2.33797 343.336 3.89244 343.814 4.96861 342.14C6.04479 342.021 7.24053 342.021 8.43628 342.021Z" fill="#343963"/>
<path d="M4.84911 342.021C3.77294 343.575 2.21847 343.216 0.783569 343.216C1.74017 341.303 3.29464 341.542 4.84911 342.021Z" fill="#1F2548"/>
<path d="M99.5523 228.544C100.628 241.817 101.585 255.209 102.661 268.482C99.1936 268.841 95.7259 269.199 92.2582 269.558C90.9429 268.841 87.4753 270.754 89.0297 266.808C93.9323 253.774 94.291 240.023 95.2476 226.392C96.5629 227.109 98.4761 227.109 99.5523 228.544Z" fill="#E1E6EE"/>
<path d="M87.3556 191.357C92.1386 196.857 95.4866 203.075 95.7258 210.608C93.4539 210.369 92.6169 208.575 91.6603 206.901C89.2688 200.444 85.4424 195.063 79.7028 190.878C82.6922 189.204 84.8445 192.074 87.3556 191.357Z" fill="#E1E6EE"/>
<path d="M217.812 137.548C224.628 139.342 225.943 145.559 228.334 150.821C227.139 151.419 225.943 152.017 224.628 152.495C221.877 153.571 219.247 153.571 216.736 151.897C214.225 150.103 215.42 147.831 216.018 145.559C216.736 142.929 217.214 140.298 217.812 137.548Z" fill="#CFD0D2"/>
<path d="M194.136 166.126C193.299 163.735 192.701 162.06 192.223 160.386C191.266 156.799 192.462 153.212 194.853 151.06C197.245 149.027 199.995 152.375 202.745 152.973C204.539 153.332 204.778 154.647 203.463 156.082C200.354 159.071 198.321 163.137 194.136 166.126Z" fill="#BEDDE7"/>
<path d="M205.974 117.938C207.289 118.895 209.8 117.579 209.92 119.732C210.039 121.525 208.126 122.123 206.452 121.884C204.778 121.764 203.104 120.927 203.104 119.253C202.984 117.34 204.658 117.818 205.974 117.938Z" fill="#FEFEFE"/>
<path d="M95.7259 210.488C96.8021 210.01 96.5629 210.967 96.8021 211.445C96.4434 211.086 96.0846 210.847 95.7259 210.488Z" fill="#E1E6EE"/>
<path d="M219.007 122.123C216.735 118.894 218.649 114.709 216.616 111.481C216.377 109.328 218.409 108.611 219.366 107.296C220.323 107.296 221.399 107.296 222.355 107.296C222.834 109.807 223.432 112.318 223.671 114.829C223.91 118.416 222.953 121.286 219.007 122.123Z" fill="#BEB3AA"/>
<path d="M219.366 107.295C218.529 108.73 216.377 109.328 216.616 111.48C215.061 110.285 211.594 111.122 211.713 108.252C211.713 107.176 210.398 105.023 212.55 104.306C215.659 103.349 217.692 105.023 219.366 107.295Z" fill="#E1E6EE"/>
<path d="M87.3557 174.616C86.7578 174.855 86.2795 175.094 85.6817 175.214C82.8119 176.29 80.6595 175.573 79.4638 172.703C78.9855 171.507 80.0617 170.909 81.1378 171.029C83.6489 171.507 87.5949 169.594 87.3557 174.616C87.3557 174.736 87.3557 174.616 87.3557 174.616Z" fill="#FEFEFE"/>
</svg>
