<svg width="261" height="224" viewBox="0 0 261 224" fill="none" xmlns="http://www.w3.org/2000/svg">
<g clip-path="url(#clip0)">
<path d="M191 51.9C193.1 55.4 192 58.9 191.2 62.4C190.2 67 187.8 71.4 188.7 76.4C189.2 79.5 190.7 81.7 193.1 83.3C207.7 92.8 215.6 107.1 221.1 122.9C226.1 137.2 229.9 151.8 234.7 166.2C240.4 183.3 248.7 199.2 259.1 214C261.6 217.5 261.3 219.1 256.9 219.7C247.4 221 238 223.1 228.3 223.1C196.5 223.1 164.6 223 132.8 223.2C128.4 223.2 126.7 222.4 126.9 217.5C127.4 196.4 128.4 175.3 130.2 154.3C131.6 138.7 134.7 123.5 141.1 109C144.4 101.7 149.3 95.8 155.1 90.4C159.4 86.4 163.7 82.4 164 76C164.6 75.4 165.1 74.8 165.7 74.2C172.5 67.3 181.1 62.3 186.1 53.7C187.4 51.8 189.3 52.1 191 51.9Z" fill="#BEDDE7"/>
<path d="M7.1 209C20.5 207.3 33.9 206.2 47.3 206.8C50.7 207 51.6 206.3 50.6 202.8C48 193.7 46.7 184.3 45.4 175C48.5 173.8 51.7 173.2 54.5 171.2C60.7 166.8 65.8 161.4 69.7 154.9C71.5 151.9 73.4 149.1 77.2 148.3C80.1 148 83 147.7 85.9 147.4C86.2 150.2 88.2 150 90.2 150C95 151.5 100 151.5 105 152C115.3 153 117.4 155.9 115.6 165.9C112.9 180.5 110.6 195.1 108 209.7C107.7 211.6 107.8 213.3 108.2 215.1C106.3 215.1 104.3 215.1 102.4 215.1C98.9 200.8 100.1 186.3 100 171.8C100 168.5 99.4 168 96.3 168.5C88.9 169.5 81.4 170.4 73.9 170.7C70.2 170.8 69.2 171.9 69.3 175.5C69.7 190.1 67 204.3 63.3 218.4C62.7 220.8 61.9 222.2 59 222.1C41.9 221.9 25.2 219.9 8.9 214.3C5.9 213.2 7.5 210.8 7.1 209Z" fill="#1F2548"/>
<path d="M77.1 148.3C73.4 149.1 71.5 151.8 69.6 154.9C65.7 161.4 60.6 166.8 54.4 171.2C51.6 173.2 48.4 173.8 45.3 175C44.3 175.1 43.3 175.1 42.3 175.2C38.7 175.7 37.8 174.2 38.1 170.7C39 161.6 39.7 152.5 40.2 143.4C40.9 130.6 41 117.8 42 105.1C42.8 94.7 47.1 86.2 57.6 82.3C59.4 81.6 59.4 79.7 60.9 79.1C63.8 80.5 66.6 81.4 69 78.3C70 78 71.2 76.3 71.8 78.8C72.1 80.3 72.6 81.8 73 83.3L73.1 83.2C71 83.8 69.1 81.4 66.7 82.8C71.4 86.3 74.7 90.8 76.7 96.2C74.7 96.4 73.3 95.3 71.7 94.4C68.4 92.5 65.1 90.6 61.6 89.1C58.6 87.7 55.3 87.4 53.1 90.6C50.8 93.9 53 96.5 55.2 98.9C61.7 106.3 70.6 109.5 79.6 112.5C78.8 123.9 78.5 135.4 74.4 146.3C73.1 149.3 76 147.8 77.1 148.3Z" fill="#343963"/>
<path d="M191 51.9C189.2 52.1 187.4 51.7 186.2 53.7C181.1 62.2 172.5 67.3 165.8 74.2C165.2 74.8 164.7 75.4 164.1 76C154.9 80.1 145.6 84.3 136.3 88.4C131.9 90.3 127.5 92.3 123.9 95.6C122.7 96.7 121.1 97.4 119.3 97.3C118.8 96.6 118.3 95.8 117.9 95.1C118.2 92.6 118.6 90.8 122.3 91.1C124.1 91.3 126 88 128 86.4C134.2 81.7 140 76.5 146 71.5C152 66.5 153.8 58.9 157.6 52.6C160.8 47.3 163.7 42.1 168.5 38C173.7 33.6 173.3 30 167.9 25C168.5 22 167.2 19.1 168 16.1C168.7 13.4 170 12.7 172.7 13.9C177.8 16.2 180.8 22.7 179.2 28.3C175.7 32.9 180.4 35 182.1 38.1C181.6 40.3 181.2 42.6 180.6 44.8C180.1 46.7 179.1 48.7 181.2 50.1C183.2 51.5 185.5 51.5 187.8 50.6C188.8 50.2 189.8 49.7 190.9 49.2H191C191 50.1 191 51 191 51.9ZM162.4 61.9C166 59.4 167.6 56 170.2 53.5C171.3 52.4 171.1 51.3 169.6 50.9C167.3 50.4 165 47.6 163 49.3C161 51 160 54.1 160.8 57.1C161.1 58.5 161.7 59.9 162.4 61.9ZM172.3 21.6C171.3 21.5 169.8 21.1 169.8 22.7C169.8 24.1 171.2 24.8 172.6 24.9C174 25 175.6 24.6 175.5 23.1C175.4 21.3 173.4 22.4 172.3 21.6Z" fill="#ECB29E"/>
<path d="M117.9 95C118.4 95.7 118.9 96.5 119.3 97.2C114.1 105 107 110.8 99.1 115.8C95.6 118 92.2 117 88.9 115.2C87.3 113.2 85.1 114.5 83.2 114.1C82.3 112.9 80.7 112.9 79.5 112.2C70.5 109.2 61.6 106 55.1 98.6C52.9 96.1 50.7 93.6 53 90.3C55.2 87.2 58.5 87.5 61.5 88.8C65 90.3 68.3 92.2 71.6 94.1C73.2 95 74.7 96.1 76.6 95.9C77.4 97.3 78.1 98.8 80 99H80.1C80.4 99.3 80.7 99.5 81 99.8C82.6 101.2 84.3 102.6 85.9 104.1C93 109.5 92.9 109.3 100.2 104.5C105.7 100.7 111.1 96.5 117.9 95Z" fill="#4A5085"/>
<path d="M182.2 38C180.5 35 175.7 32.8 179.3 28.2C181.2 27.9 182.3 26.5 183.3 25.1C186.6 24.4 187.4 21.9 187.1 19.1C186.9 17 186.4 14.9 186 12.8C186.7 12.5 187.4 12.2 188.1 11.9C194.1 23 202.2 31.5 215.1 33.9C219 34.6 217.9 36.1 216.7 38.1C212.6 45.2 199.3 51 191.1 49.2H191C188.9 44.7 187.9 39.6 182.2 38Z" fill="#E1E6EE"/>
<path d="M61.1 69.3C56.2 65.8 53.9 60.7 53.4 55C53 50.4 56.3 48 60.4 47.3C65.9 46.4 71.8 47.8 76.8 44C78.1 43 78.9 44.6 79 45.8C79.3 49.6 79.6 53.5 76 56.3C74.2 56.8 72.5 56.8 70.6 56.7C63.9 56.2 60.9 59.2 61.6 65.4C61.6 66.7 61.2 68 61.1 69.3Z" fill="#343963"/>
<path d="M188 11.9C187.3 12.2 186.6 12.5 185.9 12.8C185.1 12.8 184.2 12.8 183.4 12.8C182 10.9 180.3 9.5 177.8 10.3C176 10.9 177.1 12.7 177.1 13.6C177 16 179.8 15.3 181.2 16.3C183 19 181.3 22.5 183.2 25.2C182.2 26.6 181.1 28 179.2 28.3C180.8 22.7 177.8 16.2 172.7 13.9C170 12.7 168.8 13.4 168 16.1C167.2 19.1 168.5 22.1 167.9 25C161.9 16.5 165.1 8.5 175.2 7.1C177.3 6.8 179.3 6.6 179.7 4.1C180.1 1.7 181.1 -3.4431e-06 183.7 -0.100003C186.7 -0.200003 188.5 1.8 190 4.1C191.2 6.1 191.3 8.2 189.8 10.1C189.3 10.9 188.6 11.3 188 11.9Z" fill="#343963"/>
<path d="M61.1 69.3C61.2 68 61.6 66.6 61.5 65.4C60.9 59.2 63.8 56.2 70.5 56.7C72.3 56.8 74.1 56.8 75.9 56.3C75.6 60.7 77.9 65.7 73.1 69.1C73.3 64.8 70 66.4 68 66.1C67.2 66 66.2 66.5 66.6 67.5C67.6 69.9 69.4 70.5 71.8 69.6C72.3 69.4 72.7 69.2 73.2 69.1C72.7 72.5 68.3 74.1 69.2 78.2C66.8 81.3 64 80.4 61.1 79C61.8 75.7 62.8 72.5 61.1 69.3Z" fill="#ECB29E"/>
<path d="M83.3 114.1C85.2 114.5 87.4 113.1 89 115.2C86.9 116.2 87.9 118.1 88 119.6C88.7 129.8 89.5 139.9 90.2 150.1C88.2 150.2 86.2 150.3 85.9 147.5C85 136.4 84.1 125.2 83.3 114.1Z" fill="#343963"/>
<path d="M85.9 104.1C84.3 102.7 82.6 101.3 81 99.8C80.8 99.4 81 98.6 80.1 99L80.2 99.1C80 92.8 77.2 87.6 73.2 83L73.1 83.1C78 83.5 80.5 86.8 82.3 90.8C84.2 95 85.1 99.5 85.9 104.1Z" fill="#343963"/>
<path d="M102.3 215C104.2 215 106.2 215 108.1 215C110.2 217.6 113.4 218.7 116.1 220.9C106.2 224.2 101.8 222.3 102.3 215Z" fill="#343963"/>
<path d="M7.09999 209C7.49999 210.8 5.99999 213.3 8.89999 214.2C4.7 215.2 3.69999 219.5 0.699995 222.3C0.299995 218.2 -0.600005 214.1 0.799995 210.1C1.99999 210.1 3.29999 210.5 4.19999 209.1C5.09999 209 6.09999 209 7.09999 209Z" fill="#343963"/>
<path d="M4.1 209C3.2 210.3 1.9 210 0.699997 210C1.5 208.4 2.8 208.6 4.1 209Z" fill="#1F2548"/>
<path d="M83.3 114.1C84.2 125.2 85 136.4 85.9 147.5C83 147.8 80.1 148.1 77.2 148.4C76.1 147.8 73.2 149.4 74.5 146.1C78.6 135.2 78.9 123.7 79.7 112.3C80.8 112.9 82.4 112.9 83.3 114.1Z" fill="#E1E6EE"/>
<path d="M73.1 83C77.1 87.6 79.9 92.8 80.1 99.1C78.2 98.9 77.5 97.4 76.7 96C74.7 90.6 71.5 86.1 66.7 82.6C69.2 81.2 71 83.6 73.1 83Z" fill="#E1E6EE"/>
<path d="M182.2 38C187.9 39.5 189 44.7 191 49.1C190 49.6 189 50.1 187.9 50.5C185.6 51.4 183.4 51.4 181.3 50C179.2 48.5 180.2 46.6 180.7 44.7C181.3 42.5 181.7 40.3 182.2 38Z" fill="#CFD0D2"/>
<path d="M162.4 61.9C161.7 59.9 161.2 58.5 160.8 57.1C160 54.1 161 51.1 163 49.3C165 47.6 167.3 50.4 169.6 50.9C171.1 51.2 171.3 52.3 170.2 53.5C167.6 56 165.9 59.4 162.4 61.9Z" fill="#BEDDE7"/>
<path d="M172.3 21.6C173.4 22.4 175.5 21.3 175.6 23.1C175.7 24.6 174.1 25.1 172.7 24.9C171.3 24.8 169.9 24.1 169.9 22.7C169.8 21.1 171.2 21.5 172.3 21.6Z" fill="#FEFEFE"/>
<path d="M80.1 99C81 98.6 80.8 99.4 81 99.8C80.7 99.5 80.4 99.3 80.1 99Z" fill="#E1E6EE"/>
<path d="M183.2 25.1C181.3 22.4 182.9 18.9 181.2 16.2C181 14.4 182.7 13.8 183.5 12.7C184.3 12.7 185.2 12.7 186 12.7C186.4 14.8 186.9 16.9 187.1 19C187.3 22 186.5 24.4 183.2 25.1Z" fill="#BEB3AA"/>
<path d="M183.5 12.7C182.8 13.9 181 14.4 181.2 16.2C179.9 15.2 177 15.9 177.1 13.5C177.1 12.6 176 10.8 177.8 10.2C180.4 9.4 182.1 10.8 183.5 12.7Z" fill="#E1E6EE"/>
<path d="M73.1 69C72.6 69.2 72.2 69.4 71.7 69.5C69.3 70.4 67.5 69.8 66.5 67.4C66.1 66.4 67 65.9 67.9 66C70 66.4 73.3 64.8 73.1 69C73.1 69 73.1 69.1 73.1 69Z" fill="#FEFEFE"/>
</g>
<defs>
<clipPath id="clip0">
<rect width="260.7" height="223.1" fill="white"/>
</clipPath>
</defs>
</svg>
