<svg width="330" height="419" viewBox="0 0 330 419" fill="none" xmlns="http://www.w3.org/2000/svg">
<rect width="330" height="328" rx="50" fill="#E8E2F1"/>
<path d="M184.186 176.32C185.215 183.513 183.892 190.414 180.951 197.02C178.452 202.746 178.305 207.884 181.539 213.61C190.801 230.787 200.063 247.964 201.533 268.077C201.68 269.986 202.268 272.041 202.121 273.803C199.622 296.559 206.237 317.7 213.44 338.694C217.851 351.466 219.762 365.267 227.994 376.718C233.875 384.793 241.372 389.344 251.369 389.344C253.133 389.344 255.485 388.904 256.367 389.784C266.658 399.474 280.624 397.272 292.826 400.942C295.913 401.823 299 402.704 298.853 406.227C298.853 410.485 294.884 409.457 292.238 410.045C266.07 415.623 239.461 415.477 212.852 416.357C199.769 416.798 186.832 419 173.748 416.064C170.367 415.33 166.544 415.917 162.869 416.945C153.461 419.587 144.052 419.734 134.937 415.77C131.703 414.302 128.763 415.036 125.676 416.064C118.325 418.266 110.828 418.119 103.477 416.357C100.39 412.687 99.3611 409.017 102.889 404.759C105.094 401.97 106.418 398.446 108.182 395.363C112.151 390.812 114.209 385.233 115.091 379.654C117.443 362.037 120.089 344.419 120.971 326.802C122.148 304.487 121.854 282.024 124.353 259.709C126.411 241.211 132.732 224.327 145.816 210.38C148.903 209.793 152.138 209.646 155.078 208.765C157.283 208.031 159.194 204.948 156.548 204.214C152.432 203.039 148.315 198.782 143.317 202.159C143.17 200.544 143.17 198.929 143.023 197.461C157.43 191.148 172.425 186.743 184.186 176.32Z" fill="#BEDDE7"/>
<path d="M108.329 395.363C106.565 398.593 105.388 402.117 103.036 404.759C99.5081 409.017 100.537 412.687 103.624 416.357C102.595 416.357 101.713 416.357 100.684 416.357C100.243 416.211 99.6551 416.211 99.2141 416.064C95.5389 411.072 96.5679 404.906 96.1269 399.327C93.3337 364.533 91.1286 329.591 88.6294 294.797C88.6294 293.769 88.6294 292.742 88.3354 291.861C87.7473 290.099 89.3645 286.722 85.6892 286.869C82.602 287.016 83.3371 290.099 83.043 292.154C81.4259 304.78 79.9558 317.406 78.3387 330.032C75.3985 353.815 72.4584 377.599 69.3712 401.383C69.2242 402.557 69.3712 403.878 67.7541 404.319C64.5198 404.319 61.4326 404.319 58.1984 404.319C55.1112 365.56 51.436 326.949 47.7608 288.337C47.4667 284.814 48.2018 280.85 44.8206 278.06C45.4086 271.16 48.6428 266.022 54.9642 262.939C59.6685 260.59 63.1968 257.066 67.166 253.983C70.2532 251.487 73.1934 248.111 77.7507 248.258C90.2465 247.964 102.889 247.523 115.385 247.23C116.855 250.9 116.267 255.598 120.824 257.507C122.001 261.764 119.648 265.581 119.354 269.692C117.443 292.742 114.944 315.791 113.033 338.841C111.71 357.633 108.77 376.424 108.329 395.363Z" fill="#1F2548"/>
<path d="M77.8977 248.258C73.3404 248.111 70.4002 251.634 67.313 253.983C63.3438 257.066 59.6685 260.737 55.1112 262.939C48.7898 266.022 45.5556 271.16 44.9676 278.06C38.0581 277.179 36.294 273.362 36.147 266.609C35.706 234.457 37.4701 202.599 43.4975 171.034C47.1727 152.096 53.9352 135.065 75.1045 129.193C75.6926 129.046 75.8396 127.578 76.1336 126.697C80.9849 125.963 86.2773 131.395 90.6876 125.523C93.6277 123.467 96.5679 121.118 96.7149 127.578C96.7149 129.193 97.744 130.661 98.3321 132.276C98.185 132.57 97.891 132.716 97.744 133.01C94.0688 133.304 90.8346 129.487 87.0123 131.689C96.862 146.957 96.2739 164.281 97.744 181.164C96.2739 177.054 92.4517 179.99 90.0995 178.669C89.2175 167.511 86.5713 156.647 81.1319 146.81C78.0447 141.378 73.1934 139.029 66.872 140.204C60.5506 141.378 58.3455 145.93 58.0514 151.802C57.7574 157.234 58.3455 162.372 60.1096 167.658C63.1968 177.2 68.7831 185.569 72.8994 194.524C77.4567 204.067 78.7798 217.574 93.9218 218.308C91.2756 228.144 85.6892 236.072 79.2208 243.706C78.1917 244.881 75.3986 245.909 77.8977 248.258Z" fill="#343963"/>
<path d="M90.2465 178.669C92.5987 179.99 96.4209 177.054 97.891 181.164C99.3611 185.862 103.771 185.569 107.3 186.743C112.004 186.89 116.855 186.89 121.56 187.037C126.117 187.037 130.527 186.45 134.643 184.247C141.406 184.101 146.404 180.137 151.696 176.32C146.551 176.76 142.876 169.126 137.437 174.117C132.291 175.145 127.293 177.641 121.854 177.054C121.854 172.649 121.707 168.098 121.707 163.694C125.529 163.4 128.91 161.785 131.85 159.289C137.29 158.262 141.7 154.445 147.286 153.123C155.519 151.215 157.724 142.7 152.285 135.8C152.432 135.359 152.432 134.772 152.579 134.331C153.461 134.772 154.343 135.212 155.225 135.506C157.283 136.093 159.194 135.8 160.37 133.891C161.105 132.863 161.399 131.542 160.223 130.661C158.459 129.487 156.548 129.927 154.637 130.074C152.873 130.221 152.432 131.689 152.138 133.157C149.785 129.487 147.433 125.376 150.667 121.412C152.579 119.063 166.544 120.825 168.456 123.32C172.278 128.459 169.926 132.863 166.103 136.827C162.722 145.636 163.751 149.013 170.955 154.445C174.483 157.087 177.864 159.877 181.539 162.226C185.215 164.721 186.832 167.805 186.097 172.209C185.656 173.677 185.068 174.998 184.627 176.466C172.425 186.743 157.43 191.148 143.317 197.167C136.555 197.167 129.645 197.167 122.883 197.167C122.442 197.167 122.001 197.167 121.56 197.167C116.855 195.552 112.151 194.378 107.153 194.524C103.624 192.029 99.5081 191.882 95.5389 191.441C92.7457 189.386 89.8055 187.331 87.0123 185.275C85.2482 183.954 83.9251 182.045 84.8072 179.696C85.8362 176.76 88.1884 178.522 90.2465 178.669Z" fill="#ECB29E"/>
<path d="M185.803 172.062C186.538 167.658 184.921 164.575 181.245 162.079C177.57 159.583 174.189 156.794 170.661 154.298C163.31 149.013 162.428 145.636 165.809 136.68C178.599 133.304 181.98 123.467 174.189 112.456C176.394 109.226 178.305 111.135 180.069 112.897C194.77 126.991 203.15 144.608 209.177 163.547C210.5 167.658 209.177 170.741 203.885 170.888C197.857 170.888 191.977 173.237 185.803 172.062Z" fill="#E1E6EE"/>
<path d="M174.189 112.456C181.98 123.467 178.599 133.304 165.809 136.68C169.632 132.716 171.984 128.459 168.162 123.174C166.397 120.678 152.285 118.916 150.373 121.265C147.139 125.229 149.344 129.34 151.843 133.01C151.843 133.45 151.99 133.744 152.285 134.038C152.138 134.478 152.138 135.065 151.991 135.506C145.669 132.57 145.081 126.55 143.905 120.825C144.346 113.484 147.433 108.052 155.078 106.584C159.488 105.703 160.37 103.207 159.782 99.0965C159.194 94.5453 162.722 92.7835 165.956 91.0218C169.926 88.9664 173.454 90.1409 176.835 92.6367C179.922 94.9857 180.657 98.2156 179.775 101.739C178.893 105.556 177.423 105.85 173.601 103.941C171.543 102.914 169.338 102.914 167.721 105.116C169.779 106.437 163.898 111.282 170.367 110.695C171.543 110.695 172.425 112.75 174.189 112.456Z" fill="#343963"/>
<path d="M90.6875 125.376C86.2773 131.248 80.9849 125.816 76.1336 126.55C80.3969 120.678 77.3097 116.567 72.8994 112.897C73.4874 109.08 73.9285 105.263 71.8703 101.739C71.2823 100.711 70.8413 98.8028 72.0173 98.5092C77.4567 96.7475 78.9268 89.4068 85.6892 89.5537C89.2175 89.5537 92.7457 88.2324 96.2739 87.4983C99.5081 96.8943 102.301 106.29 94.5098 114.952C91.5696 117.888 89.9525 121.265 90.6875 125.376ZM90.2465 104.822C88.1884 105.85 84.2191 103.207 83.7781 107.171C83.3371 110.254 86.7183 111.575 89.3645 111.722C92.5987 112.016 95.3918 109.814 95.5389 106.731C95.5389 103.207 92.0106 105.556 90.2465 104.822Z" fill="#ECB29E"/>
<path d="M121.56 186.89C116.855 186.743 112.004 186.743 107.3 186.597C109.211 167.805 105.83 149.893 97.597 132.716C97.744 132.423 98.038 132.276 98.185 131.982C112.739 137.414 119.207 148.866 121.56 163.4C121.56 167.805 121.707 172.356 121.707 176.76C121.707 180.284 121.707 183.66 121.56 186.89Z" fill="#343963"/>
<path d="M96.1269 87.3515C92.5987 88.0856 89.0704 89.5537 85.5422 89.4069C78.7798 89.2601 77.3097 96.6007 71.8703 98.3624C70.8413 98.656 71.1353 100.565 71.7233 101.592C73.7814 105.263 73.3404 108.933 72.7524 112.75C68.1951 108.933 65.1079 103.941 62.4617 98.9497C58.7865 92.0495 60.5506 86.3238 67.019 81.9195C71.7233 78.6896 77.1627 77.2215 82.896 76.781C88.6294 76.4874 93.9217 75.0193 97.744 69C99.3611 76.047 103.33 82.2131 96.1269 87.3515Z" fill="#343963"/>
<path d="M144.052 120.825C145.228 126.55 145.816 132.716 152.138 135.506C157.577 142.406 155.372 150.921 147.139 152.83C141.553 154.151 137.29 157.968 131.703 158.996C130.086 148.279 134.79 138.883 137.584 129.193C138.613 125.816 138.907 121.265 144.052 120.825Z" fill="#E1E6EE"/>
<path d="M58.6395 404.172C61.8737 404.172 64.9609 404.172 68.1951 404.172C67.019 407.989 70.2532 409.017 72.4584 410.779C74.5165 412.393 77.3097 412.981 79.2208 416.357C73.1934 416.357 67.7541 416.357 62.4617 416.357C59.3745 416.357 58.1984 414.449 58.3454 411.513C58.3454 409.017 58.4925 406.668 58.6395 404.172Z" fill="#343963"/>
<path d="M99.3611 416.064C99.8021 416.211 100.39 416.211 100.831 416.357C100.096 417.238 99.6551 416.945 99.3611 416.064Z" fill="#BEDDE7"/>
<path d="M140.524 203.039C141.553 202.599 142.582 202.159 143.611 201.865C148.609 198.488 152.726 202.746 156.842 203.92C159.488 204.654 157.577 207.884 155.372 208.471C152.432 209.352 149.197 209.646 146.11 210.086C144.64 208.471 142.582 209.206 140.818 209.059C140.524 207.15 140.524 205.095 140.524 203.039Z" fill="#ECB29E"/>
<path d="M77.8977 248.258C75.5456 245.909 78.3387 245.028 79.3678 243.706C85.8362 236.072 91.4226 228.144 94.0688 218.308C98.332 215.078 103.477 215.812 108.182 214.931C110.093 225.795 111.71 236.806 115.532 247.23C102.889 247.523 90.3935 247.964 77.8977 248.258Z" fill="#E1E6EE"/>
<path d="M115.532 247.23C111.71 236.806 110.093 225.795 108.182 214.931C112.445 211.995 117.149 214.05 121.56 213.463C121.413 228.144 121.266 242.825 120.971 257.507C116.267 255.598 117.002 250.753 115.532 247.23Z" fill="#343963"/>
<path d="M121.56 213.316C117.149 213.904 112.298 211.995 108.182 214.784C103.477 215.665 98.185 215.078 94.0687 218.161C78.9268 217.427 77.6037 203.92 73.0464 194.378C68.7831 185.422 63.3438 177.054 60.2566 167.511C58.4925 162.226 58.0514 157.087 58.1984 151.655C58.4925 145.783 60.6976 141.232 67.019 140.057C73.3404 138.883 78.1917 141.232 81.2789 146.664C86.8653 156.5 89.3644 167.217 90.2465 178.522C88.3354 178.375 85.8362 176.613 84.6601 179.55C83.7781 181.898 85.1012 183.807 86.8653 185.128C89.6585 187.331 92.4516 189.239 95.3918 191.294C98.332 195.992 97.597 204.654 107.3 201.571C112.298 201.278 117.296 201.718 122.148 202.893C128.322 202.893 134.496 203.039 140.524 203.039C140.524 205.095 140.671 207.15 140.671 209.206C134.202 210.674 127.881 211.995 121.56 213.316Z" fill="#4A5085"/>
<path d="M97.597 132.863C105.683 149.893 109.064 167.805 107.3 186.743C103.771 185.422 99.2141 185.862 97.891 181.164C96.4209 164.281 96.8619 147.104 87.0123 131.542C90.8346 129.34 94.0688 133.157 97.597 132.863Z" fill="#E1E6EE"/>
<path d="M134.643 184.101C134.055 180.284 135.672 177.054 137.437 173.971C142.876 168.979 146.551 176.613 151.696 176.173C146.404 179.99 141.406 183.954 134.643 184.101Z" fill="#BEDDE7"/>
<path d="M122.001 203.039C117.149 202.012 112.151 201.571 107.153 201.718C107.153 199.369 107.006 196.873 107.006 194.524C112.004 194.378 116.708 195.552 121.413 197.167C121.56 197.754 121.56 198.195 121.707 198.782C121.854 200.25 122.001 201.571 122.001 203.039Z" fill="#343963"/>
<path d="M107.006 194.524C107.006 196.873 107.153 199.369 107.153 201.718C97.597 204.801 98.185 196.139 95.2448 191.441C99.3611 191.882 103.477 192.029 107.006 194.524Z" fill="#E1E6EE"/>
<path d="M152.432 134.038C152.137 133.744 151.99 133.451 151.99 133.01C152.285 131.542 152.726 130.074 154.49 129.927C156.401 129.633 158.459 129.193 160.076 130.514C161.252 131.395 160.958 132.716 160.223 133.744C158.9 135.506 156.989 135.8 155.078 135.359C154.196 135.065 153.314 134.478 152.432 134.038Z" fill="white"/>
<path d="M121.707 198.782C121.56 198.195 121.56 197.754 121.413 197.167C121.854 197.167 122.295 197.167 122.736 197.167C122.442 197.754 122.148 198.195 121.707 198.782Z" fill="#CFD0D2"/>
<path d="M90.2465 104.822C92.0106 105.556 95.5388 103.207 95.3918 106.731C95.2448 109.667 92.4516 111.869 89.2174 111.722C86.5713 111.576 83.3371 110.254 83.6311 107.171C84.2191 103.06 88.0414 105.85 90.2465 104.822Z" fill="#FEFEFE"/>
</svg>
