<svg width="463" height="445" viewBox="0 0 463 445" fill="none" xmlns="http://www.w3.org/2000/svg">
<rect width="463" height="403" rx="50" fill="#E8E2F1"/>
<path d="M215.716 370.508C217.181 344.726 220.55 319.237 229.632 295.066C235.492 279.538 241.791 263.864 253.803 251.412C261.42 243.648 264.35 234.273 262.739 223.433C264.79 222.554 266.841 221.822 268.745 220.943C282.661 214.79 296.724 208.931 306.979 196.918C307.858 203.657 305.367 209.809 303.463 215.962C301.266 223.286 301.558 230.171 305.514 236.91C309.322 247.897 317.819 255.954 324.264 265.182C334.519 279.538 339.353 295.945 343.747 312.645C348.289 330.077 351.072 347.656 352.244 365.527C352.83 368.457 351.951 371.534 353.562 374.317C353.562 395.118 353.709 416.066 353.709 436.868C354.002 440.676 352.39 442.581 348.289 442.874C338.62 443.753 328.952 444.339 319.284 444.339C288.374 444.192 257.465 444.339 226.556 444.339C223.187 444.339 219.671 444.925 217.327 441.409C215.569 420.754 216.009 400.099 215.569 379.444C215.569 376.514 215.569 373.584 215.716 370.508Z" fill="#F9E5C8"/>
<path d="M306.978 196.918C296.724 208.93 282.661 214.79 268.745 220.942C266.694 221.821 264.643 222.554 262.739 223.433C248.676 225.777 234.613 228.413 220.403 230.611C214.544 231.49 210.003 232.954 211.467 240.279C212.2 244.234 209.856 245.26 206.34 245.113C199.748 244.967 193.156 244.967 186.564 245.113C182.463 245.26 178.947 244.527 174.992 248.629C171.329 252.438 165.47 248.482 160.929 246.139C163.273 242.037 162.54 239.547 157.559 237.789C148.331 234.419 139.541 230.464 130.459 226.655C130.459 217.134 130.459 207.465 130.459 197.944C130.459 190.766 130.459 183.441 130.459 176.263C130.605 175.824 130.752 175.238 130.752 174.798C142.032 174.798 153.165 174.945 164.444 174.652C168.839 174.505 170.597 175.97 170.304 180.511C170.011 187.103 170.158 193.695 170.158 200.287C170.158 212.739 170.158 225.337 170.158 239.547C172.355 235.445 171.769 232.954 171.769 230.611C171.769 214.057 171.915 197.504 171.769 180.951C171.769 176.263 173.234 174.505 178.068 174.652C189.055 174.945 200.041 174.798 211.028 174.798C211.175 179.632 211.321 184.467 211.321 189.447C211.321 192.816 212.493 194.721 216.009 193.842C231.097 189.887 245.453 184.027 259.809 178.021C260.541 177.728 260.981 176.556 261.567 175.677C273.872 176.849 280.171 168.792 276.948 156.048C279.438 155.169 282.368 155.901 284.273 153.557C285.445 152.239 286.763 150.481 285.005 149.309C282.808 147.698 279.878 148.577 277.241 148.577C274.018 148.723 274.604 151.36 274.311 153.411C271.675 151.214 271.235 148.137 271.089 145.061C271.089 141.985 278.267 136.858 279.731 138.908C282.661 142.864 286.323 140.227 289.4 141.399C288.081 145.5 290.718 145.647 293.501 145.5C293.501 148.723 292.183 151.653 290.572 154.436C285.591 163.372 286.616 169.085 295.406 174.652C304.342 180.072 307.418 187.543 306.978 196.918ZM258.637 204.389C267.426 201.752 275.337 197.651 283.394 191.938C279.292 190.326 276.655 193.402 273.139 191.791C263.911 187.543 262.299 188.422 258.344 198.237C243.988 201.459 229.925 206.586 214.983 207.172C213.079 207.319 211.467 207.905 211.614 210.102C211.76 214.204 209.856 219.038 212.493 222.114C214.251 224.165 218.06 220.503 221.136 219.77C223.48 219.331 225.823 218.452 228.021 217.427C238.129 212.739 249.262 210.688 258.637 204.389ZM286.763 190.326C286.323 190.326 286.03 190.326 285.591 190.18C285.737 190.326 285.884 190.473 286.177 190.619C286.323 190.619 286.47 190.473 286.763 190.326Z" fill="#ECB29E"/>
<path d="M127.089 290.818C126.943 318.065 122.988 345.165 122.841 372.559C122.695 390.723 121.523 409.034 120.937 427.346C120.79 430.275 121.523 433.498 116.689 432.912C113.466 432.912 110.39 432.912 107.167 432.912C102.186 432.766 103.944 428.664 103.798 426.32C101.893 400.538 100.428 374.756 98.6705 348.974C97.7915 335.204 96.9126 321.434 94.7152 307.517C92.6644 325.682 90.4671 343.847 88.4162 362.011C85.9259 383.985 83.4356 406.105 80.9453 428.078C80.7988 429.543 80.9453 431.008 79.0409 431.594C75.3787 432.473 71.7164 433.059 68.0542 432.766C66.0034 431.594 63.5131 431.74 63.3666 427.785C61.6087 384.717 59.7043 341.649 56.4816 298.728C56.3351 297.556 56.4816 296.238 56.6281 295.066C57.8 291.697 59.9973 290.671 63.6595 290.525C75.5252 290.232 87.3908 291.697 99.4029 289.646C104.091 288.767 104.677 286.863 104.677 282.907C104.53 277.048 104.677 271.188 104.823 265.329C107.606 266.501 110.536 265.768 113.466 266.061C112.88 268.991 114.931 271.335 114.345 274.557C111.708 287.888 113.612 290.085 127.089 290.818Z" fill="#1F2548"/>
<path d="M104.677 265.329C104.677 271.189 104.384 277.048 104.531 282.908C104.677 286.716 103.945 288.767 99.2569 289.646C87.3913 291.697 75.5257 290.379 63.5136 290.525C59.8514 290.672 57.654 291.697 56.4821 295.066C48.2787 282.322 53.8453 268.552 53.8453 255.221C53.6988 236.764 55.3102 218.306 56.1891 199.848C56.7751 189.301 59.9979 179.926 68.9337 173.334C69.5196 172.894 70.1056 172.308 70.6916 171.869C70.9845 170.697 71.8635 170.404 72.8889 170.404C76.5511 170.257 79.3344 171.576 80.9458 174.945C66.7364 175.824 61.4627 184.32 68.0548 197.212C76.6976 213.765 89.4422 226.363 106.142 235.152C105.556 245.113 106.435 255.221 104.677 265.329Z" fill="#343963"/>
<path d="M424.316 374.17C426.367 385.01 424.902 395.997 425.195 406.837C425.488 414.894 425.195 422.951 425.195 430.862C425.195 433.938 425.195 437.014 420.947 437.014C406.591 436.721 392.381 437.893 378.025 436.282C378.172 435.989 378.465 435.696 378.611 435.549C382.86 434.817 381.248 431.447 381.248 429.104C381.395 413.283 381.541 397.462 381.248 381.641C381.102 376.075 382.567 373.877 388.573 374.17C400.438 374.463 412.304 374.17 424.316 374.17Z" fill="#ECB29E"/>
<path d="M180.559 441.555C167.961 441.555 155.216 441.408 142.618 441.701C138.37 441.701 136.465 440.53 136.612 435.988C136.905 417.238 136.905 398.487 136.905 379.737C149.063 379.737 161.369 380.03 173.527 379.737C179.094 379.59 180.559 381.201 180.412 386.768C180.266 404.933 180.559 423.244 180.559 441.555Z" fill="#BEDDE7"/>
<path d="M215.569 379.59C216.008 400.245 215.569 420.9 217.327 441.555C205.608 441.555 193.889 441.555 182.316 441.555C182.462 423.244 182.609 405.079 182.462 386.768C182.462 381.494 183.634 379.443 189.347 379.736C197.99 380.176 206.78 379.736 215.569 379.59Z" fill="#BEDDE7"/>
<path d="M106.288 235.005C89.7345 226.363 76.8435 213.618 68.2006 197.065C61.6086 184.174 66.8822 175.677 81.0917 174.798C83.289 177.435 85.3399 180.072 87.5372 182.709C94.2757 191.205 97.4985 201.752 104.383 209.956C106.727 212.446 108.339 215.815 111.854 217.28C112.88 217.72 113.759 218.306 114.784 218.745C118.3 222.847 123.72 223.579 128.115 226.07C128.847 226.216 129.726 226.509 130.459 226.656C139.394 230.318 148.33 234.419 157.559 237.789C162.54 239.547 163.272 242.037 160.928 246.139C159.756 247.457 159.317 250.533 156.973 249.508C148.184 245.846 138.222 245.553 129.873 240.865C124.306 239.4 118.886 237.935 113.319 236.47C110.829 236.031 108.485 235.445 106.288 235.005Z" fill="#4A5085"/>
<path d="M306.979 196.918C307.418 187.543 304.488 180.072 295.992 174.798C287.203 169.378 286.177 163.519 291.158 154.583C292.769 151.8 294.088 149.016 294.088 145.647C298.189 148.87 299.215 148.87 299.215 146.38C299.361 143.596 302.877 143.743 302.291 141.252C303.17 141.252 304.049 141.106 305.074 141.106C311.666 160.003 320.163 178.461 320.016 199.262C319.87 207.612 323.385 215.229 328.073 222.261C333.493 230.318 331.882 234.273 322.36 235.591C316.793 236.47 311.227 236.47 305.66 236.763C301.852 230.025 301.559 223.14 303.609 215.815C305.221 209.809 307.858 203.657 306.979 196.918Z" fill="#1F2548"/>
<path d="M432.373 318.064C432.52 332.274 432.52 346.483 432.813 360.693C432.959 367.431 428.125 365.087 424.756 365.38C415.38 365.38 406.152 365.234 396.776 365.234C396.776 351.464 396.776 337.694 396.63 323.778C396.63 319.676 397.948 318.357 402.05 318.357C412.011 318.504 422.119 318.211 432.373 318.064Z" fill="#F5F0B9"/>
<path d="M136.758 371.24C133.828 370.654 134.121 368.31 134.121 366.113C134.268 352.196 134.268 338.426 134.268 324.51C143.79 324.363 153.165 324.51 162.687 324.07C167.667 323.924 169.572 325.389 169.425 330.662C169.132 341.503 169.279 352.489 169.425 363.476C169.425 365.673 167.814 369.189 172.355 369.628C172.648 369.921 172.648 370.361 172.648 370.654C160.489 370.8 148.624 370.947 136.758 371.24Z" fill="#8A8581"/>
<path d="M359.421 365.088C359.421 349.414 359.421 333.886 359.568 318.211C369.529 318.211 379.344 318.504 389.305 318.358C393.407 318.211 394.725 319.676 394.579 323.778C394.286 337.548 394.432 351.318 394.432 365.088C382.86 365.234 371.141 365.088 359.421 365.088Z" fill="#F5F0B9"/>
<path d="M353.562 437.014C353.562 416.213 353.416 395.265 353.416 374.463C359.422 374.317 365.574 374.61 371.58 374.17C377 373.731 378.758 375.489 378.612 381.055C378.319 399.22 378.612 417.385 378.612 435.549C378.319 435.842 378.172 435.989 378.026 436.282C369.822 436.575 361.765 436.721 353.562 437.014Z" fill="#ECB29E"/>
<path d="M172.355 370.508C172.501 370.069 172.355 369.776 172.062 369.483C172.062 356.592 172.355 343.701 171.916 330.81C171.769 325.536 173.673 324.218 178.654 324.364C187.59 324.804 196.672 324.511 205.755 324.511C205.755 339.599 205.755 354.541 205.608 369.629C203.997 371.387 201.946 370.655 200.041 370.801C191.545 369.043 183.049 369.043 174.552 370.801C173.82 370.655 173.087 370.655 172.355 370.508Z" fill="#D9513C"/>
<path d="M211.175 174.944C200.188 174.944 189.201 175.091 178.215 174.798C173.381 174.652 171.916 176.263 171.916 181.097C172.209 197.65 172.062 214.204 171.916 230.757C171.916 233.101 172.502 235.591 170.304 239.693C170.304 225.483 170.304 212.885 170.304 200.434C170.304 193.842 170.158 187.25 170.451 180.658C170.597 176.116 168.986 174.652 164.591 174.798C153.312 175.091 142.178 174.944 130.899 174.944C130.606 162.493 130.313 164.837 141.153 164.544C147.599 164.397 154.191 164.544 160.636 164.544C162.54 164.544 165.324 165.716 165.617 162.2C165.763 162.053 165.91 161.76 166.056 161.614C166.935 161.614 167.961 161.76 168.839 161.76C168.986 161.907 169.279 161.907 169.425 162.053C169.279 161.907 168.986 161.907 168.839 161.76C168.4 152.532 165.47 148.283 158.878 147.551C158.732 147.258 158.439 147.112 158.292 146.819C168.253 141.984 167.375 152.092 171.183 156.194C172.209 155.022 173.234 153.85 174.406 152.678C174.699 152.825 174.846 152.971 175.138 153.264C175.578 156.047 172.062 158.684 174.406 161.321C174.846 161.907 177.336 160.589 178.947 160.149C179.094 160.296 179.387 160.589 179.533 160.735C179.094 162.2 174.26 164.69 180.412 164.69C187.444 164.69 194.475 164.69 201.507 164.69C211.614 164.544 211.614 164.544 211.175 174.944Z" fill="#BEB3AA"/>
<path d="M304.928 141.106C304.049 141.106 303.17 141.253 302.144 141.253C300.973 140.374 299.508 140.227 298.922 138.03C297.603 133.196 296.138 128.215 291.158 125.725C289.693 124.7 288.228 124.846 286.47 125.871C287.935 126.311 288.96 126.604 290.132 126.897C293.795 131.438 293.795 131.438 289.693 141.399C286.617 140.227 282.954 142.718 280.025 138.909C278.413 136.858 271.382 141.839 271.382 145.062C271.382 148.284 271.968 151.214 274.458 153.411C274.458 153.851 274.751 154.144 275.044 154.29C275.337 155.316 275.923 156.048 277.095 155.902L276.948 156.048C280.171 168.793 273.872 176.85 261.567 175.678C261.42 165.277 260.981 154.73 262.446 144.329C263.178 138.47 264.79 132.903 268.891 128.362C277.974 118.4 292.476 119.426 299.801 130.559C301.998 133.928 304.195 137.298 304.928 141.106Z" fill="#343963"/>
<path d="M113.173 236.471C118.74 237.936 124.16 239.4 129.727 240.865C128.408 255.368 130.459 269.87 130.752 284.373C130.752 287.302 131.338 290.379 127.09 290.672C113.613 289.939 111.708 287.742 114.199 274.265C114.785 271.189 112.734 268.698 113.32 265.769C113.32 256.1 113.173 246.285 113.173 236.471Z" fill="#343963"/>
<path d="M114.785 218.892C113.759 218.452 112.88 217.866 111.855 217.427C111.415 204.243 108.779 191.352 106.728 178.461C106.288 175.677 105.556 172.601 103.944 170.257C101.454 166.302 97.0594 165.277 93.1042 167.62C88.7095 170.257 93.2507 172.747 94.4226 174.652C100.429 185.785 103.798 197.504 104.384 210.102C97.4988 201.752 94.2761 191.205 87.5376 182.855C85.3402 180.218 83.2894 177.582 81.0921 174.945C79.4807 171.576 76.6974 170.111 73.0352 170.404C76.9904 165.569 84.6078 167.181 88.1235 161.761C92.9577 165.862 97.3524 164.984 101.308 160.589C104.384 167.767 111.562 169.085 117.568 172.162C115.956 174.798 116.542 177.728 116.103 180.658C114.931 189.301 118.447 197.944 116.249 206.733C115.371 210.542 115.224 214.79 114.785 218.892Z" fill="#1F2548"/>
<path d="M378.611 435.549C378.611 417.385 378.318 399.22 378.611 381.055C378.758 375.489 377 373.731 371.58 374.17C365.574 374.61 359.421 374.463 353.415 374.463C351.95 371.68 352.683 368.604 352.097 365.674C354.587 365.527 356.931 365.381 359.421 365.234C371.14 365.234 382.713 365.234 394.432 365.234C395.164 365.234 395.897 365.234 396.629 365.234C406.005 365.234 415.234 365.381 424.609 365.381C424.462 368.311 424.462 371.24 424.316 374.17C412.304 374.17 400.438 374.61 388.426 374.024C382.42 373.731 381.102 375.928 381.102 381.495C381.395 397.315 381.248 413.136 381.102 428.957C381.248 431.301 383.006 434.817 378.611 435.549Z" fill="#D9513C"/>
<path d="M172.355 370.508C173.088 370.508 173.82 370.654 174.553 370.654C183.049 371.387 191.545 371.387 200.042 370.654C201.946 370.508 203.997 371.24 205.608 369.482C208.831 371.094 212.2 370.068 215.569 370.361C215.569 373.438 215.569 376.514 215.569 379.444C206.78 379.444 197.991 379.883 189.201 379.444C183.488 379.151 182.316 381.348 182.316 386.475C182.463 404.786 182.17 422.951 182.17 441.262C181.584 441.262 180.998 441.262 180.559 441.262C180.412 422.951 180.119 404.64 180.412 386.329C180.559 380.909 178.947 379.151 173.527 379.297C161.368 379.737 149.063 379.297 136.905 379.297C136.758 376.514 136.758 373.731 136.612 370.801C148.624 370.947 160.49 370.801 172.355 370.508Z" fill="#4A5085"/>
<path d="M205.754 324.51C196.672 324.51 187.736 324.803 178.653 324.364C173.673 324.217 171.768 325.536 171.915 330.809C172.208 343.7 172.061 356.591 172.061 369.482C167.52 369.189 169.132 365.674 169.132 363.33C168.985 352.343 168.839 341.503 169.132 330.516C169.278 325.243 167.374 323.778 162.393 323.924C153.018 324.364 143.496 324.217 133.974 324.364C132.509 318.211 135 316.307 141.006 316.6C148.623 317.039 156.387 316.6 164.151 316.6C166.495 317.918 165.616 315.721 165.909 314.842C167.96 315.428 168.692 314.549 168.546 312.498C169.718 312.352 170.889 312.205 172.061 312.059C174.112 315.867 177.628 316.453 181.437 316.6C187.003 316.746 192.57 317.039 198.136 316.6C204.289 316.307 207.219 318.065 205.754 324.51Z" fill="#BEB3AA"/>
<path d="M101.454 160.589C97.3522 164.984 93.104 165.863 88.2699 161.761C89.2953 157.073 86.219 153.851 84.0217 150.335C82.2638 146.233 83.4357 141.399 80.3594 137.444C78.8946 135.686 81.3849 134.514 82.8498 133.196C89.0023 127.775 96.6197 126.75 104.091 125.139C109.804 134.807 110.39 144.182 102.186 152.972C100.282 155.169 98.8171 157.659 101.454 160.589ZM105.116 143.01C103.212 140.667 100.428 141.399 97.9381 141.545C96.0338 141.545 92.811 140.667 93.2505 144.036C93.5435 146.966 96.1803 148.43 99.1101 148.284C102.04 148.137 103.944 146.087 105.116 143.01Z" fill="#ECB29E"/>
<path d="M104.237 124.992C96.7661 126.604 89.1486 127.629 82.9961 133.049C81.5312 134.367 79.0409 135.539 80.5058 137.297C83.582 141.252 82.4101 146.087 84.168 150.188C74.4997 145.061 72.4489 134.953 71.1305 126.018C70.398 120.744 77.1365 116.056 83.7285 115.031C90.9065 113.859 98.231 113.712 104.237 108.732C106.288 106.974 107.167 108.732 107.899 110.343C110.536 116.203 109.657 121.183 104.237 124.992Z" fill="#343963"/>
<path d="M114.784 218.891C115.224 214.789 115.37 210.688 116.396 206.733C118.593 197.943 115.077 189.447 116.249 180.658C116.689 177.728 115.956 174.798 117.714 172.161C122.109 173.626 126.357 174.944 130.751 176.409C130.751 183.587 130.751 190.912 130.751 198.09C127.675 198.383 128.554 200.727 128.554 202.484C128.261 210.395 128.261 218.159 128.115 226.069C123.72 223.725 118.3 222.846 114.784 218.891Z" fill="#343963"/>
<path d="M396.63 365.234C395.897 365.234 395.165 365.234 394.432 365.234C394.432 351.464 394.286 337.694 394.579 323.924C394.579 319.823 393.407 318.504 389.305 318.504C379.344 318.651 369.529 318.504 359.568 318.358C359.568 316.454 359.421 314.403 359.421 312.498C360.007 312.059 360.593 311.619 361.179 311.18C370.408 311.18 379.637 311.033 388.866 311.033C397.069 312.645 392.674 306.639 393.26 303.709C394.725 304.148 396.19 304.734 397.655 305.174C396.776 308.983 397.655 311.18 402.05 309.569C403.808 313.084 407.03 311.033 409.667 311.326C414.941 311.619 420.214 311.912 425.488 311.326C430.762 310.887 433.252 312.498 432.373 317.918C422.265 318.065 412.011 318.504 401.903 318.358C397.802 318.358 396.337 319.676 396.483 323.778C396.63 337.694 396.63 351.464 396.63 365.234Z" fill="#4A5085"/>
<path d="M67.9085 432.766C71.7172 433.059 75.3794 432.473 78.8952 431.594C76.6978 434.817 79.7741 435.695 81.532 437.16C83.7293 439.065 86.8056 439.504 88.417 442.287C73.4751 446.682 67.762 444.045 67.9085 432.766Z" fill="#343963"/>
<path d="M107.167 432.912C110.39 432.912 113.467 432.912 116.689 432.912C118.594 438.039 124.453 438.479 127.529 442.141C114.638 446.829 107.607 443.606 107.167 432.912Z" fill="#343963"/>
<path d="M393.114 303.709C392.528 306.638 396.923 312.645 388.719 311.033C387.254 309.861 385.643 308.836 384.178 307.517C381.834 305.32 379.197 302.683 382.567 299.753C385.789 297.117 389.598 296.238 391.649 301.511C391.649 302.683 391.795 303.709 393.114 303.709Z" fill="#CFD0D2"/>
<path d="M402.05 309.568C397.509 311.033 396.776 308.982 397.655 305.173L397.509 305.32C399.267 304.88 399.267 303.709 399.12 302.244L398.974 302.39C400.439 302.244 400.731 301.218 400.585 300.046C404.54 296.091 408.495 298.581 409.814 301.804C411.132 305.027 408.642 308.103 404.247 308.103C403.222 308.25 402.05 308.25 402.05 309.568Z" fill="#CFD0D2"/>
<path d="M172.355 312.351C171.183 312.498 170.011 312.644 168.839 312.791C166.056 310.008 165.03 304.734 159.317 305.906C159.024 305.613 158.731 305.32 158.438 305.173C165.763 300.486 167.667 308.103 171.623 311.033C171.915 311.326 172.062 311.473 172.355 311.765C172.355 311.765 172.355 312.058 172.355 312.351Z" fill="#C1E7D8"/>
<path d="M178.8 146.526C181.73 144.768 184.66 144.914 186.125 148.137C187.443 150.921 187.883 154.29 184.074 156.194C183.927 156.048 183.634 155.755 183.341 155.608C184.66 151.653 187.15 147.112 179.386 147.258C179.24 147.112 179.093 146.819 178.8 146.526Z" fill="#BEB3AA"/>
<path d="M160.05 157.513C157.12 155.022 154.19 152.678 157.12 148.284C157.266 148.43 157.559 148.577 157.706 148.723C157.559 151.799 159.757 154.143 160.782 156.78C160.489 157.073 160.196 157.366 160.05 157.513Z" fill="#BEB3AA"/>
<path d="M166.202 314.988C165.909 315.867 166.788 318.065 164.444 316.746C163.419 315.428 162.394 314.256 161.368 312.938C161.661 312.645 161.954 312.352 162.101 312.059C163.712 312.645 165.177 313.523 166.202 314.988Z" fill="#C1E7D8"/>
<path d="M158.292 310.154C154.337 308.397 156.534 306.639 158.438 305.027C158.731 305.32 159.024 305.613 159.317 305.76C159.317 306.932 159.171 308.104 159.171 309.276C158.878 309.568 158.585 309.861 158.292 310.154Z" fill="#C1E7D8"/>
<path d="M176.017 305.027C177.628 303.562 179.24 303.269 181.144 304.441C179.972 306.199 178.214 305.174 176.75 305.76C176.603 305.467 176.31 305.174 176.017 305.027Z" fill="#C1E7D8"/>
<path d="M176.017 149.749C176.164 147.991 177.189 146.965 178.8 146.526C178.947 146.819 179.24 147.112 179.386 147.405C178.507 148.43 177.482 149.309 176.603 150.335C176.457 150.042 176.31 149.895 176.017 149.749Z" fill="#BEB3AA"/>
<path d="M398.974 302.244C399.267 303.709 399.12 304.881 397.362 305.32C397.216 303.856 397.655 302.83 398.974 302.244Z" fill="#4A5085"/>
<path d="M174.552 152.678C174.992 151.653 175.578 150.774 176.017 149.749C176.31 149.895 176.457 150.188 176.75 150.334C176.31 151.36 175.724 152.239 175.285 153.264C174.992 152.971 174.699 152.825 174.552 152.678Z" fill="#BEB3AA"/>
<path d="M174.406 307.811C174.992 306.932 175.431 306.053 176.017 305.027C176.31 305.32 176.603 305.467 176.75 305.613C176.164 306.492 175.578 307.518 174.992 308.397C174.845 308.25 174.699 307.957 174.406 307.811Z" fill="#C1E7D8"/>
<path d="M165.763 162.2C164.884 161.614 163.859 161.028 162.98 160.442C163.126 160.296 163.419 160.003 163.566 159.856C164.445 160.442 165.324 161.028 166.203 161.614C166.056 161.761 165.91 161.907 165.763 162.2Z" fill="#BEB3AA"/>
<path d="M157.12 148.284C157.56 147.844 157.999 147.258 158.585 146.819C158.731 146.965 159.024 147.258 159.171 147.551C158.732 147.991 158.292 148.43 157.853 148.87C157.56 148.723 157.267 148.577 157.12 148.284Z" fill="#BEB3AA"/>
<path d="M184.074 156.194C183.635 156.634 183.195 157.22 182.609 157.659C182.316 157.513 182.17 157.22 182.023 157.073C182.463 156.634 182.902 156.048 183.488 155.608C183.635 155.755 183.781 156.048 184.074 156.194Z" fill="#BEB3AA"/>
<path d="M161.515 158.978C160.929 158.538 160.489 158.099 159.903 157.513C160.196 157.22 160.343 157.073 160.636 156.927C161.075 157.513 161.515 157.952 161.954 158.392L161.515 158.978Z" fill="#BEB3AA"/>
<path d="M182.609 157.659C182.17 158.099 181.584 158.685 181.145 159.124C180.998 158.978 180.705 158.685 180.559 158.538C180.998 158.099 181.584 157.513 182.023 157.073C182.17 157.366 182.463 157.513 182.609 157.659Z" fill="#BEB3AA"/>
<path d="M162.98 160.443C162.541 160.003 161.955 159.417 161.515 158.978C161.515 158.978 161.955 158.392 161.955 158.538C162.394 158.978 162.98 159.417 163.42 159.857C163.42 160.003 163.127 160.15 162.98 160.443Z" fill="#BEB3AA"/>
<path d="M181.145 159.124C180.705 159.564 180.119 160.003 179.68 160.589C179.533 160.442 179.24 160.149 179.094 160.003C179.533 159.564 180.119 159.124 180.559 158.538C180.705 158.685 180.852 158.978 181.145 159.124Z" fill="#BEB3AA"/>
<path d="M70.8379 171.869C70.252 172.308 69.666 172.894 69.0801 173.334C69.666 172.894 70.252 172.308 70.8379 171.869Z" fill="#1F2548"/>
<path d="M400.439 300.047C400.585 301.219 400.439 302.244 398.827 302.391C399.413 301.658 399.999 300.779 400.439 300.047Z" fill="#4A5085"/>
<path d="M393.26 303.856C391.795 303.709 391.649 302.684 391.649 301.512C392.235 302.244 392.674 303.123 393.26 303.856Z" fill="#4A5085"/>
<path d="M172.941 309.275C173.38 308.836 173.966 308.25 174.406 307.811C174.699 308.104 174.845 308.25 175.138 308.543C174.699 309.129 174.259 309.568 173.82 310.154C173.527 309.715 173.234 309.568 172.941 309.275Z" fill="#C1E7D8"/>
<path d="M401.903 309.715C402.05 308.25 403.222 308.25 404.247 308.104C403.515 308.689 402.636 309.275 401.903 309.715Z" fill="#4A5085"/>
<path d="M159.757 311.619C159.317 311.18 158.731 310.594 158.292 310.154C158.585 309.861 158.878 309.715 159.171 309.422C159.61 309.861 160.05 310.447 160.636 310.887C160.343 311.033 160.05 311.326 159.757 311.619Z" fill="#C1E7D8"/>
<path d="M171.623 310.887C172.062 310.301 172.501 309.861 172.941 309.275C173.234 309.568 173.527 309.861 173.673 310.008C173.234 310.447 172.648 311.033 172.209 311.473C172.209 311.326 171.916 311.033 171.623 310.887Z" fill="#C1E7D8"/>
<path d="M161.222 313.084C160.782 312.645 160.196 312.059 159.757 311.619C160.05 311.326 160.196 311.18 160.489 310.887C160.929 311.326 161.515 311.766 161.954 312.205C161.808 312.498 161.515 312.791 161.222 313.084Z" fill="#C1E7D8"/>
<path d="M361.033 311.18C360.447 311.619 359.861 312.059 359.275 312.498C359.568 311.473 360.154 311.033 361.033 311.18Z" fill="#CFD0D2"/>
<path d="M258.637 204.389C258.49 202.338 258.49 200.287 258.344 198.236C262.299 188.422 263.91 187.543 273.139 191.791C276.508 193.402 279.145 190.326 283.393 191.937C275.336 197.65 267.426 201.899 258.637 204.389Z" fill="#F9E5C8"/>
<path d="M289.84 141.545C293.941 131.438 293.941 131.438 290.279 127.043C290.572 126.604 291.012 126.164 291.305 125.871C296.285 128.508 297.75 133.489 299.068 138.176C299.654 140.227 301.119 140.374 302.291 141.399C302.877 143.889 299.361 143.743 299.215 146.526C299.068 149.163 298.189 149.016 294.088 145.794C291.158 145.794 288.521 145.647 289.84 141.545Z" fill="#E1E6EE"/>
<path d="M275.19 154.437C274.751 154.29 274.604 153.997 274.604 153.558C274.897 151.507 274.165 148.87 277.534 148.724C280.171 148.577 283.1 147.845 285.298 149.456C287.056 150.774 285.737 152.386 284.565 153.704C282.661 156.048 279.731 155.316 277.241 156.195L277.387 156.048C277.094 154.876 276.362 154.437 275.19 154.437Z" fill="#E1E6EE"/>
<path d="M286.763 190.326C286.616 190.473 286.323 190.619 286.177 190.619C286.03 190.619 285.884 190.326 285.591 190.18C286.03 190.326 286.323 190.326 286.763 190.326Z" fill="#F9E5C8"/>
<path d="M113.173 236.471C113.32 246.286 113.32 256.1 113.466 265.915C110.536 265.769 107.607 266.501 104.823 265.183C106.581 255.221 105.702 244.967 106.288 235.006C108.485 235.445 110.829 236.031 113.173 236.471Z" fill="#E1E6EE"/>
<path d="M104.384 209.956C103.944 197.358 100.575 185.639 94.5691 174.652C93.5436 172.601 88.856 170.257 93.2506 167.62C97.2059 165.277 101.454 166.302 104.091 170.257C105.556 172.601 106.288 175.677 106.874 178.461C109.071 191.352 111.708 204.243 112.001 217.427C108.486 215.962 106.874 212.593 104.384 209.956Z" fill="#E1E6EE"/>
<path d="M200.041 370.654C191.545 371.387 183.049 371.387 174.552 370.654C183.049 368.896 191.545 368.896 200.041 370.654Z" fill="#8A8581"/>
<path d="M168.985 161.761C169.132 161.908 169.425 161.908 169.571 162.054C169.425 161.908 169.278 161.761 168.985 161.761Z" fill="#FEFEFE"/>
<path d="M290.132 127.043C288.96 126.75 287.935 126.457 286.47 126.018C288.228 124.992 289.692 124.699 291.157 125.871C290.864 126.164 290.571 126.604 290.132 127.043Z" fill="#E1E6EE"/>
<path d="M275.19 154.437C276.362 154.437 277.094 154.876 277.241 156.048C276.069 156.194 275.483 155.462 275.19 154.437Z" fill="#ECB29E"/>
<path d="M105.116 143.01C103.798 146.086 102.04 147.991 99.1102 148.284C96.1804 148.577 93.5436 146.965 93.2507 144.035C92.8112 140.52 96.034 141.545 97.9383 141.545C100.429 141.399 103.212 140.666 105.116 143.01Z" fill="#FEFEFE"/>
</svg>
