<svg width="543" height="263" viewBox="0 0 543 263" fill="none" xmlns="http://www.w3.org/2000/svg">
<g clip-path="url(#clip0)">
<path d="M170.5 164.1C172.5 165.5 174.5 166.9 177.1 166.7C181.1 168.4 185.3 169 189.6 168.7C191.9 168.7 194.3 168.9 196.6 168.8C198.7 168.7 199.8 169.4 199.5 171.6C198.7 173.7 197.3 175.5 197.3 177.9C195.9 177.8 195.5 178.7 195.4 179.8C192.3 183.4 189 186.8 187.5 191.5C186 191.7 184.8 192.5 184.2 193.9C182.9 194.5 181.4 194.9 181.4 196.7C181 197.1 180.6 197.5 180.2 197.8C172.6 201 164.9 203.8 156.5 203.8C155.4 202.5 153.9 202.8 152.5 202.9C151 201.9 149.3 201.5 147.5 201.8C142.3 198.3 136.7 195.4 130.7 193.5C128.1 192.7 125.3 191 122.3 192.7C118.8 192.9 115.9 194.6 113.3 196.7C111.3 196.7 110.1 198.4 108.5 199.1C103 201.5 102 201.1 100.5 195.5C99.1 190.4 97.6 185.3 96.1 180.2C93.3 170.2 89.9 160.2 90.4 149.6C90.4 148 90.4 146.5 90.3 144.9C92.4 138.4 96 133.2 101.9 129.5C106.5 126.6 111.3 123.9 116.1 121.3C130.5 113.6 135 106.1 131.3 87.4C132.4 85 134.9 84.2 136.7 82.5C141.5 78 147.9 74.7 149.6 67.5C153.1 67.3 156 68 157.4 71.6C155.7 76.9 154.8 82.4 154.4 88C154.1 91.5 155.4 92.3 158.4 90.6C161.2 89.1 163.8 87.4 166.7 86C170.7 84.2 174.7 83.2 179.1 84.9C182.6 86.2 186.3 86.1 189.9 84.9C190.9 84.6 192.4 84 192.8 85.5C193.2 87 191.6 87.2 190.6 87.6C186.2 89.4 181.7 90.2 177 89C173.2 88 169.5 88.2 165.5 91.6C170.6 90.9 174.1 92.7 177.7 94.7C180.3 96.1 183.1 97.2 186.3 95.9C187.3 95.5 188.9 95.3 189.1 97C189.3 98.7 187.7 98.4 186.7 98.7C182 100 177.7 99.9 173.3 97.4C167.2 93.8 161 97.8 154.9 98C153.1 98.1 153.5 100 153.5 101.2C153.5 106.2 155.6 110.6 157.6 114.9C160.4 120.9 163.5 126.8 163.5 133.7C163.5 136.1 163 138.3 162.5 140.6C159.6 143 156.8 145.4 156.5 149.5C155.3 154.8 158.9 157.2 162.5 159.6L162.4 159.5C162.8 159.8 163.1 160.2 163.5 160.5C165.6 162.4 167.7 164 170.5 164.1Z" fill="#C1E7D8"/>
<path d="M458.4 40.6C466.8 42.4 471.4 48.3 474.6 55.6C482 72.5 489.1 89.5 496.4 106.4C498.8 112 501.3 117.7 503.9 123.2C505.2 125.9 504.4 126.6 501.7 127C493.5 128.2 485.8 126.7 478.4 123.3C475.2 121.9 471.9 120.7 468.5 120.1C465.3 113.6 459.3 109.7 454.3 104.8C451.9 100 448.6 95.8 446.8 90.6C442.7 94.1 439 97.3 435.3 100.5C425 107.2 413.8 112.2 402.5 117C399.8 118.1 398.2 117.7 396.6 115.7C395.3 113.7 394 111.7 392.7 109.7C390.8 107 393.1 106.4 394.8 105.6C405.9 99.8 416.4 93.2 426 85.1C430.8 81.1 433.4 76.8 432 70.1C430.8 64 431.6 57.8 434.3 52.1C436.4 47.8 438.9 43.7 444.3 42.9C438.9 52.7 436.8 62.6 438.5 70.7C440.6 67.1 443.6 64.3 444.2 60.1C445 54.9 446.9 50.2 449.9 45.9C450.5 45.1 452.1 44.2 450.8 43.1C450 42.4 448.7 42.2 447.6 42.2C446.5 42.2 445.4 42.7 444.4 43C443.6 41.1 444.3 39.3 445.7 38.4C446.8 37.6 447.5 39.8 448.7 40.2C451.7 41.9 455.1 40.1 458.4 40.6Z" fill="#343963"/>
<path d="M454.3 104.9C459.3 109.7 465.2 113.7 468.5 120.2C470.5 128.5 469 135.4 461 139.9C451.6 144.1 441.7 145.7 431.4 146C424.9 146.2 418.6 147.1 412.3 148.9C411 149 409.7 149 408.4 149.1C407.8 148.8 407.3 148.8 407 149.5C407.3 150.4 407.5 151.4 408.1 152.2C417.5 166.7 420.8 183.4 424.9 199.7C425.4 201.7 425.9 204 424 205.8C421.4 206.9 418.7 207.9 416.1 209C413.7 209.8 411 211.7 409.4 207.8C400.9 189 395.5 169.1 389.7 149.4C389.4 147.9 389.2 146.3 388.9 144.8C387.1 139 389.7 135.3 394.4 132.4C403.1 127 412.7 123.9 422.5 121.1C434.8 117.6 434.8 117.4 435.4 104.8C441.7 104.9 448 104.9 454.3 104.9Z" fill="#1F2548"/>
<path d="M388.9 144.9C389.2 146.4 389.4 148 389.7 149.5C381.4 149.6 373.1 149.7 364.7 149.9C363.4 149.9 360.3 149.3 362.2 152.2C366.5 158.9 369.1 166.9 375.4 172C385.6 180.4 392.6 190.4 394.8 203.5C395.3 206.6 396.5 208.2 400 207.8C403.1 207.5 406.3 207.8 409.5 207.8C411.1 211.6 413.7 209.8 416.2 209C416.7 209.9 417 210.8 416.6 211.8C410.8 211.8 404.9 212 399.1 211.9C396.5 211.9 395.6 212.7 395.5 215.3C394.9 237.8 377.3 256.6 355.9 261.3C326.5 267.7 297.3 244.5 296.2 214.5C295.3 189.2 313.1 168.3 335.4 163.6C336.2 163.4 337.1 163 337.8 163.1C345.4 164.4 348.1 159.1 350.7 153.5C356.2 141.7 362.3 130.3 367.3 118.3C371 109.5 376.2 109.2 383.5 112.9C383.4 114.4 385.9 117.1 381.8 116.9C374.7 113.6 374.7 113.6 371.4 120.4C368.1 127.1 365 133.9 361.7 140.6C360.2 143.6 360.2 145.2 364.3 145.1C372.3 144.9 380.6 144.9 388.9 144.9ZM301.3 212.2C301.3 236.8 321.2 256.9 345.5 256.9C370.5 256.9 390.3 236.9 390.3 211.8C390.3 187.8 370.2 167.9 346 167.9C320.7 167.9 301.3 187.1 301.3 212.2ZM356.7 151.7C354 154.7 353.4 157.9 352 160.7C351.5 161.7 351.5 162.5 352.9 162.9C356.8 163.8 360.7 164.8 365.5 166C362.3 160.8 359.6 156.5 356.7 151.7Z" fill="#BEB3AA"/>
<path d="M90.3 145.1C90.3 146.7 90.3 148.2 90.4 149.8C82.2 149.8 74 149.8 64.7 149.8C70.2 157.6 72.7 166.2 79 171.4C89.8 180.3 97 190.8 99.3 204.5C99.7 207.1 101 207.8 103.3 207.8C107.9 207.7 112.6 207.8 117.2 207.8C118.7 208.8 118.5 210.6 119.3 211.9C114 211.9 108.6 212 103.3 211.9C100.6 211.8 99.4 212.5 99.4 215.5C99.1 239 78.8 259.7 55.3 261.9C27 264.5 4.80001 245.6 0.700014 220.8C-4.69999 187.9 20.4 164.1 45.2 162.9C48.8 162.7 50.9 161.2 52.4 157.9C57.4 147.2 62.6 136.6 67.8 126C68.5 124.6 68.8 122.8 70.4 121.9C72.2 121.7 72.2 123.8 73.6 124.2C71.2 129.1 68.8 134 66.4 138.9C63.4 145 63.4 145 70 145C76.7 145 83.5 145.1 90.3 145.1ZM68.3 164.9C68.5 165.1 68.6 165.2 68.8 165.4C68.6 165.2 68.5 165 68.3 164.9C66.4 160.2 63.8 155.9 60.3 151.9C54.8 162.5 54.8 162.5 65.8 164.8C66.6 165 67.5 164.9 68.3 164.9ZM50.5 167.9C25.4 166.5 5.10001 189.4 5.30001 212C5.50001 236.9 25.1 256.8 49.8 257C73.7 257.2 94.8 236.6 94.4 212.1C94.1 187.6 74.8 167.9 50.5 167.9Z" fill="#BEB3AA"/>
<path d="M412.3 148.9C418.5 147.1 424.9 146.2 431.4 146C441.6 145.6 451.6 144.1 461 139.9C464.7 140.6 468.5 141.2 472.2 142C473.6 142.3 475.4 142.7 475.3 144.6C475.2 146.5 473.4 146.8 472 147.1C468.4 147.8 464.8 148.5 461.2 148.8C458.3 149 458.2 150 459.5 152.2C462.1 156.4 464.8 160.6 467.3 165C468.9 167.9 470.9 167.2 473.2 166.3C485.3 161.5 497.4 161.2 509.7 165.6C529.8 172.8 543 192.7 542.3 215C541.6 235.5 526.1 254.8 506.1 260.2C475.2 268.6 445.8 248.3 442.6 216.3C442.2 212.3 440.8 211.7 437.4 211.9C434.1 212.1 430.7 211.9 427.4 211.9C426.6 210.9 425.7 209.9 426 208.4C430.1 207.1 434.3 207.8 438.4 207.8C441.3 207.9 442.7 206.8 443.2 204.1C445.4 190.6 452.3 180 463.1 171.8C465 170.4 465.2 169.4 463.9 167.4C460.9 162.8 457.9 158.2 455.4 153.3C453.8 150.3 451.8 149.5 448.6 149.6C438.3 149.8 428 149.7 417.6 149.6C415.8 149.8 413.8 150.4 412.3 148.9ZM491.6 256.9C516.9 256.7 537.3 238 536.9 211.8C536.5 185 515.2 168.1 493 167.9C467.5 167.6 447.8 187.1 447.7 212C447.5 237.5 466.9 256.1 491.6 256.9Z" fill="#BEB3AA"/>
<path d="M159.3 24.2C165.8 21.7 172.1 22.3 178.4 24.9C186.5 28.2 193.8 33.3 201.9 36.8C213.6 41.9 225.3 45 238 41.2C243.3 39.6 244.3 40.7 244.3 46.4C244.4 51.9 244.2 57.1 240.4 61.9C235 68.7 227.3 70.1 220.5 64.4C213.7 58.7 205.9 56.2 197.2 55.9L197 56C197.3 54.4 197.1 52.1 196 51.9C189.7 50.7 186.1 44.6 180.3 43.1C175.8 41.9 172.6 40.4 171.3 35.8C170.4 32.5 168.7 30.2 165.2 29.3C162.6 28.6 161 26.3 159.3 24.2Z" fill="#E1E6EE"/>
<path d="M157.4 71.8C156 68.2 153 67.4 149.6 67.7C147.3 66.3 146.2 64.3 145.9 61.6C145.7 59.7 145.8 57.3 144.7 55.9C142.2 52.6 142.8 49.6 143.9 46.2C145.1 42.5 145.7 38.5 140.5 37C139.5 36.7 139.1 35.8 138.4 35C135.5 31.3 134.6 31.5 132.3 35.8C130.3 30.3 136.5 22.1 142.2 23.3C146.7 24.2 151 23.6 155.3 23C154.8 25.8 151.8 24.5 150.5 25.9C148.9 25.9 147.3 25.9 145.8 26C142.2 26.3 146.4 29.8 143.9 30.7C143.4 30.9 143.7 32.6 144.7 32.5C147 32.3 150 34.4 151.6 30.9C157.1 35 161.6 40.1 165.9 45.4C171 51.5 177.4 54.7 185.4 55C189.4 55.2 193.3 55.7 197.3 56.1L197.5 56C196.4 57.8 196.9 60.5 193.6 61.1C191.6 61.4 192.7 63.6 193 64.9C193.9 68.5 192.3 70.1 188.9 69.8C185.6 69.4 183.2 70.3 181.4 73.3C179.7 76 177.2 75.7 174.9 74C171.3 71.3 168.1 70.4 164.3 74C161.2 76.4 159.3 73.6 157.4 71.8Z" fill="#1F2548"/>
<path d="M147.5 201.9C149.3 201.7 151 202 152.5 203C151.9 209.3 151.4 215.5 152.8 221.7C158.6 246.5 182.1 261.6 207 255.5C229 250.1 241.4 231.7 241 210.8C240.8 196.9 234.5 185 223.2 176.6C213.3 169.2 202 165.9 189.5 168.7C185.2 169 181 168.4 177 166.7C194.2 158.8 210.5 161.2 225.4 171.8C242.3 183.7 250 204.6 244.8 224.2C239.2 244.9 225.3 258 204.3 261.5C175.3 266.3 151.1 246 147.2 220.3C145.9 212 146 212 137.4 212C133.4 212 129.4 212.1 125.4 212.2C125.1 212.2 124.7 212.1 124.4 212.1C124.4 210.7 124.3 209.2 124.3 207.8C129.9 207.8 135.5 207.5 141 207.9C145.8 208.2 147.8 206.6 147.5 201.9Z" fill="#BEB3AA"/>
<path d="M132.3 35.8C134.6 31.4 135.4 31.3 138.4 35C139 35.8 139.4 36.7 140.5 37C145.8 38.5 145.1 42.5 143.9 46.2C142.8 49.7 142.2 52.7 144.7 55.9C145.8 57.3 145.8 59.7 145.9 61.6C146.1 64.3 147.3 66.3 149.6 67.7C147.9 74.9 141.5 78.1 136.7 82.7C134.9 84.4 132.4 85.2 131.3 87.6C121 95.7 109.7 102.4 98.6 109.3C95.2 111.4 92.7 114.7 92.9 119.2C92.9 120.2 92.5 121.2 91.4 121.6C90.1 122.1 89.2 121.3 88.6 120.2C88.1 119.5 87.6 117.7 86.8 118.6C85.2 120.6 81.9 120.1 80.9 122.8C80.3 119.4 77.5 116 81.3 112.5C78.3 114 75.3 114.7 72.3 115C67.9 112.3 62.4 110.8 61.5 104.4C64.5 103.7 66.6 99.3 68.6 100C73.6 101.8 74.2 97.6 76.5 95.7L76.4 95.8C78.7 96 81 96.3 83.3 96.5C83.5 100.1 84 103.8 82.6 107.4C82.1 108.6 81.3 110.1 83.2 110.7C85.3 111.3 87.7 114.1 89.5 111.9C96.8 102.7 108 98.4 116.2 90.5C119.8 87 123.4 83.6 125.6 79C129.7 74.5 133.7 70 137.8 65.5C134.3 66 131.5 67.6 128.4 65.7C129.1 63 130.8 61 132.8 59.2C135.9 56.3 136.9 52.9 136.6 48.8C136.4 46.4 135 43.5 139.3 43.4C139.8 43.4 140.4 42.6 140.1 41.8C139.4 40.5 137.9 40.6 137 40.9C131.3 42.8 132.2 39 132.3 35.8Z" fill="#ECB29E"/>
<path d="M445.7 11.7C443.7 6.9 450.2 -2.1 452.9 0.500003C456.5 4 461.9 2.5 463.8 5.6C466.2 9.5 469.2 8.3 472.1 9.3C473.5 9.8 479.5 9.1 474.3 13.6C471.8 15.8 474.3 17.1 476.1 17.7C477.9 18.4 480.4 18.3 480.5 20.9C480.6 23.6 478.1 24.2 476.2 25.2C470.8 28.2 464.8 29.8 459.1 32.1C458.8 28.9 460.9 26.5 461.6 23.5C461.9 22.1 464.1 20.9 462.7 19.2C461.2 17.4 460.3 21.1 458.5 20C460.5 15.8 459 14.2 454.6 14.3C451.4 14.5 448.4 13.5 445.7 11.7Z" fill="#1F2548"/>
<path d="M197.1 56.1C193.1 55.7 189.2 55.2 185.2 55C177.2 54.7 170.8 51.5 165.7 45.4C161.4 40.1 156.9 35 151.4 30.9C151.6 29.1 149.7 27.8 150.4 25.9C151.7 24.5 154.7 25.8 155.2 23C156.8 22.5 157.9 23.9 159.3 24.2C161 26.3 162.6 28.6 165.3 29.3C168.8 30.3 170.5 32.5 171.4 35.8C172.6 40.3 175.8 41.9 180.4 43.1C186.2 44.6 189.8 50.7 196.1 51.9C197.1 52.1 197.4 54.5 197.1 56.1Z" fill="#BEB3AA"/>
<path d="M445.7 11.7C448.4 13.6 451.4 14.5 454.6 14.4C459 14.3 460.5 15.9 458.5 20.1C460.3 21.2 461.2 17.5 462.7 19.3C464.1 21 462 22.2 461.6 23.6C461 26.5 458.9 29 459.1 32.2C457.4 34.9 458.6 37.8 458.3 40.6C455 40.1 451.6 41.9 448.5 40C450.2 36.2 450.1 32.8 446.9 29.8C445.8 28.7 445.1 27.4 445.3 25.8C447 27.1 448.7 28.5 451.1 27.7C452.7 27.2 454.2 25.6 453.3 24.5C451.9 22.7 449.3 24.1 447.2 23.5C445.1 22.9 445.3 24.6 445.3 25.9C441.4 21.1 444.1 16.4 445.7 11.7Z" fill="#ECB29E"/>
<path d="M124.4 207.7C124.4 209.1 124.5 210.6 124.5 212C123.7 216.3 122.6 220.5 118.3 222.9C119.2 219.3 121.4 215.8 119.3 211.9C118.4 210.6 118.7 208.7 117.2 207.8C116.7 203.9 114.6 200.6 113.3 196.9C116 194.8 118.8 193 122.3 192.9C123 197.8 123.7 202.8 124.4 207.7Z" fill="#ECB29E"/>
<path d="M426 208.4C425.7 209.9 426.6 210.9 427.4 211.9C427.9 214.5 427.2 216.4 424.7 217.6C421.3 219.3 418 221.2 414.6 223C413.8 223.4 412.9 224.4 412 223.4C411.1 222.4 412.2 221.6 412.6 220.8C414 217.9 416.9 215.6 416.5 211.9C416.9 210.9 416.6 210 416.1 209.1C418.7 208 421.4 207 424 205.9C424.1 207.1 424.9 207.9 426 208.4Z" fill="#343963"/>
<path d="M76.4 95.8C74.1 97.7 73.5 101.9 68.5 100.1C66.6 99.4 64.4 103.8 61.4 104.5C57.4 105.8 60 100.9 57.7 100.6C59.5 100 58.8 97 61.5 97C62.7 97 67.6 100 64.8 94.3C64.3 93.2 69.6 90.6 70.8 90.5C74.7 90.3 73.8 94.9 76.4 95.8Z" fill="#4A5085"/>
<path d="M170.5 164.1C167.7 164 165.6 162.4 163.4 160.9C163 160.6 162.7 160.2 162.3 159.9L162.4 160C161.4 156.1 159.2 152.8 156.4 149.9C156.7 145.8 159.4 143.3 162.4 141C162.7 141 163.1 141 163.4 141.1C165.8 141.5 169.5 141.4 169.7 143.8C170 146.4 166.2 146.1 164.1 146.6C161.1 147.3 161.2 148.5 162.5 150.7C165.3 154.9 168.6 159.1 170.5 164.1Z" fill="#BEB3AA"/>
<path d="M381.6 116.9C385.8 117.1 383.2 114.4 383.3 112.9C386.5 112.2 390.3 112.9 392.7 109.7C394 111.7 395.3 113.7 396.6 115.7C393.4 118 390.6 120.8 386.8 122.2C384.9 122.9 382.9 123.4 381.2 121.9C379.3 120.2 381.5 118.6 381.6 116.9Z" fill="#ECB29E"/>
<path d="M72.2 115.1C75.3 114.9 78.2 114.1 81.2 112.6C77.4 116.1 80.3 119.5 80.8 122.9C80.1 124.6 81.7 127.3 79.3 127.9C77.9 128.3 76.9 126.1 76.4 124.6C75.8 122.7 74.5 124.4 73.6 124.2C72.3 123.8 72.2 121.6 70.4 121.9C70.4 119.5 68.4 116.6 72.2 115.1Z" fill="#8A8581"/>
<path d="M128.3 65.7C131.4 67.6 134.3 66 137.7 65.5C133.6 70 129.6 74.5 125.5 79C125.8 74.5 123.6 69.4 128.3 65.7Z" fill="#C1E7D8"/>
<path d="M118.3 222.9C122.6 220.5 123.7 216.4 124.5 212C124.8 212 125.2 212.1 125.5 212.1C126.3 214.3 127.3 216.4 127.7 218.6C128 220.5 131.3 224.7 124.8 222.9C123.5 222.5 121 226.5 118.1 226.7C117 226.8 115.4 227.3 115 226.1C114.4 224.3 116 224 117.3 223.8C117.6 223.5 118 223.2 118.3 222.9C118.3 222.9 118.4 222.8 118.3 222.9Z" fill="#E1E6EE"/>
<path d="M83.2 96.6C80.9 96.4 78.6 96.1 76.3 95.9C77.7 91 79.7 90.2 82.8 92.5C85.2 94.1 81.9 95.4 83.2 96.6Z" fill="#4A5085"/>
<path d="M118.4 222.8C118 223.1 117.7 223.4 117.3 223.8C117.6 223.5 118 223.2 118.4 222.8Z" fill="#ECB29E"/>
<path d="M189.5 168.8C202 165.9 213.3 169.3 223.2 176.7C234.5 185.1 240.8 197 241 210.9C241.4 231.9 229 250.2 207 255.6C182.1 261.7 158.6 246.6 152.8 221.8C151.3 215.6 151.8 209.3 152.5 203.1C153.9 203 155.4 202.7 156.5 204C156.2 205.2 155.8 206.5 155.5 207.7C155.5 209.5 155.5 211.3 155.5 213.1C155.8 223.1 159.6 231.7 166.1 239.3C166.7 240 167.5 240.1 168.4 239.9C168.4 240.3 168.5 240.6 168.5 241C175.5 249.3 184.9 252.3 195.4 252.9C196.1 252.9 196.8 252.9 197.6 252.9C211.2 252.8 221.7 246.5 229.5 235.9C234.5 229.2 237.8 221.7 236.5 212.9C236.5 212.6 236.4 212.2 236.4 211.9C238.2 204.5 231.9 188.4 225.9 184.7C225.6 184.5 225 184.8 224.5 184.9C224.5 184.6 224.5 184.2 224.4 183.9C224.5 182.7 223.7 182.2 222.9 181.5C216.2 175.7 208.3 172.5 199.5 171.7C199.8 169.5 198.7 168.8 196.6 168.9C194.2 169 191.9 168.8 189.5 168.8Z" fill="#8A8581"/>
<path d="M197.2 178C197.2 186.7 197.2 195.3 197.3 204C197.3 205.8 196.4 208.2 199.3 208.9C198.9 211 199.4 211.8 202 211.8C213.4 211.7 224.9 211.8 236.3 211.9C236.3 212.2 236.3 212.6 236.4 212.9C234.6 212.9 232.7 213 230.9 213C220.9 213 210.9 213.1 200.9 213C197.9 213 197.7 213.7 199.6 215.7C199.4 215.9 199.2 216.1 198.9 216.3C196.3 216.4 197.3 218.4 197.3 219.6C197.3 230.7 197.3 241.7 197.4 252.8C196.7 252.8 196 252.8 195.2 252.8C195.2 241.4 195.3 230 195.3 218.6C195.3 217 195.5 215.2 193.2 214.9C194.1 212 191.8 213 190.7 213C178.9 213 167.2 213 155.4 213C155.4 211.2 155.4 209.4 155.4 207.6C165.4 207.6 175.4 207.7 185.4 207.6C186.9 207.6 188.9 208.3 189.3 205.7C189.6 205.7 190 205.7 190.3 205.7C190.4 205.8 190.4 205.9 190.5 206C190.6 206 190.7 206 190.8 206C190.6 205.9 190.4 205.8 190.3 205.7C189.5 201.1 186.2 197.8 184.2 193.8C184.8 192.4 185.9 191.6 187.5 191.4C190 195.2 192.4 199 195.4 203.5C195.4 194.9 195.4 187.3 195.4 179.7C195.5 178.8 195.9 177.9 197.2 178Z" fill="#BEB3AA"/>
<path d="M181.4 196.8C181.4 197.2 181.4 197.5 181.4 197.9C181 197.9 180.6 197.9 180.3 198C180.6 197.6 181 197.2 181.4 196.8Z" fill="#BEB3AA"/>
<path d="M162.3 159.8C162.7 160.1 163 160.5 163.4 160.8C163.1 160.5 162.7 160.2 162.3 159.8Z" fill="#FEFEFE"/>
<path d="M444.3 42.9C445.4 42.6 446.5 42.1 447.5 42.1C448.6 42.1 450 42.3 450.7 43C452 44.2 450.4 45 449.8 45.8C446.9 50.1 444.9 54.8 444.1 60C443.5 64.2 440.5 67 438.4 70.6C436.8 62.5 439 52.6 444.3 42.9C444.3 42.9 444.3 42.8 444.3 42.9Z" fill="#E1E6EE"/>
<path d="M435.4 104.9C435.4 103.4 435.3 102 435.3 100.5C439 97.3 442.8 94.1 446.8 90.6C448.6 95.9 451.9 100.1 454.3 104.8C448 104.9 441.7 104.9 435.4 104.9Z" fill="#E1E6EE"/>
<path d="M408.4 149.1C407.9 149.2 407.5 149.4 407 149.5C407.3 148.8 407.8 148.8 408.4 149.1Z" fill="#BEB3AA"/>
<path d="M301.3 212.2C301.3 187.1 320.7 167.9 346 167.9C370.2 167.9 390.3 187.8 390.3 211.8C390.3 237 370.5 256.9 345.5 256.9C321.2 256.9 301.3 236.8 301.3 212.2ZM346.6 215C346.5 224.1 346.3 233.2 346.3 242.3C346.2 254.5 346.7 255 358.6 250.7C364.3 248.7 370.2 246.7 373.3 240.8C375 240.8 375.8 239.5 376.8 238.4C382.1 232.3 384.8 225.2 386.2 217.3C386.8 213.9 386 212.6 382.2 212.7C370.6 212.9 359 212.8 347.3 212.8C347.6 212.5 347.9 212.2 348.3 211.9C359.7 211.9 371.1 211.8 382.6 211.9C385.1 211.9 386.8 211.6 386.3 208.4C384.9 199 382 190.5 374.5 184.1C374.2 184 373.8 183.9 373.5 183.8C368 175.7 359.4 173.6 350.6 171.9C347 171.2 346.1 172.7 346.1 176.1C346.3 187.4 346.2 198.6 346.2 209.9C345.9 209.9 345.6 209.9 345.3 209.9C345.3 198.7 345 187.6 345.3 176.4C345.4 171.9 343.5 171.4 340 172C332.4 173.2 325.6 176.2 319.7 181C318.4 182 316.9 183 317.2 185C315.6 184.6 314.8 185.7 314 186.8C309.1 192.9 306.3 199.8 305.2 207.5C304.7 211.1 306 212 309.5 212C320.4 211.8 331.3 212 342.3 212C342.6 212.3 342.9 212.6 343.3 212.9C332 212.9 320.6 212.8 309.3 212.9C307.8 212.9 305.4 211.8 305.2 215C304.9 220.7 310.2 236.6 317.2 240.1C317.2 240.9 317.3 241.6 318.1 242C324.3 248 331.8 251.1 340.2 252.7C343.9 253.4 345.6 252.8 345.5 248.4C345.2 237.3 345.4 226.1 345.4 215C345.8 214.9 346.2 214.9 346.6 215Z" fill="#8A8581"/>
<path d="M50.5 167.9C74.8 167.9 94.1 187.6 94.5 212.1C94.9 236.6 73.8 257.1 49.9 257C25.2 256.8 5.60001 236.9 5.40001 212C5.10001 189.4 25.4 166.5 50.5 167.9ZM77.3 240.9C77.7 240.9 78.1 240.8 78.5 240.8C86.5 233.3 90.4 224 90.3 213C90.3 212.6 90.3 212.2 90.2 211.7C91.5 190.9 71.4 170.8 50.5 172C50.1 172 49.7 172 49.3 172C38.3 171.8 28.9 175.7 21.4 183.9C21.4 184.3 21.4 184.6 21.3 185C20.4 184.9 19.7 185 19.1 185.8C13 193.4 9.00001 201.8 9.50001 211.8C9.50001 212.3 9.40001 212.7 9.40001 213.2C8.60001 233.8 28.4 253.6 49.1 252.9C49.6 252.9 50 252.9 50.5 252.9C59 253.3 66.4 250.3 73.2 245.6C74.9 244.3 77.4 243.6 77.3 240.9Z" fill="#8A8581"/>
<path d="M68.4 164.9C68.5 165.1 68.7 165.3 68.8 165.4C68.6 165.2 68.5 165.1 68.4 164.9C68.4 164.9 68.3 164.9 68.4 164.9Z" fill="#FEFEFE"/>
<path d="M491.6 256.9C466.9 256.1 447.5 237.5 447.7 211.9C447.8 187.1 467.5 167.5 493 167.8C515.3 168.1 536.6 185 536.9 211.7C537.3 237.9 516.9 256.6 491.6 256.9ZM474 176.9C472.8 176.8 471.7 177 471.2 178.4C462.1 181.2 451.2 198.7 452.4 207.9C450.7 209.5 451.6 211.4 451.6 213.2C451.5 223 455.4 231.2 461.4 238.6C462.1 239.5 463 240.2 464.4 239.8C464.1 241.7 465.4 242.8 466.7 243.8C473.9 249.4 482 252.7 491.2 252.8C491.9 252.8 492.7 252.8 493.4 252.8C503.9 252.2 513.3 249.3 520.3 240.8C529 233.5 532.8 224.1 532.4 212.8C532.4 212.5 532.3 212.1 532.3 211.8C532.9 200.5 529.3 191.1 520.3 183.9C513.5 174.9 503.9 172.2 493.3 171.8C492.7 171.8 492 171.8 491.4 171.8C485.1 171.9 479 172.5 474 176.9Z" fill="#8A8581"/>
<path d="M150.4 25.9C149.7 27.8 151.6 29.1 151.4 30.9C149.8 34.5 146.9 32.3 144.5 32.5C143.5 32.6 143.2 31 143.7 30.7C146.2 29.7 142 26.2 145.6 26C147.3 25.9 148.8 26 150.4 25.9Z" fill="#E1E6EE"/>
<path d="M445.4 25.9C445.4 24.6 445.2 22.9 447.3 23.5C449.4 24.1 452 22.8 453.4 24.5C454.3 25.6 452.7 27.2 451.2 27.7C448.8 28.6 447.1 27.1 445.4 25.9C445.4 25.9 445.3 25.8 445.4 25.9Z" fill="#FEFEFE"/>
<path d="M168.4 239.9C168.7 239.6 169.1 239.2 169.4 238.9C169.9 239.9 169.3 240.5 168.5 241C168.4 240.6 168.4 240.2 168.4 239.9Z" fill="#BEB3AA"/>
<path d="M224.4 184.8C224.1 184.8 223.7 184.8 223.4 184.8C223.7 184.5 224 184.1 224.4 183.8C224.3 184.2 224.3 184.5 224.4 184.8Z" fill="#BEB3AA"/>
<path d="M223.4 184.9C223.7 186.5 223 187.2 221.4 186.9C221.6 185.8 222.3 185.1 223.4 184.9Z" fill="#BEB3AA"/>
<path d="M215.4 192.9C215.5 193.7 215.2 194 214.4 193.9C214.7 193.6 215 193.2 215.4 192.9Z" fill="#BEB3AA"/>
<path d="M214.4 193.9C214.5 194.7 214.2 195 213.4 194.9C213.7 194.6 214 194.2 214.4 193.9Z" fill="#BEB3AA"/>
<path d="M213.4 194.9C213.5 195.7 213.2 196 212.4 195.9C212.7 195.6 213 195.2 213.4 194.9Z" fill="#BEB3AA"/>
<path d="M212.4 195.9C212.5 196.7 212.2 197 211.4 196.9C211.4 196.3 211.7 195.9 212.4 195.9Z" fill="#BEB3AA"/>
<path d="M211.4 196.9C211.5 197.7 211.2 198 210.4 197.9C210.7 197.6 211 197.2 211.4 196.9Z" fill="#BEB3AA"/>
<path d="M210.4 197.9C210.5 198.7 210.2 199 209.4 198.9C209.7 198.6 210 198.2 210.4 197.9Z" fill="#BEB3AA"/>
<path d="M209.4 198.9C209.5 199.7 209.2 200 208.4 199.9C208.7 199.6 209 199.2 209.4 198.9Z" fill="#BEB3AA"/>
<path d="M208.4 199.9C208.5 200.7 208.2 201 207.4 200.9C207.7 200.6 208 200.2 208.4 199.9Z" fill="#BEB3AA"/>
<path d="M207.4 200.9C207.5 201.7 207.2 202 206.4 201.9C206.7 201.6 207 201.2 207.4 200.9Z" fill="#BEB3AA"/>
<path d="M206.4 201.9C206.5 202.7 206.2 203 205.4 202.9C205.7 202.6 206 202.2 206.4 201.9Z" fill="#BEB3AA"/>
<path d="M205.4 202.9C205.5 203.7 205.2 204 204.4 203.9C204.7 203.6 205 203.2 205.4 202.9Z" fill="#BEB3AA"/>
<path d="M204.4 203.9C204.5 204.7 204.2 205 203.4 204.9C203.7 204.6 204 204.2 204.4 203.9Z" fill="#BEB3AA"/>
<path d="M203.4 204.9C203.5 205.7 203.2 206 202.4 205.9C202.7 205.6 203 205.2 203.4 204.9Z" fill="#BEB3AA"/>
<path d="M202.4 205.9C202.5 206.7 202.2 207 201.4 206.9C201.7 206.6 202 206.2 202.4 205.9Z" fill="#BEB3AA"/>
<path d="M201.4 206.9C201.5 207.7 201.2 208.1 200.4 207.9C200.4 207.3 200.7 206.9 201.4 206.9Z" fill="#BEB3AA"/>
<path d="M200.4 207.9C200.5 208.7 200.2 209 199.4 208.9C199.4 208.3 199.7 207.9 200.4 207.9Z" fill="#BEB3AA"/>
<path d="M221.4 186.9C221.5 187.7 221.1 188 220.4 187.9C220.7 187.6 221 187.2 221.4 186.9Z" fill="#BEB3AA"/>
<path d="M220.4 187.9C220.5 188.7 220.2 189 219.4 188.9C219.4 188.3 219.7 187.9 220.4 187.9Z" fill="#BEB3AA"/>
<path d="M219.4 188.9C219.5 189.7 219.2 190 218.4 189.9C218.7 189.6 219 189.2 219.4 188.9Z" fill="#BEB3AA"/>
<path d="M218.4 189.9C218.5 190.7 218.2 191 217.4 190.9C217.7 190.6 218 190.2 218.4 189.9Z" fill="#BEB3AA"/>
<path d="M217.4 190.9C217.5 191.7 217.2 192 216.4 191.9C216.7 191.6 217 191.2 217.4 190.9Z" fill="#BEB3AA"/>
<path d="M216.4 191.9C216.5 192.7 216.2 193 215.4 192.9C215.7 192.6 216 192.2 216.4 191.9Z" fill="#BEB3AA"/>
<path d="M190.3 205.9C190.5 206 190.7 206.1 190.8 206.2C190.7 206.2 190.6 206.2 190.5 206.2C190.5 206.1 190.4 206 190.3 205.9C190.3 205.9 190.4 205.9 190.3 205.9Z" fill="#FEFEFE"/>
<path d="M181.3 197.9C182 197.9 182.3 198.2 182.3 198.9C181.6 198.9 181.3 198.6 181.3 197.9Z" fill="#BEB3AA"/>
<path d="M182.4 198.9C183.1 198.9 183.4 199.2 183.4 199.9C182.6 200 182.3 199.6 182.4 198.9Z" fill="#BEB3AA"/>
<path d="M183.4 199.9C184.1 199.9 184.4 200.2 184.4 200.9C183.6 200.9 183.3 200.6 183.4 199.9Z" fill="#BEB3AA"/>
<path d="M184.4 200.9C185.1 200.9 185.4 201.2 185.4 201.9C184.6 201.9 184.3 201.6 184.4 200.9Z" fill="#BEB3AA"/>
<path d="M185.4 201.9C186.1 201.9 186.4 202.2 186.4 202.9C185.6 202.9 185.3 202.6 185.4 201.9Z" fill="#BEB3AA"/>
<path d="M186.4 202.9C187.1 202.9 187.4 203.2 187.4 203.9C186.6 204 186.3 203.6 186.4 202.9Z" fill="#BEB3AA"/>
<path d="M188.4 204.9C189.1 204.9 189.4 205.2 189.4 205.9C188.6 205.9 188.3 205.6 188.4 204.9Z" fill="#BEB3AA"/>
<path d="M348.4 215.9C347.8 215.6 347.2 215.3 346.7 215C346.3 215 345.9 214.9 345.5 214.9C344.8 214.9 344.1 214.9 343.4 214.9C343.4 214.2 343.4 213.5 343.4 212.9C343.1 212.6 342.8 212.3 342.4 212C342.4 211.3 342.4 210.6 342.3 210C343.3 209.3 344.4 211.5 345.4 210C345.7 210 346 210 346.3 210C347 210 347.6 210 348.3 210C348.3 210.7 348.3 211.4 348.3 212C348 212.3 347.7 212.6 347.3 212.9C347.4 213.9 348.8 214.6 348.4 215.9Z" fill="#BEB3AA"/>
<path d="M318.3 239.9C318.2 240.6 318.2 241.3 318.1 242C317.3 241.6 317.3 240.8 317.2 240.1C317.6 240 318 239.9 318.3 239.9Z" fill="#BEB3AA"/>
<path d="M373.3 184.9C373.4 184.5 373.4 184.2 373.5 183.8C373.8 183.9 374.2 184 374.5 184.1C374.1 184.4 373.7 184.6 373.3 184.9Z" fill="#BEB3AA"/>
<path d="M51.4 214.9C50 216.2 50.6 218 50.6 219.6C50.6 230.6 50.6 241.7 50.6 252.7C50.1 252.7 49.7 252.7 49.2 252.7C49.2 241.4 49.1 230.1 49.4 218.8C49.5 214.3 47.4 212.9 43.4 212.9C32.1 213 20.8 212.9 9.5 213C9.5 212.5 9.6 212.1 9.6 211.6C20.8 211.6 32 211.6 43.2 211.6C44.6 211.6 46.2 212 47.4 210.8C50.1 210.3 49.3 208.1 49.3 206.5C49.4 195 49.3 183.4 49.3 171.9C49.7 171.9 50.1 171.9 50.5 171.9C50.5 183 50.6 194.1 50.5 205.3C50.4 209.9 52.3 211.8 56.9 211.7C68 211.6 79.1 211.7 90.3 211.7C90.3 212.1 90.3 212.5 90.4 213C78.9 213 67.3 213 55.8 213C54 213 51.8 212.1 51.4 214.9Z" fill="#BEB3AA"/>
<path d="M77.3 240.9C77 240.6 76.7 240.2 76.4 239.9C77.4 239.5 78 240.1 78.5 240.8C78.1 240.8 77.7 240.8 77.3 240.9Z" fill="#BEB3AA"/>
<path d="M22.4 185.9C21.8 185.9 21.4 185.5 21.4 184.9C21.4 184.5 21.4 184.2 21.5 183.8C22.2 184.3 22.7 184.9 22.4 185.9Z" fill="#BEB3AA"/>
<path d="M495.4 215.9C493 216.2 493.3 218 493.3 219.6C493.4 230.7 493.4 241.7 493.5 252.8C492.8 252.8 492 252.8 491.3 252.8C491.3 241.4 491.4 230 491.4 218.6C491.4 217 491.8 215.2 489.4 214.9C490.1 212.7 488.6 213 487.3 213C475.4 213.1 463.6 213.1 451.7 213.2C451.7 211.4 450.8 209.5 452.5 207.9C462 207.9 471.6 207.9 481.1 207.7C482.4 207.7 484.6 209 485 206.3C485.2 206.1 485.4 205.9 485.6 205.7C485.9 205.8 486.1 205.8 486.4 205.9C486.5 206 486.5 206.2 486.6 206.3C486.6 206.4 486.8 206.3 486.9 206.3C486.7 206.2 486.6 206.1 486.4 206C486.4 205.4 486.1 205 485.4 204.9L485.5 205C483.9 197.9 478.6 192.9 475.5 186.6C474.1 183.8 471.5 181.7 471.3 178.4C471.7 177 472.8 176.8 474.1 176.9C480.6 185 484.8 194.6 491.5 203.7C491.5 192.4 491.5 182.2 491.5 171.9C492.1 171.9 492.8 171.9 493.4 171.9C493.4 182.6 493.3 193.4 493.4 204.1C493.4 205.9 492.5 208.3 495.5 208.9C495 211.1 495.6 211.8 498.1 211.8C509.5 211.7 521 211.8 532.4 211.8C532.4 212.1 532.5 212.5 532.5 212.8C520.6 212.8 508.7 213 496.8 212.9C492.7 212.8 494.9 214.5 495.4 215.9Z" fill="#BEB3AA"/>
<path d="M200.6 216.6C203.1 218.1 205.1 220.1 206.6 222.6C206.4 222.8 206.2 223 205.9 223.3C203.4 221.8 201.4 219.8 199.9 217.3C200.2 217 200.4 216.8 200.6 216.6Z" fill="#BEB3AA"/>
<path d="M211.6 227.6C213 228.2 214 229.2 214.6 230.6C214.4 230.8 214.2 231 214 231.2C212.6 230.6 211.6 229.6 211 228.2C211.2 228 211.4 227.8 211.6 227.6Z" fill="#BEB3AA"/>
<path d="M207.6 223.6C208.6 224 209.2 224.6 209.6 225.6C209.4 225.8 209.2 226 208.9 226.2C208 225.8 207.3 225.1 206.9 224.2C207.2 224 207.4 223.8 207.6 223.6Z" fill="#BEB3AA"/>
<path d="M199.6 215.6C199.9 215.9 200.3 216.3 200.6 216.6C200.4 216.8 200.2 217 200 217.3C199.7 217 199.3 216.6 199 216.3C199.2 216 199.4 215.8 199.6 215.6Z" fill="#BEB3AA"/>
<path d="M206.6 222.6C206.9 222.9 207.3 223.3 207.6 223.6C207.4 223.8 207.2 224 207 224.2C206.7 223.9 206.3 223.5 206 223.2C206.2 223 206.4 222.8 206.6 222.6Z" fill="#BEB3AA"/>
<path d="M210 227.3C209.7 227 209.3 226.6 209 226.3C209.2 226.1 209.4 225.9 209.7 225.7C210 226 210.4 226.4 210.7 226.7C210.4 226.8 210.2 227 210 227.3Z" fill="#BEB3AA"/>
<path d="M211 228.3C210.7 228 210.3 227.6 210 227.3C210.2 227.1 210.4 226.9 210.7 226.6C211 226.9 211.4 227.3 211.7 227.6C211.4 227.8 211.2 228 211 228.3Z" fill="#BEB3AA"/>
<path d="M214.6 230.6C214.7 230.9 214.9 231.3 215 231.6C214.6 231.5 214.3 231.3 213.9 231.2C214.2 231 214.4 230.8 214.6 230.6Z" fill="#BEB3AA"/>
<path d="M192.3 215.9C192.6 215.6 193 215.2 193.3 214.9C193.5 215.7 193.1 216 192.3 215.9Z" fill="#BEB3AA"/>
<path d="M191.3 216.9C191.6 216.6 192 216.2 192.3 215.9C192.5 216.7 192.1 217 191.3 216.9Z" fill="#BEB3AA"/>
<path d="M190.3 217.9C190.6 217.6 191 217.2 191.3 216.9C191.5 217.7 191.1 218 190.3 217.9Z" fill="#BEB3AA"/>
<path d="M189.3 218.9C189.6 218.6 190 218.2 190.3 217.9C190.5 218.7 190.1 219 189.3 218.9Z" fill="#BEB3AA"/>
<path d="M187.3 220.9C187.4 220.3 187.7 219.9 188.3 219.9C188.5 220.7 188.1 221 187.3 220.9Z" fill="#BEB3AA"/>
<path d="M186.3 221.9C186.6 221.6 187 221.2 187.3 220.9C187.5 221.6 187.1 222 186.3 221.9Z" fill="#BEB3AA"/>
<path d="M185.3 222.9C185.6 222.6 186 222.2 186.3 221.9C186.5 222.7 186.1 223 185.3 222.9Z" fill="#BEB3AA"/>
<path d="M184.3 223.9C184.4 223.3 184.7 222.9 185.3 222.9C185.5 223.7 185.1 224 184.3 223.9Z" fill="#BEB3AA"/>
<path d="M183.3 224.9C183.6 224.6 184 224.2 184.3 223.9C184.5 224.7 184.1 225 183.3 224.9Z" fill="#BEB3AA"/>
<path d="M182.3 225.9C182.6 225.6 183 225.2 183.3 224.9C183.5 225.7 183.1 226 182.3 225.9Z" fill="#BEB3AA"/>
<path d="M181.3 226.9C181.6 226.6 182 226.2 182.3 225.9C182.5 226.7 182.1 227 181.3 226.9Z" fill="#BEB3AA"/>
<path d="M180.3 227.9C180.6 227.6 181 227.2 181.3 226.9C181.5 227.7 181.1 228 180.3 227.9Z" fill="#BEB3AA"/>
<path d="M179.3 228.9C179.4 228.3 179.7 227.9 180.3 227.9C180.5 228.7 180.1 229 179.3 228.9Z" fill="#BEB3AA"/>
<path d="M178.3 229.9C178.6 229.6 179 229.2 179.3 228.9C179.5 229.6 179.1 230 178.3 229.9Z" fill="#BEB3AA"/>
<path d="M177.3 230.9C177.6 230.6 178 230.2 178.3 229.9C178.5 230.7 178.1 231 177.3 230.9Z" fill="#BEB3AA"/>
<path d="M176.3 231.9C176.6 231.6 177 231.2 177.3 230.9C177.5 231.7 177.1 232 176.3 231.9Z" fill="#BEB3AA"/>
<path d="M175.3 232.9C175.6 232.6 176 232.2 176.3 231.9C176.5 232.7 176.1 233 175.3 232.9Z" fill="#BEB3AA"/>
<path d="M174.3 233.9C174.6 233.6 175 233.2 175.3 232.9C175.5 233.7 175.1 234 174.3 233.9Z" fill="#BEB3AA"/>
<path d="M188.3 219.9C188.6 219.6 189 219.2 189.3 218.9C189.5 219.7 189.1 220 188.3 219.9Z" fill="#BEB3AA"/>
<path d="M173.3 234.9C173.6 234.6 174 234.2 174.3 233.9C174.5 234.7 174.1 235 173.3 234.9Z" fill="#BEB3AA"/>
<path d="M172.3 235.9C172.6 235.6 173 235.2 173.3 234.9C173.5 235.7 173.1 236 172.3 235.9Z" fill="#BEB3AA"/>
<path d="M171.3 236.9C171.4 236.3 171.7 235.9 172.3 235.9C172.5 236.7 172.2 237 171.3 236.9Z" fill="#BEB3AA"/>
<path d="M170.3 237.9C170.4 237.3 170.7 236.9 171.3 236.9C171.5 237.7 171.1 238 170.3 237.9Z" fill="#BEB3AA"/>
<path d="M169.3 238.9C169.6 238.6 170 238.2 170.3 237.9C170.5 238.7 170.1 239 169.3 238.9Z" fill="#BEB3AA"/>
<path d="M326.4 193.9C325.7 193.9 325.4 193.5 325.4 192.9C326.1 192.8 326.4 193.2 326.4 193.9Z" fill="#BEB3AA"/>
<path d="M327.4 194.9C326.7 194.9 326.4 194.5 326.4 193.9C327.1 193.8 327.4 194.2 327.4 194.9Z" fill="#BEB3AA"/>
<path d="M328.4 195.9C327.7 195.9 327.4 195.6 327.4 194.9C328.1 194.8 328.4 195.2 328.4 195.9Z" fill="#BEB3AA"/>
<path d="M329.4 196.9C328.7 196.9 328.4 196.6 328.4 195.9C329.1 195.8 329.4 196.2 329.4 196.9Z" fill="#BEB3AA"/>
<path d="M330.4 197.9C329.7 197.9 329.4 197.5 329.4 196.9C330.1 196.8 330.4 197.1 330.4 197.9Z" fill="#BEB3AA"/>
<path d="M331.4 198.9C330.7 198.9 330.4 198.6 330.4 197.9C331.1 197.8 331.4 198.2 331.4 198.9Z" fill="#BEB3AA"/>
<path d="M332.4 199.9C331.7 199.9 331.4 199.5 331.4 198.9C332.1 198.8 332.4 199.2 332.4 199.9Z" fill="#BEB3AA"/>
<path d="M333.4 200.9C332.7 200.9 332.4 200.5 332.4 199.9C333.1 199.8 333.4 200.2 333.4 200.9Z" fill="#BEB3AA"/>
<path d="M334.4 201.9C333.7 201.9 333.4 201.5 333.4 200.9C334.1 200.8 334.4 201.2 334.4 201.9Z" fill="#BEB3AA"/>
<path d="M335.4 202.9C334.7 202.9 334.4 202.5 334.4 201.9C335.1 201.8 335.4 202.2 335.4 202.9Z" fill="#BEB3AA"/>
<path d="M336.4 203.9C335.7 203.9 335.4 203.5 335.4 202.9C336.1 202.8 336.4 203.2 336.4 203.9Z" fill="#BEB3AA"/>
<path d="M337.4 204.9C336.8 204.9 336.4 204.5 336.4 203.9C337.1 203.8 337.4 204.2 337.4 204.9Z" fill="#BEB3AA"/>
<path d="M338.4 205.9C337.7 205.9 337.4 205.5 337.4 204.9C338.1 204.8 338.4 205.1 338.4 205.9Z" fill="#BEB3AA"/>
<path d="M339.4 206.9C338.7 206.9 338.4 206.6 338.4 205.9C339.1 205.8 339.4 206.2 339.4 206.9Z" fill="#BEB3AA"/>
<path d="M340.4 207.9C339.7 207.9 339.4 207.5 339.4 206.9C340.1 206.8 340.4 207.2 340.4 207.9Z" fill="#BEB3AA"/>
<path d="M341.4 208.9C340.7 208.9 340.4 208.6 340.4 207.9C341.1 207.8 341.4 208.2 341.4 208.9Z" fill="#BEB3AA"/>
<path d="M342.4 209.9C341.7 209.9 341.4 209.5 341.4 208.9C342.1 208.8 342.4 209.2 342.4 209.9Z" fill="#BEB3AA"/>
<path d="M318.4 185.9C317.7 185.9 317.4 185.5 317.4 184.9C318.1 184.8 318.4 185.1 318.4 185.9Z" fill="#BEB3AA"/>
<path d="M319.4 186.9C318.7 186.9 318.4 186.6 318.4 185.9C319.1 185.8 319.4 186.2 319.4 186.9Z" fill="#BEB3AA"/>
<path d="M320.4 187.9C319.7 187.9 319.4 187.6 319.4 186.9C320.1 186.8 320.4 187.2 320.4 187.9Z" fill="#BEB3AA"/>
<path d="M321.4 188.9C320.7 188.9 320.4 188.6 320.4 187.9C321.1 187.8 321.4 188.2 321.4 188.9Z" fill="#BEB3AA"/>
<path d="M322.4 189.9C321.7 189.9 321.4 189.5 321.4 188.9C322.1 188.8 322.4 189.1 322.4 189.9Z" fill="#BEB3AA"/>
<path d="M323.4 190.9C322.7 190.9 322.4 190.6 322.4 189.9C323.1 189.8 323.4 190.2 323.4 190.9Z" fill="#BEB3AA"/>
<path d="M324.4 191.9C323.7 191.9 323.4 191.5 323.4 190.9C324.1 190.8 324.4 191.2 324.4 191.9Z" fill="#BEB3AA"/>
<path d="M325.4 192.9C324.7 192.9 324.4 192.5 324.4 191.9C325.1 191.8 325.4 192.2 325.4 192.9Z" fill="#BEB3AA"/>
<path d="M349.4 216.9C348.7 216.9 348.4 216.5 348.4 215.9C349.1 215.8 349.4 216.2 349.4 216.9Z" fill="#BEB3AA"/>
<path d="M350.4 217.9C349.7 217.9 349.4 217.5 349.4 216.9C350.1 216.8 350.4 217.2 350.4 217.9Z" fill="#BEB3AA"/>
<path d="M351.4 218.9C350.7 218.9 350.4 218.5 350.4 217.9C351.1 217.8 351.4 218.2 351.4 218.9Z" fill="#BEB3AA"/>
<path d="M352.4 219.9C351.7 219.9 351.4 219.5 351.4 218.9C352.1 218.8 352.4 219.2 352.4 219.9Z" fill="#BEB3AA"/>
<path d="M353.4 220.9C352.7 220.9 352.4 220.6 352.4 219.9C353.1 219.8 353.4 220.2 353.4 220.9Z" fill="#BEB3AA"/>
<path d="M354.4 221.9C353.7 221.9 353.4 221.5 353.4 220.9C354.1 220.8 354.4 221.1 354.4 221.9Z" fill="#BEB3AA"/>
<path d="M355.4 222.9C354.7 222.9 354.4 222.6 354.4 221.9C355.1 221.8 355.4 222.2 355.4 222.9Z" fill="#BEB3AA"/>
<path d="M356.4 223.9C355.7 223.9 355.4 223.5 355.4 222.9C356.1 222.8 356.4 223.2 356.4 223.9Z" fill="#BEB3AA"/>
<path d="M357.4 224.9C356.7 224.9 356.4 224.5 356.4 223.9C357.1 223.8 357.4 224.2 357.4 224.9Z" fill="#BEB3AA"/>
<path d="M358.4 225.9C357.7 225.9 357.4 225.5 357.4 224.9C358.1 224.8 358.4 225.2 358.4 225.9Z" fill="#BEB3AA"/>
<path d="M359.4 226.9C358.7 226.9 358.4 226.5 358.4 225.9C359.1 225.8 359.4 226.2 359.4 226.9Z" fill="#BEB3AA"/>
<path d="M360.4 227.9C359.7 227.9 359.4 227.6 359.4 226.9C360.1 226.8 360.4 227.2 360.4 227.9Z" fill="#BEB3AA"/>
<path d="M361.4 228.9C360.7 228.9 360.4 228.6 360.4 227.9C361.1 227.8 361.4 228.2 361.4 228.9Z" fill="#BEB3AA"/>
<path d="M362.4 229.9C361.7 229.9 361.4 229.5 361.4 228.9C362.1 228.8 362.4 229.1 362.4 229.9Z" fill="#BEB3AA"/>
<path d="M363.4 230.9C362.7 230.9 362.4 230.6 362.4 229.9C363.1 229.8 363.4 230.2 363.4 230.9Z" fill="#BEB3AA"/>
<path d="M364.4 231.9C363.7 231.9 363.4 231.5 363.4 230.9C364.1 230.8 364.4 231.2 364.4 231.9Z" fill="#BEB3AA"/>
<path d="M365.4 232.9C364.7 232.9 364.4 232.5 364.4 231.9C365.1 231.8 365.4 232.2 365.4 232.9Z" fill="#BEB3AA"/>
<path d="M366.4 233.9C365.7 233.9 365.4 233.5 365.4 232.9C366.1 232.8 366.4 233.2 366.4 233.9Z" fill="#BEB3AA"/>
<path d="M367.4 234.9C366.7 234.9 366.4 234.5 366.4 233.9C367.1 233.8 367.4 234.2 367.4 234.9Z" fill="#BEB3AA"/>
<path d="M368.4 235.9C367.7 235.9 367.4 235.5 367.4 234.9C368.1 234.8 368.4 235.2 368.4 235.9Z" fill="#BEB3AA"/>
<path d="M369.4 236.9C368.7 236.9 368.4 236.5 368.4 235.9C369.1 235.8 369.4 236.2 369.4 236.9Z" fill="#BEB3AA"/>
<path d="M370.4 237.9C369.7 237.9 369.4 237.6 369.4 236.9C370.1 236.8 370.4 237.2 370.4 237.9Z" fill="#BEB3AA"/>
<path d="M371.4 238.9C370.7 238.9 370.4 238.5 370.4 237.9C371.1 237.8 371.4 238.2 371.4 238.9Z" fill="#BEB3AA"/>
<path d="M372.4 239.9C371.7 239.9 371.4 239.6 371.4 238.9C372.1 238.8 372.4 239.2 372.4 239.9Z" fill="#BEB3AA"/>
<path d="M373.4 240.9C372.7 240.9 372.4 240.6 372.4 239.9C373.1 239.8 373.4 240.2 373.4 240.9Z" fill="#BEB3AA"/>
<path d="M364.4 193.9C364.3 193.2 364.7 192.8 365.4 192.9C365.4 193.6 365 193.9 364.4 193.9Z" fill="#BEB3AA"/>
<path d="M363.4 194.9C363.3 194.2 363.7 193.8 364.4 193.9C364.4 194.6 364 194.9 363.4 194.9Z" fill="#BEB3AA"/>
<path d="M362.4 195.9C362.3 195.2 362.6 194.8 363.4 194.9C363.4 195.6 363 195.9 362.4 195.9Z" fill="#BEB3AA"/>
<path d="M361.4 196.9C361.3 196.2 361.7 195.8 362.4 195.9C362.4 196.6 362 196.9 361.4 196.9Z" fill="#BEB3AA"/>
<path d="M360.4 197.9C360.3 197.2 360.6 196.8 361.4 196.9C361.4 197.6 361 197.9 360.4 197.9Z" fill="#BEB3AA"/>
<path d="M359.4 198.9C359.3 198.2 359.6 197.8 360.4 197.9C360.4 198.6 360 198.9 359.4 198.9Z" fill="#BEB3AA"/>
<path d="M358.4 199.9C358.3 199.2 358.7 198.8 359.4 198.9C359.4 199.6 359 199.9 358.4 199.9Z" fill="#BEB3AA"/>
<path d="M357.4 200.9C357.3 200.2 357.6 199.8 358.4 199.9C358.4 200.6 358 200.9 357.4 200.9Z" fill="#BEB3AA"/>
<path d="M356.4 201.9C356.3 201.2 356.6 200.8 357.4 200.9C357.4 201.6 357 201.9 356.4 201.9Z" fill="#BEB3AA"/>
<path d="M355.4 202.9C355.3 202.2 355.7 201.8 356.4 201.9C356.4 202.6 356 202.9 355.4 202.9Z" fill="#BEB3AA"/>
<path d="M354.4 203.9C354.3 203.2 354.7 202.8 355.4 202.9C355.3 203.5 355 203.9 354.4 203.9Z" fill="#BEB3AA"/>
<path d="M353.4 204.9C353.3 204.2 353.6 203.8 354.4 203.9C354.4 204.6 354 204.9 353.4 204.9Z" fill="#BEB3AA"/>
<path d="M352.4 205.9C352.3 205.2 352.6 204.8 353.4 204.9C353.4 205.6 353 205.9 352.4 205.9Z" fill="#BEB3AA"/>
<path d="M351.4 206.9C351.3 206.2 351.6 205.8 352.4 205.9C352.4 206.6 352 206.9 351.4 206.9Z" fill="#BEB3AA"/>
<path d="M350.4 207.9C350.3 207.2 350.7 206.8 351.4 206.9C351.4 207.6 351 207.9 350.4 207.9Z" fill="#BEB3AA"/>
<path d="M349.4 208.9C349.3 208.2 349.7 207.8 350.4 207.9C350.4 208.6 350 208.9 349.4 208.9Z" fill="#BEB3AA"/>
<path d="M348.3 209.9C348.2 209.2 348.6 208.8 349.3 208.9C349.4 209.6 349 209.9 348.3 209.9Z" fill="#BEB3AA"/>
<path d="M372.4 185.9C372.3 185.2 372.7 184.8 373.4 184.9C373.4 185.6 373 185.9 372.4 185.9Z" fill="#BEB3AA"/>
<path d="M371.4 186.9C371.3 186.1 371.7 185.8 372.4 185.9C372.4 186.6 372 186.9 371.4 186.9Z" fill="#BEB3AA"/>
<path d="M370.4 187.9C370.3 187.1 370.6 186.8 371.4 186.9C371.4 187.6 371 187.9 370.4 187.9Z" fill="#BEB3AA"/>
<path d="M369.4 188.9C369.3 188.2 369.7 187.8 370.4 187.9C370.4 188.6 370 188.9 369.4 188.9Z" fill="#BEB3AA"/>
<path d="M368.4 189.9C368.3 189.2 368.6 188.8 369.4 188.9C369.4 189.6 369 189.9 368.4 189.9Z" fill="#BEB3AA"/>
<path d="M367.4 190.9C367.3 190.2 367.6 189.8 368.4 189.9C368.4 190.6 368 190.9 367.4 190.9Z" fill="#BEB3AA"/>
<path d="M366.4 191.9C366.3 191.2 366.7 190.8 367.4 190.9C367.4 191.5 367 191.9 366.4 191.9Z" fill="#BEB3AA"/>
<path d="M365.4 192.9C365.3 192.2 365.6 191.8 366.4 191.9C366.4 192.6 366 192.9 365.4 192.9Z" fill="#BEB3AA"/>
<path d="M343.3 214.9C343.3 215.6 343 215.9 342.3 215.9C342.3 215.1 342.6 214.8 343.3 214.9Z" fill="#BEB3AA"/>
<path d="M342.3 215.9C342.3 216.6 342 216.9 341.3 216.9C341.3 216.1 341.6 215.8 342.3 215.9Z" fill="#BEB3AA"/>
<path d="M341.4 216.9C341.4 217.6 341.1 217.9 340.4 217.9C340.3 217.2 340.6 216.8 341.4 216.9Z" fill="#BEB3AA"/>
<path d="M340.4 217.9C340.4 218.6 340.1 218.9 339.4 218.9C339.3 218.1 339.6 217.8 340.4 217.9Z" fill="#BEB3AA"/>
<path d="M339.3 218.9C339.3 219.6 339 219.9 338.3 219.9C338.3 219.1 338.6 218.8 339.3 218.9Z" fill="#BEB3AA"/>
<path d="M338.4 219.9C338.4 220.6 338.1 220.9 337.4 220.9C337.3 220.2 337.6 219.8 338.4 219.9Z" fill="#BEB3AA"/>
<path d="M337.3 220.9C337.3 221.6 337 221.9 336.3 221.9C336.3 221.1 336.6 220.8 337.3 220.9Z" fill="#BEB3AA"/>
<path d="M336.3 221.9C336.3 222.6 336 222.9 335.3 222.9C335.3 222.1 335.6 221.8 336.3 221.9Z" fill="#BEB3AA"/>
<path d="M335.4 222.9C335.4 223.6 335.1 223.9 334.4 223.9C334.3 223.1 334.6 222.8 335.4 222.9Z" fill="#BEB3AA"/>
<path d="M334.3 223.9C334.3 224.6 334 224.9 333.3 224.9C333.3 224.1 333.6 223.8 334.3 223.9Z" fill="#BEB3AA"/>
<path d="M333.3 224.9C333.3 225.6 333 225.9 332.3 225.9C332.3 225.2 332.6 224.8 333.3 224.9Z" fill="#BEB3AA"/>
<path d="M332.4 225.9C332.4 226.6 332.1 226.9 331.4 226.9C331.3 226.1 331.6 225.8 332.4 225.9Z" fill="#BEB3AA"/>
<path d="M331.3 226.9C331.3 227.6 331 227.9 330.3 227.9C330.3 227.1 330.6 226.8 331.3 226.9Z" fill="#BEB3AA"/>
<path d="M330.4 227.9C330.4 228.6 330.1 228.9 329.4 228.9C329.3 228.2 329.6 227.8 330.4 227.9Z" fill="#BEB3AA"/>
<path d="M329.3 228.9C329.3 229.6 329 229.9 328.3 229.9C328.3 229.1 328.6 228.8 329.3 228.9Z" fill="#BEB3AA"/>
<path d="M328.3 229.9C328.3 230.6 328 230.9 327.3 230.9C327.3 230.1 327.6 229.8 328.3 229.9Z" fill="#BEB3AA"/>
<path d="M327.4 230.9C327.4 231.6 327.1 231.9 326.4 231.9C326.3 231.1 326.6 230.8 327.4 230.9Z" fill="#BEB3AA"/>
<path d="M326.3 231.9C326.3 232.6 326 232.9 325.3 232.9C325.3 232.1 325.6 231.8 326.3 231.9Z" fill="#BEB3AA"/>
<path d="M324.4 233.9C324.4 234.6 324.1 234.9 323.4 234.9C323.3 234.1 323.6 233.8 324.4 233.9Z" fill="#BEB3AA"/>
<path d="M323.3 234.9C323.3 235.6 323 235.9 322.3 235.9C322.3 235.1 322.6 234.8 323.3 234.9Z" fill="#BEB3AA"/>
<path d="M322.4 235.9C322.4 236.6 322.1 236.9 321.4 236.9C321.3 236.2 321.6 235.8 322.4 235.9Z" fill="#BEB3AA"/>
<path d="M321.4 236.9C321.4 237.6 321.1 237.9 320.4 237.9C320.3 237.1 320.6 236.8 321.4 236.9Z" fill="#BEB3AA"/>
<path d="M320.3 237.9C320.3 238.6 320 238.9 319.3 238.9C319.3 238.1 319.6 237.8 320.3 237.9Z" fill="#BEB3AA"/>
<path d="M319.3 238.9C319.3 239.6 319 239.9 318.3 239.9C318.3 239.1 318.6 238.8 319.3 238.9Z" fill="#BEB3AA"/>
<path d="M325.3 232.9C325.3 233.6 325 233.9 324.3 233.9C324.3 233.2 324.6 232.8 325.3 232.9Z" fill="#BEB3AA"/>
<path d="M31.4 194.9C30.8 194.9 30.4 194.5 30.4 193.9C31.1 193.8 31.4 194.1 31.4 194.9Z" fill="#BEB3AA"/>
<path d="M32.4 195.9C31.8 195.8 31.4 195.5 31.4 194.9C32.1 194.8 32.4 195.2 32.4 195.9Z" fill="#BEB3AA"/>
<path d="M33.4 196.9C32.8 196.9 32.4 196.5 32.4 195.9C33.1 195.8 33.4 196.1 33.4 196.9Z" fill="#BEB3AA"/>
<path d="M34.4 197.9C33.8 197.9 33.4 197.5 33.4 196.9C34.1 196.8 34.4 197.1 34.4 197.9Z" fill="#BEB3AA"/>
<path d="M35.4 198.9C34.8 198.9 34.4 198.5 34.4 197.9C35.1 197.8 35.4 198.1 35.4 198.9Z" fill="#BEB3AA"/>
<path d="M36.4 199.9C35.8 199.9 35.4 199.5 35.4 198.9C36.1 198.8 36.4 199.1 36.4 199.9Z" fill="#BEB3AA"/>
<path d="M37.4 200.9C37.1 200.6 36.7 200.2 36.4 199.9C37.1 199.8 37.4 200.2 37.4 200.9Z" fill="#BEB3AA"/>
<path d="M38.4 201.9C37.8 201.9 37.4 201.5 37.4 200.9C38.1 200.8 38.4 201.1 38.4 201.9Z" fill="#BEB3AA"/>
<path d="M39.4 202.9C38.8 202.9 38.4 202.5 38.4 201.9C39.1 201.8 39.4 202.1 39.4 202.9Z" fill="#BEB3AA"/>
<path d="M40.4 203.9C39.8 203.9 39.4 203.5 39.4 202.9C40.1 202.8 40.4 203.2 40.4 203.9Z" fill="#BEB3AA"/>
<path d="M41.4 204.9C40.8 204.9 40.4 204.5 40.4 203.9C41.1 203.8 41.4 204.1 41.4 204.9Z" fill="#BEB3AA"/>
<path d="M42.4 205.9C41.8 205.9 41.4 205.5 41.4 204.9C42.1 204.8 42.4 205.1 42.4 205.9Z" fill="#BEB3AA"/>
<path d="M43.4 206.9C42.8 206.9 42.4 206.5 42.4 205.9C43.1 205.8 43.4 206.1 43.4 206.9Z" fill="#BEB3AA"/>
<path d="M44.4 207.9C43.8 207.9 43.4 207.5 43.4 206.9C44.1 206.8 44.5 207.1 44.4 207.9Z" fill="#BEB3AA"/>
<path d="M45.4 208.9C44.8 208.8 44.4 208.5 44.4 207.9C45.1 207.8 45.4 208.1 45.4 208.9Z" fill="#BEB3AA"/>
<path d="M46.4 209.9C45.8 209.9 45.4 209.5 45.4 208.9C46.1 208.8 46.4 209.1 46.4 209.9Z" fill="#BEB3AA"/>
<path d="M47.3 210.9C46.6 210.9 46.3 210.5 46.3 209.9C47.1 209.8 47.4 210.1 47.3 210.9Z" fill="#BEB3AA"/>
<path d="M23.4 186.9C22.8 186.9 22.4 186.5 22.4 185.9C23.1 185.8 23.4 186.1 23.4 186.9Z" fill="#BEB3AA"/>
<path d="M24.4 187.9C23.8 187.8 23.4 187.5 23.4 186.9C24.1 186.8 24.4 187.1 24.4 187.9Z" fill="#BEB3AA"/>
<path d="M25.4 188.9C24.8 188.9 24.4 188.5 24.4 187.9C25.1 187.8 25.4 188.1 25.4 188.9Z" fill="#BEB3AA"/>
<path d="M26.4 189.9C25.8 189.9 25.4 189.5 25.4 188.9C26.1 188.8 26.4 189.1 26.4 189.9Z" fill="#BEB3AA"/>
<path d="M27.4 190.9C26.8 190.9 26.4 190.5 26.4 189.9C27.1 189.8 27.4 190.1 27.4 190.9Z" fill="#BEB3AA"/>
<path d="M28.4 191.9C27.8 191.9 27.4 191.5 27.4 190.9C28.1 190.8 28.4 191.1 28.4 191.9Z" fill="#BEB3AA"/>
<path d="M29.4 192.9C29.1 192.6 28.7 192.2 28.4 191.9C29.1 191.8 29.4 192.2 29.4 192.9Z" fill="#BEB3AA"/>
<path d="M30.4 193.9C29.8 193.9 29.4 193.5 29.4 192.9C30.1 192.8 30.4 193.1 30.4 193.9Z" fill="#BEB3AA"/>
<path d="M52.4 215.9C51.8 215.8 51.4 215.5 51.4 214.9C52.1 214.8 52.4 215.2 52.4 215.9Z" fill="#BEB3AA"/>
<path d="M53.4 216.9C52.8 216.9 52.4 216.5 52.4 215.9C53.1 215.8 53.4 216.1 53.4 216.9Z" fill="#BEB3AA"/>
<path d="M54.4 217.9C53.8 217.9 53.4 217.5 53.4 216.9C54.1 216.8 54.4 217.1 54.4 217.9Z" fill="#BEB3AA"/>
<path d="M55.4 218.9C54.8 218.9 54.4 218.5 54.4 217.9C55.1 217.8 55.4 218.1 55.4 218.9Z" fill="#BEB3AA"/>
<path d="M56.4 219.9C55.8 219.8 55.4 219.5 55.4 218.9C56.1 218.8 56.4 219.2 56.4 219.9Z" fill="#BEB3AA"/>
<path d="M57.4 220.9C56.8 220.9 56.4 220.5 56.4 219.9C57.1 219.8 57.4 220.1 57.4 220.9Z" fill="#BEB3AA"/>
<path d="M58.4 221.9C57.8 221.9 57.4 221.5 57.4 220.9C58.1 220.8 58.4 221.1 58.4 221.9Z" fill="#BEB3AA"/>
<path d="M59.4 222.9C58.8 222.9 58.4 222.5 58.4 221.9C59.1 221.8 59.4 222.1 59.4 222.9Z" fill="#BEB3AA"/>
<path d="M60.4 223.9C59.8 223.9 59.4 223.5 59.4 222.9C60.1 222.8 60.4 223.1 60.4 223.9Z" fill="#BEB3AA"/>
<path d="M61.4 224.9C61.1 224.6 60.7 224.2 60.4 223.9C61.1 223.8 61.4 224.2 61.4 224.9Z" fill="#BEB3AA"/>
<path d="M62.4 225.9C61.8 225.9 61.4 225.5 61.4 224.9C62.1 224.8 62.4 225.1 62.4 225.9Z" fill="#BEB3AA"/>
<path d="M63.4 226.9C62.8 226.9 62.4 226.5 62.4 225.9C63.1 225.8 63.4 226.1 63.4 226.9Z" fill="#BEB3AA"/>
<path d="M64.4 227.9C63.8 227.8 63.4 227.5 63.4 226.9C64.1 226.8 64.4 227.2 64.4 227.9Z" fill="#BEB3AA"/>
<path d="M65.4 228.9C64.8 228.9 64.4 228.5 64.4 227.9C65.1 227.8 65.4 228.1 65.4 228.9Z" fill="#BEB3AA"/>
<path d="M66.4 229.9C65.8 229.9 65.4 229.5 65.4 228.9C66.1 228.8 66.4 229.1 66.4 229.9Z" fill="#BEB3AA"/>
<path d="M67.4 230.9C66.8 230.9 66.4 230.5 66.4 229.9C67.1 229.8 67.4 230.1 67.4 230.9Z" fill="#BEB3AA"/>
<path d="M68.4 231.9C67.8 231.9 67.4 231.5 67.4 230.9C68.1 230.8 68.4 231.1 68.4 231.9Z" fill="#BEB3AA"/>
<path d="M69.4 232.9C69.1 232.6 68.7 232.2 68.4 231.9C69.1 231.8 69.4 232.2 69.4 232.9Z" fill="#BEB3AA"/>
<path d="M70.4 233.9C69.8 233.9 69.4 233.5 69.4 232.9C70.1 232.8 70.4 233.1 70.4 233.9Z" fill="#BEB3AA"/>
<path d="M71.4 234.9C70.8 234.8 70.4 234.5 70.4 233.9C71.1 233.8 71.4 234.1 71.4 234.9Z" fill="#BEB3AA"/>
<path d="M72.4 235.9C71.8 235.8 71.4 235.5 71.4 234.9C72.1 234.8 72.4 235.1 72.4 235.9Z" fill="#BEB3AA"/>
<path d="M73.4 236.9C72.8 236.9 72.4 236.5 72.4 235.9C73.1 235.8 73.4 236.1 73.4 236.9Z" fill="#BEB3AA"/>
<path d="M74.4 237.9C73.8 237.9 73.4 237.5 73.4 236.9C74.1 236.8 74.4 237.1 74.4 237.9Z" fill="#BEB3AA"/>
<path d="M75.4 238.9C74.8 238.9 74.4 238.5 74.4 237.9C75.1 237.8 75.4 238.1 75.4 238.9Z" fill="#BEB3AA"/>
<path d="M76.4 239.9C75.8 239.9 75.4 239.5 75.4 238.9C76.1 238.8 76.4 239.1 76.4 239.9Z" fill="#BEB3AA"/>
<path d="M510.3 193.9C510.3 193.3 510.7 192.9 511.3 192.9C511.4 193.6 511.1 194 510.3 193.9Z" fill="#BEB3AA"/>
<path d="M509.3 194.9C509.3 194.3 509.7 193.9 510.3 193.9C510.5 194.7 510.1 195 509.3 194.9Z" fill="#BEB3AA"/>
<path d="M508.3 195.9C508.3 195.3 508.7 194.9 509.3 194.9C509.4 195.6 509.1 196 508.3 195.9Z" fill="#BEB3AA"/>
<path d="M507.3 196.9C507.3 196.2 507.7 195.9 508.3 195.9C508.5 196.6 508.1 197 507.3 196.9Z" fill="#BEB3AA"/>
<path d="M506.3 197.9C506.3 197.3 506.7 196.9 507.3 196.9C507.4 197.6 507.1 198 506.3 197.9Z" fill="#BEB3AA"/>
<path d="M505.3 198.9C505.3 198.3 505.7 197.9 506.3 197.9C506.5 198.7 506.1 199 505.3 198.9Z" fill="#BEB3AA"/>
<path d="M504.4 199.9C504.4 199.2 504.8 198.9 505.4 198.9C505.5 199.6 505.1 200 504.4 199.9Z" fill="#BEB3AA"/>
<path d="M503.3 200.9C503.3 200.3 503.6 199.9 504.3 199.9C504.4 200.6 504.1 201 503.3 200.9Z" fill="#BEB3AA"/>
<path d="M502.3 201.9C502.3 201.3 502.7 200.9 503.3 200.9C503.4 201.6 503.1 202 502.3 201.9Z" fill="#BEB3AA"/>
<path d="M501.3 202.9C501.3 202.3 501.7 201.9 502.3 201.9C502.5 202.7 502.1 203 501.3 202.9Z" fill="#BEB3AA"/>
<path d="M500.3 203.9C500.3 203.2 500.7 202.9 501.3 202.9C501.4 203.6 501.1 204 500.3 203.9Z" fill="#BEB3AA"/>
<path d="M499.3 204.9C499.3 204.2 499.7 203.9 500.3 203.9C500.4 204.6 500.1 205 499.3 204.9Z" fill="#BEB3AA"/>
<path d="M498.3 205.9C498.3 205.2 498.7 204.9 499.3 204.9C499.4 205.6 499.1 206 498.3 205.9Z" fill="#BEB3AA"/>
<path d="M497.3 206.9C497.3 206.3 497.7 205.9 498.3 205.9C498.4 206.6 498.1 207 497.3 206.9Z" fill="#BEB3AA"/>
<path d="M496.3 207.9C496.3 207.3 496.7 206.9 497.3 206.9C497.4 207.6 497.1 208 496.3 207.9Z" fill="#BEB3AA"/>
<path d="M495.3 208.9C495.3 208.3 495.7 207.9 496.3 207.9C496.5 208.6 496.1 209 495.3 208.9Z" fill="#BEB3AA"/>
<path d="M519.4 184.9C519.4 184.2 519.7 183.9 520.4 183.9C520.4 184.6 520.1 185 519.4 184.9Z" fill="#BEB3AA"/>
<path d="M518.3 185.9C518.3 185.2 518.7 184.9 519.3 184.9C519.4 185.6 519.1 186 518.3 185.9Z" fill="#BEB3AA"/>
<path d="M517.3 186.9C517.3 186.2 517.7 185.9 518.3 185.9C518.4 186.6 518.1 187 517.3 186.9Z" fill="#BEB3AA"/>
<path d="M516.3 187.9C516.3 187.3 516.7 186.9 517.3 186.9C517.5 187.6 517.1 188 516.3 187.9Z" fill="#BEB3AA"/>
<path d="M515.3 188.9C515.3 188.2 515.7 187.9 516.3 187.9C516.5 188.7 516.1 189 515.3 188.9Z" fill="#BEB3AA"/>
<path d="M514.3 189.9C514.3 189.3 514.7 188.9 515.3 188.9C515.4 189.6 515.1 190 514.3 189.9Z" fill="#BEB3AA"/>
<path d="M513.3 190.9C513.3 190.3 513.7 189.9 514.3 189.9C514.5 190.7 514.1 191 513.3 190.9Z" fill="#BEB3AA"/>
<path d="M512.4 191.9C512.4 191.2 512.8 190.9 513.4 190.9C513.5 191.6 513.1 192 512.4 191.9Z" fill="#BEB3AA"/>
<path d="M511.3 192.9C511.3 192.3 511.6 191.9 512.3 191.9C512.4 192.6 512.1 193 511.3 192.9Z" fill="#BEB3AA"/>
<path d="M496.4 216.9C495.6 217 495.3 216.7 495.4 215.9C496 215.9 496.3 216.2 496.4 216.9Z" fill="#BEB3AA"/>
<path d="M497.4 217.9C496.6 218 496.3 217.7 496.4 216.9C497 216.9 497.3 217.2 497.4 217.9Z" fill="#BEB3AA"/>
<path d="M498.4 218.9C497.7 219 497.3 218.6 497.4 217.9C498 217.9 498.3 218.2 498.4 218.9Z" fill="#BEB3AA"/>
<path d="M499.4 219.9C498.6 220 498.3 219.6 498.4 218.9C499 218.9 499.3 219.2 499.4 219.9Z" fill="#BEB3AA"/>
<path d="M500.4 220.9C499.7 221 499.3 220.6 499.4 219.9C500 219.9 500.3 220.3 500.4 220.9Z" fill="#BEB3AA"/>
<path d="M501.4 221.9C500.6 222 500.3 221.6 500.4 220.9C501 220.9 501.3 221.2 501.4 221.9Z" fill="#BEB3AA"/>
<path d="M502.4 222.9C501.6 223 501.3 222.6 501.4 221.9C502 221.9 502.3 222.3 502.4 222.9Z" fill="#BEB3AA"/>
<path d="M503.4 223.9C502.6 224 502.3 223.6 502.4 222.9C503 222.9 503.3 223.3 503.4 223.9Z" fill="#BEB3AA"/>
<path d="M504.4 224.9C503.7 225 503.3 224.6 503.4 223.9C504 223.9 504.3 224.3 504.4 224.9Z" fill="#BEB3AA"/>
<path d="M505.4 225.9C504.6 226 504.3 225.6 504.4 224.9C505 224.9 505.3 225.3 505.4 225.9Z" fill="#BEB3AA"/>
<path d="M506.4 226.9C505.7 227 505.3 226.6 505.4 225.9C506 225.9 506.3 226.3 506.4 226.9Z" fill="#BEB3AA"/>
<path d="M507.4 227.9C506.6 228 506.3 227.6 506.4 226.9C507 226.9 507.3 227.2 507.4 227.9Z" fill="#BEB3AA"/>
<path d="M508.4 228.9C507.7 229 507.3 228.6 507.4 227.9C508 227.9 508.3 228.3 508.4 228.9Z" fill="#BEB3AA"/>
<path d="M509.4 229.9C508.6 230 508.3 229.6 508.4 228.9C509 228.9 509.3 229.2 509.4 229.9Z" fill="#BEB3AA"/>
<path d="M510.4 230.9C509.6 231 509.3 230.6 509.4 229.9C510 229.9 510.3 230.3 510.4 230.9Z" fill="#BEB3AA"/>
<path d="M511.4 231.9C510.6 232 510.3 231.6 510.4 230.9C511 230.9 511.3 231.3 511.4 231.9Z" fill="#BEB3AA"/>
<path d="M512.4 232.9C511.6 233 511.3 232.6 511.4 231.9C512 231.9 512.3 232.3 512.4 232.9Z" fill="#BEB3AA"/>
<path d="M513.4 233.9C512.6 234 512.3 233.6 512.4 232.9C513 232.9 513.3 233.2 513.4 233.9Z" fill="#BEB3AA"/>
<path d="M514.4 234.9C513.6 235 513.3 234.6 513.4 233.9C514 233.9 514.3 234.2 514.4 234.9Z" fill="#BEB3AA"/>
<path d="M515.4 235.9C514.6 236 514.3 235.6 514.4 234.9C515 234.9 515.3 235.3 515.4 235.9Z" fill="#BEB3AA"/>
<path d="M516.4 236.9C515.6 237 515.3 236.6 515.4 235.9C516 235.9 516.3 236.3 516.4 236.9Z" fill="#BEB3AA"/>
<path d="M517.4 237.9C516.6 238 516.3 237.6 516.4 236.9C517 236.9 517.3 237.3 517.4 237.9Z" fill="#BEB3AA"/>
<path d="M518.4 238.9C517.6 239 517.3 238.6 517.4 237.9C518 237.9 518.3 238.3 518.4 238.9Z" fill="#BEB3AA"/>
<path d="M519.4 239.9C518.7 240 518.3 239.6 518.4 238.9C519 238.9 519.3 239.3 519.4 239.9Z" fill="#BEB3AA"/>
<path d="M520.4 240.9C519.7 240.9 519.3 240.6 519.4 239.9C520 239.9 520.3 240.2 520.4 240.9Z" fill="#BEB3AA"/>
<path d="M472.6 192.7C472.9 193 473.3 193.4 473.6 193.7C473.4 193.9 473.2 194.1 473 194.3C472.7 194 472.3 193.7 472 193.3C472.2 193.1 472.4 192.9 472.6 192.7Z" fill="#BEB3AA"/>
<path d="M473.6 193.7C473.9 194 474.3 194.4 474.6 194.7C474.4 194.9 474.2 195.1 474 195.3C473.7 195 473.3 194.6 473 194.3C473.2 194.1 473.4 193.9 473.6 193.7Z" fill="#BEB3AA"/>
<path d="M474.6 194.7C474.9 195 475.3 195.4 475.6 195.7C475.4 195.9 475.2 196.1 475 196.3C474.7 196 474.3 195.6 474 195.3C474.2 195.1 474.4 194.9 474.6 194.7Z" fill="#BEB3AA"/>
<path d="M476 197.3C475.7 197 475.3 196.6 475 196.3C475.2 196.1 475.4 195.9 475.6 195.7C475.9 196 476.3 196.4 476.6 196.7C476.4 196.9 476.2 197.1 476 197.3Z" fill="#BEB3AA"/>
<path d="M476.6 196.7C476.9 197 477.3 197.3 477.6 197.7C477.4 197.9 477.2 198.1 477 198.3C476.7 198 476.3 197.6 476 197.3C476.2 197.1 476.4 196.9 476.6 196.7Z" fill="#BEB3AA"/>
<path d="M477.9 199.3C477.6 199 477.2 198.6 476.9 198.3C477.1 198.1 477.3 197.9 477.5 197.7C477.8 198 478.2 198.4 478.5 198.7C478.4 198.9 478.1 199.1 477.9 199.3Z" fill="#BEB3AA"/>
<path d="M478.9 200.3C478.6 200 478.2 199.6 477.9 199.3C478.1 199.1 478.3 198.9 478.5 198.7C478.8 199 479.2 199.4 479.5 199.7C479.4 199.9 479.2 200.1 478.9 200.3Z" fill="#BEB3AA"/>
<path d="M479.9 201.3C479.6 201 479.2 200.6 478.9 200.3C479.1 200.1 479.3 199.9 479.5 199.7C479.8 200 480.2 200.4 480.5 200.7C480.4 200.9 480.2 201.1 479.9 201.3Z" fill="#BEB3AA"/>
<path d="M480.6 200.7C480.9 201 481.3 201.4 481.6 201.7C481.4 201.9 481.2 202.1 481 202.3C480.7 202 480.3 201.6 480 201.3C480.2 201.1 480.4 200.9 480.6 200.7Z" fill="#BEB3AA"/>
<path d="M481.9 203.3C481.6 203 481.2 202.6 480.9 202.3C481.1 202.1 481.3 201.9 481.5 201.7C481.8 202 482.2 202.4 482.5 202.7C482.4 202.9 482.2 203.1 481.9 203.3Z" fill="#BEB3AA"/>
<path d="M482.6 202.7C482.9 203 483.3 203.4 483.6 203.7C483.4 203.9 483.2 204.1 483 204.3C482.7 204 482.3 203.6 482 203.3C482.2 203.1 482.4 202.9 482.6 202.7Z" fill="#BEB3AA"/>
<path d="M484 205.3C483.7 205 483.3 204.6 483 204.3C483.2 204.1 483.4 203.9 483.6 203.7C483.9 204 484.3 204.4 484.6 204.7C484.4 204.9 484.2 205.1 484 205.3Z" fill="#BEB3AA"/>
<path d="M484.6 204.7C484.9 204.8 485.2 204.9 485.4 205L485.3 204.9C485.4 205.2 485.5 205.4 485.6 205.7C485.4 205.9 485.2 206.1 485 206.3C484.7 206 484.3 205.6 484 205.3C484.2 205.1 484.4 204.9 484.6 204.7Z" fill="#BEB3AA"/>
<path d="M465 186.3C464.9 186 464.7 185.6 464.6 185.3C464.9 185.4 465.3 185.6 465.6 185.7C465.4 185.9 465.2 186.1 465 186.3Z" fill="#BEB3AA"/>
<path d="M466 187.3C465.7 187 465.3 186.6 465 186.3C465.2 186.1 465.4 185.9 465.6 185.7C465.9 186 466.3 186.4 466.6 186.7C466.4 186.9 466.2 187.1 466 187.3Z" fill="#BEB3AA"/>
<path d="M467 188.3C466.7 188 466.3 187.6 466 187.3C466.2 187.1 466.4 186.9 466.6 186.7C466.9 187 467.3 187.4 467.6 187.7C467.4 187.9 467.2 188.1 467 188.3Z" fill="#BEB3AA"/>
<path d="M467.6 187.7C467.9 188 468.3 188.4 468.6 188.7C468.4 188.9 468.2 189.1 468 189.3C467.7 189 467.3 188.6 467 188.3C467.2 188.1 467.4 187.9 467.6 187.7Z" fill="#BEB3AA"/>
<path d="M468.6 188.7C468.9 189 469.3 189.4 469.6 189.7C469.4 189.9 469.2 190.1 469 190.3C468.7 190 468.3 189.6 468 189.3C468.2 189.1 468.4 188.9 468.6 188.7Z" fill="#BEB3AA"/>
<path d="M469.9 191.3C469.6 191 469.2 190.6 468.9 190.3C469.1 190.1 469.3 189.9 469.5 189.7C469.8 190 470.2 190.4 470.5 190.7C470.4 190.9 470.2 191.1 469.9 191.3Z" fill="#BEB3AA"/>
<path d="M471 192.2C470.7 191.9 470.3 191.6 470 191.2C470.2 191 470.4 190.8 470.6 190.6C470.9 190.9 471.2 191.3 471.6 191.6C471.4 191.9 471.2 192.1 471 192.2Z" fill="#BEB3AA"/>
<path d="M471.9 193.3C471.6 192.9 471.3 192.6 470.9 192.3C471.1 192.1 471.3 191.9 471.5 191.8C471.8 192.1 472.2 192.4 472.5 192.8C472.4 192.9 472.2 193.1 471.9 193.3Z" fill="#BEB3AA"/>
<path d="M489.4 214.9C489.5 215.7 489.2 216 488.4 215.9C488.4 215.2 488.7 214.9 489.4 214.9Z" fill="#BEB3AA"/>
<path d="M488.4 215.9C488.5 216.7 488.2 217 487.4 216.9C487.4 216.2 487.7 215.9 488.4 215.9Z" fill="#BEB3AA"/>
<path d="M487.4 216.9C487.5 217.7 487.1 218 486.4 217.9C486.4 217.3 486.7 216.9 487.4 216.9Z" fill="#BEB3AA"/>
<path d="M486.4 217.9C486.5 218.7 486.1 219 485.4 218.9C485.4 218.2 485.7 217.9 486.4 217.9Z" fill="#BEB3AA"/>
<path d="M485.4 218.9C485.5 219.7 485.1 220 484.4 219.9C484.4 219.2 484.7 218.9 485.4 218.9Z" fill="#BEB3AA"/>
<path d="M484.4 219.9C484.5 220.7 484.2 221 483.4 220.9C483.4 220.2 483.7 219.9 484.4 219.9Z" fill="#BEB3AA"/>
<path d="M483.4 220.9C483.5 221.7 483.2 222 482.4 221.9C482.4 221.2 482.7 220.9 483.4 220.9Z" fill="#BEB3AA"/>
<path d="M482.4 221.9C482.5 222.7 482.2 223 481.4 222.9C481.4 222.3 481.7 221.9 482.4 221.9Z" fill="#BEB3AA"/>
<path d="M481.4 222.9C481.5 223.7 481.2 224 480.4 223.9C480.4 223.2 480.7 222.9 481.4 222.9Z" fill="#BEB3AA"/>
<path d="M480.4 223.9C480.5 224.7 480.1 225 479.4 224.9C479.4 224.3 479.7 223.9 480.4 223.9Z" fill="#BEB3AA"/>
<path d="M479.4 224.9C479.5 225.7 479.2 226 478.4 225.9C478.4 225.2 478.7 224.9 479.4 224.9Z" fill="#BEB3AA"/>
<path d="M478.4 225.9C478.5 226.7 478.1 227 477.4 226.9C477.4 226.3 477.7 225.9 478.4 225.9Z" fill="#BEB3AA"/>
<path d="M477.4 226.9C477.5 227.7 477.1 228 476.4 227.9C476.4 227.2 476.7 226.9 477.4 226.9Z" fill="#BEB3AA"/>
<path d="M476.4 227.9C476.5 228.7 476.2 229 475.4 228.9C475.4 228.2 475.7 227.9 476.4 227.9Z" fill="#BEB3AA"/>
<path d="M475.4 228.9C475.5 229.7 475.2 230 474.4 229.9C474.4 229.2 474.7 228.9 475.4 228.9Z" fill="#BEB3AA"/>
<path d="M474.4 229.9C474.5 230.7 474.2 231 473.4 230.9C473.4 230.3 473.7 229.9 474.4 229.9Z" fill="#BEB3AA"/>
<path d="M473.4 230.9C473.5 231.7 473.2 232 472.4 231.9C472.4 231.2 472.7 230.9 473.4 230.9Z" fill="#BEB3AA"/>
<path d="M472.4 231.9C472.5 232.7 472.1 233 471.4 232.9C471.4 232.3 471.7 231.9 472.4 231.9Z" fill="#BEB3AA"/>
<path d="M471.4 232.9C471.5 233.7 471.2 234 470.4 233.9C470.4 233.2 470.7 232.9 471.4 232.9Z" fill="#BEB3AA"/>
<path d="M470.4 233.9C470.5 234.7 470.1 235 469.4 234.9C469.4 234.3 469.7 233.9 470.4 233.9Z" fill="#BEB3AA"/>
<path d="M469.4 234.9C469.5 235.7 469.2 236 468.4 235.9C468.4 235.2 468.7 234.9 469.4 234.9Z" fill="#BEB3AA"/>
<path d="M468.4 235.9C468.5 236.7 468.1 237 467.4 236.9C467.4 236.3 467.7 235.9 468.4 235.9Z" fill="#BEB3AA"/>
<path d="M467.4 236.9C467.5 237.7 467.2 238 466.4 237.9C466.4 237.2 466.7 236.9 467.4 236.9Z" fill="#BEB3AA"/>
<path d="M466.4 237.9C466.5 238.7 466.1 239 465.4 238.9C465.4 238.2 465.7 237.9 466.4 237.9Z" fill="#BEB3AA"/>
<path d="M465.4 238.9C465.5 239.7 465.2 240 464.4 239.9C464.4 239.2 464.7 238.9 465.4 238.9Z" fill="#BEB3AA"/>
<path d="M485.6 205.7C485.5 205.4 485.5 205.1 485.3 204.9C486 204.9 486.3 205.3 486.3 206L486.4 205.9C486.1 205.8 485.8 205.7 485.6 205.7Z" fill="#FEFEFE"/>
<path d="M486.3 205.9C486.5 206 486.6 206.1 486.8 206.2C486.7 206.2 486.6 206.2 486.5 206.2C486.5 206.1 486.4 206 486.3 205.9C486.3 205.9 486.4 205.9 486.3 205.9Z" fill="#FEFEFE"/>
</g>
<defs>
<clipPath id="clip0">
<rect width="542.3" height="262.3" fill="white"/>
</clipPath>
</defs>
</svg>
