<svg width="238" height="232" viewBox="0 0 238 232" fill="none" xmlns="http://www.w3.org/2000/svg">
<g clip-path="url(#clip0)">
<path d="M175.3 60C175.9 64.4 174.1 68.5 173 72.6C171 79.8 173.6 85.7 178.2 90.4C186.2 98.6 188.7 109 192.2 119.2C198.8 138.6 200.5 159 204.2 179C206.2 190 209.4 200.6 214.8 210.5C218.5 217.3 223.1 222.6 232 221.3C234.2 221 237.3 220.5 237.7 223.7C238.1 226.5 235.4 228.1 233.2 229C230.9 229.8 228.5 230.5 225.9 230.3C218.3 229.7 210.7 229.2 203.1 228.4C199.7 228.1 196.4 228.5 193.2 229.3C184.4 231.5 175.5 227.7 166.6 230.9C163.3 232.1 159.2 229.8 155.5 229C150 227.9 145 228.9 139.8 229.9C138 230.2 136 230.7 134.4 230.2C128.9 228.4 123.2 229.5 117.9 228.8C111.8 228 105.9 228.6 100 228.3C98.2 228.2 96.6 227.7 95.9 226C95.1 224 97.4 223.8 98.3 222.8C99.5 221.5 101 220.3 102.6 219.4C120.6 210.2 125.8 192.6 131.2 175.3C137.6 154.8 140.3 133.6 141.5 112.2C141.9 104 142.6 95.6 145.6 87.8C146.5 85.3 147.2 82.7 145.4 80.2C154.7 73 164.1 65.8 172.4 57.2C173.2 58.1 174.2 59.1 175.3 60Z" fill="#F5F0B9"/>
<path d="M38.1 222.2C33.1 219.4 34.2 214.6 34 210.2C33 186.7 31.9 163.3 30 139.7C29 147.1 28 154.5 27.1 162C24.7 180.5 22.4 199 20.1 217.5C19.9 218.7 20.3 220.4 18.3 220.4C16.2 220.4 14 220.4 11.9 220.5C8.9 220.9 8.1 219.8 7.9 216.7C6.4 186.3 4.7 155.9 3 125.4C13.3 125.4 23.5 125.2 33.8 125.4C37.8 125.5 38.9 123.7 38 120.4C36.7 116 37.4 111.5 37.3 107.1C38.9 107 40.5 107 42 106.9C42.4 110.3 42.4 113.7 43 117.1C44.4 125.1 44.2 125.1 52.6 125.5C50.7 155.4 48.8 185.2 46.8 215.1C46.7 216.9 48.3 220.2 44.3 220.5C41.9 220.1 39.6 219.8 38.1 222.2Z" fill="#1F2548"/>
<path d="M37.2 106.9C37.3 111.3 36.6 115.8 37.9 120.2C38.9 123.6 37.8 125.3 33.7 125.2C23.4 125 13.2 125.2 2.9 125.2C-0.899998 125.6 0.100002 122.9 0.200002 121C1 102.6 1.8 84.2 2.7 65.9C2.9 62.3 2.8 58.5 3.6 55C6.1 44 13.6 37.8 24.3 35.2C26.9 34.7 30.1 37 32.2 33.8C33.4 33.5 33.7 34.4 34.2 35.2C34.5 37.2 34.4 38.2 31.7 37.5C29.1 36.8 26.2 36.9 26.5 41.1C25.8 41 25.2 41.1 24.6 40.9C19.9 39.4 15.7 39.8 12.9 44.4C11 47.6 12.4 53.7 15.6 57.1C18 59.6 20.7 61.7 23.5 63.9C27.8 67.2 33 69.3 36.2 74.1C36.4 85 36.8 96 37.2 106.9Z" fill="#343963"/>
<path d="M172.1 57.2C163.9 65.7 154.5 72.9 145.1 80.2C137.7 84.8 129.1 86.5 121.2 90C114.2 93 106.5 94.3 100.5 99.4C99 100.7 97.4 100 95.8 99.3C93.1 98 90.5 96.6 87.9 95.3C87.6 93.5 88.3 91.9 89.2 90.3C95.7 93.6 101.6 93.6 107.3 88.2C118.8 77.3 131.2 67.4 138.7 53C139.1 52.1 139.5 51.2 139.8 50.3C141.5 49.6 141.8 47.7 142.8 46.5C145.3 43.6 146.8 39.7 150.8 38.2C151.4 40.4 150 42 149.2 43.8C146.6 49.8 145.2 55.9 146.3 62.9C147.2 62.3 147.7 62 148.2 61.5C151.5 57.8 154.8 54.1 158.1 50.3C158.4 50 158.8 49.6 159.1 49.3C159.4 48.8 159.8 48.4 160.1 47.9C162.9 50.8 163.9 56.1 169.9 54.7C170.7 54.5 171.8 56 172.1 57.2Z" fill="#ECB29E"/>
<path d="M151 38.1C147 39.6 145.5 43.5 143 46.4C141.9 47.6 141.7 49.4 140 50.2C132.8 44.5 132.7 39 139.9 33.2C142.8 30.9 144.8 28.7 142 25C141 23.7 141.1 22.2 141.8 20.8C145 15.1 149 10 155 7.2C158.7 5.5 162.4 5.8 165.6 8.7C165.3 8.9 165.1 9.1 164.9 9.4C163.7 10.7 160.5 8.8 160.5 11.6C160.5 12.8 159 14.8 160.4 15C162.1 15.2 164.1 17.9 165.9 15.1C170 18.7 173.7 22.6 174.7 28.3C175 30 175.6 32 176.8 33.3C181.2 38.4 183.9 44 182.5 51.2C187.4 49.9 191.8 49.5 195.1 46.3C195.2 47.3 195.3 48.3 195.4 49.2C195.3 49.5 195.2 49.9 195.2 50.2C191.6 54.5 187.4 58 181.4 58.4C179.3 58.6 177.3 59.4 175.3 60C174.2 59.1 173.2 58.1 172.1 57.2C171.8 56 170.7 54.5 170 54.7C164.1 56.1 163 50.8 160.2 47.9C159.9 47.6 159.6 47.3 159.3 47C158.6 44.8 157.6 42.7 158.4 40.2C159.8 36 161 31.7 162.4 27.4C163.4 24.2 162.9 21.1 161.2 18.3C159.3 15.3 156.3 11.9 152.9 13.4C149.9 14.8 150.1 19 151.5 22.3C151.5 22.6 151.6 22.7 151.8 22.8C151.7 23.8 151.6 24.8 152.9 25.1C154.6 29 157.9 33 152.6 36.7C152.4 36.7 152.2 36.8 152.2 37C151.6 37.2 151 37.4 151 38.1Z" fill="#1F2548"/>
<path d="M89.3 90.2C88.4 91.7 87.7 93.3 88 95.2C76.5 92 65.5 87.4 54.3 83.5C49.2 81.9 44.7 79.1 40.3 76.3C39.1 75.2 38.1 73.6 36.1 74.1C33 69.3 27.7 67.2 23.4 63.9C20.7 61.8 17.9 59.7 15.5 57.1C12.3 53.7 10.8 47.6 12.8 44.4C15.6 39.8 19.8 39.4 24.5 40.9C25.1 41.1 25.8 41 26.4 41.1L26.2 41.2C26.2 42.1 26.3 42.9 27.3 43.3C31.3 46 33.3 50.9 37.9 53C38.1 54.4 38.8 55.4 39.7 56.4C47 64.9 56.3 70.9 66 76.2C69.1 77.9 71.4 81.3 75.5 80.8H75.4C75.4 82.2 76.4 82.2 77.4 82.1L77.3 82C77.4 82.7 77.8 83 78.5 83.1V82.9C78.5 83.2 78.5 83.5 78.5 83.7C78.7 83.6 78.9 83.4 79.2 83.3C82.5 85.5 85.9 87.9 89.3 90.2Z" fill="#4A5085"/>
<path d="M40.2 76.2C44.7 79 49.1 81.9 54.2 83.4C54.8 96.1 55.3 108.8 56.2 121.4C56.4 124.6 55.3 125.5 52.4 125.2C44 124.8 44.3 124.8 42.8 116.8C42.2 113.4 42.2 110 41.8 106.6C41.3 96.6 40.8 86.4 40.2 76.2Z" fill="#343963"/>
<path d="M195.1 46.2C191.8 49.4 187.4 49.8 182.5 51.1C184 43.8 181.2 38.3 176.8 33.2C175.7 31.9 175.1 30 174.7 28.2C173.7 22.5 169.9 18.7 165.9 15C166.2 13.7 166.1 12.4 165.4 11.2C165.8 10.9 166.3 10.5 166.7 10.2C170.6 14.2 176 13.9 180.9 15.2C184.9 18.9 187.4 23.3 185.7 28.8C184.5 32.5 185.8 35.1 188.5 37C191.3 39 193.1 41.7 195.2 44.2C195.2 44.9 195.2 45.6 195.1 46.2Z" fill="#1F2548"/>
<path opacity="0.19" d="M195.1 46.2C191.8 49.4 187.4 49.8 182.5 51.1C184 43.8 181.2 38.3 176.8 33.2C175.7 31.9 175.1 30 174.7 28.2C173.7 22.5 169.9 18.7 165.9 15C166.2 13.7 166.1 12.4 165.4 11.2C165.8 10.9 166.3 10.5 166.7 10.2C170.6 14.2 176 13.9 180.9 15.2C184.9 18.9 187.4 23.3 185.7 28.8C184.5 32.5 185.8 35.1 188.5 37C191.3 39 193.1 41.7 195.2 44.2C195.2 44.9 195.2 45.6 195.1 46.2Z" fill="white"/>
<path d="M75.5 80.8C71.4 81.3 69.1 77.9 66 76.2C56.3 70.9 47 64.9 39.8 56.3C38.9 55.3 38.2 54.2 38 52.9C37.1 48.2 36.2 43.6 35.3 38.9C35.1 37.8 34.6 36.6 36.2 36.1C42.7 39 47.4 43.9 50.4 50.2C56 62.6 63.7 73.3 75.5 80.8Z" fill="#343963"/>
<path d="M195.3 44.3C193.3 41.7 191.5 39 188.6 37.1C185.9 35.2 184.6 32.6 185.8 28.9C187.5 23.4 185 19 181 15.3C185.3 15.1 188.1 18 190.7 20.6C194.9 24.8 199.3 28.2 205.3 29.4C208.6 30.1 209.2 33 206.3 36.3C203.3 39.6 199.1 41.8 195.3 44.3Z" fill="#CFD0D2"/>
<path d="M22 23.3C19.1 21.9 17.7 19.2 16.2 16.7C11.4 8.5 15.3 1.6 24.7 1.3C28.3 1.2 32 1.8 35.5 0.200003C37.4 -0.699997 37.7 0.800003 38 2.2C38.6 5.2 38.1 8.2 36.9 11C34.6 9.8 32.6 8.1 29.4 8.9C25.8 9.7 24.6 11.8 24.2 15C24.2 15.4 23.7 16 23.4 16C18.3 15.6 21.2 18.1 21.8 20C22.3 21 22.6 22.2 22 23.3Z" fill="#1F2548"/>
<path d="M22 23.3C22.5 22.2 22.2 21 21.9 20C21.2 18.2 18.3 15.6 23.5 16C23.7 16 24.2 15.4 24.3 15C24.7 11.8 25.9 9.7 29.5 8.9C32.7 8.1 34.7 9.8 37 11C37.3 16.8 37.5 22.5 32.9 27.1C31.2 28.8 32.2 31.5 32.1 33.8C29.9 37 26.8 34.7 24.2 35.2C25 31.4 25.5 27.6 22.9 24.2C22.8 23.7 22.7 23.2 22 23.2V23.3ZM32.1 19.1C30.9 19.7 28.7 18.2 28.6 20.5C28.6 22 30.2 22.9 31.8 23C33.8 23.1 35.2 22 35.2 20.2C35.2 18.3 33.2 19.6 32.1 19.1Z" fill="#ECB29E"/>
<path d="M36.1 36.1C34.4 36.6 35 37.8 35.2 38.9C36.1 43.6 37 48.2 37.9 52.9C33.3 50.8 31.3 45.9 27.3 43.2C27.1 42.4 27.2 41.5 26.2 41.1L26.4 41C26.1 36.9 29 36.7 31.6 37.4C34.3 38.1 34.4 37.2 34.1 35.1C34.9 35.2 35.6 35.3 36.1 36.1Z" fill="#E1E6EE"/>
<path d="M11.8 220.3C13.9 220.3 16.1 220.3 18.2 220.2C18.7 224.4 23.4 224.3 25.4 227C17 230.8 12 228.3 11.8 220.3Z" fill="#343963"/>
<path d="M38.1 222.2C39.6 219.8 41.9 220.2 44.2 220.3C44.7 224.6 49.6 224.4 52 228.2C47.8 228.2 44.3 228.4 40.8 228.1C36.6 227.8 37.8 224.7 38.1 222.2Z" fill="#343963"/>
<path d="M166.8 10.2C166.4 10.5 165.9 10.9 165.5 11.2C165.3 10.6 165.1 10 164.9 9.3C165.1 9 165.3 8.8 165.6 8.6C166.1 9.2 166.4 9.7 166.8 10.2Z" fill="#1F2548"/>
<path d="M77.3 82.1C76.3 82.2 75.4 82.2 75.3 80.8C76.2 80.8 76.9 81.3 77.3 82.1Z" fill="#343963"/>
<path d="M22 23.2C22.7 23.1 22.8 23.7 22.9 24.2C22.6 23.8 22.3 23.5 22 23.2Z" fill="#1F2548"/>
<path d="M78.4 83C77.7 83 77.3 82.6 77.2 81.9C77.6 82.3 78 82.7 78.4 83Z" fill="#343963"/>
<path d="M79.1 83.2C78.9 83.3 78.7 83.5 78.4 83.6C78.4 83.3 78.4 83 78.4 82.8C78.7 82.8 78.9 82.9 79.1 83.2Z" fill="#343963"/>
<path d="M40.2 76.2C40.8 86.4 41.3 96.5 41.9 106.7C40.3 106.8 38.7 106.8 37.2 106.9C36.8 96 36.4 85 36 74.1C38.1 73.6 39 75.1 40.2 76.2Z" fill="#CFD0D2"/>
<path d="M152.2 37.2C152.3 37 152.4 36.9 152.6 36.9C154 37.6 153.2 38.9 153.5 39.8C154.9 43.3 151.8 48.7 158 50.1L158.1 50.3C154.8 54 151.5 57.8 148.2 61.5C147.8 62 147.2 62.2 146.3 62.9C145.2 55.9 146.6 49.8 149.2 43.8C150 42 151.4 40.4 150.8 38.2H150.9C151.4 37.8 151.8 37.5 152.2 37.2Z" fill="#F5F0B9"/>
<path d="M159.3 47C159.6 47.3 159.9 47.6 160.2 47.9C159.9 48.4 159.5 48.8 159.2 49.3L159.1 49.2C159.1 48.4 159.2 47.7 159.3 47Z" fill="#F5F0B9"/>
<path d="M159.1 49.3C158.8 49.6 158.4 50 158.1 50.3L158 50.1C158.3 49.8 158.7 49.5 159 49.1C159 49.1 159.1 49.3 159.1 49.3Z" fill="#F5F0B9"/>
<path d="M159 49.1C158.7 49.4 158.3 49.8 158 50.1C151.8 48.7 154.9 43.3 153.5 39.8C153.2 38.9 154 37.5 152.6 36.9C157.9 33.2 154.6 29.2 152.9 25.3C154.8 24.6 158.6 26.4 158.3 23.2C158.1 20.9 154.5 22.4 152.4 22.3C152.1 22.3 151.8 22.4 151.4 22.5C150 19.2 149.8 14.9 152.8 13.6C156.2 12 159.2 15.5 161.1 18.5C162.8 21.3 163.4 24.3 162.3 27.6C160.9 31.8 159.7 36.1 158.3 40.4C157.5 42.8 158.5 45 159.2 47.2C159.2 47.7 159.1 48.4 159 49.1Z" fill="#ECB29E"/>
<path d="M165 9.3C165.2 9.9 165.4 10.5 165.6 11.2C166.3 12.4 166.4 13.7 166.1 15C164.3 17.8 162.3 15.1 160.6 14.9C159.2 14.7 160.7 12.7 160.7 11.5C160.6 8.7 163.7 10.6 165 9.3Z" fill="#E1E6EE"/>
<path d="M151.5 22.5C151.8 22.4 152.1 22.3 152.5 22.3C154.6 22.4 158.2 20.9 158.4 23.2C158.7 26.4 154.9 24.5 153 25.3C153.3 24.2 152.8 23.5 151.9 23C151.6 22.9 151.5 22.7 151.5 22.5Z" fill="#FEFEFE"/>
<path d="M151.9 23C152.8 23.5 153.3 24.2 153 25.3C151.7 25 151.7 24 151.9 23Z" fill="#ECB29E"/>
<path d="M152.2 37.2C151.8 37.5 151.4 37.8 151 38.2C151 37.4 151.6 37.2 152.2 37.2Z" fill="#ECB29E"/>
<path d="M26.2 41.1C27.2 41.4 27.1 42.4 27.3 43.2C26.3 42.8 26.1 42 26.2 41.1Z" fill="#343963"/>
<path d="M32.1 19.1C33.2 19.6 35.2 18.2 35.3 20.2C35.3 21.9 33.8 23.1 31.9 23C30.3 22.9 28.7 22 28.7 20.5C28.7 18.2 30.9 19.7 32.1 19.1Z" fill="#FEFEFE"/>
</g>
<defs>
<clipPath id="clip0">
<rect width="237.6" height="231.2" fill="white"/>
</clipPath>
</defs>
</svg>
