<svg width="330" height="370" viewBox="0 0 330 370" fill="none" xmlns="http://www.w3.org/2000/svg">
<rect width="330" height="328" rx="50" fill="#F6F6F6"/>
<g clip-path="url(#clip0)">
<path d="M78.8263 347.91C85.7391 348.794 91.4753 352.77 98.0939 354.832C116.185 360.28 134.57 363.373 153.249 364.109C156.191 364.257 159.132 364.257 161.927 363.226C163.251 362.784 166.045 362.637 166.045 362.931C168.104 369.853 174.429 367.055 178.694 368.675C180.459 369.411 182.371 370.442 184.283 369.853C185.901 369.411 187.96 369.411 188.254 367.349C188.401 365.582 186.489 365.288 185.313 364.698C178.841 361.311 178.547 359.986 184.871 356.451C190.902 353.064 191.049 348.941 189.725 342.903C185.166 323.464 180.165 304.172 178.694 284.143C176.194 272.067 175.9 259.844 175.9 247.621C175.9 230.391 176.782 213.308 173.84 196.224C171.928 184.885 167.663 174.134 165.457 162.942C163.545 153.075 162.956 142.766 168.693 133.93C175.017 124.211 175.311 118.025 168.545 108.159C158.103 112.724 147.513 114.786 136.629 109.779C136.482 109.631 136.188 109.631 135.894 109.631C132.952 109.337 131.922 110.073 132.805 113.313C134.276 118.909 132.364 124.211 130.746 129.66C128.981 135.55 124.127 139.968 122.95 146.006C127.363 160.144 129.128 173.398 118.538 186.652C106.772 201.379 108.242 219.051 113.096 235.692C124.127 272.951 100.3 308.884 71.4723 325.083C70.4427 325.673 69.2661 326.262 68.2365 326.703C57.4996 332.152 57.4996 332.152 66.7657 339.81C68.5307 341.283 71.0311 342.461 67.7953 345.554C65.1478 348.057 60.4413 351.592 68.9719 353.506C70.5898 353.801 70.7369 359.25 73.5314 361.164C74.8552 362.048 76.0318 364.404 77.6497 363.373C79.8559 361.9 77.7968 359.839 77.2084 358.219C72.6489 355.715 73.9727 351.15 74.561 347.763C75.5906 343.197 77.5026 346.437 78.8263 347.91Z" fill="#C1E7D8"/>
<path d="M173.84 196.077C176.782 213.16 175.899 230.243 175.899 247.474C175.899 259.697 176.194 271.92 178.694 283.996C188.254 276.927 193.696 267.649 195.02 255.721C196.197 245.706 197.962 235.839 199.727 225.972C200.168 223.469 201.05 220.965 202.374 218.315C207.816 231.863 211.199 245.854 214.14 259.991C218.994 284.143 219.877 308.59 220.612 333.036C220.906 343.345 220.759 353.801 223.701 363.962C225.907 360.133 228.407 356.599 233.849 358.071C236.644 355.273 235.614 351.592 235.908 348.352C239.732 299.164 240.468 249.83 238.262 200.495C238.262 199.023 238.703 197.55 238.85 196.224C228.848 196.224 218.847 196.077 208.845 196.372C205.168 196.372 203.551 195.194 203.698 191.217C203.845 185.327 203.698 179.583 203.551 173.693C199.285 173.693 195.02 173.693 190.755 173.545C190.755 175.754 190.608 177.963 190.608 180.172C190.608 196.666 190.608 196.666 173.84 196.077Z" fill="#1F2548"/>
<path d="M203.992 165.151C204.874 163.384 204.874 160.291 207.963 160.88C212.817 161.617 213.993 158.966 213.846 155.137C213.699 149.541 209.287 154.106 207.375 152.633C206.786 152.191 206.051 152.191 205.316 152.044C205.904 145.27 206.492 138.348 207.08 131.574C209.434 124.063 212.964 116.847 214.582 109.042C215.17 106.391 216.199 104.035 214.287 101.532C213.552 100.648 212.67 99.617 213.846 98.2916C221.347 90.1919 219.288 79.4414 221.641 69.869C227.231 70.8999 233.114 71.489 235.908 77.2324C245.027 95.3463 253.264 113.755 258.412 133.636C260.029 139.821 258.706 144.239 254.146 147.921C251.499 150.13 248.998 152.928 245.91 153.811C236.938 156.61 236.938 162.647 238.114 170.305C239.438 178.847 241.497 187.536 238.997 196.372C228.995 196.372 218.994 196.224 208.993 196.519C205.316 196.519 203.698 195.341 203.845 191.365C203.992 185.474 203.845 179.731 203.698 173.84C203.845 170.894 203.992 167.949 203.992 165.151ZM235.908 139.379C244.145 138.201 242.821 133.489 235.908 124.063C235.908 129.807 235.908 134.519 235.908 139.379Z" fill="#343963"/>
<path d="M122.951 146.006C124.274 139.968 129.128 135.698 130.746 129.66C132.364 124.211 134.129 118.909 132.805 113.313C131.922 110.073 133.099 109.337 135.894 109.631C136.188 109.631 136.335 109.631 136.629 109.778C147.513 114.786 158.103 112.724 168.398 108.011C165.898 102.268 158.985 99.7643 157.662 93.2845C153.102 91.2228 153.543 87.2465 153.985 83.2703C152.514 80.0304 153.543 77.9687 156.926 77.0851C156.926 76.0542 156.926 75.0233 156.926 73.9925C154.279 75.4651 151.484 76.496 148.543 74.7288C147.366 73.9925 145.895 71.9307 147.807 71.4889C150.896 70.8999 155.308 68.1018 156.779 73.9925C158.985 72.3725 159.132 69.869 159.279 67.5127C159.574 62.3583 152.514 54.1114 148.984 55.4368C141.041 58.3821 137.217 69.7217 141.777 77.3796C145.013 82.6812 144.424 87.5411 140.747 92.1064C136.482 97.408 131.04 100.795 124.421 102.121C120.891 106.833 118.244 111.987 116.479 117.731C115.155 122.296 113.832 127.156 107.213 128.776C101.918 129.954 102.653 135.845 104.418 139.968C105.448 142.325 105.889 144.239 105.301 146.743C102.212 161.322 99.4177 175.902 96.1819 190.481C95.1523 195.046 93.0932 199.317 92.0636 203.735C91.3282 206.828 90.887 210.657 94.2698 212.277C97.7998 214.044 97.2114 208.742 98.9764 208.3C103.83 206.975 102.948 204.03 102.359 200.495C102.065 198.728 103.242 196.813 103.977 194.899C107.948 183.118 113.537 171.778 116.038 159.555C117.361 154.842 119.421 149.982 122.951 146.006Z" fill="#ECB29E"/>
<path d="M157.661 93.2845C159.132 99.7643 165.898 102.268 168.398 108.011C175.164 117.878 174.87 124.211 168.545 133.783C162.662 142.766 163.251 152.928 165.31 162.795C167.516 173.987 171.928 184.738 173.693 196.077C190.46 196.666 190.46 196.666 190.46 180.172C190.46 177.963 190.608 175.754 190.608 173.545C190.019 156.61 191.049 139.674 189.284 122.738C185.46 121.56 186.195 117.584 184.577 115.08C180.459 108.011 183.695 99.617 180.312 91.9591C177.37 85.3321 176.929 77.3797 175.458 70.0163C163.103 72.6671 161.191 83.4176 157.661 93.2845Z" fill="#343963"/>
<path d="M156.926 74.1398C156.926 75.1706 156.926 76.2015 156.926 77.2324C163.839 71.0471 165.163 59.8548 159.868 52.6387C154.573 45.2753 144.424 43.5081 136.629 48.8098C135.011 49.9879 133.393 50.7242 131.334 50.7242C129.716 50.7242 127.804 50.8715 126.333 51.6078C118.391 56.0259 113.243 64.5674 103.536 66.3346C103.242 66.3346 102.653 67.0709 102.653 67.5127C102.653 76.9378 97.5056 83.1231 91.4753 89.8974C87.357 94.4627 89.8574 101.09 95.1523 105.36C100.3 109.337 105.889 109.631 110.302 104.919C114.714 100.206 119.126 99.3225 124.568 102.562C131.187 101.09 136.776 97.8498 140.894 92.5482C144.571 87.8356 145.16 82.9758 141.924 77.8214C137.364 70.3108 141.188 58.8239 149.131 55.8786C152.514 54.5532 159.721 62.9474 159.426 67.9545C159.279 70.0163 158.985 72.5198 156.926 74.1398Z" fill="#343963"/>
<path d="M189.578 122.738C191.343 139.674 190.313 156.61 190.902 173.545C195.167 173.545 199.432 173.545 203.698 173.693C203.845 170.894 203.992 167.949 203.992 165.151C203.698 163.678 203.109 162.647 201.491 161.911C196.638 159.702 193.696 157.493 201.197 154.548C202.668 153.959 203.109 151.75 205.168 151.897C205.757 145.123 206.345 138.201 206.933 131.427C207.669 110.809 208.551 90.1919 209.287 69.5745C208.845 69.5745 208.551 69.5745 208.11 69.5745C206.639 71.0471 208.845 76.3487 205.61 74.5815C200.168 71.6362 195.755 73.1089 190.46 75.3179C190.46 71.9307 190.46 69.2799 190.46 66.7764C189.872 66.7764 189.284 66.7764 188.695 66.9236C189.137 85.4793 189.284 104.182 189.578 122.738Z" fill="#E1E6EE"/>
<path d="M212.964 34.8193C215.464 33.0521 216.347 30.1068 217.229 27.3087C219.729 17.8836 218.112 16.1164 208.845 17.1473C205.021 17.5891 201.05 17.5891 197.226 17.8836C183.842 18.6199 177.076 31.2849 183.695 42.9191C185.754 46.6007 188.548 49.5461 192.225 51.7551C191.931 49.1043 192.52 45.8644 191.049 43.9499C187.666 39.0901 187.96 37.912 193.549 34.083C201.197 28.9286 206.639 29.9595 212.964 34.8193Z" fill="#343963"/>
<path d="M209.728 50.8715C205.316 55.4368 204.874 60.5911 205.757 66.4818C201.639 70.6053 197.373 71.0471 193.108 66.6291C193.843 61.622 195.755 56.6149 192.078 51.9023C191.784 49.2515 192.373 46.0116 190.902 44.0972C187.519 39.2373 187.813 38.0592 193.402 34.2302C201.197 28.9286 206.639 29.9595 212.964 34.8193C212.523 40.2682 214.14 46.4534 209.728 50.8715ZM199.874 45.5698C200.021 47.6316 202.227 48.5152 204.139 48.6625C206.786 48.8097 209.287 47.1898 209.14 44.6862C208.993 42.0354 206.051 43.3608 204.433 42.919C202.668 43.5081 199.579 42.0354 199.874 45.5698Z" fill="#ECB29E"/>
<path d="M209.434 69.5744C208.698 90.1919 207.816 110.809 207.081 131.427C209.434 123.916 212.964 116.7 214.582 108.895C215.17 106.244 216.2 103.888 214.288 101.384C213.552 100.501 212.67 99.4697 213.846 98.1443C221.347 90.0446 219.288 79.2941 221.642 69.7217C217.523 69.5744 213.552 63.831 209.434 69.5744Z" fill="#4A5085"/>
<path d="M189.578 122.738C189.284 104.035 189.137 85.4793 188.842 66.7764C184.283 66.9236 180.018 68.3963 175.752 70.0163C177.223 77.3796 177.517 85.1848 180.606 91.9591C183.989 99.617 180.753 107.864 184.871 115.08C186.342 117.731 185.754 121.56 189.578 122.738Z" fill="#4A5085"/>
<path d="M233.996 358.219C228.701 356.746 226.201 360.28 223.848 364.109C223.407 367.349 225.319 368.527 228.113 368.527C233.555 368.675 238.997 368.527 245.174 368.527C242.38 363.078 235.761 363.226 233.996 358.219Z" fill="#343963"/>
<path d="M205.757 66.3346C201.639 70.4581 197.373 70.8999 193.108 66.4819C192.225 66.4819 191.49 66.6291 190.608 66.6291C190.608 69.2799 190.608 71.9308 190.608 75.1706C195.902 72.9616 200.315 71.489 205.757 74.4343C209.14 76.2015 206.786 70.8999 208.257 69.4272C207.963 68.1018 207.963 66.4819 205.757 66.3346Z" fill="#4A5085"/>
<path d="M78.8263 347.91C77.5026 346.437 75.5905 343.197 74.708 347.763C74.1197 351.15 72.796 355.715 77.3555 358.219C76.9142 354.684 77.6496 351.297 78.8263 347.91Z" fill="#ECB29E"/>
<path d="M156.926 77.0851C153.543 77.9687 152.514 80.0304 153.984 83.2703C155.161 81.2086 157.956 80.1777 156.926 77.0851Z" fill="#343963"/>
<path d="M205.316 151.897C203.256 151.75 202.668 153.959 201.197 154.548C193.696 157.493 196.638 159.702 201.491 161.911C203.109 162.647 203.698 163.678 203.992 165.151C204.874 163.384 204.874 160.291 207.963 160.88C212.817 161.617 213.993 158.966 213.846 155.137C213.699 149.541 209.287 154.106 207.375 152.633C206.786 152.191 206.051 152.191 205.316 151.897Z" fill="#ECB29E"/>
<path d="M156.926 74.1398C155.455 68.3964 151.043 71.0472 147.954 71.6362C146.042 71.9308 147.513 74.1398 148.69 74.8761C151.484 76.6433 154.279 75.4652 156.926 74.1398Z" fill="#FEFEFE"/>
<path d="M204.433 43.0663C202.668 43.5081 199.579 42.0354 199.874 45.5698C200.021 47.6316 202.227 48.5152 204.139 48.6625C206.786 48.8097 209.287 47.1898 209.14 44.6862C208.993 42.0354 206.198 43.5081 204.433 43.0663Z" fill="#FEFEFE"/>
</g>
<defs>
<clipPath id="clip0">
<rect width="199" height="353" fill="white" transform="translate(60 17)"/>
</clipPath>
</defs>
</svg>
