<svg width="179" height="239" viewBox="0 0 179 239" fill="none" xmlns="http://www.w3.org/2000/svg">
<g clip-path="url(#clip0)">
<path d="M100.8 73.1C101.5 78 100.6 82.7 98.6 87.2C96.9 91.1 96.8 94.6 99 98.5C105.3 110.2 111.6 121.9 112.6 135.6C112.7 136.9 113.1 138.3 113 139.5C111.3 155 115.8 169.4 120.7 183.7C123.7 192.4 125 201.8 130.6 209.6C134.6 215.1 139.7 218.2 146.5 218.2C147.7 218.2 149.3 217.9 149.9 218.5C156.9 225.1 166.4 223.6 174.7 226.1C176.8 226.7 178.9 227.3 178.8 229.7C178.8 232.6 176.1 231.9 174.3 232.3C156.5 236.1 138.4 236 120.3 236.6C111.4 236.9 102.6 238.4 93.7 236.4C91.4 235.9 88.8 236.3 86.3 237C79.9 238.8 73.5 238.9 67.3 236.2C65.1 235.2 63.1 235.7 61 236.4C56 237.9 50.9 237.8 45.9 236.6C43.8 234.1 43.1 231.6 45.5 228.7C47 226.8 47.9 224.4 49.1 222.3C51.8 219.2 53.2 215.4 53.8 211.6C55.4 199.6 57.2 187.6 57.8 175.6C58.6 160.4 58.4 145.1 60.1 129.9C61.5 117.3 65.8 105.8 74.7 96.3C76.8 95.9 79 95.8 81 95.2C82.5 94.7 83.8 92.6 82 92.1C79.2 91.3 76.4 88.4 73 90.7C72.9 89.6 72.9 88.5 72.8 87.5C82.6 83.2 92.8 80.2 100.8 73.1Z" fill="#BEDDE7"/>
<path d="M49.2 222.3C48 224.5 47.2 226.9 45.6 228.7C43.2 231.6 43.9 234.1 46 236.6C45.3 236.6 44.7 236.6 44 236.6C43.7 236.5 43.3 236.5 43 236.4C40.5 233 41.2 228.8 40.9 225C39 201.3 37.5 177.5 35.8 153.8C35.8 153.1 35.8 152.4 35.6 151.8C35.2 150.6 36.3 148.3 33.8 148.4C31.7 148.5 32.2 150.6 32 152C30.9 160.6 29.9 169.2 28.8 177.8C26.8 194 24.8 210.2 22.7 226.4C22.6 227.2 22.7 228.1 21.6 228.4C19.4 228.4 17.3 228.4 15.1 228.4C13 202 10.5 175.7 8 149.4C7.8 147 8.3 144.3 6 142.4C6.4 137.7 8.6 134.2 12.9 132.1C16.1 130.5 18.5 128.1 21.2 126C23.3 124.3 25.3 122 28.4 122.1C36.9 121.9 45.5 121.6 54 121.4C55 123.9 54.6 127.1 57.7 128.4C58.5 131.3 56.9 133.9 56.7 136.7C55.4 152.4 53.7 168.1 52.4 183.8C51.5 196.6 49.5 209.4 49.2 222.3Z" fill="#1F2548"/>
<path d="M28.5 122.1C25.4 122 23.4 124.4 21.3 126C18.6 128.1 16.1 130.6 13 132.1C8.7 134.2 6.5 137.7 6.1 142.4C1.4 141.8 0.200002 139.2 0.100002 134.6C-0.199998 112.7 1 91 5.1 69.5C7.6 56.6 12.2 45 26.6 41C27 40.9 27.1 39.9 27.3 39.3C30.6 38.8 34.2 42.5 37.2 38.5C39.2 37.1 41.2 35.5 41.3 39.9C41.3 41 42 42 42.4 43.1C42.3 43.3 42.1 43.4 42 43.6C39.5 43.8 37.3 41.2 34.7 42.7C41.4 53.1 41 64.9 42 76.4C41 73.6 38.4 75.6 36.8 74.7C36.2 67.1 34.4 59.7 30.7 53C28.6 49.3 25.3 47.7 21 48.5C16.7 49.3 15.2 52.4 15 56.4C14.8 60.1 15.2 63.6 16.4 67.2C18.5 73.7 22.3 79.4 25.1 85.5C28.2 92 29.1 101.2 39.4 101.7C37.6 108.4 33.8 113.8 29.4 119C28.7 119.8 26.8 120.5 28.5 122.1Z" fill="#343963"/>
<path d="M36.9 74.7C38.5 75.6 41.1 73.6 42.1 76.4C43.1 79.6 46.1 79.4 48.5 80.2C51.7 80.3 55 80.3 58.2 80.4C61.3 80.4 64.3 80 67.1 78.5C71.7 78.4 75.1 75.7 78.7 73.1C75.2 73.4 72.7 68.2 69 71.6C65.5 72.3 62.1 74 58.4 73.6C58.4 70.6 58.3 67.5 58.3 64.5C60.9 64.3 63.2 63.2 65.2 61.5C68.9 60.8 71.9 58.2 75.7 57.3C81.3 56 82.8 50.2 79.1 45.5C79.2 45.2 79.2 44.8 79.3 44.5C79.9 44.8 80.5 45.1 81.1 45.3C82.5 45.7 83.8 45.5 84.6 44.2C85.1 43.5 85.3 42.6 84.5 42C83.3 41.2 82 41.5 80.7 41.6C79.5 41.7 79.2 42.7 79 43.7C77.4 41.2 75.8 38.4 78 35.7C79.3 34.1 88.8 35.3 90.1 37C92.7 40.5 91.1 43.5 88.5 46.2C86.2 52.2 86.9 54.5 91.8 58.2C94.2 60 96.5 61.9 99 63.5C101.5 65.2 102.6 67.3 102.1 70.3C101.8 71.3 101.4 72.2 101.1 73.2C92.8 80.2 82.6 83.2 73 87.3C68.4 87.3 63.7 87.3 59.1 87.3C58.8 87.3 58.5 87.3 58.2 87.3C55 86.2 51.8 85.4 48.4 85.5C46 83.8 43.2 83.7 40.5 83.4C38.6 82 36.6 80.6 34.7 79.2C33.5 78.3 32.6 77 33.2 75.4C33.9 73.4 35.5 74.6 36.9 74.7Z" fill="#ECB29E"/>
<path d="M101.9 70.2C102.4 67.2 101.3 65.1 98.8 63.4C96.3 61.7 94 59.8 91.6 58.1C86.6 54.5 86 52.2 88.3 46.1C97 43.8 99.3 37.1 94 29.6C95.5 27.4 96.8 28.7 98 29.9C108 39.5 113.7 51.5 117.8 64.4C118.7 67.2 117.8 69.3 114.2 69.4C110.1 69.4 106.1 71 101.9 70.2Z" fill="#E1E6EE"/>
<path d="M94 29.6C99.3 37.1 97 43.8 88.3 46.1C90.9 43.4 92.5 40.5 89.9 36.9C88.7 35.2 79.1 34 77.8 35.6C75.6 38.3 77.1 41.1 78.8 43.6C78.8 43.9 78.9 44.1 79.1 44.3C79 44.6 79 45 78.9 45.3C74.6 43.3 74.2 39.2 73.4 35.3C73.7 30.3 75.8 26.6 81 25.6C84 25 84.6 23.3 84.2 20.5C83.8 17.4 86.2 16.2 88.4 15C91.1 13.6 93.5 14.4 95.8 16.1C97.9 17.7 98.4 19.9 97.8 22.3C97.2 24.9 96.2 25.1 93.6 23.8C92.2 23.1 90.7 23.1 89.6 24.6C91 25.5 87 28.8 91.4 28.4C92.2 28.4 92.8 29.8 94 29.6Z" fill="#343963"/>
<path d="M37.2 38.4C34.2 42.4 30.6 38.7 27.3 39.2C30.2 35.2 28.1 32.4 25.1 29.9C25.5 27.3 25.8 24.7 24.4 22.3C24 21.6 23.7 20.3 24.5 20.1C28.2 18.9 29.2 13.9 33.8 14C36.2 14 38.6 13.1 41 12.6C43.2 19 45.1 25.4 39.8 31.3C37.8 33.3 36.7 35.6 37.2 38.4ZM36.9 24.4C35.5 25.1 32.8 23.3 32.5 26C32.2 28.1 34.5 29 36.3 29.1C38.5 29.3 40.4 27.8 40.5 25.7C40.5 23.3 38.1 24.9 36.9 24.4Z" fill="#ECB29E"/>
<path d="M58.2 80.3C55 80.2 51.7 80.2 48.5 80.1C49.8 67.3 47.5 55.1 41.9 43.4C42 43.2 42.2 43.1 42.3 42.9C52.2 46.6 56.6 54.4 58.2 64.3C58.2 67.3 58.3 70.4 58.3 73.4C58.3 75.8 58.3 78.1 58.2 80.3Z" fill="#343963"/>
<path d="M40.9 12.5C38.5 13 36.1 14 33.7 13.9C29.1 13.8 28.1 18.8 24.4 20C23.7 20.2 23.9 21.5 24.3 22.2C25.7 24.7 25.4 27.2 25 29.8C21.9 27.2 19.8 23.8 18 20.4C15.5 15.7 16.7 11.8 21.1 8.8C24.3 6.6 28 5.6 31.9 5.3C35.8 5.1 39.4 4.1 42 0C43.1 4.8 45.8 9 40.9 12.5Z" fill="#343963"/>
<path d="M73.5 35.3C74.3 39.2 74.7 43.4 79 45.3C82.7 50 81.2 55.8 75.6 57.1C71.8 58 68.9 60.6 65.1 61.3C64 54 67.2 47.6 69.1 41C69.8 38.7 70 35.6 73.5 35.3Z" fill="#E1E6EE"/>
<path d="M15.4 228.3C17.6 228.3 19.7 228.3 21.9 228.3C21.1 230.9 23.3 231.6 24.8 232.8C26.2 233.9 28.1 234.3 29.4 236.6C25.3 236.6 21.6 236.6 18 236.6C15.9 236.6 15.1 235.3 15.2 233.3C15.2 231.6 15.3 230 15.4 228.3Z" fill="#343963"/>
<path d="M43.1 236.4C43.4 236.5 43.8 236.5 44.1 236.6C43.6 237.2 43.3 237 43.1 236.4Z" fill="#BEDDE7"/>
<path d="M71.1 91.3C71.8 91 72.5 90.7 73.2 90.5C76.6 88.2 79.4 91.1 82.2 91.9C84 92.4 82.7 94.6 81.2 95C79.2 95.6 77 95.8 74.9 96.1C73.9 95 72.5 95.5 71.3 95.4C71.1 94.1 71.1 92.7 71.1 91.3Z" fill="#ECB29E"/>
<path d="M28.5 122.1C26.9 120.5 28.8 119.9 29.5 119C33.9 113.8 37.7 108.4 39.5 101.7C42.4 99.5 45.9 100 49.1 99.4C50.4 106.8 51.5 114.3 54.1 121.4C45.5 121.6 37 121.9 28.5 122.1Z" fill="#E1E6EE"/>
<path d="M54.1 121.4C51.5 114.3 50.4 106.8 49.1 99.4C52 97.4 55.2 98.8 58.2 98.4C58.1 108.4 58 118.4 57.8 128.4C54.6 127.1 55.1 123.8 54.1 121.4Z" fill="#343963"/>
<path d="M58.2 98.3C55.2 98.7 51.9 97.4 49.1 99.3C45.9 99.9 42.3 99.5 39.5 101.6C29.2 101.1 28.3 91.9 25.2 85.4C22.3 79.3 18.6 73.6 16.5 67.1C15.3 63.5 15 60 15.1 56.3C15.3 52.3 16.8 49.2 21.1 48.4C25.4 47.6 28.7 49.2 30.8 52.9C34.6 59.6 36.3 66.9 36.9 74.6C35.6 74.5 33.9 73.3 33.1 75.3C32.5 76.9 33.4 78.2 34.6 79.1C36.5 80.6 38.4 81.9 40.4 83.3C42.4 86.5 41.9 92.4 48.5 90.3C51.9 90.1 55.3 90.4 58.6 91.2C62.8 91.2 67 91.3 71.1 91.3C71.1 92.7 71.2 94.1 71.2 95.5C66.8 96.5 62.5 97.4 58.2 98.3Z" fill="#4A5085"/>
<path d="M41.9 43.5C47.4 55.1 49.7 67.3 48.5 80.2C46.1 79.3 43 79.6 42.1 76.4C41.1 64.9 41.4 53.2 34.7 42.6C37.3 41.1 39.5 43.7 41.9 43.5Z" fill="#E1E6EE"/>
<path d="M67.1 78.4C66.7 75.8 67.8 73.6 69 71.5C72.7 68.1 75.2 73.3 78.7 73C75.1 75.6 71.7 78.3 67.1 78.4Z" fill="#BEDDE7"/>
<path d="M58.5 91.3C55.2 90.6 51.8 90.3 48.4 90.4C48.4 88.8 48.3 87.1 48.3 85.5C51.7 85.4 54.9 86.2 58.1 87.3C58.2 87.7 58.2 88 58.3 88.4C58.4 89.4 58.5 90.3 58.5 91.3Z" fill="#343963"/>
<path d="M48.3 85.5C48.3 87.1 48.4 88.8 48.4 90.4C41.9 92.5 42.3 86.6 40.3 83.4C43.1 83.7 45.9 83.8 48.3 85.5Z" fill="#E1E6EE"/>
<path d="M79.2 44.3C79 44.1 78.9 43.9 78.9 43.6C79.1 42.6 79.4 41.6 80.6 41.5C81.9 41.3 83.3 41 84.4 41.9C85.2 42.5 85 43.4 84.5 44.1C83.6 45.3 82.3 45.5 81 45.2C80.4 45 79.8 44.6 79.2 44.3Z" fill="white"/>
<path d="M58.3 88.4C58.2 88 58.2 87.7 58.1 87.3C58.4 87.3 58.7 87.3 59 87.3C58.8 87.7 58.6 88 58.3 88.4Z" fill="#CFD0D2"/>
<path d="M36.9 24.4C38.1 24.9 40.5 23.3 40.4 25.7C40.3 27.7 38.4 29.2 36.2 29.1C34.4 29 32.2 28.1 32.4 26C32.8 23.2 35.4 25.1 36.9 24.4Z" fill="#FEFEFE"/>
</g>
<defs>
<clipPath id="clip0">
<rect width="178.9" height="238.4" fill="white"/>
</clipPath>
</defs>
</svg>
