<svg width="136" height="240" viewBox="0 0 136 240" fill="none" xmlns="http://www.w3.org/2000/svg">
<g clip-path="url(#clip0)">
<path d="M122.5 224.7C117.8 225.3 113.9 228 109.4 229.4C97.1 233.1 84.6 235.2 71.9 235.7C69.9 235.8 67.9 235.8 66 235.1C65.1 234.8 63.2 234.7 63.2 234.9C61.8 239.6 57.5 237.7 54.6 238.8C53.4 239.3 52.1 240 50.8 239.6C49.7 239.3 48.3 239.3 48.1 237.9C48 236.7 49.3 236.5 50.1 236.1C54.5 233.8 54.7 232.9 50.4 230.5C46.3 228.2 46.2 225.4 47.1 221.3C50.2 208.1 53.6 195 54.6 181.4C56.3 173.2 56.5 164.9 56.5 156.6C56.5 144.9 55.9 133.3 57.9 121.7C59.2 114 62.1 106.7 63.6 99.1C64.9 92.4 65.3 85.4 61.4 79.4C57.1 72.8 56.9 68.6 61.5 61.9C68.6 65.2 75.7 66.5 83.1 63.1C83.2 63 83.4 63 83.6 63C85.6 62.8 86.3 63.3 85.7 65.5C84.7 69.3 86 72.9 87.1 76.6C88.3 80.6 91.6 83.6 92.4 87.7C89.4 97.3 88.2 106.3 95.4 115.3C103.4 125.3 102.4 137.3 99.1 148.6C91.6 173.9 107.8 198.3 127.4 209.3C128.1 209.7 128.9 210.1 129.6 210.4C136.9 214.1 136.9 214.1 130.6 219.3C129.4 220.3 127.7 221.1 129.9 223.2C131.7 224.9 134.9 227.3 129.1 228.6C128 228.8 127.9 232.5 126 233.8C125.1 234.4 124.3 236 123.2 235.3C121.7 234.3 123.1 232.9 123.5 231.8C126.6 230.1 125.7 227 125.3 224.7C124.7 221.5 123.4 223.7 122.5 224.7Z" fill="#C1E7D8"/>
<path d="M57.9 121.6C55.9 133.2 56.5 144.8 56.5 156.5C56.5 164.8 56.3 173.1 54.6 181.3C48.1 176.5 44.4 170.2 43.5 162.1C42.7 155.3 41.5 148.6 40.3 141.9C40 140.2 39.4 138.5 38.5 136.7C34.8 145.9 32.5 155.4 30.5 165C27.2 181.4 26.6 198 26.1 214.6C25.9 221.6 26 228.7 24 235.6C22.5 233 20.8 230.6 17.1 231.6C15.2 229.7 15.9 227.2 15.7 225C13.1 191.6 12.6 158.1 14.1 124.6C14.1 123.6 13.8 122.6 13.7 121.7C20.5 121.7 27.3 121.6 34.1 121.8C36.6 121.8 37.7 121 37.6 118.3C37.5 114.3 37.6 110.4 37.7 106.4C40.6 106.4 43.5 106.4 46.4 106.3C46.4 107.8 46.5 109.3 46.5 110.8C46.5 122 46.5 122 57.9 121.6Z" fill="#1F2548"/>
<path d="M37.6 106.4C37.6 110.4 37.4 114.4 37.5 118.3C37.6 120.9 36.5 121.8 34 121.8C27.2 121.7 20.4 121.8 13.6 121.7C11.9 115.8 13.4 109.9 14.2 104C15 98.9 15 94.7 8.9 92.8C6.8 92.2 5.1 90.3 3.3 88.8C0.3 86.2 -0.599999 83.2 0.400001 79.1C3.9 65.7 9.5 53.1 15.7 40.8C17.7 36.9 21.7 36.5 25.4 35.8C27 42.3 25.6 49.6 30.7 55.1C31.5 55.9 30.9 56.6 30.4 57.3C29 59 29.8 60.6 30.2 62.4C31.3 67.7 33.7 72.5 35.3 77.7C35.7 82.3 36.1 87 36.5 91.6C36 91.7 35.5 91.8 35.1 92C33.7 92.9 30.8 89.9 30.7 93.7C30.6 96.3 31.5 98.1 34.7 97.6C36.8 97.3 36.7 99.3 37.4 100.5C37.4 102.5 37.5 104.5 37.6 106.4ZM15.7 72.7C11 79.1 10.1 82.3 15.7 83.1C15.7 79.8 15.7 76.6 15.7 72.7Z" fill="#343963"/>
<path d="M92.5 87.6C91.6 83.5 88.3 80.6 87.2 76.5C86.1 72.8 84.9 69.2 85.8 65.4C86.4 63.2 85.6 62.7 83.7 62.9C83.5 62.9 83.4 62.9 83.2 63C75.8 66.4 68.6 65 61.6 61.8C63.3 57.9 68 56.2 68.9 51.8C72 50.4 71.7 47.7 71.4 45C72.4 42.8 71.7 41.4 69.4 40.8C69.4 40.1 69.4 39.4 69.4 38.7C71.2 39.7 73.1 40.4 75.1 39.2C75.9 38.7 76.9 37.3 75.6 37C73.5 36.6 70.5 34.7 69.5 38.7C68 37.6 67.9 35.9 67.8 34.3C67.6 30.8 72.4 25.2 74.8 26.1C80.2 28.1 82.8 35.8 79.7 41C77.5 44.6 77.9 47.9 80.4 51C83.3 54.6 87 56.9 91.5 57.8C93.9 61 95.7 64.5 96.9 68.4C97.8 71.5 98.7 74.8 103.2 75.9C106.8 76.7 106.3 80.7 105.1 83.5C104.4 85.1 104.1 86.4 104.5 88.1C106.6 98 108.5 107.9 110.7 117.8C111.4 120.9 112.8 123.8 113.5 126.8C114 128.9 114.3 131.5 112 132.6C109.6 133.8 110 130.2 108.8 129.9C105.5 129 106.1 127 106.5 124.6C106.7 123.4 105.9 122.1 105.4 120.8C102.7 112.8 98.9 105.1 97.2 96.8C96.3 93.6 94.9 90.3 92.5 87.6Z" fill="#ECB29E"/>
<path d="M68.9 51.8C67.9 56.2 63.3 57.9 61.6 61.8C57 68.5 57.2 72.8 61.5 79.3C65.5 85.4 65.1 92.3 63.7 99C62.2 106.6 59.2 113.9 58 121.6C46.6 122 46.6 122 46.6 110.8C46.6 109.3 46.5 107.8 46.5 106.3C46.9 94.8 46.2 83.3 47.4 71.8C50 71 49.5 68.3 50.6 66.6C53.4 61.8 51.2 56.1 53.5 50.9C55.5 46.4 55.8 41 56.8 36C65.2 37.8 66.5 45.1 68.9 51.8Z" fill="#343963"/>
<path d="M69.4 38.8C69.4 39.5 69.4 40.2 69.4 40.9C64.7 36.7 63.8 29.1 67.4 24.2C71 19.2 77.9 18 83.2 21.6C84.3 22.4 85.4 22.9 86.8 22.9C87.9 22.9 89.2 23 90.2 23.5C95.6 26.5 99.1 32.3 105.7 33.5C105.9 33.5 106.3 34 106.3 34.3C106.3 40.7 109.8 44.9 113.9 49.5C116.7 52.6 115 57.1 111.4 60C107.9 62.7 104.1 62.9 101.1 59.7C98.1 56.5 95.1 55.9 91.4 58.1C86.9 57.1 83.1 54.9 80.3 51.3C77.8 48.1 77.4 44.8 79.6 41.3C82.7 36.2 80.1 28.4 74.7 26.4C72.4 25.5 67.5 31.2 67.7 34.6C67.8 36 68 37.7 69.4 38.8Z" fill="#343963"/>
<path d="M47.2 71.8C46 83.3 46.7 94.8 46.3 106.3C43.4 106.3 40.5 106.3 37.6 106.4C37.5 104.5 37.4 102.5 37.4 100.6C37.6 99.6 38 98.9 39.1 98.4C42.4 96.9 44.4 95.4 39.3 93.4C38.3 93 38 91.5 36.6 91.6C36.2 87 35.8 82.3 35.4 77.7C34.9 63.7 34.3 49.7 33.8 35.7C34.1 35.7 34.3 35.7 34.6 35.7C35.6 36.7 34.1 40.3 36.3 39.1C40 37.1 43 38.1 46.6 39.6C46.6 37.3 46.6 35.5 46.6 33.8C47 33.8 47.4 33.8 47.8 33.9C47.5 46.5 47.4 59.2 47.2 71.8Z" fill="#E1E6EE"/>
<path d="M31.3 12.1C29.6 10.9 29 9 28.4 7C26.7 0.599997 27.8 -0.600003 34.1 0.0999968C36.7 0.399997 39.4 0.399997 42 0.599997C51.1 1.1 55.7 9.7 51.2 17.6C49.8 20.1 47.9 22.1 45.4 23.6C45.6 21.8 45.2 19.6 46.2 18.3C48.5 15 48.3 14.2 44.5 11.6C39.3 8.1 35.6 8.8 31.3 12.1Z" fill="#343963"/>
<path d="M31.3 12.1C35.6 8.8 39.3 8.1 44.6 11.7C48.4 14.3 48.6 15.1 46.3 18.4C45.4 19.7 45.8 21.9 45.5 23.7C42.9 26.9 44.2 30.3 44.8 33.7C41.9 36.6 39 36.4 36.2 33.6C36.8 29.7 36.5 26.1 33.5 23C30.5 20 31.6 15.8 31.3 12.1ZM37.1 17.7C35.9 18 34 17 33.9 18.8C33.8 20.6 35.5 21.6 37.3 21.5C38.6 21.4 40.1 20.8 40.2 19.4C40.4 17 38.3 18 37.1 17.7Z" fill="#ECB29E"/>
<path d="M33.7 35.7C34.2 49.7 34.8 63.7 35.3 77.7C33.7 72.6 31.3 67.7 30.2 62.4C29.8 60.6 29.1 59 30.4 57.3C30.9 56.7 31.5 56 30.7 55.1C25.6 49.6 27 42.3 25.4 35.8C28.2 35.7 30.9 31.8 33.7 35.7Z" fill="#4A5085"/>
<path d="M47.2 71.8C47.4 59.1 47.5 46.5 47.7 33.8C50.8 33.9 53.7 34.9 56.6 36C55.6 41 55.4 46.3 53.3 50.9C51 56.1 53.2 61.7 50.4 66.6C49.4 68.4 49.8 71 47.2 71.8Z" fill="#4A5085"/>
<path d="M17 231.7C20.6 230.7 22.3 233.1 23.9 235.7C24.2 237.9 22.9 238.7 21 238.7C17.3 238.8 13.6 238.7 9.4 238.7C11.3 235 15.8 235.1 17 231.7Z" fill="#343963"/>
<path d="M36.2 33.5C39 36.3 41.9 36.6 44.8 33.6C45.4 33.6 45.9 33.7 46.5 33.7C46.5 35.5 46.5 37.3 46.5 39.5C42.9 38 39.9 37 36.2 39C33.9 40.2 35.5 36.6 34.5 35.6C34.7 34.7 34.7 33.6 36.2 33.5Z" fill="#4A5085"/>
<path d="M122.5 224.7C123.4 223.7 124.7 221.5 125.3 224.6C125.7 226.9 126.6 230 123.5 231.7C123.8 229.3 123.3 227 122.5 224.7Z" fill="#ECB29E"/>
<path d="M69.4 40.8C71.7 41.4 72.4 42.8 71.4 45C70.6 43.6 68.7 42.9 69.4 40.8Z" fill="#343963"/>
<path d="M36.5 91.6C37.9 91.5 38.3 93 39.2 93.4C44.3 95.4 42.3 96.9 39 98.4C37.9 98.9 37.5 99.6 37.3 100.6C36.7 99.4 36.7 97.3 34.6 97.7C31.3 98.2 30.5 96.4 30.6 93.8C30.7 90 33.7 93.1 35 92.1C35.5 91.8 36 91.8 36.5 91.6Z" fill="#ECB29E"/>
<path d="M69.4 38.8C70.4 34.9 73.4 36.7 75.5 37.1C76.8 37.3 75.8 38.8 75 39.3C73.1 40.5 71.2 39.7 69.4 38.8Z" fill="#FEFEFE"/>
<path d="M37.1 17.7C38.3 18 40.5 17 40.2 19.5C40.1 20.9 38.6 21.5 37.3 21.6C35.5 21.7 33.8 20.6 33.9 18.9C34 17 35.9 18 37.1 17.7Z" fill="#FEFEFE"/>
</g>
<defs>
<clipPath id="clip0">
<rect width="135.3" height="239.7" fill="white"/>
</clipPath>
</defs>
</svg>
