<svg width="149" height="241" viewBox="0 0 149 241" fill="none" xmlns="http://www.w3.org/2000/svg">
<g clip-path="url(#clip0)">
<path d="M124 97.8C126.1 106.9 130.9 115 133.6 123.9C137.2 135.5 140.1 147.1 141.1 159.3C142.7 178.1 142.9 197 145.9 215.7C146.9 222.2 147.3 228.9 148 235.4C148.3 238.4 147.5 239.9 144 239.9C135 239.8 126.1 240.3 117.1 240.4C108.5 240.6 99.8 239.2 91.2 240C83.5 240.7 76 239.5 68.4 239.8C66.6 239.9 64.6 240.3 63.6 238.1C63.9 236.3 64.3 234.5 64.6 232.8C66 226.1 66.6 219.3 66.9 212.5C68.5 183.7 67.2 154.6 75.6 126.5C77.1 121.9 78.6 117.3 80.1 112.7C84.5 105.2 89 97.8 90 89C90.1 83.6 88.4 78.6 86.7 73.5C84.8 68 83.4 62.4 84.7 56.5C84.8 54.4 86.2 53.6 87.9 52.8C92.4 53.5 95.9 55.9 98.9 59.1C100.6 60.9 102.1 61.3 103.9 59.4C107.9 55.3 113.2 53.7 118.5 52.4C119 52.6 119.5 52.8 120 53C117.7 55.8 117 59 116.9 62.6C116.7 68.1 119.6 72.7 121 77.7C121 82.4 121 87.1 121 91.7C117 94.8 112.5 96.9 106.8 98.4C108.4 94.6 109.4 91.3 109 87.9C110.2 84 109.9 83.7 104 84C101.1 82.2 98.4 81 97.5 85.9C97.2 87.3 96.3 86.8 95.7 86.7C90.4 86.2 91 88.5 93.2 91.7C94.2 95.5 97.2 97.5 100 99.8C99.7 100.2 99.4 100.5 99 100.9C97.2 102.8 98.9 105 99.8 105.4C102.9 106.8 102.5 109.9 103.6 112.2C107.3 110.4 104.8 107.4 105.4 105.1C106.6 104.8 109 104.4 109 104.1C108.8 99.9 112.5 100.7 114.6 100C117.6 98.9 120.8 98.5 124 97.8Z" fill="#F9E5C8"/>
<path d="M75.7 126.5C67.4 154.6 68.7 183.7 67 212.5C66.6 219.3 66.1 226.1 64.7 232.8C62.9 232.5 61.1 232.2 59.2 231.8C58.2 215.2 57.1 198.6 56.1 182C55.3 169.4 54.7 156.8 53 144.1C52 154 51 163.8 50 173.7C48.2 191.7 46.5 209.8 44.7 227.9C44.5 229.7 44.4 231.5 42.9 232.9C40.6 232.9 38.4 232.9 36.1 232.9C36 232.3 35.9 231.7 35.8 231.1C35.8 230.7 35.8 230.3 35.9 229.9C34.9 203.7 31.9 177.7 29.5 151.6C28.7 143.5 28.7 135.4 28.3 127.3C34.4 127.2 40.5 127 46.6 127.1C49.8 127.1 51.1 125.9 51 122.7C50.9 118.7 51 114.8 51.1 110.8C54 110.7 56.9 110.7 59.8 110.6C59.9 114.6 60 118.6 60 122.5C59.9 125.6 61 127.2 64.3 127.1C68.1 126.6 71.9 126.6 75.7 126.5Z" fill="#1F2548"/>
<path d="M51.1 110.5C51.1 114.5 50.9 118.4 51 122.4C51.1 125.6 49.8 126.8 46.6 126.8C40.5 126.7 34.4 126.9 28.3 127C25.6 127.4 25 126 25 123.6C24.9 114.4 26.8 105.4 27.5 96.4C28.1 89.5 27.8 82.6 28 74.4C21.1 85.9 16.1 96.8 12.1 108.1C11.1 110.9 10 112.4 6.9 111C5.3 110.6 3.7 110.1 2.1 109.7C3.3 97.5 7.7 86.2 13 75.4C17.7 65.9 22.6 56.4 26 46.4C28 40.5 31.9 37.5 38 37C38 41.9 40.1 46.3 40.6 51.1C40.9 54 43.6 57 43.2 58.6C41 66.3 46 71.6 48.1 77.9C49.1 88.7 50.1 99.6 51.1 110.5Z" fill="#343963"/>
<path d="M75.7 126.5C71.9 126.6 68.1 126.6 64.3 126.8C61 127 59.9 125.3 60 122.2C60.1 118.2 59.9 114.2 59.8 110.3C60.3 98.5 59.5 86.6 60.8 74.8C62.2 74.3 62.4 72.9 63.1 71.9C67 65.9 64.4 58.6 67.6 52.2C69.8 47.9 69.3 42.2 70.1 37.2C76.1 38.6 79.9 42.2 81.5 48.3C82.2 51.1 83.6 53.8 84.7 56.6C83.4 62.5 84.8 68.1 86.7 73.6C88.4 78.6 90.1 83.7 90 89.1C84.6 87.2 82.1 82.3 78.1 77.2C79 89.9 78.6 101.4 80.2 112.9C78.7 117.3 77.2 121.9 75.7 126.5Z" fill="#343963"/>
<path d="M120.1 52.9C119.6 52.7 119.1 52.5 118.6 52.3C116 50.5 113.3 48.9 110.4 47.7C106.1 46 104.6 41.1 106.7 36.9C107.5 35.4 108.5 34.1 109.1 32.6C111.4 27.2 110.3 25.6 104.3 25.8C103.3 25.8 102.2 25.9 101.6 25C99.2 21.3 97.4 25.4 95.4 25.6C93.2 25.9 94.2 28.3 94.4 29.8C94.7 32.3 96.2 34.3 97.8 36.3C100.5 39.8 99.8 44.1 96.5 46.4C90.1 39.5 89.8 31.1 91.4 22.7C93 14 101.4 10.3 109.5 14C111.4 14.9 113.6 15.8 113.2 18.6C112.8 18.4 112.1 17.8 112 17.9C111 19 108.4 16.4 108.2 19.6C108.1 21.5 107.7 22.9 110.4 23.7C114 24.7 112.7 20.1 115.2 20.5C116.5 22.5 119.3 23.3 120.3 25.1C123.3 30.9 127.5 36.1 130.5 41.7C132.7 45.9 131.8 52.1 133.8 57.3C135 60.4 131.9 63 129.2 64.8C125.7 61.3 124.2 56.1 120.1 52.9Z" fill="#1F2548"/>
<path d="M60.9 74.8C59.6 86.6 60.4 98.5 59.9 110.3C57 110.4 54.1 110.4 51.2 110.5C50.2 99.6 49.1 88.7 48.1 77.8C48.2 63.4 48.3 49.1 46 34.9C47 34.5 48 34.2 49 33.8C49 34.1 49 34.4 48.9 34.7C47.2 36.6 48.2 38.7 48.2 41.7C52.1 37.7 55.8 38.6 59.8 41.3C59.8 38.8 59.8 36.9 59.8 34.9C60.3 34.9 60.7 34.9 61.2 35C61.2 48.2 61 61.5 60.9 74.8Z" fill="#E1E6EE"/>
<path d="M120.1 52.9C124.3 56.1 125.7 61.3 129.1 65C130.2 70.4 132.7 75.3 134.8 80.2C139.4 90.9 138.3 93.4 126.9 96.7C126 97 125 97.4 124.1 97.7C120.9 98.4 117.6 98.9 114.6 99.9C112.5 100.6 108.8 99.8 109 104C109 104.3 106.7 104.6 105.4 105C104.7 101.4 100.4 103.4 99.1 100.7C99.4 100.3 99.7 100 100.1 99.6C97.3 97.3 94.3 95.3 93.3 91.5C96.4 88.7 101 90.1 104.2 87.7C105.8 87.7 107.5 87.8 109.1 87.8C109.5 91.3 108.5 94.5 106.9 98.3C112.6 96.8 117.1 94.7 121.1 91.6C129.5 88.2 129.5 88.2 124.4 81.1C123.4 79.8 122.7 78.3 121.1 77.5C119.7 72.5 116.8 67.9 117 62.4C117.1 59 117.8 55.7 120.1 52.9Z" fill="#ECB29E"/>
<path d="M96.4 46.6C99.7 44.2 100.4 39.9 97.7 36.5C96.1 34.5 94.7 32.5 94.3 30C94.1 28.5 93.2 26 95.3 25.8C97.3 25.5 99.1 21.5 101.5 25.2C102.1 26.1 103.2 26 104.2 26C110.2 25.9 111.3 27.4 109 32.8C108.4 34.3 107.3 35.6 106.6 37.1C104.4 41.3 106 46.1 110.3 47.9C113.3 49.1 115.9 50.7 118.5 52.5C113.1 53.8 107.9 55.5 103.9 59.5C102 61.4 100.5 61 98.9 59.2C95.9 56 92.4 53.5 87.9 52.9C90 49.7 94 49.2 96.4 46.6ZM101.6 30.8C100.7 31.4 98.6 30 98.7 32.1C98.8 33.9 100.4 35.5 102.5 35.3C104 35.1 106.1 34.4 105.8 32.4C105.5 30 103.2 31.3 101.6 30.8Z" fill="#ECB29E"/>
<path d="M48.9 34.7C48.9 34.4 49 34.1 49 33.8C50.4 30.6 49.8 27.5 47.7 25.1C44.5 21.4 43.7 17.3 44.1 12.7C46.3 9.1 49.2 7.9 53.5 8.5C58.1 9.1 57.9 12.8 59.3 15.6C60.5 18 59.5 20.5 60.2 22.9L60.3 22.8C59.2 22.8 59.4 23.7 59.2 24.3C56.3 27.6 58.1 31.3 58.4 34.9C55.1 38.3 52 37 48.9 34.7ZM50 17.7C49.2 18.8 46.5 16.4 46.7 19.4C46.8 21.3 48.5 21.9 50.4 21.8C52.2 21.7 54 21.4 53.9 19.3C53.7 17.2 51.5 18.2 50 17.7Z" fill="#ECB29E"/>
<path d="M60.1 22.9C59.4 20.5 60.4 17.9 59.2 15.6C57.8 12.8 58 9.1 53.4 8.5C49.1 7.9 46.2 9.1 44 12.7C41.6 10 42.1 7.1 44 4.5C46.8 0.499999 51 -0.300001 55.5 0.0999987C58 0.299999 60.2 2.1 63.2 0.999999C65 0.399999 65.7 3.6 66.4 4.9C69.4 10.1 65.8 19.4 60.1 22.9Z" fill="#1F2548"/>
<path d="M46 34.8C48.3 49 48.2 63.4 48.1 77.7C46.1 71.4 41 66.1 43.2 58.4C43.7 56.8 40.9 53.8 40.6 50.9C40.1 46.3 38 41.8 38 37C40.7 36.3 43.3 35.5 46 34.8Z" fill="#4A5085"/>
<path d="M60.9 74.8C61 61.5 61.2 48.2 61.3 35C64.4 35.1 67.3 36 70.1 37.2C69.4 42.3 69.8 47.9 67.6 52.2C64.3 58.6 67 65.9 63.1 71.9C62.5 72.9 62.3 74.3 60.9 74.8Z" fill="#4A5085"/>
<path d="M36.2 232.7C38.5 232.7 40.7 232.7 43 232.7C44.5 237.6 42.1 239 37.7 238.5C35.3 238.2 32.8 239 30.1 237.9C31.1 234.9 34.7 235 36.2 232.7Z" fill="#4A5085"/>
<path d="M59.3 231.7C61.1 232 62.9 232.3 64.8 232.7C64.5 234.5 64.1 236.3 63.8 238C60.3 237.7 56.7 238.6 53.1 237.6C54.3 234.6 58.7 235.2 59.3 231.7Z" fill="#343963"/>
<path d="M2.2 109.7C3.8 110.1 5.4 110.6 7 111C6.3 113.5 7.1 116.7 3.6 117.9C2.9 118.2 2.6 119.7 1.3 119.1C0.100003 118.5 0.100003 117.3 3.11155e-06 116.1C-0.0999969 113.7 1.3 111.8 2.2 109.7Z" fill="#ECB29E"/>
<path d="M48.9 34.7C52 37.1 55.1 38.4 58.2 34.8C58.7 34.8 59.3 34.9 59.8 34.9C59.8 36.8 59.8 38.7 59.8 41.3C55.7 38.7 52 37.7 48.2 41.7C48.2 38.6 47.2 36.5 48.9 34.7Z" fill="#343963"/>
<path d="M115.1 20.6C112.6 20.3 113.9 24.9 110.3 23.8C107.5 23 108 21.7 108.1 19.7C108.3 16.5 110.9 19.1 111.9 18C112 17.9 112.7 18.5 113.1 18.7C114.4 18.7 115.1 19.3 115.1 20.6Z" fill="#E1E6EE"/>
<path d="M36 229.7C36 230.1 36 230.5 35.9 230.9C35.9 230.5 36 230.1 36 229.7Z" fill="#4A5085"/>
<path d="M59.1 24.2C59.3 23.6 59.1 22.7 60.2 22.7C59.8 23.2 59.4 23.7 59.1 24.2Z" fill="#1F2548"/>
<path d="M104.1 87.7C100.9 90.1 96.3 88.7 93.2 91.5C91 88.3 90.5 86 95.7 86.5C96.3 86.6 97.2 87 97.5 85.7C98.4 80.8 101.1 82 104 83.8C104 84 104 84.3 104 84.5C104 85.1 104 85.6 104 86.2C104 86.8 104.1 87.3 104.1 87.7Z" fill="#4A5085"/>
<path d="M99 100.8C100.3 103.4 104.7 101.5 105.3 105.1C104.8 107.4 107.2 110.4 103.5 112.2C102.3 109.9 102.8 106.8 99.7 105.4C98.9 104.9 97.2 102.6 99 100.8Z" fill="#BEB3AA"/>
<path d="M104.1 87.7C104.1 87.2 104 86.8 104 86.3C104.8 85.7 105.5 85.2 104 84.6C103.9 84.4 103.9 84.1 104 83.9C110 83.7 110.3 83.9 109 87.8C107.4 87.8 105.8 87.8 104.1 87.7Z" fill="#8A8581"/>
<path d="M100 99.6C99.7 100 99.4 100.3 99 100.7C99.4 100.4 99.7 100 100 99.6Z" fill="#BEB3AA"/>
<path d="M101.6 30.8C103.2 31.3 105.5 30 105.8 32.4C106.1 34.4 104 35.1 102.5 35.3C100.5 35.5 98.8 34 98.7 32.1C98.6 30 100.8 31.4 101.6 30.8Z" fill="#FEFEFE"/>
<path d="M50 17.7C51.6 18.1 53.7 17.1 53.8 19.3C53.9 21.4 52 21.7 50.3 21.8C48.5 21.9 46.7 21.3 46.6 19.4C46.5 16.4 49.2 18.8 50 17.7Z" fill="#FEFEFE"/>
<path d="M104 84.6C105.5 85.2 104.8 85.7 104 86.3C104 85.7 104 85.2 104 84.6Z" fill="#F9E5C8"/>
</g>
<defs>
<clipPath id="clip0">
<rect width="148.1" height="240.4" fill="white"/>
</clipPath>
</defs>
</svg>
