<svg width="260" height="230" viewBox="0 0 260 230" fill="none" xmlns="http://www.w3.org/2000/svg">
<g clip-path="url(#clip0)">
<path d="M111.7 179.2C112.7 161.6 115 144.2 121.2 127.7C125.2 117.1 129.5 106.4 137.7 97.9C142.9 92.6 144.9 86.2 143.8 78.8C145.2 78.2 146.6 77.7 147.9 77.1C157.4 72.9 167 68.9 174 60.7C174.6 65.3 172.9 69.5 171.6 73.7C170.1 78.7 170.3 83.4 173 88C175.6 95.5 181.4 101 185.8 107.3C192.8 117.1 196.1 128.3 199.1 139.7C202.2 151.6 204.1 163.6 204.9 175.8C205.3 177.8 204.7 179.9 205.8 181.8C205.8 196 205.9 210.3 205.9 224.5C206.1 227.1 205 228.4 202.2 228.6C195.6 229.2 189 229.6 182.4 229.6C161.3 229.5 140.2 229.6 119.1 229.6C116.8 229.6 114.4 230 112.8 227.6C111.6 213.5 111.9 199.4 111.6 185.3C111.6 183.3 111.6 181.3 111.7 179.2Z" fill="#F9E5C8"/>
<path d="M174 60.7C167 68.9 157.4 72.9 147.9 77.1C146.5 77.7 145.1 78.2 143.8 78.8C134.2 80.4 124.6 82.2 114.9 83.7C110.9 84.3 107.8 85.3 108.8 90.3C109.3 93 107.7 93.7 105.3 93.6C100.8 93.5 96.3 93.5 91.8 93.6C89 93.7 86.6 93.2 83.9 96C81.4 98.6 77.4 95.9 74.3 94.3C75.9 91.5 75.4 89.8 72 88.6C65.7 86.3 59.7 83.6 53.5 81C53.5 74.5 53.5 67.9 53.5 61.4C53.5 56.5 53.5 51.5 53.5 46.6C53.6 46.3 53.7 45.9 53.7 45.6C61.4 45.6 69 45.7 76.7 45.5C79.7 45.4 80.9 46.4 80.7 49.5C80.5 54 80.6 58.5 80.6 63C80.6 71.5 80.6 80.1 80.6 89.8C82.1 87 81.7 85.3 81.7 83.7C81.7 72.4 81.8 61.1 81.7 49.8C81.7 46.6 82.7 45.4 86 45.5C93.5 45.7 101 45.6 108.5 45.6C108.6 48.9 108.7 52.2 108.7 55.6C108.7 57.9 109.5 59.2 111.9 58.6C122.2 55.9 132 51.9 141.8 47.8C142.3 47.6 142.6 46.8 143 46.2C151.4 47 155.7 41.5 153.5 32.8C155.2 32.2 157.2 32.7 158.5 31.1C159.3 30.2 160.2 29 159 28.2C157.5 27.1 155.5 27.7 153.7 27.7C151.5 27.8 151.9 29.6 151.7 31C149.9 29.5 149.6 27.4 149.5 25.3C149.5 23.2 154.4 19.7 155.4 21.1C157.4 23.8 159.9 22 162 22.8C161.1 25.6 162.9 25.7 164.8 25.6C164.8 27.8 163.9 29.8 162.8 31.7C159.4 37.8 160.1 41.7 166.1 45.5C172.2 49.2 174.3 54.3 174 60.7ZM141 65.8C147 64 152.4 61.2 157.9 57.3C155.1 56.2 153.3 58.3 150.9 57.2C144.6 54.3 143.5 54.9 140.8 61.6C131 63.8 121.4 67.3 111.2 67.7C109.9 67.8 108.8 68.2 108.9 69.7C109 72.5 107.7 75.8 109.5 77.9C110.7 79.3 113.3 76.8 115.4 76.3C117 76 118.6 75.4 120.1 74.7C127 71.5 134.6 70.1 141 65.8ZM160.2 56.2C159.9 56.2 159.7 56.2 159.4 56.1C159.5 56.2 159.6 56.3 159.8 56.4C159.9 56.4 160 56.3 160.2 56.2Z" fill="#ECB29E"/>
<path d="M51.2 124.8C51.1 143.4 48.4 161.9 48.3 180.6C48.2 193 47.4 205.5 47 218C46.9 220 47.4 222.2 44.1 221.8C41.9 221.8 39.8 221.8 37.6 221.8C34.2 221.7 35.4 218.9 35.3 217.3C34 199.7 33 182.1 31.8 164.5C31.2 155.1 30.6 145.7 29.1 136.2C27.7 148.6 26.2 161 24.8 173.4C23.1 188.4 21.4 203.5 19.7 218.5C19.6 219.5 19.7 220.5 18.4 220.9C15.9 221.5 13.4 221.9 10.9 221.7C9.49999 220.9 7.79999 221 7.69999 218.3C6.49999 188.9 5.19999 159.5 2.99999 130.2C2.89999 129.4 2.99999 128.5 3.09999 127.7C3.89999 125.4 5.39999 124.7 7.89999 124.6C16 124.4 24.1 125.4 32.3 124C35.5 123.4 35.9 122.1 35.9 119.4C35.8 115.4 35.9 111.4 36 107.4C37.9 108.2 39.9 107.7 41.9 107.9C41.5 109.9 42.9 111.5 42.5 113.7C40.7 122.8 42 124.3 51.2 124.8Z" fill="#1F2548"/>
<path d="M35.9 107.4C35.9 111.4 35.7 115.4 35.8 119.4C35.9 122 35.4 123.4 32.2 124C24.1 125.4 16 124.5 7.8 124.6C5.3 124.7 3.8 125.4 3 127.7C-2.6 119 1.2 109.6 1.2 100.5C1.1 87.9 2.2 75.3 2.8 62.7C3.2 55.5 5.4 49.1 11.5 44.6C11.9 44.3 12.3 43.9 12.7 43.6C12.9 42.8 13.5 42.6 14.2 42.6C16.7 42.5 18.6 43.4 19.7 45.7C10 46.3 6.39999 52.1 10.9 60.9C16.8 72.2 25.5 80.8 36.9 86.8C36.5 93.6 37.1 100.5 35.9 107.4Z" fill="#343963"/>
<path d="M254.1 181.7C255.5 189.1 254.5 196.6 254.7 204C254.9 209.5 254.7 215 254.7 220.4C254.7 222.5 254.7 224.6 251.8 224.6C242 224.4 232.3 225.2 222.5 224.1C222.6 223.9 222.8 223.7 222.9 223.6C225.8 223.1 224.7 220.8 224.7 219.2C224.8 208.4 224.9 197.6 224.7 186.8C224.6 183 225.6 181.5 229.7 181.7C237.8 181.9 245.9 181.7 254.1 181.7Z" fill="#ECB29E"/>
<path d="M87.7 227.7C79.1 227.7 70.4 227.6 61.8 227.8C58.9 227.8 57.6 227 57.7 223.9C57.9 211.1 57.9 198.3 57.9 185.5C66.2 185.5 74.6 185.7 82.9 185.5C86.7 185.4 87.7 186.5 87.6 190.3C87.5 202.7 87.7 215.2 87.7 227.7Z" fill="#BEDDE7"/>
<path d="M111.6 185.4C111.9 199.5 111.6 213.6 112.8 227.7C104.8 227.7 96.8 227.7 88.9 227.7C89 215.2 89.1 202.8 89 190.3C89 186.7 89.8 185.3 93.7 185.5C99.6 185.8 105.6 185.5 111.6 185.4Z" fill="#BEDDE7"/>
<path d="M37 86.7C25.7 80.8 16.9 72.1 11 60.8C6.5 52 10.1 46.2 19.8 45.6C21.3 47.4 22.7 49.2 24.2 51C28.8 56.8 31 64 35.7 69.6C37.3 71.3 38.4 73.6 40.8 74.6C41.5 74.9 42.1 75.3 42.8 75.6C45.2 78.4 48.9 78.9 51.9 80.6C52.4 80.7 53 80.9 53.5 81C59.6 83.5 65.7 86.3 72 88.6C75.4 89.8 75.9 91.5 74.3 94.3C73.5 95.2 73.2 97.3 71.6 96.6C65.6 94.1 58.8 93.9 53.1 90.7C49.3 89.7 45.6 88.7 41.8 87.7C40.1 87.4 38.5 87 37 86.7Z" fill="#4A5085"/>
<path d="M174 60.7C174.3 54.3 172.3 49.2 166.5 45.6C160.5 41.9 159.8 37.9 163.2 31.8C164.3 29.9 165.2 28 165.2 25.7C168 27.9 168.7 27.9 168.7 26.2C168.8 24.3 171.2 24.4 170.8 22.7C171.4 22.7 172 22.6 172.7 22.6C177.2 35.5 183 48.1 182.9 62.3C182.8 68 185.2 73.2 188.4 78C192.1 83.5 191 86.2 184.5 87.1C180.7 87.7 176.9 87.7 173.1 87.9C170.5 83.3 170.3 78.6 171.7 73.6C172.8 69.5 174.6 65.3 174 60.7Z" fill="#1F2548"/>
<path d="M259.6 143.4C259.7 153.1 259.7 162.8 259.9 172.5C260 177.1 256.7 175.5 254.4 175.7C248 175.7 241.7 175.6 235.3 175.6C235.3 166.2 235.3 156.8 235.2 147.3C235.2 144.5 236.1 143.6 238.9 143.6C245.7 143.7 252.6 143.5 259.6 143.4Z" fill="#F5F0B9"/>
<path d="M57.8 179.7C55.8 179.3 56 177.7 56 176.2C56.1 166.7 56.1 157.3 56.1 147.8C62.6 147.7 69 147.8 75.5 147.5C78.9 147.4 80.2 148.4 80.1 152C79.9 159.4 80 166.9 80.1 174.4C80.1 175.9 79 178.3 82.1 178.6C82.3 178.8 82.3 179.1 82.3 179.3C74 179.4 65.9 179.5 57.8 179.7Z" fill="#8A8581"/>
<path d="M209.8 175.5C209.8 164.8 209.8 154.2 209.9 143.5C216.7 143.5 223.4 143.7 230.2 143.6C233 143.5 233.9 144.5 233.8 147.3C233.6 156.7 233.7 166.1 233.7 175.5C225.8 175.6 217.8 175.5 209.8 175.5Z" fill="#F5F0B9"/>
<path d="M205.8 224.6C205.8 210.4 205.7 196.1 205.7 181.9C209.8 181.8 214 182 218.1 181.7C221.8 181.4 223 182.6 222.9 186.4C222.7 198.8 222.9 211.2 222.9 223.6C222.7 223.8 222.6 223.9 222.5 224.1C216.9 224.3 211.4 224.4 205.8 224.6Z" fill="#ECB29E"/>
<path d="M82.1 179.2C82.2 178.9 82.1 178.7 81.9 178.5C81.9 169.7 82.1 160.9 81.8 152.1C81.7 148.5 83 147.6 86.4 147.7C92.5 148 98.7 147.8 104.9 147.8C104.9 158.1 104.9 168.3 104.8 178.6C103.7 179.8 102.3 179.3 101 179.4C95.2 178.2 89.4 178.2 83.6 179.4C83.1 179.3 82.6 179.3 82.1 179.2Z" fill="#D9513C"/>
<path d="M108.6 45.7C101.1 45.7 93.6 45.8 86.1 45.6C82.8 45.5 81.8 46.6 81.8 49.9C82 61.2 81.9 72.5 81.8 83.8C81.8 85.4 82.2 87.1 80.7 89.9C80.7 80.2 80.7 71.6 80.7 63.1C80.7 58.6 80.6 54.1 80.8 49.6C80.9 46.5 79.8 45.5 76.8 45.6C69.1 45.8 61.5 45.7 53.8 45.7C53.6 37.2 53.4 38.8 60.8 38.6C65.2 38.5 69.7 38.6 74.1 38.6C75.4 38.6 77.3 39.4 77.5 37C77.6 36.9 77.7 36.7 77.8 36.6C78.4 36.6 79.1 36.7 79.7 36.7C79.8 36.8 80 36.8 80.1 36.9C80 36.8 79.8 36.8 79.7 36.7C79.4 30.4 77.4 27.5 72.9 27C72.8 26.8 72.6 26.7 72.5 26.5C79.3 23.2 78.7 30.1 81.3 32.9C82 32.1 82.7 31.3 83.5 30.5C83.7 30.6 83.8 30.7 84 30.9C84.3 32.8 81.9 34.6 83.5 36.4C83.8 36.8 85.5 35.9 86.6 35.6C86.7 35.7 86.9 35.9 87 36C86.7 37 83.4 38.7 87.6 38.7C92.4 38.7 97.2 38.7 102 38.7C108.9 38.6 108.9 38.6 108.6 45.7Z" fill="#BEB3AA"/>
<path d="M172.6 22.6C172 22.6 171.4 22.7 170.7 22.7C169.9 22.1 168.9 22 168.5 20.5C167.6 17.2 166.6 13.8 163.2 12.1C162.2 11.4 161.2 11.5 160 12.2C161 12.5 161.7 12.7 162.5 12.9C165 16 165 16 162.2 22.8C160.1 22 157.6 23.7 155.6 21.1C154.5 19.7 149.7 23.1 149.7 25.3C149.7 27.5 150.1 29.5 151.8 31C151.8 31.3 152 31.5 152.2 31.6C152.4 32.3 152.8 32.8 153.6 32.7L153.5 32.8C155.7 41.5 151.4 47 143 46.2C142.9 39.1 142.6 31.9 143.6 24.8C144.1 20.8 145.2 17 148 13.9C154.2 7.1 164.1 7.8 169.1 15.4C170.6 17.7 172.1 20 172.6 22.6Z" fill="#343963"/>
<path d="M41.7 87.7C45.5 88.7 49.2 89.7 53 90.7C52.1 100.6 53.5 110.5 53.7 120.4C53.7 122.4 54.1 124.5 51.2 124.7C42 124.2 40.7 122.7 42.4 113.5C42.8 111.4 41.4 109.7 41.8 107.7C41.8 101.1 41.7 94.4 41.7 87.7Z" fill="#343963"/>
<path d="M42.8 75.7C42.1 75.4 41.5 75 40.8 74.7C40.5 65.7 38.7 56.9 37.3 48.1C37 46.2 36.5 44.1 35.4 42.5C33.7 39.8 30.7 39.1 28 40.7C25 42.5 28.1 44.2 28.9 45.5C33 53.1 35.3 61.1 35.7 69.7C31 64 28.8 56.8 24.2 51.1C22.7 49.3 21.3 47.5 19.8 45.7C18.7 43.4 16.8 42.4 14.3 42.6C17 39.3 22.2 40.4 24.6 36.7C27.9 39.5 30.9 38.9 33.6 35.9C35.7 40.8 40.6 41.7 44.7 43.8C43.6 45.6 44 47.6 43.7 49.6C42.9 55.5 45.3 61.4 43.8 67.4C43.2 70 43.1 72.9 42.8 75.7Z" fill="#1F2548"/>
<path d="M222.9 223.6C222.9 211.2 222.7 198.8 222.9 186.4C223 182.6 221.8 181.4 218.1 181.7C214 182 209.8 181.9 205.7 181.9C204.7 180 205.2 177.9 204.8 175.9C206.5 175.8 208.1 175.7 209.8 175.6C217.8 175.6 225.7 175.6 233.7 175.6C234.2 175.6 234.7 175.6 235.2 175.6C241.6 175.6 247.9 175.7 254.3 175.7C254.2 177.7 254.2 179.7 254.1 181.7C245.9 181.7 237.8 182 229.6 181.6C225.5 181.4 224.6 182.9 224.6 186.7C224.8 197.5 224.7 208.3 224.6 219.1C224.7 220.7 225.9 223.1 222.9 223.6Z" fill="#D9513C"/>
<path d="M82.1 179.2C82.6 179.2 83.1 179.3 83.6 179.3C89.4 179.8 95.2 179.8 101 179.3C102.3 179.2 103.7 179.7 104.8 178.5C107 179.6 109.3 178.9 111.6 179.1C111.6 181.2 111.6 183.3 111.6 185.3C105.6 185.3 99.6 185.6 93.6 185.3C89.7 185.1 88.9 186.6 88.9 190.1C89 202.6 88.8 215 88.8 227.5C88.4 227.5 88 227.5 87.7 227.5C87.6 215 87.4 202.5 87.6 190C87.7 186.3 86.6 185.1 82.9 185.2C74.6 185.5 66.2 185.2 57.9 185.2C57.8 183.3 57.8 181.4 57.7 179.4C65.9 179.5 74 179.4 82.1 179.2Z" fill="#4A5085"/>
<path d="M104.9 147.8C98.7 147.8 92.6 148 86.4 147.7C83 147.6 81.7 148.5 81.8 152.1C82 160.9 81.9 169.7 81.9 178.5C78.8 178.3 79.9 175.9 79.9 174.3C79.8 166.8 79.7 159.4 79.9 151.9C80 148.3 78.7 147.3 75.3 147.4C68.9 147.7 62.4 147.6 55.9 147.7C54.9 143.5 56.6 142.2 60.7 142.4C65.9 142.7 71.2 142.4 76.5 142.4C78.1 143.3 77.5 141.8 77.7 141.2C79.1 141.6 79.6 141 79.5 139.6C80.3 139.5 81.1 139.4 81.9 139.3C83.3 141.9 85.7 142.3 88.3 142.4C92.1 142.5 95.9 142.7 99.7 142.4C103.9 142.2 105.9 143.4 104.9 147.8Z" fill="#BEB3AA"/>
<path d="M33.7 35.9C30.9 38.9 28 39.5 24.7 36.7C25.4 33.5 23.3 31.3 21.8 28.9C20.6 26.1 21.4 22.8 19.3 20.1C18.3 18.9 20 18.1 21 17.2C25.2 13.5 30.4 12.8 35.5 11.7C39.4 18.3 39.8 24.7 34.2 30.7C32.9 32.2 31.9 33.9 33.7 35.9ZM36.2 23.9C34.9 22.3 33 22.8 31.3 22.9C30 22.9 27.8 22.3 28.1 24.6C28.3 26.6 30.1 27.6 32.1 27.5C34.1 27.4 35.4 26 36.2 23.9Z" fill="#ECB29E"/>
<path d="M35.6 11.6C30.5 12.7 25.3 13.4 21.1 17.1C20.1 18 18.4 18.8 19.4 20C21.5 22.7 20.7 26 21.9 28.8C15.3 25.3 13.9 18.4 13 12.3C12.5 8.7 17.1 5.5 21.6 4.8C26.5 4 31.5 3.9 35.6 0.499999C37 -0.700001 37.6 0.499999 38.1 1.6C39.9 5.6 39.3 9 35.6 11.6Z" fill="#343963"/>
<path d="M42.8 75.7C43.1 72.9 43.2 70.1 43.9 67.4C45.4 61.4 43 55.6 43.8 49.6C44.1 47.6 43.6 45.6 44.8 43.8C47.8 44.8 50.7 45.7 53.7 46.7C53.7 51.6 53.7 56.6 53.7 61.5C51.6 61.7 52.2 63.3 52.2 64.5C52 69.9 52 75.2 51.9 80.6C48.9 79 45.2 78.4 42.8 75.7Z" fill="#343963"/>
<path d="M235.2 175.6C234.7 175.6 234.2 175.6 233.7 175.6C233.7 166.2 233.6 156.8 233.8 147.4C233.8 144.6 233 143.7 230.2 143.7C223.4 143.8 216.7 143.7 209.9 143.6C209.9 142.3 209.8 140.9 209.8 139.6C210.2 139.3 210.6 139 211 138.7C217.3 138.7 223.6 138.6 229.9 138.6C235.5 139.7 232.5 135.6 232.9 133.6C233.9 133.9 234.9 134.3 235.9 134.6C235.3 137.2 235.9 138.7 238.9 137.6C240.1 140 242.3 138.6 244.1 138.8C247.7 139 251.3 139.2 254.9 138.8C258.5 138.5 260.2 139.6 259.6 143.3C252.7 143.4 245.7 143.7 238.8 143.6C236 143.6 235 144.5 235.1 147.3C235.2 156.8 235.2 166.2 235.2 175.6Z" fill="#4A5085"/>
<path d="M10.8 221.7C13.4 221.9 15.9 221.5 18.3 220.9C16.8 223.1 18.9 223.7 20.1 224.7C21.6 226 23.7 226.3 24.8 228.2C14.6 231.2 10.7 229.4 10.8 221.7Z" fill="#343963"/>
<path d="M37.6 221.8C39.8 221.8 41.9 221.8 44.1 221.8C45.4 225.3 49.4 225.6 51.5 228.1C42.7 231.3 37.9 229.1 37.6 221.8Z" fill="#343963"/>
<path d="M232.8 133.6C232.4 135.6 235.4 139.7 229.8 138.6C228.8 137.8 227.7 137.1 226.7 136.2C225.1 134.7 223.3 132.9 225.6 130.9C227.8 129.1 230.4 128.5 231.8 132.1C231.8 132.9 231.9 133.6 232.8 133.6Z" fill="#CFD0D2"/>
<path d="M238.9 137.6C235.8 138.6 235.3 137.2 235.9 134.6L235.8 134.7C237 134.4 237 133.6 236.9 132.6L236.8 132.7C237.8 132.6 238 131.9 237.9 131.1C240.6 128.4 243.3 130.1 244.2 132.3C245.1 134.5 243.4 136.6 240.4 136.6C239.7 136.7 238.9 136.7 238.9 137.6Z" fill="#CFD0D2"/>
<path d="M82.1 139.5C81.3 139.6 80.5 139.7 79.7 139.8C77.8 137.9 77.1 134.3 73.2 135.1C73 134.9 72.8 134.7 72.6 134.6C77.6 131.4 78.9 136.6 81.6 138.6C81.8 138.8 81.9 138.9 82.1 139.1C82.1 139.1 82.1 139.3 82.1 139.5Z" fill="#C1E7D8"/>
<path d="M86.5 26.3C88.5 25.1 90.5 25.2 91.5 27.4C92.4 29.3 92.7 31.6 90.1 32.9C90 32.8 89.8 32.6 89.6 32.5C90.5 29.8 92.2 26.7 86.9 26.8C86.8 26.7 86.7 26.5 86.5 26.3Z" fill="#BEB3AA"/>
<path d="M73.7 33.8C71.7 32.1 69.7 30.5 71.7 27.5C71.8 27.6 72 27.7 72.1 27.8C72 29.9 73.5 31.5 74.2 33.3C74 33.5 73.8 33.7 73.7 33.8Z" fill="#BEB3AA"/>
<path d="M77.9 141.3C77.7 141.9 78.3 143.4 76.7 142.5C76 141.6 75.3 140.8 74.6 139.9C74.8 139.7 75 139.5 75.1 139.3C76.2 139.7 77.2 140.3 77.9 141.3Z" fill="#C1E7D8"/>
<path d="M72.5 138C69.8 136.8 71.3 135.6 72.6 134.5C72.8 134.7 73 134.9 73.2 135C73.2 135.8 73.1 136.6 73.1 137.4C72.9 137.6 72.7 137.8 72.5 138Z" fill="#C1E7D8"/>
<path d="M84.6 134.5C85.7 133.5 86.8 133.3 88.1 134.1C87.3 135.3 86.1 134.6 85.1 135C85 134.8 84.8 134.6 84.6 134.5Z" fill="#C1E7D8"/>
<path d="M84.6 28.5C84.7 27.3 85.4 26.6 86.5 26.3C86.6 26.5 86.8 26.7 86.9 26.9C86.3 27.6 85.6 28.2 85 28.9C84.9 28.7 84.8 28.6 84.6 28.5Z" fill="#BEB3AA"/>
<path d="M236.8 132.6C237 133.6 236.9 134.4 235.7 134.7C235.6 133.7 235.9 133 236.8 132.6Z" fill="#4A5085"/>
<path d="M83.6 30.5C83.9 29.8 84.3 29.2 84.6 28.5C84.8 28.6 84.9 28.8 85.1 28.9C84.8 29.6 84.4 30.2 84.1 30.9C83.9 30.7 83.7 30.6 83.6 30.5Z" fill="#BEB3AA"/>
<path d="M83.5 136.4C83.9 135.8 84.2 135.2 84.6 134.5C84.8 134.7 85 134.8 85.1 134.9C84.7 135.5 84.3 136.2 83.9 136.8C83.8 136.7 83.7 136.5 83.5 136.4Z" fill="#C1E7D8"/>
<path d="M77.6 37C77 36.6 76.3 36.2 75.7 35.8C75.8 35.7 76 35.5 76.1 35.4C76.7 35.8 77.3 36.2 77.9 36.6C77.8 36.7 77.7 36.8 77.6 37Z" fill="#BEB3AA"/>
<path d="M71.7 27.5C72 27.2 72.3 26.8 72.7 26.5C72.8 26.6 73 26.8 73.1 27C72.8 27.3 72.5 27.6 72.2 27.9C72 27.8 71.8 27.7 71.7 27.5Z" fill="#BEB3AA"/>
<path d="M90.1 32.9C89.8 33.2 89.5 33.6 89.1 33.9C88.9 33.8 88.8 33.6 88.7 33.5C89 33.2 89.3 32.8 89.7 32.5C89.8 32.6 89.9 32.8 90.1 32.9Z" fill="#BEB3AA"/>
<path d="M74.7 34.8C74.3 34.5 74 34.2 73.6 33.8C73.8 33.6 73.9 33.5 74.1 33.4C74.4 33.8 74.7 34.1 75 34.4L74.7 34.8Z" fill="#BEB3AA"/>
<path d="M89.1 33.9C88.8 34.2 88.4 34.6 88.1 34.9C88 34.8 87.8 34.6 87.7 34.5C88 34.2 88.4 33.8 88.7 33.5C88.8 33.7 89 33.8 89.1 33.9Z" fill="#BEB3AA"/>
<path d="M75.7 35.8C75.4 35.5 75 35.1 74.7 34.8C74.7 34.8 75 34.4 75 34.5C75.3 34.8 75.7 35.1 76 35.4C76 35.5 75.8 35.6 75.7 35.8Z" fill="#BEB3AA"/>
<path d="M88.1 34.9C87.8 35.2 87.4 35.5 87.1 35.9C87 35.8 86.8 35.6 86.7 35.5C87 35.2 87.4 34.9 87.7 34.5C87.8 34.6 87.9 34.8 88.1 34.9Z" fill="#BEB3AA"/>
<path d="M12.8 43.6C12.4 43.9 12 44.3 11.6 44.6C12 44.3 12.4 43.9 12.8 43.6Z" fill="#1F2548"/>
<path d="M237.8 131.1C237.9 131.9 237.8 132.6 236.7 132.7C237.1 132.2 237.5 131.6 237.8 131.1Z" fill="#4A5085"/>
<path d="M232.9 133.7C231.9 133.6 231.8 132.9 231.8 132.1C232.2 132.6 232.5 133.2 232.9 133.7Z" fill="#4A5085"/>
<path d="M82.5 137.4C82.8 137.1 83.2 136.7 83.5 136.4C83.7 136.6 83.8 136.7 84 136.9C83.7 137.3 83.4 137.6 83.1 138C82.9 137.7 82.7 137.6 82.5 137.4Z" fill="#C1E7D8"/>
<path d="M238.8 137.7C238.9 136.7 239.7 136.7 240.4 136.6C239.9 137 239.3 137.4 238.8 137.7Z" fill="#4A5085"/>
<path d="M73.5 139C73.2 138.7 72.8 138.3 72.5 138C72.7 137.8 72.9 137.7 73.1 137.5C73.4 137.8 73.7 138.2 74.1 138.5C73.9 138.6 73.7 138.8 73.5 139Z" fill="#C1E7D8"/>
<path d="M81.6 138.5C81.9 138.1 82.2 137.8 82.5 137.4C82.7 137.6 82.9 137.8 83 137.9C82.7 138.2 82.3 138.6 82 138.9C82 138.8 81.8 138.6 81.6 138.5Z" fill="#C1E7D8"/>
<path d="M74.5 140C74.2 139.7 73.8 139.3 73.5 139C73.7 138.8 73.8 138.7 74 138.5C74.3 138.8 74.7 139.1 75 139.4C74.9 139.6 74.7 139.8 74.5 140Z" fill="#C1E7D8"/>
<path d="M210.9 138.7C210.5 139 210.1 139.3 209.7 139.6C209.9 138.9 210.3 138.6 210.9 138.7Z" fill="#CFD0D2"/>
<path d="M141 65.8C140.9 64.4 140.9 63 140.8 61.6C143.5 54.9 144.6 54.3 150.9 57.2C153.2 58.3 155 56.2 157.9 57.3C152.4 61.2 147 64.1 141 65.8Z" fill="#F9E5C8"/>
<path d="M162.3 22.9C165.1 16 165.1 16 162.6 13C162.8 12.7 163.1 12.4 163.3 12.2C166.7 14 167.7 17.4 168.6 20.6C169 22 170 22.1 170.8 22.8C171.2 24.5 168.8 24.4 168.7 26.3C168.6 28.1 168 28 165.2 25.8C163.2 25.8 161.4 25.7 162.3 22.9Z" fill="#E1E6EE"/>
<path d="M152.3 31.7C152 31.6 151.9 31.4 151.9 31.1C152.1 29.7 151.6 27.9 153.9 27.8C155.7 27.7 157.7 27.2 159.2 28.3C160.4 29.2 159.5 30.3 158.7 31.2C157.4 32.8 155.4 32.3 153.7 32.9L153.8 32.8C153.6 32 153.1 31.7 152.3 31.7Z" fill="#E1E6EE"/>
<path d="M160.2 56.2C160.1 56.3 159.9 56.4 159.8 56.4C159.7 56.4 159.6 56.2 159.4 56.1C159.7 56.2 159.9 56.2 160.2 56.2Z" fill="#F9E5C8"/>
<path d="M41.7 87.7C41.8 94.4 41.8 101.1 41.9 107.8C39.9 107.7 37.9 108.2 36 107.3C37.2 100.5 36.6 93.5 37 86.7C38.5 87 40.1 87.4 41.7 87.7Z" fill="#E1E6EE"/>
<path d="M35.7 69.6C35.4 61 33.1 53 29 45.5C28.3 44.1 25.1 42.5 28.1 40.7C30.8 39.1 33.7 39.8 35.5 42.5C36.5 44.1 37 46.2 37.4 48.1C38.9 56.9 40.7 65.7 40.9 74.7C38.5 73.7 37.4 71.4 35.7 69.6Z" fill="#E1E6EE"/>
<path d="M101 179.3C95.2 179.8 89.4 179.8 83.6 179.3C89.4 178.1 95.2 178.1 101 179.3Z" fill="#8A8581"/>
<path d="M79.8 36.7C79.9 36.8 80.1 36.8 80.2 36.9C80.1 36.8 80 36.7 79.8 36.7Z" fill="#FEFEFE"/>
<path d="M162.5 13C161.7 12.8 161 12.6 160 12.3C161.2 11.6 162.2 11.4 163.2 12.2C163 12.4 162.8 12.7 162.5 13Z" fill="#E1E6EE"/>
<path d="M152.3 31.7C153.1 31.7 153.6 32 153.7 32.8C152.9 32.9 152.5 32.4 152.3 31.7Z" fill="#ECB29E"/>
<path d="M36.2 23.9C35.3 26 34.1 27.3 32.1 27.5C30.1 27.7 28.3 26.6 28.1 24.6C27.8 22.2 30 22.9 31.3 22.9C33 22.8 34.9 22.3 36.2 23.9Z" fill="#FEFEFE"/>
</g>
<defs>
<clipPath id="clip0">
<rect width="259.8" height="229.7" fill="white"/>
</clipPath>
</defs>
</svg>
