<svg width="239" height="292" viewBox="0 0 239 292" fill="none" xmlns="http://www.w3.org/2000/svg">
<g clip-path="url(#clip0)">
<path d="M22.3 229.9C22.3 228.8 22.3 227.7 22.3 226.6C24.2 225.9 24.4 227.9 25.2 228.7C28.6 232.2 32.7 234.5 37.4 234.7C47.2 235.2 57 235.3 66.8 234.7C67 234.7 67.3 234.8 67.5 234.8C77 234.8 86.4 234.9 95.9 234.9C123.9 234.9 151.9 234.8 179.9 234.8H180.3H180.7C186.3 234.9 192 234.6 197.5 235.1C208.6 236.1 218.5 233.9 226.6 225.9C226.6 230.5 226.6 235.1 226.6 239.7C226.6 245.9 225.6 252.2 229.9 257.6C230.8 258.7 230.8 260.4 230.6 261.9C204.5 261.9 178.3 261.9 152.2 261.9C151.5 255.1 151.5 255.1 144.4 255.1C130.3 255.1 116.1 255.1 102 255.1C95 255.1 95 255.1 94.6 261.9C69.2 261.9 43.7 261.9 18.3 262C17.8 260.5 18.2 258.8 19 257.7C24.9 249.6 21.8 240.5 22.3 231.8C22.3 231.1 22.3 230.5 22.3 229.9Z" fill="#F5705C"/>
<path d="M211 176C214.8 175.1 215.1 172.1 215.1 169C215.2 164.6 217.1 162.6 221.7 163.3C225.8 163.9 229.9 164.2 234.1 164.5C237.4 164.7 238.7 166.3 238.8 169.6C239.2 178.5 239.2 178.7 230.5 180.2C226.3 180.9 222 181.6 217.7 182.1C214.5 182.5 213.5 183.4 215.5 186.6C219.1 192.5 222.4 198.7 225.7 204.8C213 204.1 200.4 201.4 187.6 201.5C186 201.5 183.9 201.4 182.5 199.9C181.1 194.6 176.6 194.9 172.6 194.4C172.6 191.3 171.2 189.8 168.1 190.1C166.3 190.2 164.8 189.9 164.5 187.7C164.3 186.3 164 184.9 162.3 184.9C160.6 184.9 159.9 186.3 159.4 187.8C157.8 187.8 156.7 186.7 155.5 185.9C153.2 184.4 150.6 184 148 183.9C146.9 183.8 145.4 184.1 145.1 185.2C144.9 185.9 145.7 187 146.3 187.7C148.3 190 151 191.2 153.9 191.9C152.8 193 151.3 193.8 151.3 195.6C148.6 196.7 145.8 197.8 143.5 199.7C140.9 199.7 138.2 199.7 135.6 199.8C134.3 199.4 133.1 199.1 131.8 198.7C131.6 197.7 131.4 196.7 131.2 195.8C134.5 194.6 137.5 193 139.6 190.1C140.2 189.3 140.9 188.5 140.4 187.4C139.9 186.3 138.7 186.7 137.8 186.6C134.9 186.3 132.7 188.8 129.8 188.7C128.7 185.4 126.6 186 124.4 187.4C123 188.3 121.6 189.1 120 187.5C116.2 183.5 115.5 186.1 115.4 189.8C113.2 189.2 111 188.4 108.8 188C107.4 187.8 105.6 187.3 104.7 188.8C103.8 190.5 105.5 191.5 106.5 192.4C108.5 194.1 110.5 195.8 113.3 196.1C113 196.7 112.7 197.3 112.4 197.8C110.4 201 107.2 199.5 104.5 200C101.5 198.3 98 198.1 94.8 197.1C95.3 196.7 95.8 196.3 96.2 195.9C99.1 195 100 192.3 101.2 190.1C101.8 189.1 102.8 187.5 101.8 186.5C100.5 185.1 99.1 186.6 97.8 187.1C95.5 188.1 93.5 189.6 92.3 191.9C89.7 193.4 88.9 192.4 89.6 189.8C90.1 187.8 90.2 186 88 185.3C86 184.7 85.1 186.3 84.3 187.8C83.6 189.2 82.7 190.5 80.9 189.9C74.6 188 76.3 191.4 77.7 194.6C73.1 195.1 68.6 195.9 66.5 200.8C51.9 202 37.3 202.6 22.9 204.9C26.2 199 29.3 192.9 32.9 187.1C35.2 183.4 34.2 182.4 30.4 182C25.1 181.4 19.9 180.4 14.6 179.7C9 179 9.8 174.8 9.7 171C9.6 167.5 10.3 164.8 14.6 164.5C19.1 164.2 23.5 163.5 28 163.1C32.1 162.8 33.7 165.1 33.6 168.9C33.4 173.1 35.1 176 39.6 176.5C41.6 177 43.6 177.6 45.6 178.1C50 179.5 54.3 177.4 58.7 177.4C62.7 177.1 66.6 176.8 70.6 176.6C81.7 176 92.8 175.4 103.8 174.8C106.7 174.8 109.7 174.7 112.6 174.7C116.9 174.7 121.2 174.7 125.5 174.7C134.3 174.9 143 175.1 151.8 175.4C156.4 175.5 161 175.6 165.6 175.8C176.2 176.5 186.8 177.3 197.4 178C202.5 179.9 206.7 177.5 211 176Z" fill="#F5705C"/>
<path d="M152.3 261.8C178.4 261.8 204.6 261.8 230.7 261.8C230.8 264.6 230.9 267.4 230.9 270.2C230.9 277.4 230.9 277.4 223.9 277.9C212.6 277.9 201.4 277.9 190.1 277.9C176 277.8 161.9 277.7 147.7 277.7C117.3 277.7 86.9 277.8 56.5 277.9C45.2 277.9 34 277.9 22.7 277.9C21.4 277.7 20.1 277.6 18.8 277.4C18.6 276.5 18.4 275.7 18.2 274.8C18 270.5 17.7 266.2 18.4 261.9C43.8 261.9 69.3 261.9 94.7 261.8C95.9 264.2 92.4 268.9 98.6 268.8C115.2 268.6 131.8 268.7 148.4 268.7C150 268.7 151.8 269 152.2 266.6C152.3 266.5 152.4 266.4 152.4 266.3C152.4 266.1 152.2 265.9 152.2 265.7C152.2 264.5 152.2 263.2 152.3 261.8Z" fill="#D9513C"/>
<path d="M15.6 28.6C33.6 32.2 51.5 36.7 70.1 36.8C74.1 36.8 78 36.6 82 36.5C86.6 38.6 89.1 42.5 91.2 46.8C93.4 67.9 94.6 89 95.7 110.2C95.1 114.4 92.8 113.2 91.1 111.3C87.5 107.4 83.6 107.3 79 109.1C74.7 110.8 71.9 113.7 70 117.7C69.2 115.8 71.1 112.5 66.7 112.5C64.6 112.5 65.6 109.8 65.6 108.3C65.4 90.9 65.2 73.4 65.1 56C65.1 53.6 65.2 51.6 61.8 51.3C44.5 49.6 29.4 41 13.6 34.8C14.2 32.7 12.9 30 15.6 28.6Z" fill="#343963"/>
<path d="M154.8 93.8C154.9 98.4 158.6 100.1 161.6 102.2C163.6 103.6 166.3 104.1 166.8 107C166 108 164.3 108.7 163.9 108C161.6 104 157.5 106.9 154.6 105.3C153.9 104.9 152.9 104.7 152.7 105.9C152.2 108.7 147.1 108.4 148.4 112.3C143.3 115.5 146.6 119.3 147.7 122.9C147.1 127.8 148.8 131.8 152 135.4C152.9 136.4 153.8 137.3 153.7 138.7C140.7 138.7 127.6 138.6 114.6 138.6C115.3 129.8 117.1 121.1 120.1 112.7C121.4 110.8 122.4 108.8 123 106.6C126.5 103.6 128.5 99.5 129.2 95.2C130.2 89.3 129.2 83.5 124.9 78.8C124.8 77.1 124.7 75.3 124.5 73.6C126.1 66.9 130.4 64.6 136.1 68C139.9 70.3 142.8 71.1 146.9 68.4C149.7 66.6 153.5 66.7 156.7 69.1C159.8 71.5 159.8 74.3 158.6 77.5C156.8 82.9 153.9 87.9 154.8 93.8Z" fill="#C1E7D8"/>
<path d="M114.7 138.7C127.7 138.7 140.8 138.8 153.8 138.8C153.8 140.5 153.8 142.2 153.8 143.9C152.1 145.4 152.4 147.5 153.3 148.8C154.4 150.5 155.8 148.5 157.1 148.1C159 147.5 160.6 148 162.3 148.9C163.4 149.5 164.9 149.9 164.7 148.1C164.6 147 167 143.8 162.8 144.7C162.8 143 162.8 141.4 162.8 139.7C169.2 140 175.6 138.9 181.9 140.7C185.5 141.1 189.2 141.2 192.7 141.9C195.5 142.4 196.8 144.8 197.8 147.4C201.1 155.7 204.5 163.9 208 172.1C208.6 173.6 210 174.7 211 176C206.6 177.5 202.4 179.9 197.5 178.1C193.3 165.4 186.4 154.9 174.2 148.6C169.3 146.1 168.8 146.2 168 151.7C167 159.7 166.5 167.8 165.7 175.8C161.1 175.7 156.5 175.6 151.9 175.4C151.8 167.9 151.7 160.5 151.6 153C151.6 150.6 152.4 147.4 149.8 146.2C147.6 145.2 145.1 147.1 142.9 148.2C142.6 148.3 142.4 148.6 142.1 148.8C133 155.2 129.2 164.9 125.6 174.7C121.3 174.7 117 174.7 112.7 174.7C112.7 173.3 112.6 171.9 112.6 170.5C112.6 159.9 113.7 149.3 114.7 138.7Z" fill="#E1E6EE"/>
<path d="M158.8 77.7C159.9 74.5 160 71.6 156.9 69.3C153.7 66.9 149.8 66.8 147.1 68.6C143 71.2 140.1 70.4 136.3 68.2C130.6 64.8 126.2 67.1 124.7 73.8C122.3 73.8 121.5 70.8 119.1 70.8C114.7 67.9 110.4 65.1 106 62.2C100.3 57.9 97.1 51.1 91.3 46.9C89.2 42.6 86.7 38.7 82.1 36.6C81.9 33.5 78.8 33 77.3 31C76.1 29.3 74 27.7 75.3 25.4C76.8 22.6 78.4 26 79.7 25.7C83 25 83.4 27.2 84.7 29.1C86.3 31.5 87.9 34.6 91.7 34C91.6 36.8 93.5 37.9 95.7 38.7C98.8 42.2 102.5 44.8 106.2 47.6C111.5 52.2 116.7 57.1 124.3 57.6C125.8 57.6 127.2 57.8 128.7 57.6C134.8 57.1 138.5 54 138.9 49.4C141.2 46.4 138.4 44.9 137 43C136.9 42.2 136.8 41.5 136.8 40.7C137.5 41.1 138.2 41.6 138.9 42C140.5 42.9 141.8 42.4 142.8 41.2C143.2 40.8 143.6 39.9 143.4 39.5C142.6 38 141.1 38.7 139.9 38.7C138.6 38.7 137.3 39 136 39.1C134.4 34.7 136.4 29.7 140.4 28C141.6 27.5 142.2 28 143 28.7C149.7 33.8 150.3 36.7 146.5 44.2C146.1 45 146.2 46.1 146 47.1C145.6 49 146.2 50.7 147.4 52.2C151.8 57.8 157.9 60.1 164.6 60.9C174.2 61.9 181.2 56 188.8 51.8C193.9 49.1 199 46.4 204.1 43.6C206.4 42.3 208.6 40.8 209.4 38C212.5 38.4 215.6 35.6 218.8 37.9C218.7 38.2 218.8 38.5 218.8 38.7C218.8 40.7 216.8 41.7 216.5 43.6C216 43.7 215.6 43.8 215.1 43.8C213.4 44.4 211.7 45 210.7 46.8C204 50.2 198.6 55.4 193.4 60.6C182.5 67.6 169.8 70.9 158.8 77.7Z" fill="#ECB29E"/>
<path d="M45.8 178.2C43.8 177.7 41.8 177.1 39.8 176.6C40.2 169.3 44.8 163.6 47.1 157C48.2 153.9 50 151 50.8 147.9C51.8 143.9 53.9 141.9 57.9 141.8C61 141.7 64 140.2 67.2 141C66.8 144.6 66.4 148.1 71.9 145.7C71.8 149.8 74.6 151.1 77.8 151.6C85.7 152.8 90.2 151 92.9 145.8C95.9 146.3 98.2 147.6 99.1 150.7C96.3 154.7 98.2 159.1 97.8 163.4C97.3 168.7 98.9 172.7 104 174.9C92.9 175.5 81.8 176.1 70.8 176.7C66.8 176.9 62.9 177.2 58.9 177.5C59 176.6 59.6 176.1 60.2 175.5C67.7 169.1 68.4 160.7 67 151.7C66.5 148.1 65.3 149.1 63.3 150.7C60.5 153 58.9 156.2 57.2 159.1C53.5 165.6 47.7 170.7 45.8 178.2Z" fill="#E1E6EE"/>
<path d="M120.1 112.8C117.2 121.2 115.4 129.8 114.6 138.7H114.5C104.9 138.8 95.4 138.8 85.8 138.9C85.7 136.6 86.5 134.8 87.9 133C91.4 128.6 90.6 124.2 85.6 121.8C82.7 120.4 79.3 119.9 76.1 119.2C74.2 118.8 74.6 120.6 74.4 121.5C73.5 125.6 74.7 129.5 77 132.8C78.5 135 79 137.3 78.7 139.8C75.2 140.1 71.5 139.6 68.1 140.9C67.5 133.1 67.9 125.4 70.1 117.9C72.1 113.9 74.8 111 79.1 109.3C83.7 107.5 87.6 107.5 91.2 111.5C92.9 113.3 95.2 114.6 95.8 110.4C97.9 110.5 99.9 110.6 102 110.8C107.6 114.2 114 112.3 120.1 112.8Z" fill="#1F2548"/>
<path d="M182.7 199.9C184.1 201.4 186.2 201.5 187.8 201.5C200.6 201.4 213.2 204.1 225.9 204.8C227.3 207.1 228.7 209.5 230.2 211.8C229.1 213.1 227.5 212.9 226 212.9C210.8 212.9 195.5 212.8 180.3 212.8C158.1 212.8 136 212.7 113.9 212.7C116.5 210.5 119.6 208.8 121.2 205.5C124.3 207 127.1 207.9 126.7 202.7C129.1 204 131.5 205.8 134.1 206.5C136.3 207.1 140 207.9 141 206C142.1 203.7 138.8 202.3 137 200.8C136.6 200.5 136.3 200.2 135.9 199.8C138.5 199.8 141.2 199.8 143.8 199.7C143.5 200.7 143.3 201.3 144.7 201.9C149.1 203.6 153.1 202.4 157.1 200.7C157.1 201.2 157 201.7 157 202.2C156.7 204.2 157 206 159 206.8C161.4 207.8 161.6 205.5 162.3 204.2C163.1 202.7 164 202.5 165.5 203.3C169.6 205.3 170.1 203.2 169.4 199.8C173.8 200.2 178.2 202 182.7 199.9Z" fill="#ECB29E"/>
<path d="M23 204.9C37.5 202.6 52.1 202 66.6 200.8C70.7 202.2 74.8 202.1 78.9 200.8C78.8 202.8 79.2 204.6 81.3 205.2C83 205.6 83.5 204 84.1 202.9C85.4 200.6 86.4 200.8 88 202.9C90.1 205.7 92.6 207.1 94.8 202.8C96.6 203.6 98.4 204.4 100.2 205.1C102.7 206.2 106.2 206.9 107.7 205.3C109.5 203.2 105.3 202.1 104.7 200C107.4 199.5 110.7 201 112.6 197.8C112.7 199.5 112.5 201.4 114.8 201.9C113.3 205.3 112.4 208.9 111.7 212.6C98.4 212.7 85.2 212.8 71.9 212.7C69.3 212.7 67.4 213.1 66.8 215.9C66.7 212.8 64.5 212.9 62.2 212.9C47.6 213 33 213 18.4 213C19.2 209.8 21.2 207.4 23 204.9Z" fill="#ECB29E"/>
<path d="M136.7 40.8C136.8 41.6 136.9 42.3 136.9 43.1C135.2 42.7 135.1 40.3 133 40.1C131.4 42.7 129.8 45.4 128.3 48.2C127.9 48.9 127.9 49.8 127.6 50.5C126.5 52.9 125.3 55.2 124.2 57.6C116.6 57 111.4 52.2 106.1 47.6C106.7 44 107.2 40.4 107.8 36.8C114.9 36.5 122 37 129.1 36.1C131.5 35.8 132.5 35.5 132.2 32.7C131.7 27.7 134.6 24.6 139 23C142.2 21.8 144.2 20.1 142.9 16.3C142.5 15 142.9 13.7 143.7 12.6C146.6 8.9 153 9.3 157.9 13.5C161.9 16.9 162.1 21.2 158.5 24.9C156.8 24.9 153.7 27.1 153.8 25.3C154 19.5 150 23.1 148.7 23.1C146 23 148.9 25.3 148.2 26.2C143.7 32 152.1 27.5 152.2 30.9C152.2 32.1 152.5 28.1 154.7 28.2C156.3 28.7 156.1 30.9 157.4 31.9C158.6 37.2 155.4 40.7 152.3 44.3L152 44.5C151.4 44.9 150.9 45.3 150.3 45.6C148.7 46.1 147.2 46.6 145.6 47.2C145.8 46.2 145.7 45.2 146.1 44.3C149.8 36.7 149.2 33.9 142.6 28.8C141.8 28.2 141.2 27.6 140 28.1C136 29.8 134 34.8 135.6 39.2L135.7 39.5C135.8 40.1 136 40.7 136.7 40.8Z" fill="#343963"/>
<path d="M180.3 212.8C195.5 212.8 210.8 212.9 226 212.9C227.5 212.9 229 213.1 230.2 211.8C231.5 215 229.1 217.4 228.3 220.1C227.8 222 227.3 223.9 226.7 225.8C218.6 233.9 208.7 236 197.6 235C192 234.5 186.4 234.8 180.8 234.7C180.7 234.1 180.5 233.4 180.4 232.8C180.4 227.1 180.4 221.4 180.4 215.7C180.5 215.6 180.6 215.5 180.6 215.4C180.6 215.2 180.5 215 180.4 214.7C180.3 214.1 180.3 213.5 180.3 212.8ZM201.8 217.8C197.8 217.7 195 220.3 194.9 224.1C194.8 227.2 198.5 231 201.7 230.7C205.1 230.4 207.6 228.8 207.7 224.8C207.9 220.5 205.7 217.9 201.8 217.8Z" fill="#CFD0D2"/>
<path d="M158.8 77.7C169.8 70.9 182.5 67.6 193.4 60.6C198.1 65.5 200.2 71.8 202.9 77.8C203.9 80.1 202.8 80.7 201 81.2C185.7 85.7 170.6 91.1 154.8 93.8C153.9 87.9 156.8 82.9 158.8 77.7Z" fill="#E1E6EE"/>
<path d="M18.6 213C33.2 213 47.8 213 62.4 212.9C64.7 212.9 66.8 212.8 67 215.9C67 221.2 67 226.4 67 231.7C66.9 232.7 66.8 233.7 66.7 234.7C56.9 235.3 47.1 235.2 37.3 234.8C32.6 234.6 28.4 232.3 25.1 228.8C24.3 228 24.1 226.1 22.2 226.7C21 222.1 19.8 217.5 18.6 213ZM42.8 217.7C38.9 218.1 36.8 220.2 36.7 224.2C36.6 228.4 39.1 230.6 42.8 230.6C46.5 230.6 49 228.5 48.9 224.2C48.7 220.1 46.7 218.1 42.8 217.7Z" fill="#CFD0D2"/>
<path d="M145.9 47.1C147.5 46.6 149 46.1 150.6 45.5C151.5 45.6 152.3 45.6 152.3 44.4L152.6 44.2C158.4 43.6 163.4 40.8 168.5 38.4C169.8 37.8 172 38 171.9 35.5C172.9 35.7 173.9 35.8 175 36C178.1 38.8 181.2 41.6 184.2 44.5C186.3 46.5 188.2 48.8 189 51.7C181.4 55.9 174.3 61.9 164.8 60.8C158 60.1 151.9 57.8 147.6 52.1C146.1 50.6 145.5 49 145.9 47.1Z" fill="#E1E6EE"/>
<path d="M22.8 277.9C34.1 277.9 45.3 277.9 56.6 277.9C56.6 291.5 56.3 291.7 42.6 291.7C39 291.7 35.3 291.7 31.7 291.7C24.9 291.7 22.8 289.6 22.8 282.9C22.7 281.2 22.7 279.6 22.8 277.9Z" fill="#1F2548"/>
<path d="M190.1 277.9C201.4 277.9 212.6 277.9 223.9 277.9C223.9 291.6 223.8 291.7 210 291.7C206.4 291.7 202.7 291.7 199.1 291.7C192.3 291.7 190.2 289.6 190.1 282.9C190.1 281.2 190.1 279.6 190.1 277.9Z" fill="#1F2548"/>
<path d="M181.9 140.8C175.6 139 169.2 140.2 162.8 139.8C162.8 139.5 162.8 139.1 162.8 138.8C164.8 133.6 168.3 129 168.8 123.3C170.8 120.7 173.7 118.3 170.5 114.5C170.1 114 170.9 113 171.8 112.7C176.5 114.1 176.5 118.7 177.8 122.1C180 128.1 181.5 134.4 181.9 140.8Z" fill="#C1E7D8"/>
<path d="M171.8 112.8C170.9 113.1 170.1 114.1 170.5 114.6C173.7 118.3 170.8 120.7 168.8 123.4C167.8 120.3 166 116.3 162.8 117.5C159.4 118.8 156.3 115.2 152.6 118.4C150.9 119.8 148.4 120.4 147.8 123.1C146.7 119.5 143.4 115.7 148.5 112.5C147.2 108.6 152.3 108.8 152.8 106.1C153 104.9 154 105.1 154.7 105.5C157.6 107.1 161.7 104.2 164 108.2C164.4 109 166.1 108.2 166.9 107.2C167.8 108.2 168.6 109.1 169.5 110.1C169.5 111.6 170.7 111.8 171.8 112C171.8 112.1 171.8 112.5 171.8 112.8Z" fill="#1F2548"/>
<path d="M89.8 26C88.2 24.7 87.4 22.8 86.5 21C81.3 10.9 82 9 92.2 3.9C93.4 3.3 94.6 2.7 95.7 1.9C100.3 -1.1 102.1 -0.700003 104.6 4.3C106.5 7.9 106.3 12 106.7 16C105.8 16 105.3 15.4 104.8 14.6C102.2 10.2 98.2 13.4 94.9 12.8C92.5 12.4 92.1 14.9 90.8 16.1C87.4 19.4 91.3 22.9 89.8 26Z" fill="#343963"/>
<path d="M89.8 26C91.2 22.9 87.4 19.4 90.8 16.1C92.1 14.8 92.4 12.4 94.9 12.8C98.2 13.4 102.2 10.2 104.8 14.6C105.3 15.4 105.7 15.9 106.7 16C107.1 21.1 106.1 25.9 102.3 29.7C100.9 31.2 100.8 32.9 100.9 34.8C98.3 36.8 96 36.2 93.7 34.2C94.2 30.5 91.4 28.6 89.8 26ZM100.9 21.8C99.6 22.3 97.2 20.9 97 23.5C96.9 25.3 98.5 25.8 100.1 25.9C102.1 26 104 25 104 23.1C104.1 21.1 102.1 22.1 100.9 21.8Z" fill="#ECB29E"/>
<path d="M218.8 37.9C215.6 35.6 212.6 38.5 209.4 38C208.6 37.7 207.4 36.9 207.8 36.5C211.8 33 208.1 30.3 207 27.3C206.3 25.3 205.4 23.2 207.1 21.2C209 21.8 210.7 21.4 212.2 20.3C213.3 19.5 214.3 19.4 215.3 20.2C217.5 22 219.5 21.9 221.9 19.7C222.2 19.7 222.4 19.7 222.7 19.8C223.7 22 226.3 21.9 227.7 23.5C227.1 27.3 225 30.1 222.3 32.7C220.9 34.3 218.9 35.4 218.8 37.9Z" fill="#BEDDE7"/>
<path d="M171.7 35.5C171.9 37.9 169.7 37.7 168.3 38.4C163.2 40.8 158.2 43.6 152.4 44.2C155.5 40.7 158.7 37.2 157.5 31.8C159.6 31.4 161.7 31 163.8 30.6C164.3 30.6 164.8 30.7 165.3 30.7C167.2 32.7 170.2 33.1 171.7 35.5Z" fill="#BEB3AA"/>
<path d="M222 19.8C219.7 22 217.6 22.1 215.4 20.3C214.4 19.5 213.4 19.6 212.3 20.4C210.8 21.4 209 21.9 207.2 21.3C203.2 21.3 206.9 18.1 205.4 17C206.5 15.7 208.6 14.5 209.4 14.9C211.9 16.4 213.8 18.3 214.5 13.6C216.5 15.3 218.3 10.8 220.1 13.2C221.3 14.8 224 16.4 221.5 19C221.4 19 221.8 19.5 222 19.8Z" fill="#4A5085"/>
<path d="M15.6 28.6C12.9 30 14.2 32.7 13.6 34.8C10.2 34 6.8 33.4 3.5 32.3C1.7 31.7 -0.199997 30.2 0.100003 27.9C0.300003 25.6 2.4 25.5 4 26C7.1 27 4.6 20.8 8 23C9.6 24 10.5 26.1 12 27.4C12.9 28 14.3 28.2 15.6 28.6Z" fill="#ECB29E"/>
<path d="M177.6 27.9C179.2 27.1 180.9 26.4 182.1 24.9C183.4 23.3 184.6 21 185.9 24.9C186.4 26.2 187.6 25.4 188.5 25.1C190 24.7 191.2 25.2 191.8 26.5C192.6 28.2 191.5 29.4 190.3 30.3C186.8 32.7 182.8 33.6 178.6 33.6C178.3 31.7 178 29.8 177.6 27.9Z" fill="#ECB29E"/>
<path d="M163.9 30.6C161.8 31 159.7 31.4 157.6 31.8C156.3 30.8 156.5 28.7 154.9 28.1C152.7 27.9 152.4 32 152.4 30.8C152.3 27.4 144 31.9 148.4 26.1C149.1 25.2 146.2 22.9 148.9 23C150.2 23 154.2 19.4 154 25.2C153.9 26.9 157 24.8 158.7 24.8C158.5 28.5 163.9 27.2 163.9 30.6Z" fill="#E1E6EE"/>
<path d="M177.6 27.9C177.9 29.8 178.3 31.7 178.6 33.6C177.3 34.4 176 35.2 174.8 36C173.8 35.8 172.8 35.7 171.7 35.5C170.2 33.1 167.2 32.6 165.3 30.7C169.3 29.1 173.5 28.7 177.6 27.9Z" fill="#343963"/>
<path d="M107.9 36.8C107.3 40.4 106.8 44 106.2 47.6C102.5 44.8 98.8 42.2 95.7 38.7C97.9 37.1 100 37.6 102 38.9C104.9 40.8 104.7 38.5 104.9 36.8C105.9 36.8 106.9 36.8 107.9 36.8Z" fill="#E1E6EE"/>
<path d="M68 140.7C71.5 139.5 75.1 140 78.6 139.6C78.4 143.9 74.3 143.9 71.8 145.7C66.2 148.1 66.7 144.5 67.1 141C67.4 140.8 67.7 140.7 68 140.7Z" fill="#BEB3AA"/>
<path d="M104.9 36.8C104.7 38.6 105 40.8 102 38.9C100 37.6 97.8 37.1 95.7 38.7C93.5 37.9 91.6 36.7 91.7 34C92.4 34 93 34 93.7 34.1C96 36.1 98.3 36.7 100.9 34.7C103.7 32.6 104.9 33.5 104.9 36.8Z" fill="#343963"/>
<path d="M227.8 23.6C226.4 22 223.8 22 222.8 19.9C224.2 17.3 226.8 17.1 228.5 18.6C229.9 19.6 230.2 22.2 227.8 23.6Z" fill="#4A5085"/>
<path d="M210.7 46.8C211.7 45.1 213.3 44.5 215.1 43.8C215 47.3 214.5 50.4 210.3 51.5C210 49.9 211.5 48.4 210.7 46.8Z" fill="#BEB3AA"/>
<path d="M216.5 43.6C216.8 41.8 218.8 40.7 218.8 38.7C220.4 39.8 222 41.3 221.1 43.1C220.3 44.7 218.1 43.7 216.5 43.6Z" fill="#C1E7D8"/>
<path d="M171.8 111.8C170.7 111.6 169.6 111.4 169.5 109.9C170.8 109.9 171.8 110.2 171.8 111.8Z" fill="#C1E7D8"/>
<path d="M18.2 274.8C18.4 275.7 18.6 276.5 18.8 277.4C17.5 276.8 17.9 275.8 18.2 274.8Z" fill="#F5705C"/>
<path d="M22.3 229.9C22.3 230.5 22.3 231.1 22.3 231.7C21.7 231.1 21.7 230.5 22.3 229.9Z" fill="#CFD0D2"/>
<path d="M67 231.7C67 226.4 67 221.2 67 215.9C67.6 213 69.5 212.7 72.1 212.7C85.4 212.8 98.6 212.6 111.9 212.6C112.6 212.6 113.2 212.7 113.9 212.7C136 212.7 158.2 212.8 180.3 212.8C180.3 213.5 180.3 214.1 180.3 214.8C180.3 215.1 180.3 215.4 180.3 215.8C180.3 221.5 180.3 227.2 180.3 232.9C180.2 233.5 180 234.1 179.9 234.8C151.9 234.8 123.9 234.9 95.9 234.9C86.4 234.9 77 234.9 67.5 234.8C67.6 233.7 67.8 232.6 67 231.7Z" fill="#D9513C"/>
<path d="M152.3 261.8C152.3 263.1 152.3 264.5 152.2 265.8C152 266.1 152 266.4 152.2 266.7C151.8 269.1 150 268.8 148.4 268.8C131.8 268.8 115.2 268.7 98.6 268.9C92.4 269 95.9 264.3 94.7 261.9C95.1 255.1 95.1 255.1 102.1 255.1C116.2 255.1 130.4 255.1 144.5 255.1C151.6 255 151.6 255 152.3 261.8Z" fill="#CFD0D2"/>
<path d="M67 231.7C67.8 232.6 67.6 233.7 67.5 234.8C67.3 234.8 67 234.8 66.8 234.7C66.8 233.7 66.9 232.7 67 231.7Z" fill="#ECB29E"/>
<path d="M179.9 234.7C180 234.1 180.2 233.5 180.3 232.8C180.4 233.4 180.6 234.1 180.7 234.7H180.3H179.9Z" fill="#ECB29E"/>
<path d="M165.8 175.9C166.5 167.8 167 159.8 168.1 151.8C168.8 146.2 169.3 146.1 174.3 148.7C186.5 155 193.4 165.6 197.6 178.2C187 177.4 176.4 176.6 165.8 175.9Z" fill="#BEB3AA"/>
<path d="M125.7 174.9C129.3 165 133.1 155.3 142.2 149C142.5 148.8 142.7 148.6 143 148.4C145.2 147.3 147.7 145.4 149.9 146.4C152.5 147.6 151.7 150.7 151.7 153.2C151.8 160.7 151.9 168.1 152 175.6C143.2 175.3 134.5 175.1 125.7 174.9Z" fill="#BEB3AA"/>
<path d="M45.8 178.2C47.7 170.7 53.6 165.6 57.2 159.1C58.9 156.1 60.5 153 63.3 150.7C65.3 149.1 66.4 148.1 67 151.7C68.4 160.7 67.7 169.1 60.2 175.5C59.5 176.1 59 176.6 58.9 177.5C54.5 177.5 50.2 179.6 45.8 178.2Z" fill="#CFD0D2"/>
<path d="M94.9 202.7C92.7 207 90.2 205.6 88.1 202.8C86.5 200.7 85.5 200.5 84.2 202.8C83.5 203.9 83 205.5 81.4 205.1C79.3 204.5 78.9 202.7 79 200.7C80.5 198.3 82.8 195.8 78 194.5C76.6 191.3 74.9 187.9 81.2 189.8C83 190.4 83.9 189 84.6 187.7C85.4 186.2 86.4 184.6 88.3 185.2C90.5 185.9 90.5 187.6 89.9 189.7C89.2 192.3 90 193.3 92.6 191.8C94.9 192.1 96.6 193.1 96.4 195.8C95.9 196.2 95.4 196.6 95 197C89.9 198.8 95.2 200.8 94.9 202.7Z" fill="#FEFEFE"/>
<path d="M169.3 199.9C170.1 203.4 169.5 205.5 165.4 203.4C163.9 202.6 163 202.8 162.2 204.3C161.5 205.7 161.3 207.9 158.9 206.9C156.9 206.1 156.6 204.2 156.9 202.3C157 201.8 157 201.3 157 200.8C158.4 198.9 158 197.7 155.5 197.8C153.7 197.8 152.3 197.5 151.5 195.7C151.5 193.8 153 193 154.1 192C156.9 192 160.5 192.9 159.6 187.9C160 186.4 160.7 185 162.5 185C164.2 185 164.5 186.4 164.7 187.8C165 190 166.5 190.3 168.3 190.2C171.5 190 172.9 191.5 172.8 194.6C172.4 196.8 164.5 194.2 169.3 199.9Z" fill="#FEFEFE"/>
<path d="M114.9 201.9C112.5 201.4 112.8 199.5 112.7 197.8C113 197.2 113.3 196.6 113.6 196.1C116.9 194.9 118 192.9 115.7 189.9C115.8 186.2 116.4 183.6 120.3 187.6C121.9 189.3 123.2 188.4 124.7 187.5C127 186.1 129 185.6 130.1 188.8C129.3 191.4 124.4 194.8 131.5 195.9C131.7 196.9 131.9 197.9 132.1 198.8C131.5 201.7 126.9 199.2 126.8 202.7C127.1 207.9 124.4 207 121.3 205.5C120.1 199.1 120.1 199.1 114.9 201.9Z" fill="#FEFEFE"/>
<path d="M103.9 175C98.8 172.8 97.2 168.9 97.7 163.5C98.1 159.3 96.2 154.8 99 150.8C101.6 152.5 102.5 155.4 104.3 157.7C107.5 161.7 108.1 167.4 112.6 170.6C112.6 172 112.7 173.4 112.7 174.8C109.8 174.9 106.9 174.9 103.9 175Z" fill="#CFD0D2"/>
<path d="M94.9 202.7C95.1 200.8 89.9 198.8 95 197C98.2 198 101.7 198.3 104.7 199.9C105.4 202 109.5 203.1 107.7 205.2C106.3 206.9 102.8 206.1 100.2 205C98.5 204.3 96.7 203.5 94.9 202.7Z" fill="#BEB3AA"/>
<path d="M159.6 187.9C160.5 192.9 157 192 154.1 192C151.2 191.3 148.5 190.1 146.5 187.8C145.9 187.1 145.1 186 145.3 185.3C145.6 184.2 147.1 183.9 148.2 184C150.8 184.1 153.4 184.6 155.7 186C156.9 186.8 158 187.8 159.6 187.9Z" fill="#BEB3AA"/>
<path d="M131.4 195.8C124.4 194.7 129.2 191.3 130 188.7C132.9 188.7 135.1 186.3 138 186.6C138.9 186.7 140.1 186.3 140.6 187.4C141.1 188.4 140.4 189.3 139.8 190.1C137.7 193 134.7 194.6 131.4 195.8Z" fill="#BEB3AA"/>
<path d="M77.9 194.6C82.7 195.9 80.4 198.4 78.9 200.8C74.8 202.2 70.7 202.2 66.6 200.8C68.9 195.9 73.3 195.1 77.9 194.6Z" fill="#BEB3AA"/>
<path d="M126.7 202.7C126.8 199.2 131.4 201.6 132 198.8C133.3 199.2 134.5 199.5 135.8 199.9C136.2 200.2 136.5 200.6 136.9 200.9C138.7 202.4 142.1 203.8 140.9 206.1C139.9 208 136.2 207.2 134 206.6C131.4 205.8 129.1 204 126.7 202.7Z" fill="#BEB3AA"/>
<path d="M169.3 199.9C164.5 194.2 172.4 196.8 172.8 194.5C176.8 195 181.3 194.7 182.7 200C178.2 202 173.8 200.2 169.3 199.9Z" fill="#BEB3AA"/>
<path d="M115.7 189.8C118 192.9 116.9 194.8 113.6 196C110.8 195.7 108.8 194.1 106.8 192.3C105.8 191.4 104.1 190.4 105 188.7C105.8 187.2 107.7 187.7 109.1 187.9C111.3 188.4 113.5 189.2 115.7 189.8Z" fill="#BEB3AA"/>
<path d="M151.6 195.7C152.4 197.4 153.8 197.8 155.6 197.8C158 197.8 158.5 198.9 157.1 200.8C153.1 202.4 149.1 203.7 144.7 202C143.3 201.5 143.5 200.8 143.8 199.8C146.1 197.9 148.8 196.9 151.6 195.7Z" fill="#BEB3AA"/>
<path d="M96.5 195.8C96.6 193.1 95 192.1 92.7 191.8C93.9 189.5 95.9 188 98.2 187C99.5 186.4 100.9 185 102.2 186.4C103.2 187.5 102.1 189 101.6 190C100.3 192.2 99.4 194.9 96.5 195.8Z" fill="#BEB3AA"/>
<path d="M152.2 266.7C152 266.4 152 266.1 152.2 265.8C152.3 266 152.4 266.2 152.4 266.4C152.4 266.5 152.3 266.6 152.2 266.7Z" fill="#F5705C"/>
<path d="M102 110.5C99.9 110.4 97.9 110.3 95.8 110.1C94.7 88.9 93.4 67.8 91.3 46.7C97.1 51 100.3 57.7 106 62C105.6 76.6 105.2 91.2 104.9 105.7C104.7 108 105.2 110.4 102 110.5Z" fill="#E1E6EE"/>
<path d="M102 110.5C105.3 110.4 104.8 107.9 104.8 105.8C105.2 91.2 105.6 76.6 105.9 62.1C110.3 65 114.6 67.8 119 70.7C114.8 82.4 114.8 82.4 124.3 86.6C123.9 93.3 123.5 100 123.1 106.7C122.5 108.9 121.5 111 120.2 112.8C114 112.3 107.6 114.2 102 110.5Z" fill="#343963"/>
<path d="M147.7 123C148.3 120.3 150.8 119.7 152.5 118.3C156.2 115.2 159.3 118.7 162.7 117.4C165.9 116.2 167.7 120.2 168.7 123.3C168.1 129 164.7 133.6 162.7 138.8C159.7 138.8 156.7 138.8 153.7 138.8C153.7 137.4 152.8 136.4 152 135.5C148.8 131.9 147.1 127.9 147.7 123ZM161.7 130.6C161.5 128.3 159.6 128.8 158.4 128.9C156.7 129.1 153.9 127.6 153.4 130.1C153 132.1 155.2 133.4 157.3 133.6C159.5 133.8 160.9 132.6 161.7 130.6Z" fill="#ECB29E"/>
<path d="M123 106.7C123.4 100 123.8 93.3 124.2 86.6C125.3 84.1 124.5 81.5 124.9 78.9C129.2 83.6 130.2 89.4 129.2 95.3C128.5 99.6 126.5 103.7 123 106.7Z" fill="#FEFEFE"/>
<path d="M125 79C124.5 81.5 125.4 84.2 124.3 86.7C114.8 82.5 114.8 82.5 119 70.8C121.4 70.8 122.2 73.9 124.6 73.8C124.7 75.5 124.9 77.2 125 79Z" fill="#BEB3AA"/>
<path d="M112.6 170.7C108.1 167.5 107.5 161.8 104.3 157.8C102.5 155.5 101.6 152.6 99 150.9C98.1 147.8 95.8 146.4 92.8 146C90.2 144.3 85.5 144.8 85.7 139.9C85.7 139.6 85.8 139.3 85.9 139C95.5 138.9 105 138.9 114.6 138.8C113.7 149.3 112.6 159.9 112.6 170.7Z" fill="#BEB3AA"/>
<path d="M153.8 138.8C156.8 138.8 159.8 138.8 162.8 138.8C162.8 139.1 162.8 139.5 162.8 139.8C162.8 141.5 162.8 143.1 162.8 144.8C159.6 146.5 156.6 146.5 153.8 143.9C153.8 142.2 153.8 140.5 153.8 138.8Z" fill="#CFD0D2"/>
<path d="M153.8 143.9C156.6 146.4 159.6 146.5 162.8 144.8C166.9 143.9 164.6 147.1 164.7 148.2C164.8 150 163.4 149.6 162.3 149C160.7 148.1 159 147.6 157.1 148.2C155.8 148.6 154.4 150.6 153.3 148.9C152.4 147.5 152.1 145.4 153.8 143.9Z" fill="#BEB3AA"/>
<path d="M127.7 50.6C127.9 49.8 128 49 128.4 48.3C129.9 45.6 131.5 42.9 133.1 40.2C135.2 40.4 135.3 42.8 137 43.2C138.4 45.1 141.2 46.6 138.9 49.6C135.1 49.5 131.5 51.5 127.7 50.6Z" fill="#BEB3AA"/>
<path d="M127.7 50.6C131.6 51.6 135.1 49.6 138.9 49.6C138.5 54.2 134.8 57.3 128.7 57.8C127.2 57.9 125.8 57.8 124.3 57.8C125.4 55.3 126.5 52.9 127.7 50.6Z" fill="#E1E6EE"/>
<path d="M135.9 39.4L135.8 39.1C137.1 38.9 138.4 38.6 139.7 38.7C140.9 38.7 142.4 38.1 143.2 39.5C143.4 39.9 143 40.8 142.6 41.2C141.5 42.4 140.2 43 138.7 42C138 41.6 137.3 41.2 136.6 40.7H136.7C136.5 40.4 136.2 39.9 135.9 39.4Z" fill="#FEFEFE"/>
<path d="M85.7 139.7C85.6 144.7 90.2 144.1 92.8 145.8C90.2 151 85.6 152.9 77.7 151.6C74.4 151.1 71.6 149.7 71.8 145.7C74.3 143.9 78.4 143.9 78.6 139.6C81 139.7 83.3 139.7 85.7 139.7Z" fill="#CFD0D2"/>
<path d="M85.7 139.7C83.4 139.7 81 139.7 78.7 139.7C79 137.1 78.6 134.9 77 132.7C74.7 129.4 73.6 125.5 74.4 121.4C74.6 120.5 74.3 118.7 76.1 119.1C79.3 119.8 82.7 120.3 85.6 121.7C90.6 124.2 91.4 128.5 87.9 132.9C86.5 134.7 85.7 136.5 85.8 138.8C85.8 139.1 85.7 139.4 85.7 139.7ZM83.3 128.9C81.9 129.5 79.3 127.8 79 130.6C78.8 132.3 80.2 133.7 82.2 133.5C84.1 133.4 85.9 132.4 86.2 130.4C86.4 128.3 84.4 129.3 83.3 128.9Z" fill="#ECB29E"/>
<path d="M114.9 201.9C120.1 199.2 120.1 199.2 121.1 205.5C119.6 208.8 116.4 210.4 113.8 212.7C113.1 212.7 112.5 212.6 111.8 212.6C112.5 208.9 113.4 205.3 114.9 201.9Z" fill="#BEB3AA"/>
<path d="M152.2 44.4C152.2 45.6 151.4 45.6 150.5 45.5C151.1 45.2 151.7 44.8 152.2 44.4Z" fill="#BEB3AA"/>
<path d="M135.9 39.4C136.2 39.9 136.4 40.4 136.7 40.8C136 40.7 135.8 40.1 135.9 39.4Z" fill="#ECB29E"/>
<path d="M201.8 217.8C205.7 217.9 207.9 220.5 207.8 224.7C207.7 228.7 205.2 230.3 201.8 230.6C198.6 230.9 194.9 227.2 195 224C195.1 220.3 197.9 217.7 201.8 217.8Z" fill="#FEFEFE"/>
<path d="M180.3 215.8C180.3 215.5 180.3 215.2 180.3 214.8C180.4 215 180.5 215.2 180.5 215.5C180.5 215.6 180.4 215.7 180.3 215.8Z" fill="#ECB29E"/>
<path d="M42.8 217.7C46.7 218.1 48.8 220.1 48.9 224.2C49 228.4 46.5 230.6 42.8 230.6C39.1 230.6 36.6 228.5 36.7 224.2C36.8 220.2 38.9 218.1 42.8 217.7Z" fill="#FEFEFE"/>
<path d="M100.9 21.8C102.1 22.1 104.2 21.1 104.1 23C104.1 25 102.2 25.9 100.2 25.8C98.6 25.8 96.9 25.2 97.1 23.4C97.2 20.9 99.6 22.3 100.9 21.8Z" fill="#FEFEFE"/>
<path d="M161.7 130.6C160.9 132.7 159.5 133.9 157.3 133.6C155.2 133.4 152.9 132.1 153.4 130.1C153.9 127.6 156.7 129.1 158.4 128.9C159.6 128.7 161.4 128.2 161.7 130.6Z" fill="#FEFEFE"/>
<path d="M83.3 128.9C84.5 129.2 86.5 128.3 86.2 130.5C85.9 132.5 84.2 133.4 82.2 133.6C80.2 133.8 78.8 132.3 79 130.7C79.3 127.8 81.9 129.5 83.3 128.9Z" fill="#FEFEFE"/>
</g>
<defs>
<clipPath id="clip0">
<rect width="239" height="291.7" fill="white"/>
</clipPath>
</defs>
</svg>
