<svg width="534" height="519" viewBox="0 0 534 519" fill="none" xmlns="http://www.w3.org/2000/svg">
<rect width="534" height="465" rx="50" fill="#E8E2F1"/>
<path d="M146.822 182.165C145.642 190.82 149.182 198.885 151.346 206.95C155.28 221.113 150.166 232.718 141.117 241.963C125.381 258.093 120.464 278.55 113.579 298.614C100.597 336.774 97.2526 376.902 89.9746 416.242C86.0405 437.88 79.746 458.73 69.124 478.204C61.846 491.58 52.7976 502.005 35.291 499.448C30.9636 498.858 24.8658 497.874 24.079 504.169C23.2922 509.676 28.6031 512.824 32.9306 514.594C37.4548 516.167 42.1757 517.544 47.29 517.151C62.2394 515.971 77.1888 514.987 92.1383 513.414C98.8262 512.823 105.317 513.61 111.612 515.184C128.922 519.511 146.428 512.037 163.935 518.331C170.426 520.692 178.491 516.167 185.769 514.594C196.588 512.43 206.423 514.397 216.651 516.364C220.192 516.954 224.126 517.938 227.273 516.954C238.092 513.414 249.304 515.577 259.729 514.2C271.728 512.627 283.334 513.807 294.939 513.217C298.48 513.02 301.627 512.037 303.004 508.693C304.578 504.759 300.054 504.365 298.283 502.398C295.923 499.841 292.972 497.481 289.825 495.71C254.418 477.614 244.19 442.994 233.568 408.964C220.979 368.64 215.668 326.939 213.307 284.844C212.521 268.715 211.144 252.192 205.243 236.849C203.472 231.931 202.095 226.817 205.636 221.899C187.343 207.737 168.853 193.574 152.526 176.658C150.953 178.428 148.986 180.395 146.822 182.165Z" fill="#F5F0B9"/>
<path d="M416.698 501.217C426.534 495.71 424.37 486.268 424.763 477.613C426.73 431.388 428.894 385.359 432.631 338.937C434.598 353.493 436.565 368.049 438.336 382.802C443.057 419.192 447.581 455.582 452.105 491.972C452.498 494.333 451.712 497.677 455.646 497.677C459.776 497.677 464.104 497.677 468.235 497.873C474.136 498.66 475.709 496.496 476.103 490.399C479.053 430.601 482.397 370.803 485.741 310.809C465.481 310.809 445.417 310.415 425.157 310.809C417.288 311.005 415.125 307.465 416.895 300.973C419.452 292.318 418.075 283.467 418.272 274.812C415.125 274.615 411.978 274.615 409.027 274.418C408.24 281.106 408.24 287.794 407.06 294.482C404.306 310.218 404.699 310.218 388.176 311.005C391.914 369.82 395.651 428.437 399.585 487.251C399.782 490.792 396.635 497.283 404.503 497.873C409.224 497.087 413.748 496.496 416.698 501.217Z" fill="#1F2548"/>
<path d="M418.469 274.418C418.272 283.073 419.649 291.925 417.092 300.58C415.125 307.268 417.289 310.612 425.354 310.415C445.614 310.022 465.678 310.415 485.938 310.415C493.413 311.202 491.446 305.891 491.249 302.154C489.676 265.96 488.102 229.767 486.332 193.77C485.938 186.689 486.135 179.214 484.561 172.33C479.644 150.692 464.891 138.497 443.844 133.382C438.729 132.399 432.435 136.923 428.304 130.628C425.944 130.038 425.354 131.809 424.37 133.382C423.78 137.316 423.977 139.283 429.288 137.906C434.402 136.53 440.106 136.726 439.516 144.988C440.893 144.791 442.073 144.988 443.254 144.594C452.499 141.644 460.76 142.431 466.268 151.479C470.005 157.773 467.251 169.772 460.957 176.46C456.236 181.378 450.925 185.509 445.417 189.836C436.959 196.327 426.731 200.458 420.436 209.9C420.043 231.34 419.256 252.978 418.469 274.418Z" fill="#343963"/>
<path d="M153.116 176.658C169.246 193.378 187.736 207.54 206.226 221.9C220.782 230.948 237.699 234.292 253.238 241.176C267.007 247.078 282.153 249.635 293.956 259.667C296.906 262.224 300.053 260.847 303.201 259.47C308.512 256.913 313.626 254.159 318.74 251.602C319.33 248.061 317.953 244.914 316.183 241.767C303.397 248.258 291.792 248.258 280.58 237.636C257.959 216.195 233.568 196.722 218.815 168.396C218.028 166.626 217.241 164.856 216.651 163.085C213.307 161.708 212.717 157.971 210.75 155.611C205.833 149.906 202.882 142.235 195.014 139.284C193.834 143.612 196.588 146.759 198.161 150.3C203.275 162.102 206.029 174.101 203.866 187.87C202.095 186.69 201.112 186.1 200.128 185.116C193.637 177.838 187.146 170.56 180.655 163.085C180.064 162.495 179.278 161.708 178.688 161.118C178.097 160.135 177.311 159.348 176.721 158.364C171.213 164.069 169.246 174.494 157.444 171.74C155.87 171.347 153.706 174.297 153.116 176.658Z" fill="#ECB29E"/>
<path d="M194.62 139.087C202.488 142.037 205.439 149.708 210.357 155.413C212.52 157.773 212.914 161.314 216.258 162.888C230.42 151.676 230.617 140.857 216.454 129.448C210.75 124.924 206.816 120.596 212.324 113.318C214.291 110.761 214.094 107.811 212.717 105.057C206.423 93.8448 198.554 83.8129 186.752 78.3052C179.474 74.9613 172.196 75.5514 165.902 81.2558C166.492 81.6492 166.885 82.0426 167.279 82.6327C169.639 85.1898 175.934 81.4525 175.934 86.9602C175.934 89.3206 178.884 93.2547 176.13 93.6481C172.786 94.0415 168.852 99.3525 165.312 93.8448C157.247 100.926 149.969 108.598 148.002 119.81C147.412 123.154 146.231 127.088 143.871 129.645C135.216 139.677 129.905 150.692 132.659 164.855C123.02 162.297 114.365 161.511 107.874 155.216C107.677 157.183 107.481 159.15 107.284 160.921C107.481 161.511 107.678 162.297 107.678 162.888C114.759 171.346 123.02 178.23 134.823 179.017C138.953 179.411 142.887 180.984 146.821 182.165C148.985 180.394 150.952 178.427 153.116 176.657C153.706 174.296 155.87 171.346 157.247 171.739C168.852 174.493 171.016 164.068 176.524 158.363C177.114 157.773 177.704 157.183 178.294 156.593C179.671 152.266 181.638 148.135 180.064 143.217C177.31 134.956 174.95 126.498 172.196 118.039C170.229 111.745 171.213 105.647 174.557 100.139C178.294 94.2382 184.195 87.5503 190.883 90.5008C196.784 93.2547 196.391 101.516 193.637 108.007C193.637 108.598 193.44 108.794 193.047 108.991C193.243 110.958 193.44 112.925 190.883 113.515C187.539 121.187 181.048 129.055 191.473 136.333C191.866 136.333 192.26 136.529 192.26 136.923C193.44 137.316 194.62 137.71 194.62 139.087Z" fill="#1F2548"/>
<path d="M315.986 241.569C317.756 244.519 319.133 247.667 318.543 251.404C341.164 245.109 362.801 236.061 384.832 228.39C394.864 225.242 403.716 219.735 412.37 214.227C414.731 212.063 416.698 208.916 420.632 209.9C426.73 200.458 437.155 196.327 445.613 189.836C450.924 185.705 456.432 181.574 461.153 176.46C467.447 169.772 470.398 157.773 466.464 151.479C460.956 142.43 452.695 141.644 443.45 144.594C442.269 144.988 440.892 144.791 439.712 144.988L440.106 145.184C440.106 146.955 439.909 148.528 437.942 149.315C430.074 154.626 426.14 164.264 417.091 168.395C416.698 171.149 415.321 173.116 413.551 175.083C399.191 191.803 380.898 203.605 361.818 214.03C355.72 217.374 351.196 224.062 343.131 223.079H343.328C343.328 225.833 341.361 225.833 339.394 225.636L339.59 225.439C339.394 226.816 338.607 227.406 337.23 227.603V227.209C337.23 227.8 337.23 228.39 337.23 228.783C336.836 228.586 336.443 228.193 335.853 227.996C329.362 232.324 322.674 237.045 315.986 241.569Z" fill="#4A5085"/>
<path d="M412.567 214.031C403.716 219.539 395.061 225.243 385.029 228.194C383.849 253.175 382.865 278.157 381.095 302.941C380.701 309.236 382.865 311.006 388.57 310.416C405.093 309.629 404.503 309.629 407.453 293.893C408.633 287.205 408.633 280.517 409.42 273.829C410.404 254.159 411.387 234.095 412.567 214.031Z" fill="#343963"/>
<path d="M107.875 155.02C114.366 161.315 123.021 162.101 132.659 164.659C129.709 150.299 135.216 139.481 143.871 129.449C146.035 126.892 147.215 123.154 148.002 119.614C149.969 108.402 157.444 100.927 165.312 93.6488C164.722 91.0916 164.918 88.5345 166.295 86.1741C165.509 85.584 164.525 84.7971 163.738 84.207C156.067 92.0752 145.445 91.4851 135.806 94.0422C127.938 101.32 123.021 109.975 126.365 120.794C128.725 128.072 126.168 133.186 120.857 136.923C115.349 140.858 111.809 146.169 107.678 151.086C107.678 152.463 107.678 153.84 107.875 155.02Z" fill="#1F2548"/>
<path opacity="0.19" d="M107.875 155.02C114.366 161.315 123.021 162.101 132.659 164.659C129.709 150.299 135.216 139.481 143.871 129.449C146.035 126.892 147.215 123.154 148.002 119.614C149.969 108.402 157.444 100.927 165.312 93.6488C164.722 91.0916 164.918 88.5345 166.295 86.1741C165.509 85.584 164.525 84.7971 163.738 84.207C156.067 92.0752 145.445 91.4851 135.806 94.0422C127.938 101.32 123.021 109.975 126.365 120.794C128.725 128.072 126.168 133.186 120.857 136.923C115.349 140.858 111.809 146.169 107.678 151.086C107.678 152.463 107.678 153.84 107.875 155.02Z" fill="white"/>
<path d="M343.13 223.08C351.195 224.063 355.719 217.375 361.817 214.031C380.897 203.606 399.191 191.804 413.354 174.887C415.124 172.92 416.501 170.757 416.894 168.199C418.664 158.954 420.435 149.906 422.205 140.661C422.599 138.497 423.582 136.137 420.435 135.153C407.649 140.858 398.404 150.496 392.503 162.888C381.488 187.28 366.341 208.327 343.13 223.08Z" fill="#343963"/>
<path d="M107.48 151.282C111.414 146.168 114.955 140.857 120.659 137.12C125.97 133.382 128.528 128.268 126.167 120.99C122.823 110.171 127.741 101.517 135.609 94.2385C127.151 93.8451 121.643 99.5495 116.529 104.664C108.267 112.925 99.6122 119.613 87.81 121.974C81.3188 123.351 80.1386 129.055 85.843 135.546C91.7441 142.037 100.006 146.365 107.48 151.282Z" fill="#CFD0D2"/>
<path d="M448.367 109.975C454.071 107.221 456.825 101.91 459.776 96.9923C469.218 80.8626 461.546 67.2901 443.056 66.7C435.975 66.5033 428.697 67.6835 421.812 64.5363C418.075 62.766 417.485 65.7165 416.895 68.4703C415.714 74.3714 416.698 80.2725 419.058 85.7802C423.582 83.4198 427.517 80.0758 433.811 81.6495C440.892 83.2231 443.253 87.3539 444.04 93.6484C444.04 94.4352 445.023 95.6154 445.613 95.6154C455.645 94.8286 449.941 99.7462 448.761 103.484C447.777 105.451 447.187 107.811 448.367 109.975Z" fill="#1F2548"/>
<path d="M448.369 109.975C447.385 107.811 447.975 105.45 448.565 103.483C449.942 99.9428 455.647 94.8285 445.418 95.6153C445.025 95.6153 444.041 94.4351 443.844 93.6483C443.058 87.3537 440.697 83.223 433.616 81.6494C427.321 80.0757 423.387 83.4197 418.863 85.7801C418.273 97.1889 417.88 108.401 426.928 117.449C430.272 120.793 428.305 126.104 428.502 130.628C432.829 136.923 438.927 132.399 444.041 133.382C442.467 125.908 441.484 118.433 446.598 111.745C446.795 110.761 446.992 109.778 448.369 109.778V109.975ZM428.502 101.713C430.862 102.893 435.189 99.9428 435.386 104.467C435.386 107.417 432.239 109.188 429.092 109.385C425.158 109.581 422.404 107.417 422.404 103.877C422.404 100.139 426.338 102.697 428.502 101.713Z" fill="#ECB29E"/>
<path d="M420.632 135.153C423.976 136.137 422.796 138.497 422.402 140.661C420.632 149.906 418.862 158.954 417.091 168.199C426.14 164.068 430.074 154.43 437.942 149.119C438.335 147.545 438.138 145.775 440.105 144.988L439.712 144.792C440.302 136.727 434.598 136.333 429.483 137.71C424.173 139.087 423.976 137.317 424.566 133.186C422.992 133.383 421.615 133.579 420.632 135.153Z" fill="#E1E6EE"/>
<path d="M468.432 497.48C464.301 497.48 459.973 497.48 455.843 497.284C454.859 505.545 445.614 505.349 441.68 510.66C458.203 518.134 468.038 513.217 468.432 497.48Z" fill="#343963"/>
<path d="M416.699 501.218C413.748 496.497 409.224 497.284 404.7 497.481C403.717 505.939 394.078 505.546 389.357 513.02C397.619 513.02 404.503 513.414 411.388 512.824C419.65 512.234 417.289 506.136 416.699 501.218Z" fill="#343963"/>
<path d="M163.541 84.2068C164.328 84.7969 165.311 85.5837 166.098 86.1739C166.491 84.9936 166.885 83.8134 167.278 82.4365C166.885 81.8464 166.491 81.453 165.901 81.0596C164.918 82.2398 164.328 83.2233 163.541 84.2068Z" fill="#1F2548"/>
<path d="M339.591 225.636C341.558 225.833 343.329 225.833 343.525 223.079C341.755 223.079 340.378 224.063 339.591 225.636Z" fill="#343963"/>
<path d="M448.367 109.779C446.99 109.582 446.794 110.762 446.597 111.746C447.187 110.959 447.777 110.369 448.367 109.779Z" fill="#1F2548"/>
<path d="M337.427 227.406C338.804 227.406 339.59 226.62 339.787 225.243C339 226.029 338.213 226.816 337.427 227.406Z" fill="#343963"/>
<path d="M336.051 227.8C336.444 227.997 336.838 228.39 337.428 228.587C337.428 227.997 337.428 227.407 337.428 227.013C336.838 227.013 336.444 227.21 336.051 227.8Z" fill="#343963"/>
<path d="M412.568 214.031C411.387 234.095 410.404 253.962 409.224 274.026C412.371 274.222 415.518 274.222 418.469 274.419C419.255 252.978 420.042 231.341 420.829 209.9C416.698 208.917 414.928 211.867 412.568 214.031Z" fill="#CFD0D2"/>
<path d="M192.26 137.317C192.063 136.923 191.867 136.727 191.473 136.727C188.719 138.103 190.293 140.661 189.703 142.431C186.949 149.316 193.047 159.938 180.851 162.691L180.654 163.085C187.146 170.363 193.637 177.838 200.128 185.116C200.915 186.099 202.095 186.492 203.865 187.869C206.029 174.1 203.275 162.101 198.161 150.299C196.587 146.758 193.834 143.611 195.014 139.284H194.817C193.834 138.497 193.047 137.907 192.26 137.317Z" fill="#F5F0B9"/>
<path d="M178.294 156.594C177.704 157.184 177.114 157.774 176.524 158.364C177.114 159.348 177.901 160.134 178.491 161.118L178.687 160.921C178.688 159.348 178.491 157.971 178.294 156.594Z" fill="#F5F0B9"/>
<path d="M178.687 161.118C179.277 161.708 180.064 162.495 180.654 163.085L180.851 162.692C180.261 162.102 179.474 161.511 178.884 160.725C178.884 160.725 178.687 161.118 178.687 161.118Z" fill="#F5F0B9"/>
<path d="M178.885 160.725C179.475 161.315 180.262 162.102 180.852 162.692C193.047 159.938 186.95 149.316 189.704 142.431C190.294 140.661 188.72 137.907 191.474 136.727C181.049 129.449 187.54 121.581 190.884 113.909C187.146 112.533 179.672 116.073 180.262 109.779C180.655 105.255 187.737 108.205 191.867 108.008C192.457 108.008 193.048 108.205 193.834 108.402C196.588 101.911 196.982 93.4523 191.08 90.8952C184.393 87.7479 178.491 94.6326 174.754 100.534C171.41 106.041 170.23 111.942 172.394 118.434C175.147 126.695 177.508 135.153 180.262 143.612C181.835 148.333 179.868 152.66 178.491 156.987C178.491 157.971 178.688 159.348 178.885 160.725Z" fill="#ECB29E"/>
<path d="M167.081 82.436C166.688 83.6163 166.294 84.7965 165.901 86.1734C164.524 88.5338 164.327 91.091 164.918 93.6481C168.458 99.1558 172.392 93.8448 175.736 93.4514C178.49 93.058 175.54 89.1239 175.54 86.7635C175.736 81.2558 169.638 84.9932 167.081 82.436Z" fill="#E1E6EE"/>
<path d="M193.637 108.402C193.047 108.205 192.457 108.008 191.67 108.008C187.539 108.205 180.458 105.254 180.065 109.779C179.475 116.073 186.949 112.336 190.687 113.909C190.097 111.746 191.08 110.369 192.85 109.385C193.441 109.188 193.637 108.795 193.637 108.402Z" fill="#FEFEFE"/>
<path d="M192.85 109.385C191.08 110.368 190.096 111.745 190.686 113.909C193.243 113.319 193.243 111.352 192.85 109.385Z" fill="#ECB29E"/>
<path d="M192.26 137.317C193.047 137.907 193.834 138.497 194.621 139.284C194.621 137.71 193.44 137.317 192.26 137.317Z" fill="#ECB29E"/>
<path d="M440.106 144.988C438.139 145.578 438.336 147.545 437.942 149.119C439.909 148.332 440.303 146.759 440.106 144.988Z" fill="#343963"/>
<path d="M428.501 101.713C426.337 102.697 422.403 99.943 422.206 103.877C422.206 107.221 425.157 109.581 428.894 109.385C432.041 109.188 435.188 107.418 435.188 104.467C435.188 99.943 430.861 102.894 428.501 101.713Z" fill="#FEFEFE"/>
</svg>
