<svg width="330" height="401" viewBox="0 0 330 401" fill="none" xmlns="http://www.w3.org/2000/svg">
<rect width="330" height="328" rx="50" fill="#E8E2F1"/>
<g clip-path="url(#clip0)">
<path d="M155.211 282.323C157.597 311.148 161.105 339.833 161.246 368.8C161.246 376.112 163.351 383.564 166.579 390.454C167.842 393.126 167.842 394.251 164.474 395.235C153.808 398.047 143.142 400.156 132.196 400.438C108.339 400.859 84.4821 400.438 60.625 400.719C47.5738 400.859 34.6629 401.422 22.0327 397.625C15.9983 395.797 10.3848 392.844 5.05208 389.329C0.982346 386.657 -1.12269 383.283 0.84201 377.518C9.40249 350.379 16.8403 322.96 23.7167 295.259C28.2075 277.12 32.6982 258.981 42.1007 242.67C48.5562 231.562 56.9763 222 69.0452 216.235C71.4309 216.516 74.6586 219.469 75.9216 215.11C77.325 210.329 78.7284 205.126 72.5536 202.033C73.5359 196.971 70.8696 192.049 71.1502 186.987C74.9393 186.566 76.904 189.659 79.5704 191.346C84.3418 194.299 89.2536 195.143 93.7443 191.206C98.0947 187.409 98.235 182.769 94.867 178.129C92.4813 174.754 93.3233 172.082 96.551 169.833C98.3754 168.567 100.059 166.88 101.743 165.333C107.076 164.349 112.269 163.505 117.601 162.521C120.127 169.27 119.847 175.598 115.356 181.504C112.97 184.456 111.286 187.69 111.567 191.628C110.304 197.252 110.164 203.017 111.848 208.642C112.69 211.595 114.093 213.844 117.601 213.282C131.214 221.719 139.774 233.952 145.669 248.435C148.896 259.965 152.124 271.214 155.211 282.323Z" fill="#F5F0B9"/>
<path d="M269.585 104.307C251.341 119.915 234.08 136.648 211.767 146.491C206.294 148.881 198.715 150.569 196.189 155.068C193.804 159.427 196.61 166.599 197.172 172.645C199.136 195.002 200.961 217.36 202.926 239.717C203.768 248.998 203.627 248.998 194.365 248.998C186.927 248.998 179.349 248.857 171.911 248.857C169.105 248.857 166.859 248.716 166.719 244.92C166.438 239.155 165.737 233.249 165.316 227.484C165.316 223.266 165.456 219.188 165.456 214.969C169.105 209.767 168.403 203.439 169.526 197.674C170.508 192.893 171.21 188.112 171.911 183.331C172.613 178.551 175.139 172.504 173.174 169.13C169.806 163.224 176.402 161.818 176.121 157.599C175.841 151.272 178.507 144.804 177.946 138.335C178.507 137.211 178.928 136.226 179.489 135.101C207.557 127.368 233.238 114.291 258.779 100.651C261.165 99.3857 263.831 98.4014 266.357 97.2765C266.638 99.8075 267.901 102.198 269.585 104.307Z" fill="#343963"/>
<path d="M165.175 227.484C165.737 233.249 166.298 239.014 166.579 244.92C166.719 248.716 169.105 248.857 171.771 248.857C179.209 248.857 186.787 248.998 194.225 248.998C192.962 293.15 187.769 337.021 185.805 381.033C185.664 383.845 186.366 387.501 181.735 387.923C178.507 387.923 175.139 387.923 171.911 387.923C168.543 376.674 168.543 364.863 167 353.332C163.772 326.897 160.965 300.321 158.018 272.902C156.194 276.417 155.632 279.37 155.352 282.323C152.124 271.214 149.037 259.965 145.809 248.857C146.791 248.857 147.633 248.857 148.616 248.857C157.597 248.857 157.597 248.576 156.053 239.858C155.352 235.78 155.773 231.562 155.632 227.343C158.72 227.343 161.947 227.484 165.175 227.484Z" fill="#1F2548"/>
<path d="M101.743 165.614C100.059 167.161 98.3754 168.848 96.551 170.114C93.3233 172.364 92.4813 175.035 94.867 178.41C98.2351 183.05 98.0947 187.69 93.7443 191.487C89.2536 195.284 84.3418 194.581 79.5704 191.628C76.904 189.94 74.9393 186.847 71.1502 187.269C68.7645 187.128 66.3788 187.128 64.2738 186.566C57.1167 184.738 54.731 177.848 59.2217 171.801C60.6251 169.973 62.5898 168.567 63.0108 166.036C64.8351 164.208 64.5545 162.24 63.1511 160.552C58.2394 154.647 60.3444 149.022 63.9931 143.679C68.9049 139.882 70.8696 135.383 70.3082 128.633C68.9049 114.712 84.2015 99.5263 97.2527 100.932C103.989 101.776 109.181 104.729 110.164 112.322C100.2 110.072 94.5863 114.15 93.604 124.696C92.4813 135.664 96.6914 145.647 100.34 155.631C101.463 159.146 102.866 162.099 101.743 165.614Z" fill="#343963"/>
<path d="M155.492 227.343C155.632 231.562 155.211 235.78 155.913 239.858C157.316 248.576 157.457 248.857 148.475 248.857C147.493 248.857 146.651 248.857 145.669 248.857C139.774 234.374 131.214 222 117.601 213.704C120.408 204.423 118.163 195.143 117.601 185.581C115.637 187.69 113.532 189.94 111.567 192.049C111.146 188.112 112.97 184.878 115.356 181.925C119.847 176.02 120.268 169.692 117.601 162.943C117.742 162.661 117.742 162.38 117.461 162.099C117.742 161.537 118.022 160.974 118.443 160.412C121.11 157.599 121.811 153.943 123.074 150.569C125.32 144.663 127.986 139.179 134.301 136.648C135.705 140.304 136.266 144.241 137.248 148.038C139.073 154.787 137.669 163.646 148.335 165.896C145.528 167.723 142.441 167.864 143.283 171.661C146.511 185.019 149.317 198.377 152.685 211.735C153.106 213.704 154.089 210.892 154.931 210.892C155.211 216.375 155.352 221.859 155.492 227.343Z" fill="#343963"/>
<path d="M64.1334 143.679C60.3444 149.163 58.3797 154.646 63.2914 160.552C64.6948 162.24 64.9754 164.349 63.1511 166.036C53.7486 158.302 46.5915 148.6 40.6974 138.054C36.0663 129.617 31.8562 121.04 27.9268 112.463C25.8218 107.963 22.8747 105.432 17.8226 105.151C18.5243 103.182 20.7697 102.057 20.489 99.6669C20.91 96.5734 23.9974 96.4328 25.6814 94.8861C23.5764 93.48 21.331 92.2145 19.226 90.8083C18.384 89.9646 17.4016 89.121 16.5596 88.2773C15.2966 81.106 12.0689 73.9348 16.4193 66.7635C20.6293 70.1383 28.4882 65.9199 30.4529 73.7942C30.4529 74.0754 31.7159 74.0754 32.2772 73.9348C38.873 72.6693 43.3637 76.044 47.1528 80.9654C43.9251 86.5899 38.5923 89.9646 32.8386 92.6363C28.2075 94.8861 27.6461 97.9796 30.1722 101.495C40.8377 116.259 50.9419 131.164 64.1334 143.679Z" fill="#ECB29E"/>
<path d="M155.492 227.343C155.352 221.859 155.211 216.375 154.931 210.892C153.808 184.597 152.685 158.302 148.195 132.289C149.317 131.727 150.3 131.305 151.282 130.742C154.79 130.742 158.299 130.742 161.667 130.742C162.368 130.883 163.07 131.024 163.772 131.024C164.614 132.289 165.456 133.555 166.298 134.961C165.035 137.351 164.895 139.882 165.035 142.413C166.017 166.599 164.895 190.784 165.035 214.969C165.035 219.188 164.895 223.265 164.895 227.484C161.947 227.484 158.72 227.343 155.492 227.343ZM159.421 179.957C162.368 177.004 164.053 174.192 163.772 169.973C163.211 158.302 160.544 146.913 161.526 135.242C161.667 132.992 159.983 131.727 158.018 131.867C156.334 132.008 154.79 133.555 155.211 135.242C158.299 147.053 154.51 158.724 155.211 170.536C155.352 174.332 157.036 177.004 159.421 179.957Z" fill="#C1E7D8"/>
<path d="M148.335 132.148C152.826 158.162 153.948 184.456 155.071 210.751C154.229 210.751 153.247 213.563 152.826 211.595C149.458 198.236 146.791 184.878 143.423 171.52C142.441 167.723 145.669 167.583 148.475 165.755C137.81 163.505 139.213 154.646 137.389 147.897C136.406 144.101 135.845 140.163 134.442 136.507C138.652 133.976 143.142 131.867 148.335 132.148Z" fill="#1F2548"/>
<path d="M117.601 162.099C117.882 162.38 117.882 162.661 117.742 162.943C112.409 163.927 107.217 164.771 101.884 165.755C102.866 162.24 101.603 159.287 100.34 155.912C96.8317 145.929 92.6216 135.945 93.6039 124.977C94.5863 114.431 100.2 110.353 110.164 112.603C109.883 117.806 113.532 123.149 109.041 128.071H109.181C107.638 123.29 103.848 125.68 100.901 125.68C99.6384 125.68 99.077 127.227 99.6384 128.352C101.042 131.445 103.848 130.883 106.375 130.742C106.796 130.742 107.357 130.883 107.778 130.883C102.445 141.288 103.287 145.225 111.567 153.24C113.812 155.49 115.637 158.162 117.742 160.693C117.601 160.974 117.601 161.537 117.601 162.099Z" fill="#ECB29E"/>
<path d="M148.195 123.43C137.669 122.306 128.407 112.463 129.249 102.339C129.39 99.9481 124.899 97.6983 128.127 96.7141C135.003 94.6049 137.95 85.6057 146.511 86.7306C150.44 87.293 154.79 87.4336 155.913 81.3873C160.684 85.8869 160.684 90.3865 157.737 95.3079C155.913 95.4485 154.089 95.5892 152.264 95.5892C146.09 95.7298 143.283 98.9639 142.3 104.87C141.458 109.932 139.353 114.712 145.528 118.087C146.932 118.79 147.353 121.603 148.195 123.43Z" fill="#343963"/>
<path d="M148.195 123.43C147.353 121.603 147.072 118.79 145.669 117.947C139.494 114.572 141.599 109.791 142.441 104.729C143.423 98.8233 146.23 95.4486 152.405 95.4486C154.229 95.4486 156.053 95.3079 157.878 95.1673C162.649 101.917 165.175 109.088 161.386 117.103C159.281 121.743 163.351 126.102 161.947 130.602C158.439 130.602 154.931 130.602 151.563 130.602C151.001 128.071 150.721 125.118 148.195 123.43ZM156.334 109.791C154.65 110.354 151.563 108.807 151.563 112.041C151.563 114.572 153.808 115.275 156.053 115.275C158.299 115.275 160.544 114.572 160.544 112.041C160.684 109.088 158.158 110.072 156.334 109.791Z" fill="#ECB29E"/>
<path d="M276.181 90.3865C286.987 79.1375 297.792 67.8885 308.458 56.6394C306.493 53.9678 303.546 56.2176 301.862 54.3896C306.493 41.8751 306.493 41.8751 325.719 43.9843C323.334 49.187 323.614 56.6394 314.633 55.2333C313.791 55.0927 312.528 56.2176 311.826 56.9207C302.143 67.326 292.46 77.7313 282.777 88.1367C278.847 90.1053 277.163 95.0267 272.532 96.7141C272.111 93.1987 275.619 92.6363 276.181 90.3865Z" fill="#1F2548"/>
<path d="M47.1528 81.106C43.3638 76.1846 39.0133 72.8099 32.2772 74.0754C31.7159 74.216 30.4529 74.0754 30.4529 73.9348C28.4882 66.0605 20.489 70.2789 16.4193 66.9042C13.3319 63.5295 17.121 61.7015 17.963 59.1705C20.2084 60.7172 24.4184 55.6551 25.2604 61.5609C26.9445 60.9984 29.3302 68.3103 31.0142 60.8578C31.5755 58.7486 37.0486 61.139 40.4167 60.9984C38.5923 64.6544 45.1881 66.0605 42.8024 69.857C41.6797 70.2789 39.4344 70.1383 40.4167 71.9662C41.5394 74.0754 43.2234 73.513 44.2058 71.2632C47.0125 71.685 49.3982 71.8256 50.5209 75.3409C51.6436 78.9969 49.6789 79.9811 47.1528 81.106Z" fill="#4A5085"/>
<path d="M276.181 90.3865C275.619 92.6363 271.971 93.3394 272.672 96.8547C277.303 95.1673 278.988 90.2459 282.917 88.2773C288.39 91.7926 285.303 95.1673 282.356 97.6984C278.707 100.792 274.356 103.182 269.585 104.307C267.901 102.198 266.778 99.8075 266.077 97.1359C267.901 94.7455 270.287 92.6363 271.55 89.9647C273.795 85.0432 274.777 89.6834 276.181 90.3865Z" fill="#ECB29E"/>
<path d="M171.911 387.923C175.139 387.923 178.507 387.923 181.735 387.923C180.191 391.298 183.419 391.72 184.963 392.985C186.787 394.672 189.594 394.954 191.137 397.907C185.805 399.453 180.331 399.172 175.42 398.328C168.964 397.203 172.473 391.579 171.911 387.923Z" fill="#343963"/>
<path d="M166.579 134.961C165.737 133.695 164.895 132.289 164.052 131.024C169.666 124.696 175.279 126.243 179.209 135.101C178.647 136.226 178.226 137.211 177.665 138.335C173.174 139.882 170.368 135.664 166.579 134.961Z" fill="#ECB29E"/>
<path d="M72.4133 202.174C78.588 205.267 77.0443 210.47 75.7813 215.251C74.5183 219.61 71.2906 216.657 68.9049 216.375C67.9225 211.173 63.9931 205.126 72.4133 202.174Z" fill="#ECB29E"/>
<path d="M16.5596 88.4179C17.4016 89.2616 18.384 90.1053 19.226 90.9489C19.647 93.9018 10.8059 89.121 15.2966 95.5892C14.3143 97.4171 13.4722 99.3857 12.4899 101.214C8.42015 100.511 7.01679 99.1045 9.96384 95.1673C11.7882 92.4957 9.96384 86.4493 16.5596 88.4179Z" fill="#BEB3AA"/>
<path d="M12.4899 101.073C13.4722 99.2451 14.3142 97.2765 15.2966 95.4485C18.805 94.6049 19.0857 97.839 20.489 99.6669C20.7697 102.057 18.5243 103.182 17.8226 105.151C17.4016 105.291 16.9806 105.573 16.4193 105.713C14.5949 100.792 12.2092 106.557 10.2445 105.432C10.9462 104.026 11.6479 102.62 12.4899 101.073Z" fill="#8A8581"/>
<path d="M10.2445 105.573C12.2092 106.698 14.5949 100.932 16.4193 105.854C15.7176 111.9 12.0689 114.009 6.03442 113.447C9.68315 111.76 8.98148 108.104 10.2445 105.573Z" fill="#BEB3AA"/>
<path d="M109.041 127.789C108.901 128.914 108.901 130.039 107.638 130.602C107.638 129.477 107.778 128.493 109.041 127.789Z" fill="#ECB29E"/>
<path d="M117.601 162.099C117.601 161.537 117.601 160.974 117.601 160.412C117.882 160.271 118.163 160.271 118.443 160.412C118.163 160.974 117.882 161.537 117.601 162.099Z" fill="#F5F0B9"/>
<path d="M166.579 134.961C170.368 135.804 173.315 139.882 177.805 138.335C178.367 144.944 175.7 151.272 175.981 157.599C176.262 161.958 169.666 163.364 173.034 169.13C174.999 172.504 172.473 178.551 171.771 183.332C171.069 188.112 170.368 192.893 169.385 197.674C168.122 203.439 168.964 209.767 165.316 214.969C165.175 190.784 166.298 166.599 165.316 142.413C165.175 139.882 165.316 137.351 166.579 134.961Z" fill="#1F2548"/>
<path d="M20.489 99.6669C19.0857 97.839 18.805 94.6049 15.2966 95.4485C10.8059 88.9804 19.647 93.7612 19.226 90.8083C21.331 92.2144 23.5764 93.48 25.6814 94.8861C23.9974 96.4328 20.91 96.5734 20.489 99.6669Z" fill="#4A5085"/>
<path d="M159.421 179.957C157.036 177.004 155.352 174.473 155.071 170.676C154.51 158.865 158.158 147.194 155.071 135.383C154.65 133.695 156.194 132.148 157.878 132.008C159.842 131.867 161.667 133.133 161.386 135.383C160.544 147.053 163.07 158.584 163.631 170.114C164.052 174.051 162.368 177.004 159.421 179.957Z" fill="#343963"/>
<path d="M109.181 127.93C107.918 128.493 107.638 129.477 107.778 130.742C107.357 130.742 106.796 130.602 106.375 130.602C103.848 130.742 101.042 131.305 99.6384 128.211C99.0771 127.086 99.4981 125.54 100.901 125.54C103.708 125.54 107.497 123.149 109.181 127.93Z" fill="#FEFEFE"/>
<path d="M156.334 109.791C158.018 110.072 160.684 109.088 160.544 112.041C160.544 114.712 158.299 115.275 156.053 115.275C153.808 115.275 151.422 114.572 151.563 112.041C151.703 108.807 154.65 110.213 156.334 109.791Z" fill="#E1E6EE"/>
<path d="M44.0654 71.1225C43.0831 73.3723 41.3991 73.9348 40.2764 71.8256C39.294 69.9976 41.5394 70.1383 42.6621 69.7164C43.2234 70.2789 43.6444 70.7007 44.0654 71.1225Z" fill="#FEFEFE"/>
</g>
<defs>
<clipPath id="clip0">
<rect width="326" height="358" fill="white" transform="translate(0 43)"/>
</clipPath>
</defs>
</svg>
