<svg width="233" height="255" viewBox="0 0 233 255" fill="none" xmlns="http://www.w3.org/2000/svg">
<g clip-path="url(#clip0)">
<path d="M110.6 170.2C112.3 190.7 114.8 211.1 114.9 231.7C114.9 236.9 116.4 242.2 118.7 247.1C119.6 249 119.6 249.8 117.2 250.5C109.6 252.5 102 254 94.2 254.2C77.2 254.5 60.2 254.2 43.2 254.4C33.9 254.5 24.7 254.9 15.7 252.2C11.4 250.9 7.4 248.8 3.6 246.3C0.699997 244.4 -0.800003 242 0.599997 237.9C6.7 218.6 12 199.1 16.9 179.4C20.1 166.5 23.3 153.6 30 142C34.6 134.1 40.6 127.3 49.2 123.2C50.9 123.4 53.2 125.5 54.1 122.4C55.1 119 56.1 115.3 51.7 113.1C52.4 109.5 50.5 106 50.7 102.4C53.4 102.1 54.8 104.3 56.7 105.5C60.1 107.6 63.6 108.2 66.8 105.4C69.9 102.7 70 99.4 67.6 96.1C65.9 93.7 66.5 91.8 68.8 90.2C70.1 89.3 71.3 88.1 72.5 87C76.3 86.3 80 85.7 83.8 85C85.6 89.8 85.4 94.3 82.2 98.5C80.5 100.6 79.3 102.9 79.5 105.7C78.6 109.7 78.5 113.8 79.7 117.8C80.3 119.9 81.3 121.5 83.8 121.1C93.5 127.1 99.6 135.8 103.8 146.1C106.1 154.3 108.4 162.3 110.6 170.2Z" fill="#F5F0B9"/>
<path d="M192.1 43.6C179.1 54.7 166.8 66.6 150.9 73.6C147 75.3 141.6 76.5 139.8 79.7C138.1 82.8 140.1 87.9 140.5 92.2C141.9 108.1 143.2 124 144.6 139.9C145.2 146.5 145.1 146.5 138.5 146.5C133.2 146.5 127.8 146.4 122.5 146.4C120.5 146.4 118.9 146.3 118.8 143.6C118.6 139.5 118.1 135.3 117.8 131.2C117.8 128.2 117.9 125.3 117.9 122.3C120.5 118.6 120 114.1 120.8 110C121.5 106.6 122 103.2 122.5 99.8C123 96.4 124.8 92.1 123.4 89.7C121 85.5 125.7 84.5 125.5 81.5C125.3 77 127.2 72.4 126.8 67.8C127.2 67 127.5 66.3 127.9 65.5C147.9 60 166.2 50.7 184.4 41C186.1 40.1 188 39.4 189.8 38.6C190 40.4 190.9 42.1 192.1 43.6Z" fill="#343963"/>
<path d="M117.7 131.2C118.1 135.3 118.5 139.4 118.7 143.6C118.8 146.3 120.5 146.4 122.4 146.4C127.7 146.4 133.1 146.5 138.4 146.5C137.5 177.9 133.8 209.1 132.4 240.4C132.3 242.4 132.8 245 129.5 245.3C127.2 245.3 124.8 245.3 122.5 245.3C120.1 237.3 120.1 228.9 119 220.7C116.7 201.9 114.7 183 112.6 163.5C111.3 166 110.9 168.1 110.7 170.2C108.4 162.3 106.2 154.3 103.9 146.4C104.6 146.4 105.2 146.4 105.9 146.4C112.3 146.4 112.3 146.2 111.2 140C110.7 137.1 111 134.1 110.9 131.1C113.1 131.1 115.4 131.2 117.7 131.2Z" fill="#1F2548"/>
<path d="M72.5 87.2C71.3 88.3 70.1 89.5 68.8 90.4C66.5 92 65.9 93.9 67.6 96.3C70 99.6 69.9 102.9 66.8 105.6C63.6 108.3 60.1 107.8 56.7 105.7C54.8 104.5 53.4 102.3 50.7 102.6C49 102.5 47.3 102.5 45.8 102.1C40.7 100.8 39 95.9 42.2 91.6C43.2 90.3 44.6 89.3 44.9 87.5C46.2 86.2 46 84.8 45 83.6C41.5 79.4 43 75.4 45.6 71.6C49.1 68.9 50.5 65.7 50.1 60.9C49.1 51 60 40.2 69.3 41.2C74.1 41.8 77.8 43.9 78.5 49.3C71.4 47.7 67.4 50.6 66.7 58.1C65.9 65.9 68.9 73 71.5 80.1C72.3 82.6 73.3 84.7 72.5 87.2Z" fill="#343963"/>
<path d="M110.8 131.1C110.9 134.1 110.6 137.1 111.1 140C112.1 146.2 112.2 146.4 105.8 146.4C105.1 146.4 104.5 146.4 103.8 146.4C99.6 136.1 93.5 127.3 83.8 121.4C85.8 114.8 84.2 108.2 83.8 101.4C82.4 102.9 80.9 104.5 79.5 106C79.2 103.2 80.5 100.9 82.2 98.8C85.4 94.6 85.7 90.1 83.8 85.3C83.9 85.1 83.9 84.9 83.7 84.7C83.9 84.3 84.1 83.9 84.4 83.5C86.3 81.5 86.8 78.9 87.7 76.5C89.3 72.3 91.2 68.4 95.7 66.6C96.7 69.2 97.1 72 97.8 74.7C99.1 79.5 98.1 85.8 105.7 87.4C103.7 88.7 101.5 88.8 102.1 91.5C104.4 101 106.4 110.5 108.8 120C109.1 121.4 109.8 119.4 110.4 119.4C110.6 123.3 110.7 127.2 110.8 131.1Z" fill="#343963"/>
<path d="M45.7 71.6C43 75.5 41.6 79.4 45.1 83.6C46.1 84.8 46.3 86.3 45 87.5C38.3 82 33.2 75.1 29 67.6C25.7 61.6 22.7 55.5 19.9 49.4C18.4 46.2 16.3 44.4 12.7 44.2C13.2 42.8 14.8 42 14.6 40.3C14.9 38.1 17.1 38 18.3 36.9C16.8 35.9 15.2 35 13.7 34C13.1 33.4 12.4 32.8 11.8 32.2C10.9 27.1 8.6 22 11.7 16.9C14.7 19.3 20.3 16.3 21.7 21.9C21.7 22.1 22.6 22.1 23 22C27.7 21.1 30.9 23.5 33.6 27C31.3 31 27.5 33.4 23.4 35.3C20.1 36.9 19.7 39.1 21.5 41.6C29.1 52.1 36.3 62.7 45.7 71.6Z" fill="#ECB29E"/>
<path d="M110.8 131.1C110.7 127.2 110.6 123.3 110.4 119.4C109.6 100.7 108.8 82 105.6 63.5C106.4 63.1 107.1 62.8 107.8 62.4C110.3 62.4 112.8 62.4 115.2 62.4C115.7 62.5 116.2 62.6 116.7 62.6C117.3 63.5 117.9 64.4 118.5 65.4C117.6 67.1 117.5 68.9 117.6 70.7C118.3 87.9 117.5 105.1 117.6 122.3C117.6 125.3 117.5 128.2 117.5 131.2C115.4 131.2 113.1 131.1 110.8 131.1ZM113.6 97.4C115.7 95.3 116.9 93.3 116.7 90.3C116.3 82 114.4 73.9 115.1 65.6C115.2 64 114 63.1 112.6 63.2C111.4 63.3 110.3 64.4 110.6 65.6C112.8 74 110.1 82.3 110.6 90.7C110.7 93.4 111.9 95.3 113.6 97.4Z" fill="#C1E7D8"/>
<path d="M105.7 63.4C108.9 81.9 109.7 100.6 110.5 119.3C109.9 119.3 109.2 121.3 108.9 119.9C106.5 110.4 104.6 100.9 102.2 91.4C101.5 88.7 103.8 88.6 105.8 87.3C98.2 85.7 99.2 79.4 97.9 74.6C97.2 71.9 96.8 69.1 95.8 66.5C98.8 64.7 102 63.2 105.7 63.4Z" fill="#1F2548"/>
<path d="M83.8 84.7C84 84.9 84 85.1 83.9 85.3C80.1 86 76.4 86.6 72.6 87.3C73.3 84.8 72.4 82.7 71.5 80.3C69 73.2 66 66.1 66.7 58.3C67.4 50.8 71.4 47.9 78.5 49.5C78.3 53.2 80.9 57 77.7 60.5H77.8C76.7 57.1 74 58.8 71.9 58.8C71 58.8 70.6 59.9 71 60.7C72 62.9 74 62.5 75.8 62.4C76.1 62.4 76.5 62.5 76.8 62.5C73 69.9 73.6 72.7 79.5 78.4C81.1 80 82.4 81.9 83.9 83.7C83.8 83.9 83.8 84.3 83.8 84.7Z" fill="#ECB29E"/>
<path d="M105.6 57.2C98.1 56.4 91.5 49.4 92.1 42.2C92.2 40.5 89 38.9 91.3 38.2C96.2 36.7 98.3 30.3 104.4 31.1C107.2 31.5 110.3 31.6 111.1 27.3C114.5 30.5 114.5 33.7 112.4 37.2C111.1 37.3 109.8 37.4 108.5 37.4C104.1 37.5 102.1 39.8 101.4 44C100.8 47.6 99.3 51 103.7 53.4C104.7 53.9 105 55.9 105.6 57.2Z" fill="#343963"/>
<path d="M105.6 57.2C105 55.9 104.8 53.9 103.8 53.3C99.4 50.9 100.9 47.5 101.5 43.9C102.2 39.7 104.2 37.3 108.6 37.3C109.9 37.3 111.2 37.2 112.5 37.1C115.9 41.9 117.7 47 115 52.7C113.5 56 116.4 59.1 115.4 62.3C112.9 62.3 110.4 62.3 108 62.3C107.6 60.5 107.4 58.4 105.6 57.2ZM111.4 47.5C110.2 47.9 108 46.8 108 49.1C108 50.9 109.6 51.4 111.2 51.4C112.8 51.4 114.4 50.9 114.4 49.1C114.5 47 112.7 47.7 111.4 47.5Z" fill="#ECB29E"/>
<path d="M196.8 33.7C204.5 25.7 212.2 17.7 219.8 9.7C218.4 7.8 216.3 9.4 215.1 8.1C218.4 -0.799997 218.4 -0.799998 232.1 0.700002C230.4 4.4 230.6 9.7 224.2 8.7C223.6 8.6 222.7 9.4 222.2 9.9C215.3 17.3 208.4 24.7 201.5 32.1C198.7 33.5 197.5 37 194.2 38.2C193.9 35.7 196.4 35.3 196.8 33.7Z" fill="#1F2548"/>
<path d="M33.6 27.1C30.9 23.6 27.8 21.2 23 22.1C22.6 22.2 21.7 22.1 21.7 22C20.3 16.4 14.6 19.4 11.7 17C9.5 14.6 12.2 13.3 12.8 11.5C14.4 12.6 17.4 9 18 13.2C19.2 12.8 20.9 18 22.1 12.7C22.5 11.2 26.4 12.9 28.8 12.8C27.5 15.4 32.2 16.4 30.5 19.1C29.7 19.4 28.1 19.3 28.8 20.6C29.6 22.1 30.8 21.7 31.5 20.1C33.5 20.4 35.2 20.5 36 23C36.8 25.6 35.4 26.3 33.6 27.1Z" fill="#4A5085"/>
<path d="M196.8 33.7C196.4 35.3 193.8 35.8 194.3 38.3C197.6 37.1 198.8 33.6 201.6 32.2C205.5 34.7 203.3 37.1 201.2 38.9C198.6 41.1 195.5 42.8 192.1 43.6C190.9 42.1 190.1 40.4 189.6 38.5C190.9 36.8 192.6 35.3 193.5 33.4C195.1 29.9 195.8 33.2 196.8 33.7Z" fill="#ECB29E"/>
<path d="M122.5 245.3C124.8 245.3 127.2 245.3 129.5 245.3C128.4 247.7 130.7 248 131.8 248.9C133.1 250.1 135.1 250.3 136.2 252.4C132.4 253.5 128.5 253.3 125 252.7C120.4 251.9 122.9 247.9 122.5 245.3Z" fill="#343963"/>
<path d="M118.7 65.4C118.1 64.5 117.5 63.5 116.9 62.6C120.9 58.1 124.9 59.2 127.7 65.5C127.3 66.3 127 67 126.6 67.8C123.4 68.9 121.4 65.9 118.7 65.4Z" fill="#ECB29E"/>
<path d="M51.6 113.2C56 115.4 54.9 119.1 54 122.5C53.1 125.6 50.8 123.5 49.1 123.3C48.4 119.6 45.6 115.3 51.6 113.2Z" fill="#ECB29E"/>
<path d="M11.8 32.3C12.4 32.9 13.1 33.5 13.7 34.1C14 36.2 7.7 32.8 10.9 37.4C10.2 38.7 9.6 40.1 8.9 41.4C6 40.9 5 39.9 7.1 37.1C8.4 35.2 7.1 30.9 11.8 32.3Z" fill="#BEB3AA"/>
<path d="M8.9 41.3C9.6 40 10.2 38.6 10.9 37.3C13.4 36.7 13.6 39 14.6 40.3C14.8 42 13.2 42.8 12.7 44.2C12.4 44.3 12.1 44.5 11.7 44.6C10.4 41.1 8.7 45.2 7.3 44.4C7.8 43.4 8.3 42.4 8.9 41.3Z" fill="#8A8581"/>
<path d="M7.3 44.5C8.7 45.3 10.4 41.2 11.7 44.7C11.2 49 8.6 50.5 4.3 50.1C6.9 48.9 6.4 46.3 7.3 44.5Z" fill="#BEB3AA"/>
<path d="M77.7 60.3C77.6 61.1 77.6 61.9 76.7 62.3C76.7 61.5 76.8 60.8 77.7 60.3Z" fill="#ECB29E"/>
<path d="M83.8 84.7C83.8 84.3 83.8 83.9 83.8 83.5C84 83.4 84.2 83.4 84.4 83.5C84.2 83.9 84 84.3 83.8 84.7Z" fill="#F5F0B9"/>
<path d="M118.7 65.4C121.4 66 123.5 68.9 126.7 67.8C127.1 72.5 125.2 77 125.4 81.5C125.6 84.6 120.9 85.6 123.3 89.7C124.7 92.1 122.9 96.4 122.4 99.8C121.9 103.2 121.4 106.6 120.7 110C119.8 114.1 120.4 118.6 117.8 122.3C117.7 105.1 118.5 87.9 117.8 70.7C117.7 68.9 117.8 67.1 118.7 65.4Z" fill="#1F2548"/>
<path d="M14.6 40.3C13.6 39 13.4 36.7 10.9 37.3C7.7 32.7 14 36.1 13.7 34C15.2 35 16.8 35.9 18.3 36.9C17.1 38 14.9 38.1 14.6 40.3Z" fill="#4A5085"/>
<path d="M113.6 97.4C111.9 95.3 110.7 93.5 110.5 90.8C110.1 82.4 112.7 74.1 110.5 65.7C110.2 64.5 111.3 63.4 112.5 63.3C113.9 63.2 115.2 64.1 115 65.7C114.4 74 116.2 82.2 116.6 90.4C116.9 93.2 115.7 95.3 113.6 97.4Z" fill="#343963"/>
<path d="M77.8 60.4C76.9 60.8 76.7 61.5 76.8 62.4C76.5 62.4 76.1 62.3 75.8 62.3C74 62.4 72 62.8 71 60.6C70.6 59.8 70.9 58.7 71.9 58.7C73.9 58.7 76.6 57 77.8 60.4Z" fill="#FEFEFE"/>
<path d="M111.4 47.5C112.6 47.7 114.5 47 114.4 49.1C114.4 51 112.8 51.4 111.2 51.4C109.6 51.4 107.9 50.9 108 49.1C108.1 46.8 110.2 47.8 111.4 47.5Z" fill="#E1E6EE"/>
<path d="M31.4 20C30.7 21.6 29.5 22 28.7 20.5C28 19.2 29.6 19.3 30.4 19C30.8 19.4 31.1 19.7 31.4 20Z" fill="#FEFEFE"/>
</g>
<defs>
<clipPath id="clip0">
<rect width="232.3" height="254.6" fill="white"/>
</clipPath>
</defs>
</svg>
