<svg width="41" height="40" viewBox="0 0 41 40" fill="none" xmlns="http://www.w3.org/2000/svg">
<path d="M36.0296 40H35.7634C4.99434 38.2615 0.625599 12.7538 0.0149145 4.96923C-0.0342922 4.36397 0.0385412 3.75512 0.229241 3.17756C0.419941 2.6 0.724759 2.06508 1.12623 1.60346C1.5277 1.14185 2.01794 0.762597 2.56884 0.487445C3.11975 0.212294 3.7205 0.0466489 4.33668 1.44245e-06H12.9646C13.5918 -0.000595117 14.2047 0.183862 14.724 0.529481C15.2433 0.8751 15.645 1.36595 15.877 1.93846L18.2571 7.69231C18.4863 8.25161 18.5432 8.86474 18.4207 9.45553C18.2982 10.0463 18.0018 10.5887 17.5682 11.0154L14.2329 14.3231C14.7539 17.2319 16.1717 19.9133 18.2946 22.0046C20.4174 24.0958 23.1428 25.4958 26.1021 26.0154L29.5 22.7077C29.9408 22.2864 30.4981 22.0019 31.1023 21.8898C31.7066 21.7776 32.3311 21.8427 32.8979 22.0769L38.8012 24.4C39.3751 24.6352 39.8648 25.033 40.2078 25.5426C40.5508 26.0522 40.7316 26.6506 40.7272 27.2615V35.3846C40.7272 36.6087 40.2323 37.7826 39.3513 38.6482C38.4703 39.5137 37.2755 40 36.0296 40ZM4.71249 3.07692C4.29719 3.07692 3.89891 3.23901 3.60526 3.52753C3.3116 3.81605 3.14663 4.20736 3.14663 4.61539V4.73846C3.86692 13.8462 8.4862 35.3846 35.9357 36.9231C36.1414 36.9356 36.3476 36.908 36.5424 36.8421C36.7373 36.7761 36.917 36.673 37.0712 36.5386C37.2254 36.4042 37.3511 36.2413 37.4411 36.0591C37.531 35.8769 37.5835 35.6791 37.5955 35.4769V27.2615L31.6922 24.9385L27.1982 29.3231L26.4466 29.2308C12.8236 27.5538 10.9759 14.1692 10.9759 14.0308L10.882 13.2923L15.329 8.87693L12.9802 3.07692H4.71249Z" fill="#BEB3AA"/>
</svg>
