<svg width="54" height="41" viewBox="0 0 54 41" fill="none" xmlns="http://www.w3.org/2000/svg">
<path fill-rule="evenodd" clip-rule="evenodd" d="M50 40.4121C50 40.4121 53.3333 40.4121 53.3333 37.0788C53.3333 33.7454 50 23.7454 36.6667 23.7454C23.3333 23.7454 20 33.7454 20 37.0788C20 40.4121 23.3333 40.4121 23.3333 40.4121H50ZM23.35 37.2654V37.2588V37.2654ZM23.4067 37.0788H49.9267C49.9423 37.077 49.9578 37.0747 49.9733 37.0721L50 37.0654C49.9933 36.1854 49.4433 33.6321 47.4667 31.3321C45.6267 29.1754 42.3933 27.0788 36.6667 27.0788C30.9433 27.0788 27.71 29.1788 25.8667 31.3321C23.89 33.6321 23.3367 36.1888 23.3333 37.0654C23.3577 37.0701 23.3822 37.0746 23.4067 37.0788ZM49.9833 37.2654V37.2588V37.2654ZM36.6667 17.0788C38.4348 17.0788 40.1305 16.3764 41.3807 15.1262C42.631 13.8759 43.3333 12.1802 43.3333 10.4121C43.3333 8.644 42.631 6.94831 41.3807 5.69806C40.1305 4.44782 38.4348 3.74544 36.6667 3.74544C34.8986 3.74544 33.2029 4.44782 31.9526 5.69806C30.7024 6.94831 30 8.644 30 10.4121C30 12.1802 30.7024 13.8759 31.9526 15.1262C33.2029 16.3764 34.8986 17.0788 36.6667 17.0788ZM46.6667 10.4121C46.6667 11.7253 46.408 13.0257 45.9055 14.2389C45.4029 15.4522 44.6663 16.5546 43.7377 17.4832C42.8092 18.4118 41.7068 19.1484 40.4935 19.6509C39.2802 20.1535 37.9799 20.4121 36.6667 20.4121C35.3534 20.4121 34.0531 20.1535 32.8398 19.6509C31.6266 19.1484 30.5242 18.4118 29.5956 17.4832C28.667 16.5546 27.9304 15.4522 27.4279 14.2389C26.9253 13.0257 26.6667 11.7253 26.6667 10.4121C26.6667 7.75994 27.7202 5.21641 29.5956 3.34104C31.471 1.46568 34.0145 0.412109 36.6667 0.412109C39.3188 0.412109 41.8624 1.46568 43.7377 3.34104C45.6131 5.21641 46.6667 7.75994 46.6667 10.4121ZM23.12 24.6788C21.7866 24.2589 20.4121 23.9829 19.02 23.8554C18.2378 23.7811 17.4524 23.7444 16.6667 23.7454C3.33333 23.7454 0 33.7454 0 37.0788C0 39.3021 1.11 40.4121 3.33333 40.4121H17.3867C16.8925 39.3715 16.6461 38.2306 16.6667 37.0788C16.6667 33.7121 17.9233 30.2721 20.3 27.3988C21.11 26.4188 22.0533 25.5021 23.12 24.6788ZM16.4 27.0788C10.84 27.1454 7.68333 29.2121 5.86667 31.3321C3.87667 33.6454 3.33333 36.2088 3.33333 37.0788H13.3333C13.3333 33.5954 14.41 30.1254 16.4 27.0788ZM5 12.0788C5 9.42661 6.05357 6.88307 7.92893 5.00771C9.8043 3.13234 12.3478 2.07878 15 2.07878C17.6522 2.07878 20.1957 3.13234 22.0711 5.00771C23.9464 6.88307 25 9.42661 25 12.0788C25 14.7309 23.9464 17.2745 22.0711 19.1498C20.1957 21.0252 17.6522 22.0788 15 22.0788C12.3478 22.0788 9.8043 21.0252 7.92893 19.1498C6.05357 17.2745 5 14.7309 5 12.0788ZM15 5.41211C13.2319 5.41211 11.5362 6.11449 10.286 7.36473C9.03571 8.61497 8.33333 10.3107 8.33333 12.0788C8.33333 13.8469 9.03571 15.5426 10.286 16.7928C11.5362 18.0431 13.2319 18.7454 15 18.7454C16.7681 18.7454 18.4638 18.0431 19.714 16.7928C20.9643 15.5426 21.6667 13.8469 21.6667 12.0788C21.6667 10.3107 20.9643 8.61497 19.714 7.36473C18.4638 6.11449 16.7681 5.41211 15 5.41211Z" fill="#BEB3AA"/>
</svg>
